<svg id="Icons" xmlns="http://www.w3.org/2000/svg" viewBox="0 0 48 48"><defs><style>.cls-1{fill:#bdd6ff;}.cls-2{fill:#2b72ff;}</style></defs><title>Muslim Man (India Headscarf) 2</title><path class="cls-1" d="M41,39c-2-6-9-6-9-6l-1-5a9.42,9.42,0,0,0,3-7c0-.35,0-.67,0-1h0v-.13h0V18h1V12s-1-2-2-2V6c-.92-2.73-8-3-8-3V4c4.19.84,4.87,3.48,5,4.64L30,8a22.24,22.24,0,0,0-6,0c5,2,4.64,5.94,5,8,0,0-.16.22.92.75v1.93a18.45,18.45,0,0,1-.26,4.8C29,26.57,27.5,30,24,30V46h4V36s6,0,8,2c1.48,1.48,1.94,4.67,2.62,6.78A1.8,1.8,0,0,0,40.34,46H43S43,45,41,39Z"/><path class="cls-2" d="M15.19,32.1c-.7.1-1.78.27-2.61.48A10.25,10.25,0,0,0,5.47,39l0,.1L4,44.76A1,1,0,0,0,6,45.24l1.4-5.58a8.25,8.25,0,0,1,5.71-5.15A27.63,27.63,0,0,1,15.82,34L19,35.62V45a1,1,0,0,0,2,0V36.62l2.55,1.28h0a.9.9,0,0,0,.8,0h0L27,36.62V45a1,1,0,0,0,2,0V35.62L32.18,34a27.48,27.48,0,0,1,2.75.48,8.25,8.25,0,0,1,5.71,5.15L42,45.24A1,1,0,0,0,44,44.76l-1.41-5.63,0-.1a10.25,10.25,0,0,0-7.11-6.45c-.83-.21-1.91-.38-2.61-.48L32,28.76a.94.94,0,0,0-.06-.13A11,11,0,0,0,35,21V19a1,1,0,0,0,1-1V14a6.19,6.19,0,0,0-2-4.79V8.06A6,6,0,0,0,28,2H21a6.21,6.21,0,0,0-5.77,4.16,1,1,0,0,0-.07.09,3.65,3.65,0,0,0-1.73,2,1,1,0,0,0,0,.16l-.27,1.73A1.9,1.9,0,0,0,12,12v6a1,1,0,0,0,1,1v2a11,11,0,0,0,3.09,7.63.94.94,0,0,0-.06.13ZM23,35.38l-5.84-2.92.6-2.41A10.93,10.93,0,0,0,23,31.95Zm2,0V31.95a10.93,10.93,0,0,0,5.23-1.9l.6,2.41ZM21,4h7a3.94,3.94,0,0,1,4,3.89,17.33,17.33,0,0,0-5.93-1.4c-.68-.06-5.61-.52-8.5-.55A4.05,4.05,0,0,1,21,4ZM15.35,8.85A1.45,1.45,0,0,1,16.17,8a78.18,78.18,0,0,1,9.71.5c3.28.27,5.22,1,6.39,1.92a1,1,0,0,0,.21.16A4.12,4.12,0,0,1,34,14v2.87A22.17,22.17,0,0,1,29.54,15a31.91,31.91,0,0,0-4.22-1.91c-3.23-1.08-8.17-2.31-10.19-2.81ZM14,12c.87.21,4.13,1,7.22,1.87-.77.33-1.53.72-2.28,1.11A16.49,16.49,0,0,1,14,16.92Zm1,9V18.77a20.34,20.34,0,0,0,4.86-2,12.58,12.58,0,0,1,5-1.78,32.08,32.08,0,0,1,3.78,1.73A27.14,27.14,0,0,0,33,18.67V21a9,9,0,0,1-18,0Z"/><circle class="cls-2" cx="24" cy="41" r="1"/><circle class="cls-2" cx="20" cy="19" r="1"/><circle class="cls-2" cx="28" cy="19" r="1"/><circle class="cls-2" cx="24" cy="45" r="1"/></svg>