<svg id="Icons" xmlns="http://www.w3.org/2000/svg" viewBox="0 0 48 48"><defs><style>.cls-1{fill:#bdd6ff;}.cls-2{fill:#2b72ff;}</style></defs><title>Muslim Woman (Stylish Hijab)</title><path class="cls-1" d="M43,42a29.54,29.54,0,0,0-3-6H39v-.82c-.47.54-1,1.06-1.55,1.68l-.6.72a2.4,2.4,0,0,1,.49,1c.6,1.22,1.38,3.88,1.93,5.4a3.11,3.11,0,0,0,2.93,2H44A15.77,15.77,0,0,0,43,42Z"/><path class="cls-1" d="M37,38s-1-3-3-3c0,0,1-5-2-5,0,0,1-8,1-10a10.34,10.34,0,0,0-1-4,54.43,54.43,0,0,0-5.1-7.64A12.64,12.64,0,0,1,24,3h0S37,6,37,17v6a4.33,4.33,0,0,1,2,4c0,3-1,3-1,3s1,0,1,3,1,4,1,4"/><circle class="cls-2" cx="20" cy="19" r="1"/><circle class="cls-2" cx="28" cy="19" r="1"/><path class="cls-2" d="M44.94,44.66,42.53,38a10.26,10.26,0,0,0-2.35-3.72,1,1,0,0,0-.2-.13c0-.06,0-.12,0-.18a7.48,7.48,0,0,0-.93-4.29A8.62,8.62,0,0,0,40,26a4.42,4.42,0,0,0-2-3.55V18C38,9.32,29.4,2,24,2,18.28,2,10,7.7,10,18a47,47,0,0,1-.54,6A40.49,40.49,0,0,0,9,29a11.49,11.49,0,0,0,.47,3.24,13,13,0,0,0-4,5.78L3.06,44.66a1,1,0,1,0,1.88.68l2.41-6.63a11.28,11.28,0,0,1,2.89-4.52A12.17,12.17,0,0,0,16,39.65a14.63,14.63,0,0,0-2,5.21A1,1,0,0,0,14.86,46H15a1,1,0,0,0,1-.86c.93-6.49,10.44-14.21,10.63-14.36l0,0h0l0,0c.4-.4,1-.89,1.56-1.4C30.69,27.22,34,24.37,34,21a1,1,0,0,0,0-.14l-.64-4.43a7.15,7.15,0,0,0-2.81-4.74L27,9a5,5,0,0,0-6,0l-3.54,2.65a7.16,7.16,0,0,0-2.81,4.74L14,20.83A1,1,0,0,0,14,21a9.71,9.71,0,0,0,3,6.86A10.48,10.48,0,0,0,23.38,31a44.83,44.83,0,0,0-6.27,7A9.64,9.64,0,0,1,11,29a39,39,0,0,1,.45-4.73A48.55,48.55,0,0,0,12,18C12,8.23,19.95,4,24,4c4.52,0,12,6.54,12,14v5c0,2-4.3,6.1-6.87,8.53-.68.65-1.32,1.25-1.84,1.76-4.48,4.48-7.18,8.21-8.24,11.39a1,1,0,1,0,1.9.63c1-2.88,3.5-6.35,7.76-10.61.51-.51,1.13-1.09,1.8-1.73,3.24-3.07,6-5.85,7.06-8.2A2,2,0,0,1,38,26c0,3-2.83,6.26-5.72,9.31-.77.81-1.56,1.62-2.32,2.4-2.67,2.74-5,5.11-5.85,6.84a1,1,0,0,0,1.79.89c.72-1.45,3-3.82,5.49-6.34.77-.79,1.56-1.6,2.34-2.42a41.3,41.3,0,0,0,4.09-4.83A10.73,10.73,0,0,1,38,34a5.86,5.86,0,0,1-1.71,3.29c-1,1-5.86,6.82-6.06,7.07a1,1,0,0,0,1.54,1.28c1.72-2.06,5.17-6.17,5.94-6.93a9.07,9.07,0,0,0,1.64-2.33,8.27,8.27,0,0,1,1.3,2.33l2.41,6.63a1,1,0,1,0,1.88-.68ZM18.65,13.26l3.54-2.65a3,3,0,0,1,3.62,0l3.54,2.65a5.19,5.19,0,0,1,1,1A19.46,19.46,0,0,0,24,13a19.46,19.46,0,0,0-6.3,1.21A5.19,5.19,0,0,1,18.65,13.26Zm-.21,13.15A7.76,7.76,0,0,1,16,21l.61-4.22A19.46,19.46,0,0,1,24,15a19.55,19.55,0,0,1,7.39,1.82L32,21c-.05,2.46-2.93,4.94-5,6.75-.49.42-1,.83-1.36,1.21L24,29h0A8.33,8.33,0,0,1,18.45,26.41Z"/></svg>