<svg id="Icons" xmlns="http://www.w3.org/2000/svg" viewBox="0 0 48 48"><defs><style>.cls-1{fill:#bdd6ff;}.cls-2{fill:#2b72ff;}</style></defs><title>Muslim Man (No Kopyah)</title><path class="cls-1" d="M42,38c-2.41-7.22-10-7-10-7l-1-4.8A7.65,7.65,0,0,0,34,20V9s0-6-10-6V4s6,1,6,5v9c0,3-1,9-6,9V45h3V33h2a10.82,10.82,0,0,1,7,3c1.47,1.47,2.94,5.64,3.62,7.75A1.81,1.81,0,0,0,41.34,45H44S44,44,42,38Z"/><path class="cls-2" d="M15.19,29.1c-.7.1-1.78.27-2.61.48a10.27,10.27,0,0,0-7.13,6.49L3,43.7A1,1,0,0,0,3.7,45,1,1,0,0,0,4,45a1,1,0,0,0,1-.7l2.4-7.59a8.25,8.25,0,0,1,5.72-5.2A27.63,27.63,0,0,1,15.82,31L19,32.62V44a1,1,0,0,0,2,0V33.62l2.55,1.28h0a.9.9,0,0,0,.8,0h0L27,33.62V44a1,1,0,0,0,2,0V32.62L32.18,31a27.48,27.48,0,0,1,2.75.48,8.23,8.23,0,0,1,5.71,5.16L43,44.3a1,1,0,0,0,1,.7,1,1,0,0,0,.3,0A1,1,0,0,0,45,43.7L42.53,36a10.25,10.25,0,0,0-7.11-6.45c-.83-.21-1.91-.38-2.61-.48L32,25.76a1,1,0,0,0-.06-.13A11,11,0,0,0,35,18V15a1,1,0,0,0,1-1.09l-.39-4.25A8.38,8.38,0,0,0,27.22,2H20.78a8.38,8.38,0,0,0-8.39,7.66L12,13.91A1,1,0,0,0,13,15v3a11,11,0,0,0,3.09,7.63.94.94,0,0,0-.06.13ZM23,32.38l-5.84-2.92.6-2.41A10.93,10.93,0,0,0,23,28.95Zm2,0V28.95a10.93,10.93,0,0,0,5.23-1.9l.6,2.41ZM14.38,9.84A6.39,6.39,0,0,1,20.78,4h6.44a6.39,6.39,0,0,1,6.4,5.84L33.9,13H25c-3.3,0-5.08-3.39-5.11-3.45A1,1,0,0,0,19,9a1,1,0,0,0-.89.55,6.94,6.94,0,0,1-4,3.32ZM15,18V14.7a8.3,8.3,0,0,0,4-2.89A7.68,7.68,0,0,0,25,15h8v3a9,9,0,0,1-18,0Z"/><circle class="cls-2" cx="24" cy="39" r="1"/><circle class="cls-2" cx="20" cy="16" r="1"/><circle class="cls-2" cx="28" cy="16" r="1"/><circle class="cls-2" cx="24" cy="44" r="1"/></svg>