<svg id="Icons" xmlns="http://www.w3.org/2000/svg" viewBox="0 0 48 48"><defs><style>.cls-1{fill:#bdd6ff;}.cls-2{fill:#2b72ff;}</style></defs><title>Muslim Man (India Headscarf)</title><path class="cls-1" d="M41,39c-2-6-9-6-9-6l-1-5a9.42,9.42,0,0,0,3-7c0-.35,0-.67,0-1h0v-.13h0V18h1V9s0,.41-1.08.71l-1-4C31.72,1.05,25,2,25,2V3a6.1,6.1,0,0,1,5,5.64V9.93A11.47,11.47,0,0,1,24,7a10.17,10.17,0,0,0,5.92,9.75v1.93a18.45,18.45,0,0,1-.26,4.8C29,26.57,27.5,30,24,30V46h4V36s6,0,8,2c1.48,1.48,1.94,4.67,2.62,6.78A1.8,1.8,0,0,0,40.34,46H43S43,45,41,39Z"/><path class="cls-2" d="M4.76,46A1,1,0,0,0,5,46a1,1,0,0,0,1-.76l1.4-5.58a8.25,8.25,0,0,1,5.71-5.15A27.88,27.88,0,0,1,15.82,34L19,35.62V45a1,1,0,0,0,2,0V36.62l2.55,1.28h0a.9.9,0,0,0,.8,0h0L27,36.62V45a1,1,0,0,0,2,0V35.62L32.18,34c.57.08,1.86.26,2.75.48a8.25,8.25,0,0,1,5.71,5.15L42,45.24A1,1,0,0,0,43,46a1,1,0,0,0,.24,0A1,1,0,0,0,44,44.76l-1.41-5.63,0-.1a10.25,10.25,0,0,0-7.11-6.45c-.83-.21-1.91-.38-2.61-.48L32,28.76a1,1,0,0,0-.06-.13A11,11,0,0,0,35,21V19a2.27,2.27,0,0,0,2-2.24V13a1,1,0,0,0-1-1V9a1,1,0,0,0-.6-.9A1,1,0,0,0,34.94,8c-.48-4.18-4-7-8.94-7H22c-4.92,0-8.45,2.84-8.94,7A1,1,0,0,0,12,9v3a1,1,0,0,0-1,1v3.73A2.27,2.27,0,0,0,13,19v2a11,11,0,0,0,3.09,7.63,1,1,0,0,0-.06.13L15.2,32.1c-.7.1-1.78.27-2.61.48A10.25,10.25,0,0,0,5.47,39l0,.1L4,44.76A1,1,0,0,0,4.76,46ZM23,35.38l-5.83-2.92.6-2.41A10.93,10.93,0,0,0,23,31.95Zm2,0V31.95a10.93,10.93,0,0,0,5.23-1.9l.6,2.41ZM35,14.64v2.09a.27.27,0,0,1-.27.27,9.74,9.74,0,0,1-9.13-6.38,11.69,11.69,0,0,0,6.87,4.16A5.15,5.15,0,0,0,35,14.64Zm-1-1.83a3.15,3.15,0,0,1-1.16,0,9.67,9.67,0,0,1-5.26-3A6.62,6.62,0,0,0,31,11a10.22,10.22,0,0,0,3-.39ZM26,3c3.43,0,6.87,1.8,7,5.8A8.87,8.87,0,0,1,31,9a5.8,5.8,0,0,1-3-1.28A7,7,0,0,1,25.08,3ZM22,3h.92A7,7,0,0,1,20,7.72l-.53.39A3.33,3.33,0,0,1,17,9a7.38,7.38,0,0,1-2-.31C15.19,4.77,18.61,3,22,3Zm-8,7.47A9.93,9.93,0,0,0,17,11a5.09,5.09,0,0,0,3.26-1,9.67,9.67,0,0,1-5.11,2.79,3.13,3.13,0,0,1-1.16,0Zm-1,6.26V14.64a5.17,5.17,0,0,0,2.54.14,11.69,11.69,0,0,0,6.87-4.16A9.74,9.74,0,0,1,13.27,17,.27.27,0,0,1,13,16.73ZM15,21V18.86A11.75,11.75,0,0,0,24,12a11.75,11.75,0,0,0,9,6.87V21a9,9,0,0,1-18,0Z"/><circle class="cls-2" cx="24" cy="41" r="1"/><circle class="cls-2" cx="24" cy="45" r="1"/><circle class="cls-2" cx="20" cy="19" r="1"/><circle class="cls-2" cx="28" cy="19" r="1"/></svg>