<svg id="Icons" xmlns="http://www.w3.org/2000/svg" viewBox="0 0 48 48"><defs><style>.cls-1{fill:#bdd6ff;}.cls-2{fill:#2b72ff;}</style></defs><title>Muslim Woman (Burqa)</title><path class="cls-1" d="M43,41a29.54,29.54,0,0,0-3-6h0a3.07,3.07,0,0,0-1-1s0-6-1-8a33.65,33.65,0,0,1-2-9c-.37-4.19-.69-7.82-2-10C31,2,24,3,24,3V4c8,2,9,9.67,9,17h0l-1,2s-4.68,7.48-.46,19.73a.36.36,0,0,0,0,.09c.16.4.32.76.47,1.1A3.47,3.47,0,0,0,35.22,46H37V45h7A15.77,15.77,0,0,0,43,41Z"/><circle class="cls-2" cx="20" cy="19" r="1"/><circle class="cls-2" cx="28" cy="19" r="1"/><path class="cls-2" d="M42.52,37A8.36,8.36,0,0,0,40,33.48V33a33.3,33.3,0,0,0-1.27-7.53A47,47,0,0,1,37,14V12A10,10,0,0,0,27,2H21A10,10,0,0,0,11,12v2A55,55,0,0,1,9.26,26.06,43.09,43.09,0,0,0,8,33.47,8.42,8.42,0,0,0,5.47,37L3.06,43.66a1,1,0,0,0,1.88.68l2.4-6.61a5.82,5.82,0,0,1,2.14-2.86A1,1,0,0,0,10,34a37.46,37.46,0,0,1,1.21-7.5A56.57,56.57,0,0,0,13,14V12.79l2-.45c0,3.5-.35,8.92-.62,13.31C14.17,28.91,14,31.73,14,33c0,4.67-3.83,11.44-3.87,11.5a1,1,0,1,0,1.74,1C12,45.2,16,38.21,16,33c0-1.21.17-4,.37-7.23,0-.79.1-1.62.15-2.46A27.82,27.82,0,0,0,24,24a27.52,27.52,0,0,0,7.52-.71l0,.58c.23,4,.44,7.76.44,9.13,0,5.21,4,12.2,4.13,12.5a1,1,0,0,0,1.74-1c0-.07-3.87-6.82-3.87-11.5,0-1.42-.22-5.22-.45-9.24-.25-4.3-.52-9.14-.55-11.42l2,.45V14a48.65,48.65,0,0,0,1.79,11.94A31.49,31.49,0,0,1,38,33v1a1,1,0,0,0,.51.87,5.76,5.76,0,0,1,2.14,2.84l2.41,6.63a1,1,0,0,0,1.88-.68ZM31.38,21.22c-.16.09-1.56.78-7.38.78-5.66,0-7.14-.66-7.36-.77.11-2,.22-4,.28-5.81A31,31,0,0,0,24,16a30.8,30.8,0,0,0,7.1-.59c.07,1.69.18,3.7.3,5.79ZM31,13.36c-.69.23-2.56.64-7,.64s-6.31-.41-7-.64c0-.48,0-.94,0-1.36,0,0,0,0,0-.08A42,42,0,0,1,24,11a42,42,0,0,1,7,.92s0,0,0,.08C31,12.37,31,12.84,31,13.36ZM24,9a61,61,0,0,0-10.89,1.71A8,8,0,0,1,21,4H27a8,8,0,0,1,7.84,6.71A61,61,0,0,0,24,9Z"/></svg>