<svg id="Icons" xmlns="http://www.w3.org/2000/svg" viewBox="0 0 48 48"><defs><style>.cls-1{fill:#bdd6ff;}.cls-2{fill:#2b72ff;}</style></defs><title>Muslim Man (Imam)</title><path class="cls-1" d="M42,38c-2.41-7.22-10-7-10-7l-.28-1.41-.15.21c-.59.75-2,1.83-2.1,2.79A1.91,1.91,0,0,1,28.34,34H29s5,0,7,2c1.47,1.47,2.94,5.64,3.62,7.75A1.81,1.81,0,0,0,41.34,45H44S44,44,42,38Z"/><path class="cls-1" d="M28,38a2.25,2.25,0,0,1-.55-1A2.57,2.57,0,0,1,28,34.62c.24-.3,1.82-1.53,1.61-1a2.34,2.34,0,0,1,1.5-1.54A7.63,7.63,0,0,0,34,26V9s0-6-10-6V4s6,1,6,5V25c0,3-1,9-6,9V45h4l-.22-5A4.94,4.94,0,0,1,28,38Z"/><circle class="cls-2" cx="24" cy="39" r="1"/><circle class="cls-2" cx="20" cy="17" r="1"/><circle class="cls-2" cx="28" cy="17" r="1"/><circle class="cls-2" cx="24" cy="44" r="1"/><path class="cls-2" d="M42.53,37a10.25,10.25,0,0,0-7.11-6.45l-1.7-.43A10.93,10.93,0,0,0,35,25V10a8,8,0,0,0-8-8H21a8,8,0,0,0-8,8V25a10.93,10.93,0,0,0,1.29,5.15l-1.7.43A10.25,10.25,0,0,0,5.47,37L3.06,43.66a1,1,0,1,0,1.88.68l2.41-6.63a8.25,8.25,0,0,1,5.72-5.2l2-.51h.44A11,11,0,0,0,19,34.8a1,1,0,0,0,0,.2v9a1,1,0,0,0,2,0V35.57a10.77,10.77,0,0,0,6,0V44a1,1,0,0,0,2,0V35a1,1,0,0,0,0-.2A11,11,0,0,0,32.44,32h.44l2,.51a8.25,8.25,0,0,1,5.72,5.2l2.41,6.63a1,1,0,0,0,1.88-.68ZM33,25a9,9,0,0,1-18,0V21.38a1.52,1.52,0,0,1,.49.77l.54,2.1A1,1,0,0,0,17,25h3a1,1,0,0,0,.45-.1A9.39,9.39,0,0,1,24,24a9.39,9.39,0,0,1,3.55.9A1,1,0,0,0,28,25h3a1,1,0,0,0,1-.75l.54-2.1a1.52,1.52,0,0,1,.49-.77Zm0-5.85a3.53,3.53,0,0,0-2.43,2.5L30.23,23h-2A11.13,11.13,0,0,0,24,22a11.13,11.13,0,0,0-4.22,1h-2l-.35-1.35A3.53,3.53,0,0,0,15,19.15V13H33ZM33,11H15V10a6,6,0,0,1,6-6h6a6,6,0,0,1,6,6Z"/></svg>