<svg id="Icons" xmlns="http://www.w3.org/2000/svg" viewBox="0 0 48 48"><defs><style>.cls-1{fill:#bdd6ff;}.cls-2{fill:#2b72ff;}</style></defs><title>Muslim Kid (Female)</title><path class="cls-1" d="M43,41a8.92,8.92,0,0,0-1.72-2.92h0L41.22,38A12.57,12.57,0,0,0,39,36a4.38,4.38,0,0,0,1-3c0-2,0-8-3-19S24,3,24,3V4c6,0,10,10,10,14s2,10,2,15S24,44,24,44v1c5,0,13-6,13-6l.2,0a17.7,17.7,0,0,1,2.08,4,3.11,3.11,0,0,0,2.93,2H44A15.77,15.77,0,0,0,43,41Z"/><circle class="cls-2" cx="20" cy="18" r="1"/><circle class="cls-2" cx="28" cy="18" r="1"/><path class="cls-2" d="M42.48,38.25a7.18,7.18,0,0,0-2.22-2.64A5.64,5.64,0,0,0,41,33c0-3.68-.84-8-1.82-12.89-.39-2-.8-4-1.2-6.28A14.61,14.61,0,0,0,24,2,14.61,14.61,0,0,0,10,13.83c-.4,2.23-.81,4.32-1.2,6.28C7.84,25,7,29.32,7,33a5.64,5.64,0,0,0,.74,2.61A7.27,7.27,0,0,0,5.5,38.28L3.09,43.59a1,1,0,1,0,1.82.83l2.4-5.28a5.23,5.23,0,0,1,1.54-1.86C12.46,41.82,20.44,46,24,46s11.54-4.18,15.16-8.73a5.1,5.1,0,0,1,1.52,1.84l2.41,5.31a1,1,0,1,0,1.82-.83ZM24,44C20,44,9,37.18,9,33c0-3.48.83-7.67,1.78-12.51.39-2,.8-4.07,1.2-6.32A12.56,12.56,0,0,1,24,4,12.56,12.56,0,0,1,36,14.17c.4,2.25.81,4.35,1.2,6.32,1,4.84,1.78,9,1.78,12.51C39,37.18,28,44,24,44Z"/><path class="cls-2" d="M27.91,12H20.09a6.7,6.7,0,0,0-6.69,6.69V20c0,5.19,4.28,11,10,11h1.2c5.72,0,10-5.81,10-11V18.69A6.7,6.7,0,0,0,27.91,12Zm4.69,8c0,4.25-3.42,9-8,9H23.4c-4.58,0-8-4.75-8-9V18.69A4.7,4.7,0,0,1,20.09,14h7.82a4.7,4.7,0,0,1,4.69,4.69Z"/></svg>