<svg id="Icons" xmlns="http://www.w3.org/2000/svg" viewBox="0 0 48 48"><defs><style>.cls-1{fill:#bdd6ff;}.cls-2{fill:#fff;}.cls-3{fill:#2b72ff;}</style></defs><title>Muslim Woman (Niqab)</title><path class="cls-1" d="M43,41a29.54,29.54,0,0,0-3-6h0a3.07,3.07,0,0,0-1-1s0-6-1-8S37,10,33,7a21.72,21.72,0,0,0-4-2.32L27.34,4A4.46,4.46,0,0,0,24,4l.06.18a8.13,8.13,0,0,0,3,4C29.44,9.89,33,13.67,33,21h0l-1,2s-4.68,7.48-.46,19.73a.36.36,0,0,0,0,.09c.16.4.32.76.47,1.1A3.47,3.47,0,0,0,35.22,46H37V45h7A15.77,15.77,0,0,0,43,41Z"/><polygon class="cls-2" points="33 21 32.99 21.01 32.99 20.96 33 21"/><circle class="cls-3" cx="20" cy="19" r="1"/><circle class="cls-3" cx="28" cy="19" r="1"/><path class="cls-3" d="M3.66,44.94a1,1,0,0,0,1.28-.6l2.4-6.61a5.82,5.82,0,0,1,2.14-2.86A1,1,0,0,0,10,34c0-3.49.84-8,1.82-13.31.39-2.09.79-4.28,1.17-6.53C14,8.37,18.69,4,24,4S34,8.37,35,14.16c.44,2.61.9,5,1.35,7.27A64.67,64.67,0,0,1,38,33v1a1,1,0,0,0,.51.87,5.76,5.76,0,0,1,2.14,2.84l2.41,6.63a1,1,0,1,0,1.88-.68L42.52,37A8.35,8.35,0,0,0,40,33.48V33a65.86,65.86,0,0,0-1.67-12c-.45-2.27-.91-4.63-1.34-7.21C35.86,7.09,30.28,2,24,2S12.14,7.09,11,13.84c-.37,2.24-.78,4.41-1.16,6.49A89.69,89.69,0,0,0,8,33.48,8.42,8.42,0,0,0,5.47,37L3.06,43.66A1,1,0,0,0,3.66,44.94Z"/><path class="cls-3" d="M36.13,45.5a1,1,0,0,0,1.74-1c0-.07-3.87-6.82-3.87-11.5V21c0-.22,0-5.34-2.17-8.55A11.33,11.33,0,0,0,29.1,9.72,8.69,8.69,0,0,0,24,8h0A8.54,8.54,0,0,0,18.9,9.72a11.33,11.33,0,0,0-2.74,2.73C14,15.66,14,20.78,14,21V33c0,4.67-3.83,11.44-3.87,11.5a1,1,0,1,0,1.74,1C12,45.2,16,38.21,16,33V22.73A20.59,20.59,0,0,0,24,24a20.59,20.59,0,0,0,8-1.27V33C32,38.21,36,45.2,36.13,45.5ZM17.83,13.55a9.39,9.39,0,0,1,2.26-2.23A6.55,6.55,0,0,1,24,10h0a6.67,6.67,0,0,1,3.91,1.32,9.39,9.39,0,0,1,2.26,2.23,7.13,7.13,0,0,1,.44.77A19.75,19.75,0,0,0,24,13a18.29,18.29,0,0,0-6.63,1.38A7.2,7.2,0,0,1,17.83,13.55ZM24,22c-4.95,0-7.21-1-8-1.5a21,21,0,0,1,.5-3.64,1,1,0,0,0,.45-.1A17,17,0,0,1,24,15a19.66,19.66,0,0,1,7.49,1.86A21,21,0,0,1,32,20.5C31.22,21,29,22,24,22Z"/></svg>