<svg id="icon" xmlns="http://www.w3.org/2000/svg" viewBox="0 0 48 48"><title>Muslim Woman</title><circle cx="20" cy="18" r="1"/><circle cx="28" cy="18" r="1"/><path d="M42.52,37A8.26,8.26,0,0,0,40,33.46,4.53,4.53,0,0,0,40,33a65.86,65.86,0,0,0-1.67-12c-.45-2.27-.91-4.63-1.34-7.21C35.86,7.09,30.28,2,24,2S12.14,7.09,11,13.84c-.43,2.59-.89,4.94-1.34,7.21A65.81,65.81,0,0,0,8,33a4.54,4.54,0,0,0,0,.47A8.33,8.33,0,0,0,5.47,37L3.06,43.66a1,1,0,0,0,1.88.68l2.4-6.61a6.84,6.84,0,0,1,1.33-2.17c2.48,5,11.18,10.2,15.07,10.42H24c3.76,0,12.79-5.29,15.32-10.43a6.73,6.73,0,0,1,1.32,2.14l2.41,6.63a1,1,0,1,0,1.88-.68ZM24.08,44C21.91,42.55,17,38.53,17,35s3.63-5,7-5a1,1,0,0,0,.19,0A10,10,0,0,0,34,20V14.7A2.7,2.7,0,0,0,31.3,12H16.7A2.7,2.7,0,0,0,14,14.7V20a10,10,0,0,0,5.45,8.89c-2.52,1-4.45,3-4.45,6.13,0,2.6,1.77,5.11,3.67,7.06C14.53,39.73,10,35.78,10,33a64.59,64.59,0,0,1,1.63-11.56c.45-2.29.92-4.66,1.35-7.27C14,8.37,18.69,4,24,4S34,8.37,35,14.16c.44,2.61.9,5,1.35,7.27A64.67,64.67,0,0,1,38,33C38,37.15,27.91,43.91,24.08,44ZM16,20V14.7a.7.7,0,0,1,.7-.7H31.3a.7.7,0,0,1,.7.7V20a8,8,0,0,1-16,0Z"/></svg>