<svg id="icon" xmlns="http://www.w3.org/2000/svg" viewBox="0 0 48 48"><title>Muslim Woman (Chador)</title><circle cx="20" cy="18" r="1"/><circle cx="28" cy="18" r="1"/><path d="M31.3,12H16.7A2.7,2.7,0,0,0,14,14.7V20a10,10,0,0,0,5.45,8.89c-2.52,1-4.45,3-4.45,6.13,0,5.48,7.89,10.62,8.23,10.83a1,1,0,0,0,.54.16,1,1,0,0,0,.54-1.84C22.27,42.84,17,38.65,17,35c0-3.44,3.63-5,7-5a1,1,0,0,0,.19,0A10,10,0,0,0,34,20V14.7A2.7,2.7,0,0,0,31.3,12Zm.7,8a8,8,0,1,1-16,0V14.7a.7.7,0,0,1,.7-.7H31.3a.7.7,0,0,1,.7.7Z"/><path d="M42.52,37A8.36,8.36,0,0,0,40,33.48V33a65.79,65.79,0,0,0-1.67-12c-.45-2.28-.91-4.63-1.34-7.21C35.86,7.09,30.28,2,24,2S12.14,7.09,11,13.84c-.37,2.24-.78,4.42-1.16,6.5A89.64,89.64,0,0,0,8,33.48,8.43,8.43,0,0,0,5.47,37L3.06,43.66a1,1,0,0,0,1.88.68l2.4-6.61a5.82,5.82,0,0,1,2.14-2.86A1,1,0,0,0,10,34c0-3.48.84-8,1.82-13.3.39-2.09.79-4.28,1.17-6.54C14,8.37,18.69,4,24,4S34,8.37,35,14.16c.44,2.61.9,5,1.35,7.27A64.64,64.64,0,0,1,38,33v1a1,1,0,0,0,.51.87,5.76,5.76,0,0,1,2.14,2.84l2.41,6.63a1,1,0,0,0,1.88-.68Z"/></svg>