<svg id="icon" xmlns="http://www.w3.org/2000/svg" viewBox="0 0 48 48"><title>Muslim Man (Surban)</title><path d="M42.53,37c-.05-.14-.1-.28-.16-.41a1,1,0,0,0-.2-.3l.58-.65a1,1,0,0,0,.18-1A168.42,168.42,0,0,1,35.23,10,1,1,0,0,0,36,9a1,1,0,0,0-1-1h-.26A8,8,0,0,0,27,2H21a8,8,0,0,0-7.74,6H13a1,1,0,0,0-1,1,1,1,0,0,0,.77,1A168.31,168.31,0,0,1,5.08,34.62a1,1,0,0,0,.18,1l.58.65a1,1,0,0,0-.2.3L5.47,37,3.06,43.66a1,1,0,1,0,1.88.68l2.33-6.41,6,6.73A1,1,0,0,0,15,44V32h.76L19,33.62V44a1,1,0,0,0,2,0V34.62l2.55,1.28h0a.9.9,0,0,0,.8,0h0L27,34.62V44a1,1,0,0,0,2,0V33.62L32.24,32H33V44a1,1,0,0,0,1.75.66l6-6.73,2.33,6.41a1,1,0,1,0,1.88-.68ZM13,19V41.37L7.16,34.8A174.68,174.68,0,0,0,13,17.26ZM21,4h6a6,6,0,0,1,5.65,4H15.35A6,6,0,0,1,21,4ZM16,26.76,15.22,30H15V25.31a11.07,11.07,0,0,0,1.09,1.32A.94.94,0,0,0,16,26.76Zm7,6.62-5.84-2.92.6-2.41A10.93,10.93,0,0,0,23,29.95Zm2,0V29.95a10.93,10.93,0,0,0,5.23-1.9l.6,2.41ZM33,30h-.22L32,26.76a.94.94,0,0,0-.06-.13A11.08,11.08,0,0,0,33,25.3Zm0-11a9,9,0,0,1-18,0V14a4.09,4.09,0,0,1,3-1,11.71,11.71,0,0,1,2.76.47A13.38,13.38,0,0,0,24,14a13.38,13.38,0,0,0,3.24-.53A11.73,11.73,0,0,1,30,13a8.63,8.63,0,0,1,3,.66Zm0-7.47A9.92,9.92,0,0,0,30,11a13.38,13.38,0,0,0-3.24.53A11.73,11.73,0,0,1,24,12a11.71,11.71,0,0,1-2.76-.47A13.38,13.38,0,0,0,18,11a7.4,7.4,0,0,0-3,.64V10H33Zm2,29.84V17.26A174.81,174.81,0,0,0,40.84,34.8Z"/><circle cx="24" cy="39" r="1"/><circle cx="24" cy="44" r="1"/><circle cx="20" cy="17" r="1"/><circle cx="28" cy="17" r="1"/></svg>