<svg id="icon" xmlns="http://www.w3.org/2000/svg" viewBox="0 0 48 48"><title>Muslim Kid (Male)</title><path d="M42.56,38.12l0-.1c-1.23-3.38-4.35-5.19-6.94-6.39-.85-.4-2.15-1-2.78-1.35l-.87-2.61a1,1,0,0,0-.07-.12A11,11,0,0,0,36,19V10a8,8,0,0,0-8-8H20a8,8,0,0,0-8,8v9a11,11,0,0,0,4.12,8.57.94.94,0,0,0-.07.12l-.87,2.61c-.63.31-1.92,1-2.77,1.35-2.58,1.2-5.71,3-6.94,6.39l0,.1L4,43.76A1,1,0,0,0,6,44.24l1.4-5.58c1-2.65,3.52-4.12,5.88-5.21.84-.39,2.09-1,2.75-1.33l6.25,3.13A5.61,5.61,0,0,0,20,39.74V45a1,1,0,0,0,2,0V39.74a3.62,3.62,0,0,1,1.89-3.18L32,32.13c.66.33,1.9.94,2.73,1.32,2.36,1.09,4.9,2.57,5.88,5.21L42,44.24A1,1,0,1,0,44,43.76ZM34,17.24a3.38,3.38,0,0,1-1-2.4v-.78a1,1,0,0,0-.28-.7L32.37,13H34ZM14,10a6,6,0,0,1,6-6h8a6,6,0,0,1,6,6v1H14Zm0,3h1.63l-.35.36a1,1,0,0,0-.28.7v.78a3.38,3.38,0,0,1-1,2.4Zm9,20.38-5.78-2.89.6-1.79A10.93,10.93,0,0,0,23,30Zm2,.3V30a10.93,10.93,0,0,0,5.18-1.3l.61,1.82ZM25,28H23a9,9,0,0,1-9-8.36,5.38,5.38,0,0,0,3-4.81v-.38L18.42,13H29.58L31,14.46v.38a5.38,5.38,0,0,0,3,4.81A9,9,0,0,1,25,28Z"/><circle cx="20" cy="17" r="1"/><circle cx="28" cy="17" r="1"/></svg>