<svg id="icon" xmlns="http://www.w3.org/2000/svg" viewBox="0 0 48 48"><title>Muslim Man (Turkish Kopyah)</title><path d="M4.76,45A1,1,0,0,0,5,45a1,1,0,0,0,1-.76l1.4-5.58a8.25,8.25,0,0,1,5.71-5.15A27.88,27.88,0,0,1,15.82,33L19,34.62V44a1,1,0,0,0,2,0V35.62l2.55,1.28h0a.9.9,0,0,0,.8,0h0L27,35.62V44a1,1,0,0,0,2,0V34.62L32.18,33c.57.08,1.86.26,2.75.48a8.25,8.25,0,0,1,5.71,5.15L42,44.24A1,1,0,0,0,43,45a1,1,0,0,0,.24,0A1,1,0,0,0,44,43.76l-1.41-5.63,0-.1a10.25,10.25,0,0,0-7.11-6.45c-.83-.21-1.91-.38-2.61-.48L32,27.76a.94.94,0,0,0-.06-.13A11,11,0,0,0,35,20V14s0,0,0-.05,0,0,0,0l-.81-8.1A3.1,3.1,0,0,0,31.09,3H28.84a2.71,2.71,0,0,0-2.5-2H24.67a2.71,2.71,0,0,0-2.5,2H16.91a3.1,3.1,0,0,0-3.1,2.8L13,13.9s0,0,0,0,0,0,0,.05v6a11,11,0,0,0,3.09,7.63.94.94,0,0,0-.06.13L15.2,31.1c-.7.1-1.78.27-2.61.48A10.25,10.25,0,0,0,5.47,38l0,.1L4,43.76A1,1,0,0,0,4.76,45ZM23,34.38l-5.83-2.92.6-2.41A10.93,10.93,0,0,0,23,30.95Zm2,0V30.95a10.93,10.93,0,0,0,5.23-1.9l.6,2.41ZM15.8,6a1.11,1.11,0,0,1,1.11-1H27V9a1,1,0,0,0,2,0V5h2.09A1.11,1.11,0,0,1,32.2,6l.7,7H15.1ZM15,20V15H33v5a9,9,0,0,1-18,0Z"/><circle cx="24" cy="40" r="1"/><circle cx="20" cy="18" r="1"/><circle cx="28" cy="18" r="1"/><circle cx="24" cy="44" r="1"/></svg>