<svg id="icon" xmlns="http://www.w3.org/2000/svg" viewBox="0 0 48 48"><title>Muslim Man</title><path d="M42.53,37a10.25,10.25,0,0,0-7.11-6.45c-.83-.21-1.91-.38-2.61-.48L32,26.76a.93.93,0,0,0-.06-.13A11,11,0,0,0,35,19V10a8,8,0,0,0-8-8H21a8,8,0,0,0-8,8v9a11,11,0,0,0,3.09,7.63.93.93,0,0,0-.06.13l-.84,3.34c-.7.1-1.78.27-2.61.48A10.25,10.25,0,0,0,5.47,37L3.06,43.66a1,1,0,1,0,1.88.68l2.41-6.63a8.25,8.25,0,0,1,5.72-5.2A27.9,27.9,0,0,1,15.82,32L19,33.62V44a1,1,0,0,0,2,0V34.62l2.55,1.28h0a.9.9,0,0,0,.8,0h0L27,34.62V44a1,1,0,0,0,2,0V33.62L32.18,32a27.83,27.83,0,0,1,2.75.48,8.25,8.25,0,0,1,5.72,5.2l2.41,6.63a1,1,0,0,0,1.88-.68ZM15,10a6,6,0,0,1,6-6h6a6,6,0,0,1,6,6v1H15Zm8,23.38-5.84-2.92.6-2.41A10.93,10.93,0,0,0,23,29.95ZM24,28a9,9,0,0,1-9-9V13H33v6A9,9,0,0,1,24,28Zm1,5.38V29.95a10.93,10.93,0,0,0,5.23-1.9l.6,2.41Z"/><circle cx="24" cy="39" r="1"/><circle cx="20" cy="17" r="1"/><circle cx="28" cy="17" r="1"/><circle cx="24" cy="44" r="1"/></svg>