<svg id="icon" xmlns="http://www.w3.org/2000/svg" viewBox="0 0 48 48"><defs><style>.cls-1{fill:#2b72ff;}</style></defs><title>Ant</title><path class="cls-1" d="M46,9a1,1,0,0,0-1,1,1,1,0,0,1-1,1H40.83a7.77,7.77,0,0,0-5.45,2.22c-.42-.08-.85-.13-1.28-.17A5,5,0,0,1,39,9h2a3,3,0,0,0,3-3,1,1,0,0,0-2,0,1,1,0,0,1-1,1H39a7,7,0,0,0-6.94,6.13C29.71,13.74,28,16.54,28,19H27a6.18,6.18,0,0,0-5.41,2.85C20.15,20.62,17.62,20,14,20,7.7,20,1,23.15,1,29c0,5,5.09,5,7,5,.7,0,1.44,0,2.2-.1l-5,7.55a1,1,0,1,0,1.66,1.11l5.86-8.79,0,0a1,1,0,0,0,.3-.25,22.65,22.65,0,0,0,2.83-.76L13.13,37.5a1,1,0,1,0,1.74,1l4-7a.94.94,0,0,0,0-.14,9.85,9.85,0,0,0,2.4-2L19,37.74a1,1,0,0,0,.7,1.23A1,1,0,0,0,20,39a1,1,0,0,0,1-.74l2.75-10.08A6.53,6.53,0,0,0,25,28.7a21.91,21.91,0,0,1-1.3,6.81L22,41.75A1,1,0,0,0,22.75,43,1,1,0,0,0,23,43a1,1,0,0,0,1-.75l1.61-6.15A23.6,23.6,0,0,0,27,29h0a7,7,0,0,0,2.18-.35l3.89,9.72a1,1,0,1,0,1.86-.74l-3.08-7.71a12.41,12.41,0,0,1,5.51,6.39l2.73,6.1A1,1,0,0,0,41,43a1,1,0,0,0,.91-1.41l-2.71-6a14.33,14.33,0,0,0-7.87-8.09A4.58,4.58,0,0,0,33,24v-.09A5.81,5.81,0,0,0,34,24h3a5,5,0,0,0,5-5c0-2.36-1.81-4.13-4.26-5.11A5.79,5.79,0,0,1,40.83,13H44a3,3,0,0,0,3-3A1,1,0,0,0,46,9ZM8,32c-3.09,0-5-.5-5-3,0-4.38,5.59-7,11-7,4.71,0,7,1,7,3C21,30.29,12.24,32,8,32Zm23-8c0,1.65-1.79,3-4,3s-4-1.35-4-3,1.79-3,4-3h1.57A6.06,6.06,0,0,0,31,23.22Zm9-5a3,3,0,0,1-3,3H34c-1.75,0-4-1.46-4-3,0-1.75,1.45-4,3-4C36.38,15,40,16.61,40,19Z"/></svg>