<svg id="icon" xmlns="http://www.w3.org/2000/svg" viewBox="0 0 48 48"><defs><style>.cls-1{fill:#2b72ff;}</style></defs><title>Bee</title><path class="cls-1" d="M37,7.15A1,1,0,0,0,37,7a1,1,0,0,1,1-1h3a1,1,0,0,0,0-2H38a3,3,0,0,0-3,3S35,7,35,7a6.45,6.45,0,0,0-2,.48V4a1,1,0,0,1,1-1h2a1,1,0,0,0,0-2H34a3,3,0,0,0-3,3V8.82a6.48,6.48,0,0,0-2,4.68c0,.17,0,.33,0,.5h-.46a41.13,41.13,0,0,0-4.86-6.71C21.52,5.11,19.27,4,17,4s-4.51.1-5.71,1.29h0A9.87,9.87,0,0,0,9,5,3.65,3.65,0,0,0,5,9a13.06,13.06,0,0,0,3.29,7.71c1.7,1.7,4.1,4.09,7.27,5C13.47,23.79,12,27.72,12,32c0,10,2.69,15,8,15a1,1,0,0,0,0-2,4.43,4.43,0,0,1-3.76-2H18c6.65,0,12-5.47,12-10V28.69A6.94,6.94,0,0,0,35,22V20l.5,0h4A3.51,3.51,0,0,0,43,16.49v-2A7.51,7.51,0,0,0,37,7.15ZM17,6c1.72,0,3.5.91,5.29,2.71a35.8,35.8,0,0,1,4.09,5.56,6.32,6.32,0,0,0-1.16.5c-1.56-1.63-6.29-6.32-11.28-8.56A17.45,17.45,0,0,1,17,6ZM7,9c0-1.44.56-2,2-2,5.46,0,12.48,6.79,14.61,9a8.82,8.82,0,0,0-2.33,4H18c-3.59,0-6.42-2.83-8.29-4.71A11.24,11.24,0,0,1,7,9Zm8.21,32a21.94,21.94,0,0,1-1.13-6.25,14,14,0,0,0,8.66,5.06A10.47,10.47,0,0,1,18,41Zm10.07-2.94A1,1,0,0,0,25,38a12,12,0,0,1-10.94-7.06l0,0a14.45,14.45,0,0,1,2-6.6c0,.06,0,.13,0,.19a9.5,9.5,0,0,0,11.94,9.18A8,8,0,0,1,25.27,38.06ZM28,31.57a7.49,7.49,0,0,1-9.61-9.46A2,2,0,0,1,19,22h2a7,7,0,0,0,7,7ZM33,22a5,5,0,0,1-10,0c0-3,2.52-6,5-6h1.5A6.54,6.54,0,0,0,33,19.5Zm8-5.51A1.51,1.51,0,0,1,39.49,18h-4a4.5,4.5,0,0,1,0-9A5.51,5.51,0,0,1,41,14.5Z"/></svg>