<svg id="icon" xmlns="http://www.w3.org/2000/svg" viewBox="0 0 48 48"><defs><style>.cls-1{fill:#2ed9d6;}.cls-2{fill:#2b72ff;}</style></defs><title>Cow</title><path class="cls-1" d="M24,27a2.46,2.46,0,0,1-1.52-.56A2.1,2.1,0,0,0,21,26c-1.87,0-4,0-4-3,0-2.73,3.58-4,6-4s5,1.37,5,4A4.19,4.19,0,0,1,24,27Zm-1-6c-1.81,0-4,.89-4,2s0,1,2,1a4,4,0,0,1,2.64.81c.26.18.28.19.36.19a2.21,2.21,0,0,0,2-2C26,21.42,24,21,23,21Z"/><path class="cls-1" d="M33,18c-1.26,0-2.72-.44-3-1.63A13.13,13.13,0,0,0,26,16c-1.77,0-3-2.64-3-5a1,1,0,0,1,2,0,4,4,0,0,0,1.06,3c3.38,0,5.76.31,5.93,1.82a2.33,2.33,0,0,0,.58.14A2,2,0,0,0,33,15V13a1,1,0,0,1,2,0v2a4.4,4.4,0,0,1-1.29,2.71A1,1,0,0,1,33,18Zm-3-2h0Z"/><path class="cls-1" d="M14,18a4.63,4.63,0,0,1-3.71-1.29C9.59,16,9.59,16,8,16c-2.37,0-3-2.62-3-4a1,1,0,0,1,2,0s.06,2,1,2c2.18,0,2.46,0,3.71,1.29A2.74,2.74,0,0,0,14,16c.48,0,1-.7,1-2a3.46,3.46,0,0,0-.72-2.3,1,1,0,0,1,0-1.41,1,1,0,0,1,1.4,0A5.31,5.31,0,0,1,17,14C17,16.63,15.49,18,14,18ZM7,12H7Z"/><path class="cls-2" d="M46.59,25A11.14,11.14,0,0,1,46,22c0-1.95-1.47-4.46-2-5.3C43.94,12,42.48,12,42,12c-1,0-2.29,1-3.13,1.75C36.77,12.48,30.77,9,28,9a21.16,21.16,0,0,0-4,.46A25.47,25.47,0,0,1,19,10a9.58,9.58,0,0,1-3.2-.42A14.75,14.75,0,0,0,11,9a8.68,8.68,0,0,0-6.83,3.45l0,0h0l0,.06a10.87,10.87,0,0,0-1,2C1,19.72,1,26.67,1,27a1,1,0,0,0,2,0s0-1.08.13-2.63l.11.25A6.47,6.47,0,0,1,4,27a19.48,19.48,0,0,1-.95,4.68A1,1,0,0,0,3,32v8a1,1,0,0,0,1,1h6a1,1,0,0,0,.83-1.55L9,36.7V32.55l.12-.08a1,1,0,0,0,.2.28,4,4,0,0,0,.68.49V35a1,1,0,0,0,2,0V33.92A6.41,6.41,0,0,0,13,34v1a1,1,0,0,0,2,0V33.67a7.78,7.78,0,0,0,1-.39V34a1,1,0,0,0,2,0V32a.93.93,0,0,0,0-.1,4.41,4.41,0,0,0,.67-.91H19a14.26,14.26,0,0,0,4-.57V33a1,1,0,0,0,.28.69c.38.5.72,3.45.72,6.31a1,1,0,0,0,1,1h6a1,1,0,0,0,.83-1.55L30,36.7V34a9.87,9.87,0,0,1,.89-4.55C32,27.3,32.71,26,34,26a8,8,0,0,1,5.28,1.73l.18.12a12.3,12.3,0,0,1,1.12.86A4.22,4.22,0,0,0,43,30c2.63,0,4-1.51,4-3A7.62,7.62,0,0,0,46.59,25ZM13,32a3.69,3.69,0,0,1-2.31-.73,18.29,18.29,0,0,0,1.63-1.54,1,1,0,0,0,.36.21,23.71,23.71,0,0,0,3.58.83A5.38,5.38,0,0,1,13,32Zm30-4a5.49,5.49,0,0,1-1.18-.84,13.92,13.92,0,0,0-1.31-1L40.36,26A9.94,9.94,0,0,0,34,24c-2.62,0-3.83,2.42-4.89,4.55A11.85,11.85,0,0,0,28,34v3a1,1,0,0,0,.17.55l1,1.45H26c0-2.16-.25-5-1-6.31V29a1,1,0,0,0-1.45-.89A11.13,11.13,0,0,1,19,29a20.64,20.64,0,0,1-5.39-.86A9,9,0,0,0,15,25.24,1,1,0,1,0,13,24.76c-.89,3.54-5.5,6.36-5.54,6.39A1,1,0,0,0,7,32v5a1,1,0,0,0,.17.55l1,1.45H5V32.16A20.36,20.36,0,0,0,6,27a7.89,7.89,0,0,0-.94-3.2A9.11,9.11,0,0,1,4,20a15.41,15.41,0,0,1,1-4.66,13,13,0,0,1,.88-1.8A6.75,6.75,0,0,1,11,11a12.87,12.87,0,0,1,4.24.5A11.53,11.53,0,0,0,19,12a27.49,27.49,0,0,0,5.35-.57A19.31,19.31,0,0,1,28,11c2,0,7.47,3,10.47,4.85a1,1,0,0,0,1.24-.14,10.56,10.56,0,0,1,2-1.58A12.41,12.41,0,0,1,42,17a1,1,0,0,0,.17.55C42.68,18.32,44,20.61,44,22a12.86,12.86,0,0,0,.67,3.59A7.3,7.3,0,0,1,45,27C45,27.48,44.3,28,43,28Z"/></svg>