<svg id="icon" xmlns="http://www.w3.org/2000/svg" viewBox="0 0 48 48"><defs><style>.cls-1{fill:#2ed9d6;}.cls-2{fill:#2b72ff;}</style></defs><title>Hud Hud Bird</title><path class="cls-1" d="M28,28a1,1,0,0,1-1-1c0-2.89-1.85-6-4.83-6H20.35a1,1,0,1,1,0-2h1.81c3.59,0,6,3,6.66,6.27a1,1,0,0,1,.17.56V27A1,1,0,0,1,28,28Z"/><path class="cls-2" d="M47,15.76c-.94-3.75-6-5.18-8-5.6C38.69,8,37.23,4,30,4c-4.26,0-8.64,3-10.89,7.55a1,1,0,0,0,1.79.89,12.25,12.25,0,0,1,6-5.78A6.65,6.65,0,0,0,26,10v2c0,2-1.2,3.06-3.92,5.17a48.45,48.45,0,0,0-4.79,4.12,26.61,26.61,0,0,0-3.21,4.06,21.81,21.81,0,0,1-6.64,6.82A1,1,0,0,0,8,34c1.18,0,2.31,0,3.42-.11-5.89,5-10,8.29-10,8.33A1,1,0,0,0,2,44c4.16,0,9.33,0,13.64-3.23L19,38h1.81c.55,0,1.09,0,1.62-.09L25.13,42H23a1,1,0,0,0,0,2H34a1,1,0,0,0,0-2H32.51l-4.17-5.84C34.62,33,39,25.94,39,17.78V16a27.51,27.51,0,0,1,6.68.93A1,1,0,0,0,47,15.76ZM30.06,42H27.54l-3-4.45a16.64,16.64,0,0,0,1.9-.58ZM38,14a1,1,0,0,0-1,1v2.78C37,27.59,30.06,35.59,21.4,36l.24-.2a1,1,0,0,0-1.28-1.54l-6,5C11.55,41.34,8.07,41.84,4.86,42c2.13-1.74,5.62-4.63,9.79-8.2a1,1,0,0,0,.15-.19C26.17,32.09,33,26.8,33,19a1,1,0,0,0-2,0c0,7.42-7.54,12.24-19.9,12.92a25.19,25.19,0,0,0,4.64-5.44,24.66,24.66,0,0,1,3-3.77,46.08,46.08,0,0,1,4.6-4C25.93,16.72,28,15.11,28,12V10a3.71,3.71,0,0,1,3.07-3.93l.07,0c3.79.28,5.86,2,5.86,5a1,1,0,0,0,.86,1,13,13,0,0,1,6,2.48A40.38,40.38,0,0,0,38,14Z"/></svg>