<svg id="icon" xmlns="http://www.w3.org/2000/svg" viewBox="0 0 48 48"><defs><style>.cls-1{fill:#2b72ff;}</style></defs><title>Sheep</title><path class="cls-1" d="M44.09,16.44a6.56,6.56,0,0,1-2.19-1.89C40.83,12.42,39.59,11,37,11h0a6.48,6.48,0,0,0-8.8-2.08,6,6,0,0,0-10.1-.34A6,6,0,0,0,8.3,11.14,6,6,0,0,0,1,17a6,6,0,0,0,2,4.5A6,6,0,0,0,7,32V42a1,1,0,0,0,1,1h3a1,1,0,0,0,.93-.63l1.81-4.52a7.39,7.39,0,0,0,4.89-3.9,6,6,0,0,0,6.59.11L27,42.22A1,1,0,0,0,28,43h4a1,1,0,0,0,1-.91l1-10.75c.08-.12.16-.23.23-.35h.29A6.51,6.51,0,0,0,41,24.5c0-.17,0-.33,0-.5h1c2.48,0,5-1.37,5-4C47,18.36,45.52,17.39,44.09,16.44ZM12.8,36a1,1,0,0,0-.73.61L10.32,41H9V31.64l.19-.06a6,6,0,0,0,7.51,1.77C15.78,35.38,12.95,36,12.8,36Zm16,5-1.62-7.29a5.91,5.91,0,0,0,4.6-.4L31.09,41Zm5.7-12a3.22,3.22,0,0,1-.67-.06,1,1,0,0,0-1.13.6A4,4,0,0,1,29,32a3.93,3.93,0,0,1-2.4-.8,1,1,0,0,0-.74-.19,1,1,0,0,0-.66.39,4,4,0,0,1-6.7-.45,1,1,0,0,0-.75-.5,1,1,0,0,0-.85.3,4,4,0,0,1-6.46-.92,1,1,0,0,0-.62-.5,1,1,0,0,0-.79.1A3.92,3.92,0,0,1,7,30a4,4,0,0,1-1.74-7.6,1,1,0,0,0,0-1.8A4,4,0,0,1,7,13a4.08,4.08,0,0,1,1.64.35A1,1,0,0,0,10,12.54a4,4,0,0,1,7.38-1.63,1,1,0,0,0,1.8-.2,4,4,0,0,1,7.61.07,1,1,0,0,0,1.64.42,4.43,4.43,0,0,1,3-1.2,4.48,4.48,0,0,1,3,1.15c-4.85.59-7.49,3-7.49,6.85,0,4.53,3.37,6,5,6a1,1,0,0,0,.89-1.45c-.44-.87-1.4-3.63-.19-4.85a4.21,4.21,0,0,1,2-.62,3.71,3.71,0,0,1-.64,1.1A1,1,0,0,0,34.63,20a4.43,4.43,0,0,1,2.74,1,4.5,4.5,0,0,1-2.86,8ZM42,22H40.49a6.47,6.47,0,0,0-4.12-3.72A5.73,5.73,0,0,0,37,16h0a.93.93,0,0,0,0-.12A1,1,0,0,0,36,15c-.57,0-3.48.06-4.71,1.29-1.41,1.41-1.31,3.47-.94,5A4,4,0,0,1,29,18c0-3.32,2.69-5,8-5,1.44,0,2.17.57,3.11,2.45A7.76,7.76,0,0,0,43,18.11c.94.62,2,1.33,2,1.89C45,21.58,43,22,42,22Z"/></svg>