<svg id="icon" xmlns="http://www.w3.org/2000/svg" viewBox="0 0 48 48"><defs><style>.cls-1{fill:#231f20;}</style></defs><title>Muslim Kid (Male)</title><path class="cls-1" d="M34,10a6,6,0,0,0-6-6H20a6,6,0,0,0-6,6v1H34Z"/><path class="cls-1" d="M40.62,38.65c-1-2.64-3.52-4.11-5.87-5.2-.83-.39-2.08-1.12-2.75-1.45l-8.11,4.57A3.6,3.6,0,0,0,22,39.74V46H41.3a1.73,1.73,0,0,0,1.57-2.45Z"/><path class="cls-1" d="M34,20a5.7,5.7,0,0,1-3-5v-.58A1.42,1.42,0,0,0,29.58,13H18.42A1.42,1.42,0,0,0,17,14.42v.42a5.36,5.36,0,0,1-3,4.8A9,9,0,0,0,23,28h2A8.73,8.73,0,0,0,34,20ZM20,18a1,1,0,1,1,1-1A1,1,0,0,1,20,18Zm8,0a1,1,0,1,1,1-1A1,1,0,0,1,28,18Z"/><path class="cls-1" d="M25,33.68l6-3.23-.61-1.82A11.82,11.82,0,0,1,25,30Z"/><path class="cls-1" d="M34,13H32l.13.13a3,3,0,0,1,.87,2.1,3,3,0,0,0,.66,1.87l.34.42Z"/><path class="cls-1" d="M16,32c-.66.32-1.91,1.06-2.75,1.45C10.9,34.54,8,36.36,7,39L5.17,43.28A2,2,0,0,0,7,46H20V39.74a5.64,5.64,0,0,1,2.25-4.5Z"/><path class="cls-1" d="M14,17.52l.34-.42A3,3,0,0,0,15,15.23a3,3,0,0,1,.87-2.1L16,13H14Z"/><path class="cls-1" d="M23,33.38V30a12,12,0,0,1-5.4-1.43L17,30.36Z"/></svg>