<svg id="icon" xmlns="http://www.w3.org/2000/svg" viewBox="0 0 48 48"><defs><style>.cls-1{fill:#231f20;}</style></defs><title>Muslim Woman (Stylish Hijab)</title><path class="cls-1" d="M10.24,33.19C9.06,34.24,7.68,35.13,7,37L4.18,43.63A1.64,1.64,0,0,0,5.65,46H14s.48-5,2-7A12.85,12.85,0,0,1,10.24,33.19Z"/><path class="cls-1" d="M29.13,30.53C31.7,28.1,36,24,36,22V17C36,9.54,28.52,3,24,3,20,3,12,7.23,12,17a48.84,48.84,0,0,1-.55,6.27A39.05,39.05,0,0,0,11,28a9.62,9.62,0,0,0,6,9,45.38,45.38,0,0,1,6-7,9.65,9.65,0,0,1-6-3.17A9.7,9.7,0,0,1,14,20a.66.66,0,0,1,0-.14l.64-4.43a7.16,7.16,0,0,1,2.8-4.74L21,8a5,5,0,0,1,6,0l3.54,2.65a7.16,7.16,0,0,1,2.8,4.74L34,19.83A.66.66,0,0,1,34,20c0,3.4-3.31,6.25-5.73,8.33-.6.52-12.21,9.47-12.25,17.7h3a1.17,1.17,0,0,1,0-.32,36.66,36.66,0,0,1,8.24-13.39C27.81,31.77,28.44,31.18,29.13,30.53Z"/><path class="cls-1" d="M38,31.52V30a50.87,50.87,0,0,1-4.27,5.69c-.78.82-1.57,1.63-2.35,2.42-2.21,2.27-4.31,6.43-5.22,7.89H30s8-11,8-13Z"/><path class="cls-1" d="M43.85,43.32,42,38a5.52,5.52,0,0,0-3-3c0,1-4.88,8.83-6.7,11h9.78A1.92,1.92,0,0,0,43.85,43.32Z"/><path class="cls-1" d="M32.28,34.31C35.17,31.26,38,28,38,25c0-.49-1-1-1-1-1,2.35-3.26,4.91-6.5,8-.67.64-1.28,1.22-1.79,1.73A35.8,35.8,0,0,0,21.07,46H24c0-.15,3.27-6.54,5.94-9.29C30.72,35.93,31.5,35.12,32.28,34.31Z"/><path class="cls-1" d="M16,20a7.75,7.75,0,0,0,2.45,5.37A8.33,8.33,0,0,0,24,28h.9a1.81,1.81,0,0,0,1.27-.47l.83-.72C29.07,25,32,22.5,32,20l-.61-4.22A19.51,19.51,0,0,0,24,14a19.34,19.34,0,0,0-7.39,1.82Zm12-3a1,1,0,1,1-1,1A1,1,0,0,1,28,17Zm-8,0a1,1,0,1,1-1,1A1,1,0,0,1,20,17Z"/><path class="cls-1" d="M30.3,13.21a5.34,5.34,0,0,0-1-.95L25.81,9.61a3,3,0,0,0-3.62,0l-3.54,2.65a5.34,5.34,0,0,0-1,.95A19.65,19.65,0,0,1,24,12,19.65,19.65,0,0,1,30.3,13.21Z"/></svg>