<svg id="icon" xmlns="http://www.w3.org/2000/svg" viewBox="0 0 48 48"><defs><style>.cls-1{fill:#231f20;}</style></defs><title>Muslim Woman (Niqab)</title><path class="cls-1" d="M16.51,15.86A36.1,36.1,0,0,0,16,21c.77.46,3,1,8,1s7.24-.54,8-1a36.37,36.37,0,0,0-.51-5.14A19.74,19.74,0,0,0,24,14a17,17,0,0,0-7,1.75A1.07,1.07,0,0,1,16.51,15.86ZM28,17a1,1,0,1,1-1,1A1,1,0,0,1,28,17Zm-8,0a1,1,0,1,1-1,1A1,1,0,0,1,20,17Z"/><path class="cls-1" d="M30.61,13.33c-.14-.27-.28-.53-.44-.78a9.56,9.56,0,0,0-2.26-2.23A6.69,6.69,0,0,0,24,9h0a6.59,6.59,0,0,0-3.9,1.32,9.56,9.56,0,0,0-2.26,2.23,7.36,7.36,0,0,0-.46.83A18.16,18.16,0,0,1,24,12,19.79,19.79,0,0,1,30.61,13.33Z"/><path class="cls-1" d="M5.52,46H11c.87-1.64,3-9.06,3-13V20c0-.22,0-5.34,2.17-8.55A11.36,11.36,0,0,1,18.9,8.72,8.51,8.51,0,0,1,24,7h0a8.65,8.65,0,0,1,5.1,1.72,11.36,11.36,0,0,1,2.73,2.73C34,14.66,34,19.78,34,20V33c0,4,2.13,11.36,3,13h5.47a1.53,1.53,0,0,0,1.35-2.25S39,35,39,35c-.31-.18-1-.64-1-1V33a75.28,75.28,0,0,0-1.63-12.57c-.45-2.29-.93-4.81-1.37-7.43C34,7.21,29.31,3,24,3S14,7.21,13,13c-.38,2.25-.79,4.6-1.18,6.69A92,92,0,0,0,10,34c0,.36-.68.82-1,1,0,0-4.83,8.77-4.83,8.77A1.52,1.52,0,0,0,5.52,46Z"/><path class="cls-1" d="M16,33a39.86,39.86,0,0,1-3,13H35a39.86,39.86,0,0,1-3-13V23c-1.44.62-3.94,1-8,1s-6.56-.38-8-1Z"/></svg>