<svg id="icon" xmlns="http://www.w3.org/2000/svg" viewBox="0 0 48 48"><defs><style>.cls-1{fill:#231f20;}</style></defs><title>Muslim Man</title><path class="cls-1" d="M5.43,46H19V33.62L16,32c-.57.08-2,.29-2.93.51C10.43,33.18,9,34,7,37L4.18,43.88A1.43,1.43,0,0,0,5.43,46Z"/><path class="cls-1" d="M24.4,35.91a.93.93,0,0,1-.8,0l-.05,0L21,34.62V46h6V34.62l-2.55,1.27ZM24,44a1,1,0,1,1,1-1A1,1,0,0,1,24,44Zm1-5a1,1,0,1,1-1-1A1,1,0,0,1,25,39Z"/><path class="cls-1" d="M24,28a9,9,0,0,0,9-9V13H15v6A9,9,0,0,0,24,28Zm4-12a1,1,0,1,1-1,1A1,1,0,0,1,28,16Zm-8,0a1,1,0,1,1-1,1A1,1,0,0,1,20,16Z"/><path class="cls-1" d="M30.23,28A11,11,0,0,1,25,30v3.38l5.84-2.92Z"/><path class="cls-1" d="M29,33.62V46H42.57a1.43,1.43,0,0,0,1.25-2.12L41,37c-2-3-3.43-3.82-6.07-4.49C34,32.29,32.57,32.08,32,32Z"/><path class="cls-1" d="M33,9a6,6,0,0,0-6-6H21a6,6,0,0,0-6,6v2H33Z"/><path class="cls-1" d="M17.16,30.46,23,33.38V30a11,11,0,0,1-5.23-2Z"/></svg>