<svg id="icon" xmlns="http://www.w3.org/2000/svg" viewBox="0 0 48 48"><defs><style>.cls-1{fill:#231f20;}</style></defs><title>Muslim Man (India Headscarf)</title><path class="cls-1" d="M14,15.94C20.39,15.13,24,7,24,7s3.61,8.13,10,8.94a.91.91,0,0,0,1-.9V13.9a.9.9,0,0,0-.9-.9H34V11.94a1,1,0,0,0-.87-1A11.67,11.67,0,0,1,24,5a11.67,11.67,0,0,1-9.13,6,1,1,0,0,0-.87,1V13h-.1a.9.9,0,0,0-.9.9V15A.91.91,0,0,0,14,15.94Z"/><path class="cls-1" d="M24,28c5,0,9-3,9-8V17.86c-4-.6-7.4-4.24-9-7.86-1.6,3.62-5,7.26-9,7.86V20C15,25,19,28,24,28Zm4-10a1,1,0,1,1-1,1A1,1,0,0,1,28,18Zm-8,0a1,1,0,1,1-1,1A1,1,0,0,1,20,18Z"/><path class="cls-1" d="M27,34.62l-2.55,1.27,0,0a.93.93,0,0,1-.8,0l0,0L21,34.62V46h6ZM24,44a1,1,0,1,1,1-1A1,1,0,0,1,24,44Zm0-4a1,1,0,1,1,1-1A1,1,0,0,1,24,40Z"/><path class="cls-1" d="M23,30a14.09,14.09,0,0,1-6-2v2.39l6,3Z"/><path class="cls-1" d="M31,28a14.09,14.09,0,0,1-6,2v3.38l6-3Z"/><path class="cls-1" d="M5.43,46H19V33.62L16,32a21,21,0,0,0-3,1C8,35,4.18,43.88,4.18,43.88A1.43,1.43,0,0,0,5.43,46Z"/><path class="cls-1" d="M32,32l-3,1.62V46H42.57a1.43,1.43,0,0,0,1.25-2.12S40,35,35,33A21,21,0,0,0,32,32Z"/><path class="cls-1" d="M33,9V8c0-4-3-6-7-6H25C25,6,31,9,33,9Z"/><path class="cls-1" d="M23,2H22c-4,0-7,2-7,6V9C17,9,23,6,23,2Z"/></svg>