<svg id="icon" xmlns="http://www.w3.org/2000/svg" viewBox="0 0 48 48"><defs><style>.cls-1{fill:#231f20;}</style></defs><title>Muslim Man (India Headscarf) 2</title><path class="cls-1" d="M33,18a24.44,24.44,0,0,1-4-2,38.21,38.21,0,0,0-4-2,13.26,13.26,0,0,0-5.14,1.79A20.92,20.92,0,0,1,15,18v2a9,9,0,0,0,18,0ZM20,20a1,1,0,1,1,1-1A1,1,0,0,1,20,20Zm8,0a1,1,0,1,1,1-1A1,1,0,0,1,28,20Z"/><path class="cls-1" d="M15.35,7.85,15,9c2,.5,6.77,1.93,10,3a37,37,0,0,1,4.54,2A23.49,23.49,0,0,0,34,16V13a4.13,4.13,0,0,0-1.52-3.43.87.87,0,0,1-.21-.17c-1.17-.88-3.11-1.64-6.39-1.92A98.24,98.24,0,0,0,16,7C15.72,7,15.51,7.44,15.35,7.85Z"/><path class="cls-1" d="M18,5c2.89,0,7.38.43,8.06.49A17.21,17.21,0,0,1,32,7a4.34,4.34,0,0,0-1.15-2.83A4,4,0,0,0,28,3H21C19.58,3,18.77,3.79,18,5Z"/><path class="cls-1" d="M42.84,43.41c-.72-1.59-1.4-4.55-1.82-5.41-1.39-2.84-3.45-3.82-6.07-4.49-.89-.22-2.38-.43-3-.51l-3,1.62V46H41.16A1.84,1.84,0,0,0,42.84,43.41Z"/><path class="cls-1" d="M7,38c-.42.86-1.1,3.82-1.82,5.41A1.84,1.84,0,0,0,6.86,46H19V34.62L16,33c-.57.08-2,.29-2.92.51C10.45,34.18,8.39,35.16,7,38Z"/><path class="cls-1" d="M30.4,29A11.61,11.61,0,0,1,25,31v3.38l6-2.92Z"/><path class="cls-1" d="M14,16c1.71-.26,7.23-2.66,8-3-3-1-7.13-1.79-8-2Z"/><path class="cls-1" d="M23,31a11.65,11.65,0,0,1-5.39-2L17,31.4l6,3Z"/><path class="cls-1" d="M27,35.62l-2.55,1.27,0,0a.93.93,0,0,1-.8,0l-.05,0L21,35.62V46h6ZM24,45a1,1,0,1,1,1-1A1,1,0,0,1,24,45Zm0-4a1,1,0,1,1,1-1A1,1,0,0,1,24,41Z"/></svg>