<svg id="icon" xmlns="http://www.w3.org/2000/svg" viewBox="0 0 48 48"><defs><style>.cls-1{fill:#231f20;}</style></defs><title>Muslim Woman (Burqa)</title><path class="cls-1" d="M27,4H21a8.32,8.32,0,0,0-8,7c2.48-.58,7.89-2,11-2s8.52,1.42,11,2A8.32,8.32,0,0,0,27,4Z"/><path class="cls-1" d="M24,11a42.25,42.25,0,0,0-7,.92A.24.24,0,0,1,17,12c0,.42,0,.88,0,1.36.7.23,2.56.64,7,.64s6.33-.41,7-.64c0-.52,0-1,0-1.36a.24.24,0,0,1,0-.08A42.25,42.25,0,0,0,24,11Z"/><path class="cls-1" d="M16.64,21.23c.22.11,1.7.77,7.36.77,5.81,0,7.22-.69,7.38-.78,0,0,0,0,0,0-.11-2.09-.22-4.1-.3-5.79A31,31,0,0,1,24,16a31,31,0,0,1-7.07-.58C16.86,17.23,16.76,19.23,16.64,21.23ZM28,18a1,1,0,1,1-1,1A1,1,0,0,1,28,18Zm-8,0a1,1,0,1,1-1,1A1,1,0,0,1,20,18Z"/><path class="cls-1" d="M14.37,25.64c.27-4.39.61-9.8.63-13.3-.82.17-1.51.54-2,.66v1a56.34,56.34,0,0,1-1.79,12.5A37.54,37.54,0,0,0,10,34a1,1,0,0,1-.52.88,5.77,5.77,0,0,0-2.14,2.86l-3.17,6A1.52,1.52,0,0,0,5.52,46H10a1,1,0,0,1,.11-.5c0-.06,3.87-7.83,3.87-12.5C14,31.73,14.17,28.91,14.37,25.64Z"/><path class="cls-1" d="M40.63,37.67a5.69,5.69,0,0,0-2.12-2.8A1,1,0,0,1,38,34V33a31.46,31.46,0,0,0-1.21-7.06A48.53,48.53,0,0,1,35,14V13c-.49-.12-1.18-.49-2-.66,0,2.28.31,7.12.55,11.42.23,4,.45,7.82.45,9.24,0,4.68,3.83,12.44,3.87,12.5A1,1,0,0,1,38,46h4.53a1.51,1.51,0,0,0,1.33-2.21Z"/><path class="cls-1" d="M31.56,23.87c0-.19,0-.38,0-.58A27.29,27.29,0,0,1,24,24a28.06,28.06,0,0,1-7.48-.69c0,.84-.1,1.67-.15,2.46C16.17,29,16,31.79,16,33c0,4.49-2.94,11.29-3.86,13H35.86C34.94,44.29,32,37.49,32,33,32,31.64,31.78,27.86,31.56,23.87Z"/></svg>