<svg id="icon" xmlns="http://www.w3.org/2000/svg" viewBox="0 0 48 48"><defs><style>.cls-1{fill:#231f20;}</style></defs><title>Muslim Kid (Female)</title><path class="cls-1" d="M39,33c0-3.48-.83-7.67-1.78-12.51-.39-2-.8-4.07-1.2-6.32A12.57,12.57,0,0,0,24,4,12.57,12.57,0,0,0,12,14.17c-.4,2.25-.81,4.35-1.2,6.32C9.83,25.33,9,29.52,9,33c0,4.18,11,11,15,11S39,37.18,39,33ZM34.6,20c0,5.19-4.28,11-10,11H23.4c-5.72,0-10-5.81-10-11V18.69A6.7,6.7,0,0,1,20.09,12h7.82a6.7,6.7,0,0,1,6.69,6.69Z"/><path class="cls-1" d="M27.91,14H20.09a4.69,4.69,0,0,0-4.69,4.69V20c0,4.25,3.42,9,8,9h1.2c4.58,0,8-4.75,8-9V18.69A4.69,4.69,0,0,0,27.91,14ZM20,19a1,1,0,1,1,1-1A1,1,0,0,1,20,19Zm8,0a1,1,0,1,1,1-1A1,1,0,0,1,28,19Z"/><path class="cls-1" d="M9,37.38a5.25,5.25,0,0,0-1.79,1.89l-3,4.86a1.22,1.22,0,0,0,1,1.87H22C18.19,44.49,11.54,40.58,9,37.38Z"/><path class="cls-1" d="M40.77,39.27A5.25,5.25,0,0,0,39,37.38c-2.54,3.2-9.19,7.11-13,8.62H42.78a1.22,1.22,0,0,0,1-1.87Z"/></svg>