<svg id="icon" xmlns="http://www.w3.org/2000/svg" viewBox="0 0 48 48"><defs><style>.cls-1{fill:#231f20;}</style></defs><title>Muslim Man (Imam)</title><path class="cls-1" d="M17.77,23H20a9.78,9.78,0,0,1,4-1,9.78,9.78,0,0,1,4,1h2s1-4,3-4V13H15v6C17,19,17.77,23,17.77,23ZM28,16a1,1,0,1,1-1,1A1,1,0,0,1,28,16Zm-8,0a1,1,0,1,1-1,1A1,1,0,0,1,20,16Z"/><path class="cls-1" d="M24,34a9,9,0,0,0,9-9V21a2.91,2.91,0,0,0-.49,1.15L32,24.25A1,1,0,0,1,31,25H28a1.18,1.18,0,0,1-.45-.1A9.24,9.24,0,0,0,24,24a9.24,9.24,0,0,0-3.55.9A1.18,1.18,0,0,1,20,25H17a1,1,0,0,1-1-.75l-.54-2.1A2.91,2.91,0,0,0,15,21v4A9,9,0,0,0,24,34Z"/><path class="cls-1" d="M33,9a6,6,0,0,0-6-6H21a6,6,0,0,0-6,6v2H33Z"/><path class="cls-1" d="M41,37c-2-3-3.43-3.82-6.07-4.49-.71-.18-1.8-.35-2.5-.45A10.88,10.88,0,0,1,29,34.8V46H42.57a1.43,1.43,0,0,0,1.25-2.12Z"/><path class="cls-1" d="M24,36a10.61,10.61,0,0,1-3-.42V46h6V35.58A10.61,10.61,0,0,1,24,36Zm0,8a1,1,0,1,1,1-1A1,1,0,0,1,24,44Zm0-4a1,1,0,1,1,1-1A1,1,0,0,1,24,40Z"/><path class="cls-1" d="M5.43,46H19V34.8a10.88,10.88,0,0,1-3.43-2.74c-.7.1-1.79.27-2.5.45C10.43,33.18,9,34,7,37L4.18,43.88A1.43,1.43,0,0,0,5.43,46Z"/></svg>