<svg id="icon" xmlns="http://www.w3.org/2000/svg" viewBox="0 0 48 48"><defs><style>.cls-1{fill:#231f20;}</style></defs><title>Muslim Man (Turkish Kopyah)</title><path class="cls-1" d="M32.2,5a1.12,1.12,0,0,0-1.11-1H27.84A3,3,0,0,1,28,5v5a1,1,0,0,1-2,0V5c0-.59-.35-1-.67-1h2.51a2.71,2.71,0,0,0-2.51-2h-.66a2.71,2.71,0,0,0-2.51,2H16.91A1.12,1.12,0,0,0,15.8,5l-.7,8H32.9Z"/><path class="cls-1" d="M41,37c-2-3-3.43-3.82-6.07-4.49C34,32.29,32.57,32.08,32,32l-3,1.62V46H42.57a1.43,1.43,0,0,0,1.25-2.12Z"/><path class="cls-1" d="M27,34.62l-2.55,1.27,0,0a.93.93,0,0,1-.8,0l0,0L21,34.62V46h6ZM24,44a1,1,0,1,1,1-1A1,1,0,0,1,24,44Zm0-4a1,1,0,1,1,1-1A1,1,0,0,1,24,40Z"/><path class="cls-1" d="M23,30a11,11,0,0,1-5.23-2l-.61,2.41L23,33.38Z"/><path class="cls-1" d="M30.23,28A11,11,0,0,1,25,30v3.38l5.84-2.92Z"/><path class="cls-1" d="M5.43,46H19V33.62L16,32c-.57.08-2,.29-2.93.51C10.43,33.18,9,34,7,37L4.18,43.88A1.43,1.43,0,0,0,5.43,46Z"/><path class="cls-1" d="M22.85,28h2.3A7.86,7.86,0,0,0,33,20.15V15H15v5.15A7.86,7.86,0,0,0,22.85,28ZM28,17a1,1,0,1,1-1,1A1,1,0,0,1,28,17Zm-8,0a1,1,0,1,1-1,1A1,1,0,0,1,20,17Z"/></svg>