<svg id="icon" xmlns="http://www.w3.org/2000/svg" viewBox="0 0 48 48"><defs><style>.cls-1{fill:#231f20;}</style></defs><title>Muslim Man (No Kopyah)</title><path class="cls-1" d="M34,11a7.07,7.07,0,0,0-6.78-7H20.78A7.07,7.07,0,0,0,14,11v3c2.6-.63,4.09-3.42,4.11-3.45A1,1,0,0,1,19,10a1,1,0,0,1,.89.55C19.92,10.61,21.7,14,25,14h9Z"/><path class="cls-1" d="M33,16H25a7.65,7.65,0,0,1-6-3.19,8.27,8.27,0,0,1-4,2.89V19a9,9,0,0,0,18,0ZM20,19a1,1,0,1,1,1-1A1,1,0,0,1,20,19Zm8,0a1,1,0,1,1,1-1A1,1,0,0,1,28,19Z"/><path class="cls-1" d="M41,37c-2-3-3.43-3.82-6.07-4.49C34,32.29,32.57,32.08,32,32l-3,1.62V46H42.57a1.43,1.43,0,0,0,1.25-2.12Z"/><path class="cls-1" d="M27,34.62l-2.55,1.27,0,0a.93.93,0,0,1-.8,0l-.05,0L21,34.62V46h6ZM24,44a1,1,0,1,1,1-1A1,1,0,0,1,24,44Zm0-4a1,1,0,1,1,1-1A1,1,0,0,1,24,40Z"/><path class="cls-1" d="M23,30a11,11,0,0,1-5.23-2l-.61,2.41L23,33.38Z"/><path class="cls-1" d="M30.23,28A11,11,0,0,1,25,30v3.38l5.84-2.92Z"/><path class="cls-1" d="M5.43,46H19V33.62L16,32c-.57.08-2,.29-2.93.51C10.43,33.18,9,34,7,37L4.18,43.88A1.43,1.43,0,0,0,5.43,46Z"/></svg>