<svg id="icon" xmlns="http://www.w3.org/2000/svg" viewBox="0 0 48 48"><defs><style>.cls-1{fill:#231f20;}</style></defs><title>Muslim Woman</title><path class="cls-1" d="M17,33c0,3.53,4.91,7.55,7.08,9C27.91,41.91,38,35.15,38,31a107.74,107.74,0,0,0-2-17C34.58,8.31,30,3,24,3S13,8.37,12,14.16c-.44,2.62-2,13.59-2,16.84,0,2.78,5.86,7.67,10,10-1.9-2-5-5.4-5-8,0-3.09,2.48-4,5-5-3.23-1.66-6-5.15-6-9V13.7A2.7,2.7,0,0,1,16.7,11H31.3A2.7,2.7,0,0,1,34,13.7V19c0,5.45-3.58,9.93-9,10C23,29,17,29.56,17,33Z"/><path class="cls-1" d="M42,38a17.09,17.09,0,0,0-3-4c-2.54,4.28-9.26,8.66-13.34,9.74A6.83,6.83,0,0,1,24,44a6.66,6.66,0,0,1-1.65-.26C18.26,42.66,11.55,38.28,9,34a17.09,17.09,0,0,0-3,4L4.16,43.79A1.52,1.52,0,0,0,5.49,46h37a1.47,1.47,0,0,0,1.33-2.21Z"/><path class="cls-1" d="M32,19V13.7a.7.7,0,0,0-.7-.7H16.7a.7.7,0,0,0-.7.7V19a8,8,0,1,0,16,0ZM20,18a1,1,0,1,1,1-1A1,1,0,0,1,20,18Zm8,0a1,1,0,1,1,1-1A1,1,0,0,1,28,18Z"/></svg>