<?xml version="1.0" encoding="utf-8"?>
<!-- Generator: Adobe Illustrator 25.1.0, SVG Export Plug-In . SVG Version: 6.00 Build 0)  -->
<svg version="1.1" id="icon" xmlns="http://www.w3.org/2000/svg" xmlns:xlink="http://www.w3.org/1999/xlink" x="0px" y="0px"
	 viewBox="0 0 48 48" style="enable-background:new 0 0 48 48;" xml:space="preserve">
<style type="text/css">
	.st0{fill:#FFFFFF;}
	.st1{fill:#2B72FF;}
	.st2{fill:#2ED9D6;}
	.st3{fill:#BDD6FF;}
</style>
<g>
	<circle cx="24" cy="24" r="21.6"/>
	<path d="M24,40.9c-9.3,0-16.9-7.6-16.9-16.9c0-9.3,7.6-16.9,16.9-16.9c9.3,0,16.9,7.6,16.9,16.9C40.9,33.3,33.3,40.9,24,40.9z"/>
	<g>
		<polygon class="st0" points="31.1,21.2 31.1,22.8 24,25.1 16.9,22.8 16.9,21.2 24,18.9 		"/>
		<path class="st0" d="M24.3,27.1l6.8-2.2v5.4L24,32.6l-7.1-2.3v-5.4l6.8,2.2c0.1,0,0.2,0,0.3,0C24.1,27.1,24.2,27.1,24.3,27.1z"/>
		<path class="st0" d="M27.3,17.4L24,16.2l-3.3,1.2c-0.1,0-0.2-0.1-0.2-0.2l3.3-5.9c0.1-0.2,0.3-0.2,0.4,0l3.3,5.9
			C27.6,17.3,27.4,17.4,27.3,17.4z"/>
	</g>
	<path class="st0" d="M41.9,23L41.9,23c-0.1-1.7-0.5-3.3-1-4.9l0,0c0.5-0.2,0.8-0.8,0.5-1.3s-0.8-0.8-1.3-0.5l0,0
		c-0.7-1.5-1.7-3-2.8-4.2l0,0c0.4-0.4,0.4-1,0-1.4s-1-0.4-1.4,0l0,0c-1.2-1.1-2.6-2-4.1-2.8l0,0c0.2-0.5,0-1.1-0.5-1.3
		s-1.1,0-1.3,0.5l0,0c-1.6-0.6-3.2-0.9-5-1V6.1c0-0.6-0.4-1-1-1s-1,0.4-1,1v0.1c-1.7,0.1-3.3,0.4-4.9,1l0,0
		c-0.2-0.5-0.8-0.8-1.3-0.5c-0.5,0.2-0.8,0.8-0.5,1.3l0,0c-1.5,0.7-3,1.7-4.2,2.8l0,0c-0.4-0.4-1-0.4-1.4,0s-0.4,1,0,1.4l0,0
		c-1.1,1.2-2,2.6-2.8,4.1l0,0c-0.5-0.2-1.1,0-1.3,0.5c-0.2,0.5,0,1.1,0.5,1.3l0,0c-0.6,1.6-0.9,3.2-1,5H6.1c-0.6,0-1,0.4-1,1
		s0.4,1,1,1h0.1c0.1,1.7,0.4,3.3,1,4.9l0,0c-0.5,0.2-0.8,0.8-0.5,1.3c0.2,0.4,0.5,0.6,0.9,0.6c0.1,0,0.3,0,0.4-0.1l0,0
		c0.7,1.5,1.7,3,2.8,4.2l0,0c-0.4,0.4-0.4,1,0,1.4c0.2,0.2,0.5,0.3,0.7,0.3s0.5-0.1,0.7-0.3l0,0c1.2,1.1,2.6,2,4.1,2.8l0,0
		c-0.2,0.5,0,1.1,0.5,1.3c0.1,0.1,0.3,0.1,0.4,0.1c0.4,0,0.8-0.2,0.9-0.6l0,0c1.6,0.6,3.2,0.9,5,1v0.1c0,0.6,0.4,1,1,1s1-0.4,1-1
		v-0.1c1.7-0.1,3.3-0.4,4.9-1l0,0c0.2,0.4,0.5,0.6,0.9,0.6c0.1,0,0.3,0,0.4-0.1c0.5-0.2,0.8-0.8,0.5-1.3l0,0c1.5-0.7,3-1.7,4.2-2.8
		l0,0c0.2,0.2,0.5,0.3,0.7,0.3s0.5-0.1,0.7-0.3c0.4-0.4,0.4-1,0-1.4l0,0c1.1-1.2,2-2.6,2.8-4.1l0,0c0.1,0.1,0.3,0.1,0.4,0.1
		c0.4,0,0.8-0.2,0.9-0.6c0.2-0.5,0-1.1-0.5-1.3l0,0c0.6-1.6,0.9-3.2,1-5h0.1c0.6,0,1-0.4,1-1S42.5,23,41.9,23z M39.1,29.2l-0.2-0.1
		c-0.5-0.2-1.1,0-1.3,0.5s0,1.1,0.5,1.3l0.2,0.1c-0.6,1.3-1.4,2.4-2.3,3.5l-0.2-0.2c-0.4-0.4-1-0.4-1.4,0c-0.4,0.4-0.4,1,0,1.4
		l0.2,0.2c-1.1,0.9-2.3,1.7-3.6,2.4l-0.1-0.2c-0.2-0.5-0.8-0.8-1.3-0.5c-0.5,0.2-0.8,0.8-0.5,1.3l0.1,0.2c-1.3,0.4-2.7,0.7-4.1,0.8
		v-3.2c0-0.6-0.4-1-1-1s-1,0.4-1,1v3.2c-1.5-0.1-2.9-0.4-4.2-0.8l0.1-0.2c0.2-0.5,0-1.1-0.5-1.3c-0.5-0.2-1.1,0-1.3,0.5L17,38.3
		c-1.3-0.6-2.4-1.4-3.5-2.3l0.2-0.2c0.4-0.4,0.4-1,0-1.4c-0.4-0.4-1-0.4-1.4,0l-0.2,0.2c-0.9-1.1-1.7-2.3-2.4-3.6l0.2-0.1
		c0.5-0.2,0.8-0.8,0.5-1.3c-0.2-0.5-0.8-0.8-1.3-0.5l-0.2,0.1c-0.4-1.3-0.7-2.7-0.8-4.1h3.2c0.6,0,1-0.4,1-1s-0.4-1-1-1H8.1
		c0.1-1.5,0.4-2.9,0.8-4.2l0.2,0.1C9.3,18.9,9.4,19,9.5,19c0.4,0,0.8-0.2,0.9-0.6c0.2-0.5,0-1.1-0.5-1.3L9.7,17
		c0.6-1.3,1.4-2.4,2.3-3.5l0.2,0.2c0.2,0.2,0.5,0.3,0.7,0.3s0.5-0.1,0.7-0.3c0.4-0.4,0.4-1,0-1.4l-0.2-0.2c1.1-0.9,2.3-1.7,3.6-2.4
		l0.1,0.2c0.2,0.4,0.5,0.6,0.9,0.6c0.1,0,0.3,0,0.4-0.1c0.5-0.2,0.8-0.8,0.5-1.3l-0.1-0.2c1.3-0.4,2.7-0.7,4.1-0.8v0.2
		c0,0.6,0.4,1,1,1s1-0.4,1-1V8.1c1.5,0.1,2.9,0.4,4.2,0.8l-0.1,0.2c-0.2,0.5,0,1.1,0.5,1.3c0.1,0.1,0.3,0.1,0.4,0.1
		c0.4,0,0.8-0.2,0.9-0.6L31,9.7c1.3,0.6,2.4,1.4,3.5,2.3l-0.2,0.2c-0.4,0.4-0.4,1,0,1.4c0.2,0.2,0.5,0.3,0.7,0.3s0.5-0.1,0.7-0.3
		l0.2-0.2c0.9,1.1,1.7,2.3,2.4,3.6l-0.2,0.1c-0.5,0.2-0.8,0.8-0.5,1.3c0.2,0.4,0.5,0.6,0.9,0.6c0.1,0,0.3,0,0.4-0.1l0.2-0.1
		c0.4,1.3,0.7,2.7,0.8,4.1h-3.2c-0.6,0-1,0.4-1,1s0.4,1,1,1h3.2C39.8,26.5,39.5,27.9,39.1,29.2z"/>
</g>
</svg>
