<?xml version="1.0" encoding="utf-8"?>
<!-- Generator: Adobe Illustrator 25.1.0, SVG Export Plug-In . SVG Version: 6.00 Build 0)  -->
<svg version="1.1" id="icon" xmlns="http://www.w3.org/2000/svg" xmlns:xlink="http://www.w3.org/1999/xlink" x="0px" y="0px"
	 viewBox="0 0 48 48" style="enable-background:new 0 0 48 48;" xml:space="preserve">
<style type="text/css">
	.st0{fill:#FFFFFF;}
	.st1{fill:#2B72FF;}
	.st2{fill:#2ED9D6;}
	.st3{fill:#BDD6FF;}
</style>
<g>
	<path d="M37.1,11.2H12.6c-0.4,0.7-1,1.3-1.7,1.7c-0.2,2.5-0.5,5.9-1.5,10.3c-2.9,13.2-1.3,18.4,0.8,20.7c1.1,1.2,2.4,1.7,3.6,1.7
		c2.2,0,4.1-2,3.6-5.7c0-0.1,0-0.3-0.1-0.4c-0.2-0.8-0.5-1.4-0.9-1.8c-0.3-0.4-0.1-1,0.4-1h17.1c-0.2-3.2,0.2-7.5,1.5-13.5
		C36.7,17.6,37,13.7,37.1,11.2z"/>
	<path d="M40.3,6.8v1.4c0,1.5-1.1,2.7-2.6,2.9c0.5,0.3,1.1,0.5,1.7,0.5h0.8c1.7,0,3-1.4,3-3V6.7c0-1.7-1.4-3-3-3h-0.8
		c-0.5,0-0.9,0.1-1.3,0.3C39.4,4.3,40.3,5.5,40.3,6.8z"/>
	<path d="M37.4,9.2c0.5,0,0.9-0.4,0.9-0.9V6.8c0-0.5-0.4-0.9-0.9-0.9H13.2c0,0.3,0.1,0.5,0.1,0.8v1.9c0,0.2,0,0.3-0.1,0.5H37.4z"/>
	<path d="M11.3,8.6V6.7c0-1.7-1.4-3-3-3H7.4c-1.7,0-3,1.4-3,3v1.9c0,1.7,1.4,3,3,3h0.8C9.9,11.7,11.3,10.3,11.3,8.6z M6.8,7.9V7.5
		c0-0.6,0.4-1,1-1s1,0.4,1,1v0.4c0,0.6-0.4,1-1,1S6.8,8.4,6.8,7.9z"/>
	<path class="st0" d="M7.8,8.9c0.6,0,1-0.4,1-1V7.5c0-0.6-0.4-1-1-1s-1,0.4-1,1v0.4C6.8,8.4,7.3,8.9,7.8,8.9z"/>
	<path d="M39.9,45.6c0.4,0,0.8-0.2,1.1-0.7c0.5-0.8,0.9-2.4,0.7-4.2c-0.1-1.1-0.4-1.6-0.8-1.9c0,0,0,0-0.1,0c0,0-0.1,0-0.1-0.1
		c0,0-0.1,0-0.1,0c0,0-0.1,0-0.1,0c0,0,0,0-0.1,0c-0.1,0-0.2,0-0.2,0c0,0,0,0,0,0h-0.1c-0.1,0-0.1,0-0.2,0H19.2c0,0,0,0,0,0h0
		c0,0.2,0.1,0.4,0.1,0.7l0.1,0.6c0,0.5,0.1,0.9,0.1,1.4c0,0.1,0,0.1,0,0.2c0,0.2,0,0.5-0.1,0.7c0,0.1,0,0.3-0.1,0.4
		c0,0.3-0.1,0.5-0.2,0.8c0,0,0,0,0,0c-0.3,0.8-0.7,1.6-1.4,2.1h21.2c0,0,0,0,0,0H39.9z"/>
	<path class="st0" d="M14.2,23h7.2c0.5,0,1,0.5,1,1c0,0.6-0.5,1-1,1h-7.2c-0.5,0-1-0.4-1-1C13.2,23.5,13.7,23,14.2,23z"/>
	<path class="st0" d="M25.3,31.4H13.1c-0.6,0-1-0.5-1-1s0.4-1,1-1h12.2c0.5,0,1,0.5,1,1S25.8,31.4,25.3,31.4z"/>
	<path class="st0" d="M30.6,25h-4.5c-0.6,0-1-0.4-1-1c0-0.5,0.4-1,1-1h4.5c0.6,0,1,0.5,1,1C31.6,24.6,31.1,25,30.6,25z"/>
	<path class="st0" d="M31.7,18.7H15.3c-0.6,0-1-0.4-1-1c0-0.6,0.4-1,1-1h16.3c0.5,0,1,0.4,1,1C32.7,18.2,32.2,18.7,31.7,18.7z"/>
</g>
</svg>
