<?xml version="1.0" encoding="utf-8"?>
<!-- Generator: Adobe Illustrator 25.1.0, SVG Export Plug-In . SVG Version: 6.00 Build 0)  -->
<svg version="1.1" id="icon" xmlns="http://www.w3.org/2000/svg" xmlns:xlink="http://www.w3.org/1999/xlink" x="0px" y="0px"
	 viewBox="0 0 48 48" style="enable-background:new 0 0 48 48;" xml:space="preserve">
<style type="text/css">
	.st0{fill:#FFFFFF;}
	.st1{fill:#2B72FF;}
	.st2{fill:#2ED9D6;}
	.st3{fill:#BDD6FF;}
</style>
<g>
	<path class="st0" d="M20.5,30.7c-0.2,0.3-0.5,0.5-0.7,0.7c-0.4,0.4-0.3,1.1,0.1,1.4c0.2,0.2,0.4,0.2,0.6,0.2c0.3,0,0.6-0.1,0.8-0.4
		c0.2-0.2,0.4-0.5,0.6-0.7c0.4-0.4,0.3-1-0.1-1.4S20.9,30.3,20.5,30.7z"/>
	<path class="st0" d="M19.3,33.9c-0.5-0.3-1.1-0.1-1.4,0.3c-0.6,1-1,2.2-1.1,3.5c-0.1,0.5,0.3,1,0.9,1.1c0,0,0.1,0,0.1,0
		c0.5,0,0.9-0.4,1-0.9c0.1-1,0.4-1.9,0.8-2.7C19.9,34.8,19.8,34.2,19.3,33.9z"/>
	<path d="M35.8,40.8c0.3-2.3,0.3-5.6-1.4-8.7c-1.7-3.1-4.1-5.6-5.9-7.2c-0.3-0.3-0.4-0.6-0.4-0.9s0.2-0.7,0.4-0.9
		c1.7-1.5,4.2-4.1,5.9-7.2c1-1.7,1.4-3.5,1.5-5.2h-2c0,0.1,0,0.2,0,0.4c0,0.2,0,0.4-0.1,0.5c0,0.1,0,0.2-0.1,0.4
		c-0.1,0.3-0.1,0.5-0.2,0.8c0,0.1,0,0.1-0.1,0.2c-0.1,0.3-0.2,0.5-0.3,0.8c0,0.1-0.1,0.2-0.1,0.3c-0.1,0.3-0.3,0.6-0.4,0.9
		c0,0,0,0,0,0c-0.4,0.7-0.8,1.4-1.3,2c-0.2,0.3-0.5,0.6-0.7,0.9c0,0,0,0,0,0c-0.9,1.2-1.9,2.2-2.8,3c-0.2,0.2-0.5,0.4-0.7,0.6
		c-0.7,0.6-1.1,1.5-1.1,2.4c0,0.9,0.4,1.8,1.1,2.4c0.5,0.5,1.1,1,1.7,1.7c0.1,0.1,0.2,0.2,0.3,0.3c0,0,0.1,0.1,0.1,0.1
		c1.2,1.3,2.4,2.8,3.3,4.6c0.2,0.3,0.3,0.6,0.4,0.9c0,0.1,0.1,0.2,0.1,0.3c0.1,0.3,0.2,0.5,0.3,0.8c0,0.1,0,0.1,0.1,0.2
		c0.1,0.3,0.1,0.5,0.2,0.8c0,0.1,0,0.2,0.1,0.4c0,0.2,0.1,0.4,0.1,0.6c0,0.2,0,0.4,0.1,0.6c0,0.2,0,0.3,0,0.5c0,0.2,0,0.3,0,0.5
		c0,0.1,0,0.2,0,0.3c0,0.3,0,0.6,0,0.8c0,0.1,0,0.1,0,0.2c0,0.2,0,0.3-0.1,0.5c0,0.1,0,0.1,0,0.2h0c0,0,0,0,0,0c0,0.1,0,0.2,0,0.3
		c0,0,0,0,0,0c-0.2,0.9-1,1.6-2,1.6H15.1c-1,0-1.8-0.7-2-1.6c0,0,0,0,0,0c0-0.1,0-0.3-0.1-0.4c0,0,0-0.1,0-0.1c0-0.2,0-0.3-0.1-0.5
		c0,0,0-0.1,0-0.1c0-0.3,0-0.6-0.1-0.9c0-0.1,0-0.2,0-0.3c0-0.2,0-0.3,0-0.5c0-0.2,0-0.3,0-0.5c0-0.2,0-0.4,0.1-0.6
		c0-0.2,0-0.4,0.1-0.6c0-0.1,0-0.2,0.1-0.4c0.1-0.3,0.1-0.6,0.2-0.8c0-0.1,0-0.1,0-0.2c0.1-0.3,0.2-0.5,0.3-0.8
		c0-0.1,0.1-0.2,0.1-0.3c0.1-0.3,0.3-0.6,0.4-0.9c0.4-0.7,0.8-1.4,1.3-2c0.1-0.2,0.2-0.3,0.3-0.4c0.1-0.2,0.2-0.3,0.4-0.5
		c1.2-1.5,2.4-2.8,3.5-3.7c0.7-0.6,1.1-1.5,1.1-2.4c0-0.9-0.4-1.7-1-2.4c0,0,0,0-0.1-0.1c-1.6-1.4-3.9-3.8-5.4-6.6
		c-0.2-0.3-0.3-0.6-0.4-0.9c0-0.1-0.1-0.2-0.1-0.3c-0.1-0.3-0.2-0.5-0.3-0.8c0-0.1,0-0.1-0.1-0.2c-0.1-0.3-0.1-0.5-0.2-0.8
		c0-0.1,0-0.2-0.1-0.4c0-0.2-0.1-0.4-0.1-0.5c0-0.1,0-0.2,0-0.4h-2c0.1,1.7,0.5,3.5,1.5,5.2c1.7,3.1,4.1,5.6,5.9,7.2
		c0.3,0.3,0.4,0.6,0.4,0.9s-0.2,0.7-0.4,0.9c-1.7,1.5-4.2,4-5.9,7.2c-1.7,3.1-1.7,6.4-1.4,8.7c-1.1,0.5-2,1.7-2,3.1
		c0,0.9,0.7,1.6,1.5,1.6h25.6c0.8,0,1.5-0.7,1.5-1.6C37.8,42.5,37,41.3,35.8,40.8z"/>
	<path d="M24.8,26.5C24.8,26.5,24.8,26.5,24.8,26.5c-0.3-0.6-0.5-1.1-0.6-1.7c0,0,0,0,0,0c-0.1-0.4-0.4-0.7-0.8-0.7
		s-0.7,0.3-0.8,0.7c0,0,0,0,0,0c-0.1,0.6-0.3,1.1-0.5,1.6c0,0,0,0.1,0,0.1c-0.1,0.2-0.3,0.5-0.4,0.7c0,0-0.1,0.1-0.1,0.1
		c-0.2,0.2-0.4,0.4-0.6,0.6c-1.5,1.3-3.6,3.5-5,6.1c-1.2,2.3-1.1,4.8-0.9,6.5h16.8c0.3-1.7,0.4-4.2-0.9-6.5c-1.4-2.6-3.5-4.8-5-6.1
		c-0.2-0.2-0.4-0.4-0.6-0.6c0,0-0.1-0.1-0.1-0.1C25.1,27,25,26.8,24.8,26.5z M19.6,35.3C19.2,36,18.9,37,18.8,38
		c0,0.5-0.5,0.9-1,0.9c0,0-0.1,0-0.1,0c-0.5-0.1-1-0.5-0.9-1.1c0.1-1.3,0.5-2.5,1.1-3.5c0.3-0.5,0.9-0.6,1.4-0.3
		C19.8,34.2,19.9,34.8,19.6,35.3z M22,32c-0.2,0.2-0.4,0.5-0.6,0.7c-0.2,0.2-0.5,0.4-0.8,0.4c-0.2,0-0.5-0.1-0.6-0.2
		c-0.4-0.4-0.5-1-0.1-1.4c0.2-0.2,0.4-0.5,0.7-0.7c0.4-0.4,1-0.4,1.4-0.1S22.4,31.6,22,32z"/>
	<path d="M10.6,8.7h25.6c0.8,0,1.5-0.7,1.5-1.6c0-1.9-1.4-3.4-3.2-3.4h-7.3C26.3,2.7,25,2,23.4,2s-2.9,0.7-3.9,1.7h-7.3
		c-1.7,0-3.2,1.5-3.2,3.4C9.1,8,9.8,8.7,10.6,8.7z"/>
</g>
</svg>
