<svg id="icon" xmlns="http://www.w3.org/2000/svg" viewBox="0 0 48 48"><title>Kopyah (Bulat)</title><path d="M34.91,11.53A20.63,20.63,0,0,0,25,9H23a20.64,20.64,0,0,0-9.91,2.52A36.22,36.22,0,0,0,24,13,35,35,0,0,0,34.91,11.53Z"/><path d="M3,37v3.06a1.23,1.23,0,0,0,.92,1.2C6.35,41.87,12.11,43,24,43s17.64-1.09,20.08-1.7a1.23,1.23,0,0,0,.92-1.2V37c-2.47.62-8.4,2-21,2S5.47,37.62,3,37Z"/><path d="M36.79,28.88,34.19,31a4.51,4.51,0,0,1-5.69,0l-3-2.48a2.31,2.31,0,0,0-2.92,0l-3,2.49a4.51,4.51,0,0,1-5.69,0l-2.59-2.12a4,4,0,0,0-4.38-.42L3,30.51V35c1.65.48,7.19,2,21,2s19.33-1.48,21-2v-4.5l-3.83-2A4,4,0,0,0,36.79,28.88Z"/><path d="M37,13l-.06,0c-3.65,1.42-7.73,2-12.94,2a36.54,36.54,0,0,1-12.91-2L11,13A18.6,18.6,0,0,0,3,28.06v.16l2.81-1.5a6.2,6.2,0,0,1,6.77.64l2.59,2.12a2.34,2.34,0,0,0,3,0l3-2.49a4.48,4.48,0,0,1,5.66,0l3,2.48a2.34,2.34,0,0,0,3,0l2.6-2.12a6.2,6.2,0,0,1,6.77-.64L45,28.22v-.16A18.61,18.61,0,0,0,37,13Z"/></svg>