<svg id="icon" xmlns="http://www.w3.org/2000/svg" viewBox="0 0 48 48"><title>Kopyah (Turki)</title><path d="M45,39,38,8a45.11,45.11,0,0,0-5.92-1.38A7.53,7.53,0,0,1,33,10v9.22a3,3,0,0,1,0,5.63V27.2a3.32,3.32,0,0,1,2,3.13c0,2.58-2.05,6-2.14,6.18a1,1,0,0,1-1.71,0c-.09-.15-2.14-3.6-2.14-6.18a3.32,3.32,0,0,1,2-3.13V24.82a3,3,0,0,1,0-5.63V10a5.31,5.31,0,0,0-1.67-3.72A53.23,53.23,0,0,0,24,6,56.84,56.84,0,0,0,10,8L3,39a1.31,1.31,0,0,0,1,1.33C6.79,41.25,13.67,43,24,43c10.83,0,17.39-1.72,20.06-2.65A1.34,1.34,0,0,0,45,39Z"/><path d="M32,29c-.54,0-1,.61-1,1.33A10.42,10.42,0,0,0,32,34a10.43,10.43,0,0,0,1-3.67C33,29.61,32.54,29,32,29Z"/><circle cx="32" cy="22" r="1"/></svg>