<svg id="icon" xmlns="http://www.w3.org/2000/svg" viewBox="0 0 48 48"><defs><style>.cls-1{fill:#2ed9d6;}.cls-2{fill:#2b72ff;}</style></defs><title>Fasting</title><path class="cls-1" d="M15,4a1,1,0,0,0-1,1v7a2,2,0,0,1-2,2H11V5A1,1,0,0,0,9,5v9H8a2,2,0,0,1-2-2V5A1,1,0,0,0,4,5v7a4,4,0,0,0,4,4H9v3a1,1,0,0,0,2,0V16h1a4,4,0,0,0,4-4V5A1,1,0,0,0,15,4Z"/><path class="cls-2" d="M13,19H7a1,1,0,0,0-1,1V42a3,3,0,0,0,3,3h2a3,3,0,0,0,3-3V20A1,1,0,0,0,13,19ZM12,42a1,1,0,0,1-1,1H9a1,1,0,0,1-1-1V21h4Z"/><path class="cls-2" d="M29.74,23.33a1,1,0,0,0-1.41-.07L23.5,27.65l-4.83-4.39a1,1,0,0,0-1.35,1.48L22,29l-4.69,4.26a1,1,0,0,0,1.35,1.48l4.83-4.39,4.83,4.39a1,1,0,0,0,1.35-1.48L25,29l4.69-4.26A1,1,0,0,0,29.74,23.33Z"/><path class="cls-2" d="M40,22H38V19a1,1,0,0,0-2,0v3H34a1,1,0,0,0-1,1V42a3,3,0,0,0,3,3h2a3,3,0,0,0,3-3V23A1,1,0,0,0,40,22ZM39,42a1,1,0,0,1-1,1H36a1,1,0,0,1-1-1V24h4Z"/><path class="cls-1" d="M37,19c-4.12,0-7-2.64-7-6.43C30,9.21,32.89,3,37,3s7,6.21,7,9.57C44,16.36,41.12,19,37,19ZM37,5c-2.53,0-5,4.79-5,7.57C32,15.63,34.51,17,37,17s5-1.37,5-4.43C42,9.79,39.53,5,37,5Z"/></svg>