<svg id="icon" xmlns="http://www.w3.org/2000/svg" viewBox="0 0 48 48"><defs><style>.cls-1{fill:#2b72ff;}.cls-2{fill:#2ed9d6;}</style></defs><title>Hajj</title><path class="cls-1" d="M44,45a1,1,0,0,1-1-.7l-2.41-7.63a6.1,6.1,0,0,0-1-1.56l-.39-.5a1,1,0,1,1,1.59-1.22l.36.46A7.74,7.74,0,0,1,42.53,36L45,43.7A1,1,0,0,1,44.3,45,1,1,0,0,1,44,45Z"/><circle class="cls-2" cx="20" cy="16" r="1"/><circle class="cls-2" cx="28" cy="16" r="1"/><path class="cls-1" d="M24,2A11,11,0,0,0,13,13v5a11,11,0,0,0,4,8.48v2.58a35.22,35.22,0,0,0-4.42.51,10.27,10.27,0,0,0-7.13,6.49L3,43.7A1,1,0,0,0,3.7,45,1,1,0,0,0,4,45a1,1,0,0,0,1-.7l2.4-7.59a8.25,8.25,0,0,1,5.72-5.2,44.52,44.52,0,0,1,5-.51A1,1,0,0,0,19,30V27.79a10.9,10.9,0,0,0,10,0V29a1,1,0,0,0,2,0V26.48A11,11,0,0,0,35,18V13A11,11,0,0,0,24,2Zm0,2a9,9,0,0,1,8.33,5.62A5.35,5.35,0,0,0,30,9a5.51,5.51,0,0,0-2.87,1,5.34,5.34,0,0,1-6.27,0A5.51,5.51,0,0,0,18,9a5.35,5.35,0,0,0-2.33.62A9,9,0,0,1,24,4Zm9,14a9,9,0,0,1-18,0V13c0-.2,0-.39,0-.58A5.41,5.41,0,0,1,18,11a3.82,3.82,0,0,1,1.86.71,7.3,7.3,0,0,0,8.28,0A3.82,3.82,0,0,1,30,11a5.41,5.41,0,0,1,3,1.42c0,.19,0,.39,0,.58v5Z"/><path class="cls-1" d="M11,46a1,1,0,0,1-.39-.08,1,1,0,0,1-.53-1.31l3-7a1,1,0,0,1,1.84.79l-3,7A1,1,0,0,1,11,46Z"/><path class="cls-2" d="M11,46a1,1,0,0,1-.87-1.5c4.09-7.16,19.71-16,20.38-16.37a1,1,0,0,1,.88-.05c.8.33,3.08,1.25,4,1.5a9.76,9.76,0,0,1,5.38,3.82,1,1,0,0,1-.19,1.41C38.49,36.39,33,41.32,33,45a1,1,0,0,1-2,0c0-4.47,5.45-9.4,7.58-11.15a7.32,7.32,0,0,0-3.65-2.34,39.49,39.49,0,0,1-3.85-1.4c-2.53,1.47-15.74,9.32-19.2,15.38A1,1,0,0,1,11,46Z"/></svg>