<svg id="icon" xmlns="http://www.w3.org/2000/svg" viewBox="0 0 48 48"><defs><style>.cls-1{fill:#2b72ff;}</style></defs><title>Shalat (Sedekap)</title><path class="cls-1" d="M11.83,46.89h0a1,1,0,0,1-1-1c0-.53,0-13.16,2.21-21.15.43-1.59,1-3.31,1.67-5.12a1,1,0,0,1,1.87.7c-.65,1.75-1.2,3.41-1.61,4.94-2.11,7.74-2.14,20.5-2.14,20.63A1,1,0,0,1,11.83,46.89Z"/><path class="cls-1" d="M34,13a1,1,0,0,1-.41-.09l-11-5a1,1,0,0,1,.83-1.82l11,5A1,1,0,0,1,34,13Z"/><path class="cls-1" d="M28.25,21a8.09,8.09,0,0,0,3.45-2.26,23.86,23.86,0,0,0,4.92-8.08A8.1,8.1,0,0,0,37,8c0-1.41-.69-3.34-3.47-4.49l-5-2.09a4.86,4.86,0,0,0-6.11,2.1A119.39,119.39,0,0,0,14.7,19.62a1,1,0,0,0,.59,1.29,1,1,0,0,0,.47,0l.12,0,8.44,1a76.92,76.92,0,0,1,3.3,12H24a1,1,0,0,1-1-1V26a1,1,0,0,0-2,0v7a3,3,0,0,0,3,3h4c.26,1.6.48,3.28.63,5H21.06a3.76,3.76,0,0,1-3.42-2.2l-3.73-8.21a1,1,0,1,0-1.82.83l3.73,8.21A5.76,5.76,0,0,0,21.06,43h7.69c.05,1,.08,1.92.08,2.89a1,1,0,0,0,2,0c0-1.66-.08-3.29-.21-4.89h1.89a2.44,2.44,0,0,0,2.44-3l-.41-2a2.49,2.49,0,0,0-2.44-2H29.66A77.36,77.36,0,0,0,26,20.71v0h0L25.71,20l1.84.92A1,1,0,0,0,28.25,21ZM32.1,36a.49.49,0,0,1,.47.39l.41,2a.83.83,0,0,1,0,.15.49.49,0,0,1-.5.43H30.42c-.12-1-.26-2-.41-3ZM24.45,17.11a1,1,0,0,0-1.4,1.21l.53,1.6L17,19.12a123.45,123.45,0,0,1,7.1-14.66,2.86,2.86,0,0,1,3.6-1.24l5,2.09C34.71,6.13,35,7.26,35,8a6.26,6.26,0,0,1-.24,1.87,21.87,21.87,0,0,1-4.47,7.39,7.39,7.39,0,0,1-2.22,1.63Z"/></svg>