<svg id="icon" xmlns="http://www.w3.org/2000/svg" viewBox="0 0 48 48"><defs><style>.cls-1{fill:#2b72ff;}</style></defs><title>Shalat (Ruku)</title><path class="cls-1" d="M14,46a1,1,0,0,1-.71-.29l-3-3A1,1,0,0,1,10,42V39a1,1,0,0,1,2,0v2.59l2.71,2.71A1,1,0,0,1,14,46Z"/><path class="cls-1" d="M16,46H8a3,3,0,0,1-3-3V39a1,1,0,0,1,2,0v4a1,1,0,0,0,1,1h8a1,1,0,0,1,0,2Z"/><path class="cls-1" d="M13,40a1,1,0,0,1-1-1V20a4,4,0,0,1,4-4h3a1,1,0,0,1,0,2H16a2,2,0,0,0-2,2V39A1,1,0,0,1,13,40Z"/><path class="cls-1" d="M3,40a1,1,0,0,1-1-1V14C2,8,7.63,4,16,4,26.16,4,32.11,6.79,33.95,7.81l4.44-3.17A3.4,3.4,0,0,1,40.32,4a3.46,3.46,0,0,1,2.9,1.52l3.17,4.75a3.65,3.65,0,0,1-1.29,5.24A23.38,23.38,0,0,1,34,18a1,1,0,0,1-1-1V15H32a1,1,0,0,1,0-2h2a1,1,0,0,1,1,1v2a20.86,20.86,0,0,0,9.15-2.24,1.6,1.6,0,0,0,.85-1.4,1.66,1.66,0,0,0-.28-1L41.55,6.63A1.42,1.42,0,0,0,40.37,6h0a1.41,1.41,0,0,0-.8.26l-5,3.55a1,1,0,0,1-1.14,0C33.39,9.79,27.5,6,16,6,10.46,6,4,8.1,4,14V39A1,1,0,0,1,3,40Z"/><path class="cls-1" d="M17,27a1,1,0,0,1-1-1V22a1,1,0,0,1,2,0v1.92l13-10.4V8a1,1,0,0,1,2,0v6a1,1,0,0,1-.37.78l-15,12A1,1,0,0,1,17,27Z"/><path class="cls-1" d="M13,33a1,1,0,0,1-.52-1.85L15,29.63A3.81,3.81,0,0,0,16,27V26a1,1,0,0,1,2,0v1a5.79,5.79,0,0,1-1.71,4.12,1,1,0,0,1-.18.15l-2.59,1.59A1,1,0,0,1,13,33Z"/><path class="cls-1" d="M17,17a1,1,0,0,1-1-1V5a1,1,0,0,1,2,0V16A1,1,0,0,1,17,17Z"/><path class="cls-1" d="M13,28a1,1,0,0,1-.82-1.57l9-13a1,1,0,0,1,1.64,1.14l-9,13A1,1,0,0,1,13,28Z"/><path class="cls-1" d="M13,40H3a1,1,0,0,1,0-2H13a1,1,0,0,1,0,2Z"/><path class="cls-1" d="M42,16a1,1,0,0,1-.85-.47l-5-8a1,1,0,1,1,1.7-1.06l5,8A1,1,0,0,1,42,16Z"/></svg>