<svg id="icon" xmlns="http://www.w3.org/2000/svg" viewBox="0 0 48 48"><defs><style>.cls-1{fill:#2b72ff;}</style></defs><title>Shalat (Sedekap) front</title><path class="cls-1" d="M23,12c-6.23,0-8.47-2.06-8.71-2.29a1,1,0,0,1,1.4-1.42c.06.06,2,1.72,7.3,1.72s7.26-1.8,7.28-1.82a1,1,0,0,1,1.41,0,1,1,0,0,1,0,1.4C31.49,9.81,29.25,12,23,12Z"/><path class="cls-1" d="M35.71,24.29A13.26,13.26,0,0,0,29,21.14v-1.7A8.63,8.63,0,0,0,32,13V7a6.41,6.41,0,0,0-6-6H20a6.41,6.41,0,0,0-6,6v6a8.63,8.63,0,0,0,3,6.44v1.7a13.26,13.26,0,0,0-6.71,3.15C8.11,26.48,7,29.74,7,34v2.56a6.15,6.15,0,0,0,5,6.35c0,.55,0,1.11,0,1.69s0,.92,0,1.4a1,1,0,0,0,2,0c0-.49,0-1,0-1.43s0-1.06,0-1.57h5a1,1,0,0,0,1-1V41h7v1a1,1,0,0,0,1,1h4c0,.51,0,1,0,1.57s0,.95,0,1.43a1,1,0,0,0,2,0c0-.48,0-.94,0-1.4s0-1.14,0-1.69a6.15,6.15,0,0,0,5-6.35V34C39,29.74,37.89,26.48,35.71,24.29ZM16,13V7a4.4,4.4,0,0,1,4-4h6a4.4,4.4,0,0,1,4,4v6c0,4.53-4.62,7-7,7S16,17.53,16,13Zm7,9a8.61,8.61,0,0,0,4-1.14v.88c-.41.72-2,3.26-4,3.26-1.82,0-3.41-2.18-4-3.25v-.89A8.61,8.61,0,0,0,23,22ZM20,36h3v3H20Zm5,3V36h2v3Zm12-2.44C37,39.13,35.32,41,33,41H29V34h5a1,1,0,0,0,0-2H32.84a12.51,12.51,0,0,0-1-3.51,1,1,0,0,0-1.34-.35,1,1,0,0,0-.4,1.35A11.53,11.53,0,0,1,30.8,32H28a1,1,0,0,0-1,1v1H20V33a1,1,0,0,0-1-1H15.2a11.77,11.77,0,0,1,.67-2.51,1,1,0,0,0-1.73-1,12.5,12.5,0,0,0-1,3.51H12a1,1,0,0,0,0,2h6v7H13c-2.32,0-4-1.87-4-4.44V34c0-3.71.91-6.5,2.71-8.29a11.45,11.45,0,0,1,5.77-2.62C18.25,24.35,20.21,27,23,27s4.75-2.65,5.53-3.91a11.45,11.45,0,0,1,5.77,2.62C36.09,27.5,37,30.29,37,34Z"/></svg>