<svg id="icon" xmlns="http://www.w3.org/2000/svg" viewBox="0 0 48 48"><defs><style>.cls-1{fill:#2b72ff;}</style></defs><title>Shalat (Sujud)</title><path class="cls-1" d="M24,31.45a1,1,0,0,1-.93-.62,14.68,14.68,0,0,0-2.78-4.12,1,1,0,0,1,1.42-1.41,16.51,16.51,0,0,1,3.22,4.77A1,1,0,0,1,24,31.45Z"/><path class="cls-1" d="M45,35H42.13c-2.24-6.75-6.5-12.81-11.62-15.86A23.44,23.44,0,0,0,20,16h-.19C15.58,16,12,17.14,10,19.14A6.61,6.61,0,0,0,8,24c0,5,3.44,8.88,5.95,11H8a1,1,0,0,0-1,1v9a1,1,0,0,0,1,1H23a3.23,3.23,0,0,0,2.08-.84,6,6,0,0,0,1.76-3.6l2.93,3.2c.41.45.87,1.23,1.57,1.23H44.89A3.11,3.11,0,0,0,48,42.9V38A2.93,2.93,0,0,0,45,35ZM30.9,27.56a1,1,0,0,0-1.34-.45l-5.21,2.57C22.48,30.6,22,34.15,22,35a3.16,3.16,0,0,0,1.08,2.49l2,2.17a1,1,0,0,0-.06.29c-.25,4-1.92,4.06-2,4.06H9V37h8a1,1,0,0,0,.51-1.86C17.43,35.09,10,30.61,10,24a4.62,4.62,0,0,1,1.4-3.44C13.07,18.9,16.16,18,20,18a21.68,21.68,0,0,1,9.5,2.86C34.07,23.59,37.92,29,40,35H31a1,1,0,0,0-.93,1.37l2,5a1,1,0,0,0,.18.28l-1.08,1.71-6.61-7.23C24,35.54,24,35.45,24,35c0-1.23.67-3.27,1.24-3.55l5.21-2.57A1,1,0,0,0,30.9,27.56Zm2.63,12.07L32.48,37h2.71ZM33.13,44l1.26-2H37a2.83,2.83,0,0,1,2.27.68L40.51,44Zm7.57-2.71A4.83,4.83,0,0,0,37,40H35.66l1.89-3h3.12a31,31,0,0,1,1,5.33ZM46,42.9A1.11,1.11,0,0,1,44.89,44H43.8a31.8,31.8,0,0,0-1.07-7H45a.94.94,0,0,1,1,1Z"/><path class="cls-1" d="M23,29a1,1,0,0,1-1-1V18a1,1,0,0,1,2,0V28A1,1,0,0,1,23,29Z"/><path class="cls-1" d="M2,45a1,1,0,0,1-.71-1.71l3-3A1,1,0,0,1,5,40H7a1,1,0,0,1,0,2H5.42L2.75,44.67A1,1,0,0,1,2,45Z"/><path class="cls-1" d="M4.14,46H2a2,2,0,0,1-2-2V38a2.93,2.93,0,0,1,3-3H8a1,1,0,0,1,0,2H3a1,1,0,0,0-1,1v6l2.14,0a1,1,0,0,1,0,2Z"/></svg>