<svg id="icon" xmlns="http://www.w3.org/2000/svg" viewBox="0 0 48 48"><defs><style>.cls-1{fill:#2b72ff;}.cls-2{fill:#2ed9d6;}</style></defs><title>Wudhu</title><path class="cls-1" d="M43.76,34.29a3.83,3.83,0,0,0-4.89-2.07l-10.5,3.69a1.68,1.68,0,0,1-.54.09,1.4,1.4,0,0,1-.53-.12l-.82-.37a3.15,3.15,0,0,0-.13-2,3.11,3.11,0,0,0-1.72-1.7l-7.43-3.4a6.73,6.73,0,0,0-4.78,0L8.7,30,3.8,31a1,1,0,0,0,.39,2l5-1,.2-.06,3.78-1.63A4.52,4.52,0,0,1,15,30a4.6,4.6,0,0,1,1.47.28l7.42,3.39a1.14,1.14,0,0,1,.64,1.53,1.26,1.26,0,0,1-1,.8,1.6,1.6,0,0,1-.51-.08L16.27,34A1,1,0,0,0,15.73,36l6.76,1.88a3.74,3.74,0,0,0,1,.16h.15a3,3,0,0,0,1.77-.77l1.05.48a3.4,3.4,0,0,0,1.3.29,3.26,3.26,0,0,0,1.29-.22l10.42-3.67a1.83,1.83,0,0,1,2.41.89c.32.82,0,2-1.46,2.72L27.49,42.31l-.11,0a5.39,5.39,0,0,1-5.12,0L15.43,39.1a1,1,0,0,0-.69-.06l-11,3A1,1,0,0,0,4.26,44l10.64-2.9,6.47,3.08a7.35,7.35,0,0,0,6.84,0l12.94-4.58.11,0C43.87,38.24,44.38,35.91,43.76,34.29Z"/><path class="cls-2" d="M28,31a5.2,5.2,0,0,1-5-5c0-3.69,4.14-7.57,4.32-7.73a1,1,0,0,1,1.36,0c.18.16,4.32,4,4.32,7.73A5.2,5.2,0,0,1,28,31Zm0-10.58c-1.21,1.3-3,3.66-3,5.58a3.2,3.2,0,0,0,3,3,3.2,3.2,0,0,0,3-3C31,24.07,29.21,21.72,28,20.42Z"/><path class="cls-1" d="M44,15H41V10h3a1,1,0,0,0,0-2H40a1,1,0,0,0-1,1H37V6a3,3,0,0,0-3-3H21a1,1,0,0,0,0,2H31V9H29a5,5,0,0,0-5,5v5a1,1,0,0,0,1,1h6a1,1,0,0,0,1-1V16h7a1,1,0,0,0,1,1h4a1,1,0,0,0,0-2ZM34,5a1,1,0,0,1,1,1V8H33V5Zm-2,9a2,2,0,0,0-2,2v2H26V14a3,3,0,0,1,3-3h3a1,1,0,0,0,1-1h2a1,1,0,0,0,1,1h3v3Z"/></svg>