<svg id="icon" xmlns="http://www.w3.org/2000/svg" viewBox="0 0 48 48"><defs><style>.cls-1{fill:#2b72ff;}.cls-2{fill:#2ed9d6;}</style></defs><title>Zakat</title><path class="cls-1" d="M41,24H29a1,1,0,0,0,0,2H41a1,1,0,0,1,1,1v9H6V27a1,1,0,0,1,1-1H19a1,1,0,0,0,0-2H7a3,3,0,0,0-3,3V46a1,1,0,0,0,2,0V38H42v8a1,1,0,0,0,2,0V27A3,3,0,0,0,41,24Z"/><path class="cls-1" d="M43.14,13l-7-1a1,1,0,0,0-.59.1l-2.21,1.11c-1.11.55-4.65,1.84-4.76,1.88l-7.79,3.58-.12.07A1.43,1.43,0,0,1,20,19a1.47,1.47,0,0,1-1.26-.8,1,1,0,0,1,.46-1.27l7.39-5.11a1,1,0,1,0-1.14-1.64L24.21,11,23,10.68A16.71,16.71,0,0,0,20.23,10a3.54,3.54,0,0,0-1.29.22L8.52,13.88A1.83,1.83,0,0,1,6.11,13c-.32-.82,0-2,1.46-2.72L22.05,5.05a.73.73,0,0,1,.23,0L43,6a1,1,0,0,0,1-1,1,1,0,0,0-1-1L22.37,3a2.52,2.52,0,0,0-1,.17L6.84,8.41l-.11,0c-2.6,1.3-3.11,3.63-2.49,5.25A3.62,3.62,0,0,0,7.75,16a4.86,4.86,0,0,0,1.39-.21l10.49-3.69a1.52,1.52,0,0,1,.47-.1c.21,0,1.2.31,2,.52l-3.94,2.73a2.92,2.92,0,0,0-1.2,3.86,3.41,3.41,0,0,0,3,1.91H20a3.31,3.31,0,0,0,1.67-.54l7.65-3.52c.15-.05,3.68-1.33,4.9-1.94l1.93-1,6.69,1a1,1,0,0,0,.28-2Z"/><path class="cls-2" d="M24,32a5.5,5.5,0,1,1,5.5-5.5A5.51,5.51,0,0,1,24,32Zm0-9a3.5,3.5,0,1,0,3.5,3.5A3.5,3.5,0,0,0,24,23Z"/><path class="cls-1" d="M33,32H15a1,1,0,0,1,0-2H33a1,1,0,0,1,0,2Z"/></svg>