<svg id="icon" xmlns="http://www.w3.org/2000/svg" viewBox="0 0 48 48"><defs><style>.cls-1{fill:#2ed9d6;}.cls-2{fill:#2b72ff;}</style></defs><title>Outfit (Man)</title><path class="cls-1" d="M22,20a1,1,0,0,1-1-1V7a1,1,0,0,1,2,0V17.83A3,3,0,0,0,25,15V7a1,1,0,0,1,2,0v8A5,5,0,0,1,22,20Z"/><path class="cls-1" d="M27,42a1,1,0,0,1-.32-1.95l3-1a1,1,0,0,1,.76.05l1.67.83L35.76,39a1,1,0,0,1,.56,0l2.68.89,2.68-.89a1,1,0,1,1,.63,1.9l-3,1a1,1,0,0,1-.63,0L36,41,32.24,42a1,1,0,0,1-.69-.08l-1.63-.81-2.61.87A1,1,0,0,1,27,42Z"/><path class="cls-1" d="M9.65,29.68a1,1,0,0,1-.34-.06L4.66,27.94a1,1,0,1,1,.68-1.88L10,27.74a1,1,0,0,1-.34,1.94Z"/><path class="cls-1" d="M38.24,29.68a1,1,0,0,1-.34-1.94l4.65-1.68a1,1,0,1,1,.68,1.88l-4.65,1.68A1,1,0,0,1,38.24,29.68Z"/><path class="cls-2" d="M46,30.61l-8.11-19A9.42,9.42,0,0,0,31,6.17V4a2,2,0,0,0-2-2H19a2,2,0,0,0-2,2V6.19a9.41,9.41,0,0,0-6.81,5.41l-8.11,19a1,1,0,0,0,.59,1.33l5.64,2a1,1,0,0,0,1.25-.55l4.36-10.27A205.4,205.4,0,0,1,12,44.85,1,1,0,0,0,13,46H43a1,1,0,0,0,1-1V42a8,8,0,0,0-8-8H34.9c-.18-1.82-.58-6.2-.75-11l4.37,10.35a1,1,0,0,0,1.26.55l5.64-2A1,1,0,0,0,46,30.61ZM29,4V6H19V4ZM42,42v2H27V42a6,6,0,0,1,6-6h3A6,6,0,0,1,42,42ZM40,31.74l-2.8-6.63L35,19.95C33.7,16.86,33.7,16.86,32.89,17a1,1,0,0,0-.81,1c-.07,6.34.55,13.36.81,16A8,8,0,0,0,25,42v2H14.15A204.93,204.93,0,0,0,16,18a1,1,0,0,0-1.92-.39l-6,14.13L4.34,30.41,12,12.4A7.46,7.46,0,0,1,18.82,8H29.27a7.46,7.46,0,0,1,6.79,4.38l7.69,18Z"/></svg>