<svg id="icon" xmlns="http://www.w3.org/2000/svg" viewBox="0 0 48 48"><defs><style>.cls-1{fill:#2ed9d6;}.cls-2{fill:#2b72ff;}</style></defs><title>Outfit (Woman)</title><path class="cls-1" d="M8.65,27.68a1,1,0,0,1-.34-.06L3.66,25.94a1,1,0,1,1,.68-1.88L9,25.74a1,1,0,0,1-.34,1.94Z"/><path class="cls-1" d="M37.35,27.68A1,1,0,0,1,37,25.74l4.65-1.68a1,1,0,1,1,.68,1.88l-4.65,1.68A1,1,0,0,1,37.35,27.68Z"/><path class="cls-1" d="M28.89,47a1,1,0,0,1-.67-.26c-.33-.3-3.22-3-3.22-5.74,0-1.35.52-3.62,4-3.62a1,1,0,1,1,0,2c-1.68,0-2,.57-2,1.62,0,1.58,1.9,3.65,2.56,4.25A1,1,0,0,1,28.89,47Z"/><path class="cls-2" d="M32,31H26a1,1,0,0,0-1,1v3.37a4,4,0,0,0,8,0V32A1,1,0,0,0,32,31Zm-1,4.37a2,2,0,0,1-4,0V33h4Z"/><path class="cls-2" d="M44.92,28.61l-8.11-19A9.46,9.46,0,0,0,28.18,4H27a1,1,0,0,0-1,1H20a1,1,0,0,0-1-1H17.82A9.46,9.46,0,0,0,9.19,9.6l-8.11,19a1,1,0,0,0,.59,1.33l5.64,2a1,1,0,0,0,1.26-.56L13,20.65A134.21,134.21,0,0,1,11,42.8,1,1,0,0,0,12,44h8.92c2,2.05,6.64,3,8.08,3,1.85,0,9-1.55,9-5a15,15,0,0,0-.77-3.82A25.63,25.63,0,0,1,36,31a6.11,6.11,0,0,0-2.82-4.79c-.09-1.84-.14-3.69-.16-5.54l4.42,10.71a1,1,0,0,0,1.26.56l5.64-2a1,1,0,0,0,.59-1.33ZM25.63,7a2.73,2.73,0,0,1-5.26,0ZM34,31a27.29,27.29,0,0,0,1.31,7.73A14,14,0,0,1,36,42c0,1.26-4.86,3-7,3s-7-1.74-7-3a14,14,0,0,1,.69-3.27A27.29,27.29,0,0,0,24,31c0-1.39,1.47-4,5-4S34,29.61,34,31Zm4.93-1.26-5-12.12a1,1,0,0,0-.38-.43,9,9,0,0,0-.65-5.63,1,1,0,1,0-1.79.89c1.39,2.78,0,6.12,0,6.15A1,1,0,0,0,31,19c0,2.08.05,4.19.14,6.29A8,8,0,0,0,29,25c-4.57,0-7,3.48-7,6a25.63,25.63,0,0,1-1.23,7.18A15,15,0,0,0,20,42H13.19A143.77,143.77,0,0,0,15,19a1,1,0,0,0-.08-.4s-1.42-3.37,0-6.16a1,1,0,1,0-1.79-.89,9,9,0,0,0-.65,5.63,1,1,0,0,0-.38.43l-5,12.12L3.34,28.41,11,10.4A7.46,7.46,0,0,1,17.82,6h.25c.29,2.13,1.55,5,4.93,5s4.63-2.87,4.93-5h.25A7.46,7.46,0,0,1,35,10.38l7.69,18Z"/></svg>