<?xml version="1.0" encoding="utf-8"?>
<!-- Generator: Adobe Illustrator 25.1.0, SVG Export Plug-In . SVG Version: 6.00 Build 0)  -->
<svg version="1.1" id="icon" xmlns="http://www.w3.org/2000/svg" xmlns:xlink="http://www.w3.org/1999/xlink" x="0px" y="0px"
	 viewBox="0 0 48 48" style="enable-background:new 0 0 48 48;" xml:space="preserve">
<style type="text/css">
	.st0{fill:#FFFFFF;}
	.st1{fill:#2B72FF;}
	.st2{fill:#2ED9D6;}
	.st3{fill:#BDD6FF;}
</style>
<g>
	<path class="st1" d="M46.5,10.3c-0.1-1.4-1-2.7-2.4-3.1L26.5,1.5c-1.6-0.5-3.3-0.5-4.9,0L3.9,7.2c-1.4,0.4-2.3,1.7-2.4,3.1
		c-0.3,6.8,0.2,29.6,21,36.3c0.5,0.2,1,0.2,1.5,0.2s1-0.1,1.5-0.2C46.2,39.9,46.8,17.1,46.5,10.3z M24.9,44.7
		c-0.6,0.2-1.2,0.2-1.8,0C3.7,38.5,3.2,16.9,3.5,10.4c0-0.6,0.4-1.1,1-1.3l17.6-5.6c0.6-0.2,1.2-0.3,1.9-0.3s1.3,0.1,1.9,0.3
		l17.6,5.6c0.6,0.2,1,0.7,1,1.3C44.8,16.9,44.3,38.5,24.9,44.7z"/>
	<path class="st2" d="M40,12L25.2,7.2c-0.7-0.2-1.6-0.2-2.3,0L8,12c-0.4,0.1-0.7,0.5-0.7,0.9C7.2,19.6,8.5,35.5,23,40.7v2.3
		c0,0.6,0.4,1,1,1s1-0.4,1-1v-2.3c14.5-5.2,15.8-21.1,15.7-27.8C40.7,12.5,40.4,12.1,40,12z M24,38.9C10.9,34.4,9.3,20.3,9.3,13.6
		l14.2-4.5c0.3-0.1,0.7-0.1,1.1,0l14.2,4.5C38.7,20.3,37.1,34.5,24,38.9z"/>
	<path class="st1" d="M23.3,13.6L20.9,16h-3.4c-0.6,0-1,0.4-1,1v3.4l-2.4,2.4c-0.2,0.2-0.3,0.4-0.3,0.7s0.1,0.5,0.3,0.7l2.4,2.4V30
		c0,0.6,0.4,1,1,1h3.4l2.4,2.4c0.2,0.2,0.5,0.3,0.7,0.3s0.5-0.1,0.7-0.3l2.4-2.4h3.4c0.6,0,1-0.4,1-1v-3.4l2.4-2.4
		c0.2-0.2,0.3-0.4,0.3-0.7s-0.1-0.5-0.3-0.7l-2.4-2.4V17c0-0.6-0.4-1-1-1h-3.4l-2.4-2.4C24.3,13.2,23.7,13.2,23.3,13.6z M26,17.7
		c0.2,0.2,0.4,0.3,0.7,0.3h2.8v2.8c0,0.3,0.1,0.5,0.3,0.7l2,2l-2,2c-0.2,0.2-0.3,0.4-0.3,0.7V29h-2.8c-0.3,0-0.5,0.1-0.7,0.3l-2,2
		l-2-2c-0.2-0.2-0.4-0.3-0.7-0.3h-2.8v-2.8c0-0.3-0.1-0.5-0.3-0.7l-2-2l2-2c0.2-0.2,0.3-0.4,0.3-0.7V18h2.8c0.3,0,0.5-0.1,0.7-0.3
		l2-2L26,17.7z"/>
</g>
</svg>
