<svg id="icon" xmlns="http://www.w3.org/2000/svg" viewBox="0 0 48 48"><defs><style>.cls-1{fill:#2ed9d6;}.cls-2{fill:#2b72ff;}</style></defs><title>Kopyah (Bulat)</title><path class="cls-1" d="M24,38C7,38,2.72,36,2.55,35.89a1,1,0,0,1,.89-1.79S7.67,36,24,36s20.52-1.88,20.56-1.9a1,1,0,0,1,1.33.47,1,1,0,0,1-.45,1.33C45.28,36,41,38,24,38Z"/><path class="cls-1" d="M24,15a33.57,33.57,0,0,1-12.36-2.07,1,1,0,0,1,.73-1.86A31.61,31.61,0,0,0,24,13a30.24,30.24,0,0,0,11.62-1.93,1,1,0,1,1,.75,1.85A32.13,32.13,0,0,1,24,15Z"/><path class="cls-1" d="M17,32a4.15,4.15,0,0,1-2.71-1l-2.47-2.12a3.67,3.67,0,0,0-4.17-.42L3.51,30.79a1,1,0,1,1-1-1.74l4.14-2.32a5.67,5.67,0,0,1,6.45.64l2.47,2.12a2.15,2.15,0,0,0,2.82,0L21.31,27a4.11,4.11,0,0,1,5.39,0l2.9,2.48a2.15,2.15,0,0,0,2.82,0l2.47-2.12a5.68,5.68,0,0,1,6.45-.64L45.47,29a1,1,0,1,1-1,1.74l-4.14-2.32a3.67,3.67,0,0,0-4.17.41L33.71,31a4.14,4.14,0,0,1-5.42,0l-2.9-2.48a2.12,2.12,0,0,0-2.78,0L19.71,31A4.15,4.15,0,0,1,17,32Z"/><path class="cls-2" d="M24,43C7,43,2.72,41,2.55,40.89A1,1,0,0,1,2,40V28.06A21.08,21.08,0,0,1,23.06,7h1.88A21.08,21.08,0,0,1,46,28.06V40a1,1,0,0,1-.55.89C45.28,41,41,43,24,43ZM4,39.3c1.58.48,6.86,1.7,20,1.7s18.41-1.21,20-1.7V28.06A19.08,19.08,0,0,0,24.94,9H23.06A19.08,19.08,0,0,0,4,28.06ZM45,40h0Z"/></svg>