<svg id="icon" xmlns="http://www.w3.org/2000/svg" viewBox="0 0 48 48"><defs><style>.cls-1{fill:#2b72ff;}.cls-2{fill:#2ed9d6;}</style></defs><title>Kopyah (Turki)</title><path class="cls-1" d="M24,45C8.94,45,2.81,42,2.55,41.89A1,1,0,0,1,2,40.83l6-34A1,1,0,0,1,8.73,6,61.69,61.69,0,0,1,24,4,61.69,61.69,0,0,1,39.27,6a1,1,0,0,1,.71.79l6,34a1,1,0,0,1-.47,1C45.3,42,40.09,45,24,45ZM4.12,40.38C6.05,41.11,12.22,43,24,43c12.46,0,18.14-1.86,19.88-2.58L38.13,7.8A61.31,61.31,0,0,0,24,6,61.31,61.31,0,0,0,9.87,7.8Z"/><path class="cls-2" d="M32,29a1,1,0,0,1-1-1V24.3a1,1,0,1,1,2,0V28A1,1,0,0,1,32,29Z"/><path class="cls-2" d="M32,20.65a1,1,0,0,1-1-1V10a5,5,0,0,0-4.89-5H23a1,1,0,0,1,0-2h3.11A7,7,0,0,1,33,10v9.69A1,1,0,0,1,32,20.65Z"/><path class="cls-1" d="M32,37a1,1,0,0,1-.86-.49c-.09-.15-2.14-3.6-2.14-6.18A3.18,3.18,0,0,1,32,27a3.18,3.18,0,0,1,3,3.33c0,2.58-2.05,6-2.14,6.18A1,1,0,0,1,32,37Zm0-8c-.54,0-1,.61-1,1.33a9.59,9.59,0,0,0,1,3.49,9.59,9.59,0,0,0,1-3.49C33,29.61,32.54,29,32,29Z"/><path class="cls-1" d="M32,25a3,3,0,1,1,3-3A3,3,0,0,1,32,25Zm0-4a1,1,0,1,0,1,1A1,1,0,0,0,32,21Z"/></svg>