<svg id="icon" xmlns="http://www.w3.org/2000/svg" viewBox="0 0 48 48"><defs><style>.cls-1{fill:#2ed9d6;}.cls-2{fill:#2b72ff;}</style></defs><title>Kopyah (Kotak)</title><path class="cls-1" d="M24,19c-1.64,0-16-.11-16-4s14.36-4,16-4,16,.11,16,4S25.64,19,24,19ZM10.12,15c1,.76,5.66,2,13.88,2s12.91-1.24,13.88-2c-1-.76-5.66-2-13.88-2S11.09,14.24,10.12,15ZM38,15.15h0Z"/><path class="cls-1" d="M23,37c-8.73-.07-16.59-1.34-19.57-3.15a1,1,0,0,1,1-1.71C6.76,33.5,13.84,34.92,23.06,35H25c9.26-.08,16.33-1.49,18.52-2.85a1,1,0,1,1,1.05,1.7C41.61,35.66,33.74,36.93,25,37Z"/><path class="cls-2" d="M23,43c-7.51-.06-20.39-1.15-21-4.82a1,1,0,0,1,0-.26l2-24C4,13,5,8,24,8s20,5,20,6l2,23.92a1,1,0,0,1,0,.26c-.65,3.67-13.52,4.76-21,4.82ZM4,37.88c.67,1.08,7.42,3,19,3.12H25c11.57-.1,18.32-2,19-3.13L42,14.08C42,14,40.88,10,24,10S6,14,6,14Z"/></svg>