<svg id="icon" xmlns="http://www.w3.org/2000/svg" viewBox="0 0 48 48"><defs><style>.cls-1{fill:#231f20;}</style></defs><title>Ant</title><path class="cls-1" d="M46,9a1,1,0,0,0-1,1,1,1,0,0,1-1,1H40.83a7.78,7.78,0,0,0-5.54,2.29,1,1,0,0,0-.27.83q-.5-.06-1-.09s0,0,0,0a5,5,0,0,1,5-5h2a3,3,0,0,0,3-3,1,1,0,0,0-2,0,1,1,0,0,1-1,1H39a7,7,0,0,0-7,7v.29C30.78,15,30,17,30,19H27c-2.28,0-3.54,1.83-3.89,3.68C21.82,21.55,19.15,21,15,21c-6.9,0-14,3.12-14,8.35C1,32.37,3.46,33,7.44,33A30,30,0,0,0,11,32.75l-5.8,8.7a1,1,0,1,0,1.66,1.11l5.86-8.79s.45-.65,1-1.45a29,29,0,0,0,2.86-.73L13.13,37.5a1,1,0,1,0,1.74,1L18,33h0l.84-1.48a.93.93,0,0,0,0-.11c.18-.33.34-.64.48-.93a12.24,12.24,0,0,0,2.14-1.32L19,37.74a1,1,0,0,0,.7,1.23A1,1,0,0,0,20,39a1,1,0,0,0,1-.74l3-11c.05-.19.24-.73.43-1.35a5.47,5.47,0,0,0,.62.34v1.67s0,0,0,.08a21.88,21.88,0,0,1-1.33,7.51L22,41.75A1,1,0,0,0,22.75,43,1,1,0,0,0,23,43a1,1,0,0,0,1-.75l1.61-6.15A23.61,23.61,0,0,0,27,28.46h0V26.87a8.88,8.88,0,0,0,1.51.13h.19l4.38,11.38a1,1,0,1,0,1.86-.74l-3.85-10c2.87,1.76,5.11,5.66,6.28,8.7l2.73,6.1A1,1,0,0,0,41,43a1,1,0,0,0,.91-1.41l-2.71-6c-1.32-3.44-3.87-7.64-7.13-9.65A2.75,2.75,0,0,0,33,23.75v-1a3.94,3.94,0,0,0,1.36.27h4.36C41,23,42,21.88,42,20c0-2.28-1.69-4.52-5.07-5.49A5.78,5.78,0,0,1,40.83,13H44a3,3,0,0,0,3-3A1,1,0,0,0,46,9Z"/></svg>