<svg id="icon" xmlns="http://www.w3.org/2000/svg" viewBox="0 0 48 48"><defs><style>.cls-1{fill:#231f20;}</style></defs><title>Bee</title><path class="cls-1" d="M25.36,13.88A9.65,9.65,0,0,1,27,13a41.23,41.23,0,0,0-4.8-6c-2-2-3.29-3-5.2-3a23.79,23.79,0,0,0-4.36.3C18.3,6.73,23.73,12.16,25.36,13.88Z"/><path class="cls-1" d="M21.25,19.56a9.64,9.64,0,0,1,1.94-3.84c.19-.21.37-.42.57-.61-2.2-2.28-10.1-10-16.22-10C5.2,5.1,5,6.08,5,7c0,2.35,2.41,6,3.71,7.29l.65.67c2,2.05,4.5,4.6,8.05,4.6Z"/><path class="cls-1" d="M29,29l-.27,0h-.59a0,0,0,0,1,0,0,0,0,0,0,1,0,0H28a7,7,0,0,1-6.92-6S21,22.16,21,21.72a4.2,4.2,0,0,1,.06-.72H19.51C15.28,21,12,28.76,12,35.44c0,10.74,4.89,12,9,12a1,1,0,0,0,0-2,6.17,6.17,0,0,1-3.57-1,4.91,4.91,0,0,1-.57-.45C23.68,43.79,30,39,30,34V29H29Zm-7.28,12h0A15.27,15.27,0,0,1,14,36.55q0-.52,0-1.11a16.16,16.16,0,0,1,.11-2A13.25,13.25,0,0,0,24.6,39.3,13.15,13.15,0,0,1,21.72,40.93ZM28,34a3.41,3.41,0,0,1,0,.45,9.51,9.51,0,0,1-2.32.28,10.35,10.35,0,0,1-10-7.55,11.7,11.7,0,0,1,1.62-2.77,8.33,8.33,0,0,0,8.33,8.32A8.1,8.1,0,0,0,28,32.39Z"/><path class="cls-1" d="M37.5,7H37s0,0,0,0a1,1,0,0,1,1-1h3a1,1,0,0,0,0-2H38a3,3,0,0,0-3,3S35,7,35,7a4.47,4.47,0,0,0-2,.71V4a1,1,0,0,1,1-1h2a1,1,0,0,0,0-2H34a3,3,0,0,0-3,3V13.5a4.39,4.39,0,0,0,.9,2.68h0a4.27,4.27,0,0,0,1.36,1.21,4.35,4.35,0,0,0,2.23.6h6A1.52,1.52,0,0,0,43,16.49v-4A5.51,5.51,0,0,0,37.5,7Z"/><path class="cls-1" d="M29.21,15.11l0-.12H28.4a1.52,1.52,0,0,0-.3,0,5.28,5.28,0,0,0-3.38,2A7.12,7.12,0,0,0,23,21.61a5.36,5.36,0,0,0,1.77,3.94,5.45,5.45,0,0,0,7.55-.12,5.34,5.34,0,0,0,1.65-4V19.82A6.51,6.51,0,0,1,29.21,15.11Z"/></svg>