<svg id="icon" xmlns="http://www.w3.org/2000/svg" viewBox="0 0 48 48"><defs><style>.cls-1{fill:#231f20;}</style></defs><title>Camel</title><path class="cls-1" d="M45.21,8.32A10.65,10.65,0,0,0,39,6c-4,0-4,3-4,6,0,3.83-.15,7-2,7-.84,0-1.45-1-2.36-2.55S28.65,13,27,13c-1.39,0-2.32-1-3.38-2.23S21.14,8,19,8c-2.55,0-4.32,2.48-5.74,4.47A8.16,8.16,0,0,1,11,15l-.61.29c-.46.22-1.75.76-1.9.85C5.71,17.81,1,22.19,1,28v3a1,1,0,0,0,2,0V28a11.26,11.26,0,0,1,3-7.15C6,20.9,6,21,6,21a13.08,13.08,0,0,0,1.26,5.37A7.4,7.4,0,0,1,8,29a2,2,0,0,1-1.31,2,1,1,0,0,0-.69,1V42a1,1,0,0,0,1,1h4a1,1,0,0,0,.84-1.55L10,40V34s4-1,4-4V26a1,1,0,0,1,2,0v2c3.12,0,7,.36,7,3V42a1,1,0,0,0,1,1h4a1,1,0,0,0,.88-.53,1,1,0,0,0,0-1L27,40V33c0-4.19,3.1-7,6-7s7-3,7-8V14a2,2,0,0,1,2-2h2a2.06,2.06,0,0,0,1.26-3.68Z"/></svg>