<svg id="icon" xmlns="http://www.w3.org/2000/svg" viewBox="0 0 48 48"><defs><style>.cls-1{fill:#231f20;}</style></defs><title>Goat</title><path class="cls-1" d="M38,8c0-2.85-3.17-7-10-7a15.29,15.29,0,0,0-6.1,1h3.67c7.94.56,8.48,4.78,8.47,6-2.39.22-5,1.12-5,2a.49.49,0,0,0,.17.39,4.84,4.84,0,0,0,2.78.61,1,1,0,0,1,.88,1.55l-4,6A1,1,0,0,1,28,19a17.58,17.58,0,0,0-5,1.1A14,14,0,0,1,19,21a5.44,5.44,0,0,1-2-.56A16.78,16.78,0,0,0,10,19a5.52,5.52,0,0,0-3.76,1.88.52.52,0,0,0-.22.19A2.55,2.55,0,0,1,4,22a.51.51,0,0,1-.41-.17A4.64,4.64,0,0,1,3,19.06a1,1,0,0,0-2-.12c0,.29-.13,2.91,1.13,4.26A2.5,2.5,0,0,0,4,24a3.87,3.87,0,0,0,1-.13S5,24,5,24a18.88,18.88,0,0,0,.63,5.63A8.4,8.4,0,0,1,6,32a18.29,18.29,0,0,1-1,5.07l1.8,9.1a1,1,0,0,0,1,.83h3.58a.59.59,0,0,0,.39-1l-1.71-1.52C8.93,42.09,9,37.49,9,37a1,1,0,0,1,.54-.87S14,33.74,14,30a1,1,0,0,1,2,0,6.22,6.22,0,0,1-1.23,4A13.1,13.1,0,0,0,20,35a24.82,24.82,0,0,0,6-1,1,1,0,0,1,1,1V46a1,1,0,0,0,1,1h3.53a.46.46,0,0,0,.26-.83L30.16,45a1,1,0,0,1-.16-.55V42.74c0-1.43.87-3.13,2.07-5.48l.8-1.58C36.71,28,37,18.07,37,18a1,1,0,0,1,1-1,17,17,0,0,0,5,1c3.12,0,3-1.33,3-2C46,14.07,40.27,8,38,8Z"/></svg>