<svg id="icon" xmlns="http://www.w3.org/2000/svg" viewBox="0 0 48 48"><defs><style>.cls-1{fill:#231f20;}</style></defs><title>Horse</title><path class="cls-1" d="M46.26,13.1A9,9,0,0,1,45,8.63c0-.3-.11-.46-.45-.86a5.39,5.39,0,0,1-.61-.83c-.21-.37-.42-.81-.63-1.26C42.77,4.54,42,3,41.29,3H40.8c-.24,0-.8,0-.8,1.09V6a1,1,0,0,1-1,1,13,13,0,0,0-6,2.15,17.23,17.23,0,0,0-2.68,2.43c-2,2.09-4.32,4.47-8.5,4.47a46.82,46.82,0,0,1-9.55-.78c-2.3-.45-4.13-.17-5.43.81C6.63,16.2,1,18.47,1,26v5a1,1,0,0,0,2,0V26a10,10,0,0,1,1.13-4.69A11.07,11.07,0,0,0,4,22.93a15.42,15.42,0,0,0,1.19,5.69A9.72,9.72,0,0,1,6,31.92,5.8,5.8,0,0,1,5,35H5a1.1,1.1,0,0,1,1,1.09v5.73l.68,1.52a1.12,1.12,0,0,0,1,.66h2.83a.49.49,0,0,0,.3-.89L9.31,42A1,1,0,0,1,9,41.27V35.09a1,1,0,0,1,.51-.87c.06,0,4.56-3.15,4.56-8a1,1,0,1,1,2,0,10.71,10.71,0,0,1-.7,3.79,29.12,29.12,0,0,0,7.17,1,8.5,8.5,0,0,0,5.16-1.94A1,1,0,0,1,29,30l0,3.09a1.11,1.11,0,0,0,.33.8,2.11,2.11,0,0,1,.63,1.5L30,42l.68,1.38a1.12,1.12,0,0,0,1,.62h2.82a.49.49,0,0,0,.28-.88L33.19,42a1,1,0,0,1-.17-.55s0-6,0-8.52,1.85-5.68,2.06-6.05A12.77,12.77,0,0,0,37,20.9l0-5.37a3,3,0,0,1,1-1.59A3.78,3.78,0,0,0,40.56,15H41a1.49,1.49,0,0,1,1.14.81c.2.31,1.37,2.16,3,2.19h0A1.9,1.9,0,0,0,47,16,6.27,6.27,0,0,0,46.26,13.1Z"/></svg>