<svg id="icon" xmlns="http://www.w3.org/2000/svg" viewBox="0 0 48 48"><defs><style>.cls-1{fill:#231f20;}</style></defs><title>Hud Hud Bird</title><path class="cls-1" d="M27,27.3V27c0-2.89-3.92-6.86-6.84-7-.75.65-1.49,1.32-2.16,2-1.35,1.35-8.35,8.8-11,11C15.65,33,22.64,30.79,27,27.3Z"/><path class="cls-1" d="M38,10s0-6-6-6H30c-4.26,0-8.64,3-10.89,7.55a1,1,0,0,0,.44,1.34A.93.93,0,0,0,20,13a1,1,0,0,0,.89-.55,11.68,11.68,0,0,1,7.77-6.32A7.3,7.3,0,0,0,28,9v2c0,2.33-2.85,4.78-5.94,7.38a11.51,11.51,0,0,1,6.76,7.25A11.13,11.13,0,0,0,32,18a1,1,0,0,1,2,0c0,8.49-7.86,14.66-20.21,16.46a1.1,1.1,0,0,1-.19.25C8.83,38.8,3.53,42.08,1,44c3.77-.08,9-.54,12.45-3.1l6.92-5.65a1,1,0,1,1,1.26,1.54L20,38c.71,0,1.39,0,2.05-.1v0L25.45,43H22.89a1,1,0,0,0,0,2H35.05a1,1,0,1,0,0-2h-1.7l-4.92-6.88C35.62,32.51,39,24.26,39,16V15a1,1,0,0,1,1-1c.19,0,4-1,7,1A13,13,0,0,0,38,10ZM30.9,43h-3l-3.62-5.43a17.82,17.82,0,0,0,2.33-.65Z"/></svg>