<svg id="icon" xmlns="http://www.w3.org/2000/svg" viewBox="0 0 48 48"><defs><style>.cls-1{fill:#2b72ff;}.cls-2{fill:#2ed9d6;}</style></defs><title>Muslim Woman (Burqa)</title><circle class="cls-1" cx="20" cy="19" r="1"/><circle class="cls-1" cx="28" cy="19" r="1"/><path class="cls-2" d="M24,24c-6.69,0-8.32-.9-8.71-1.29a1,1,0,0,1,1.33-1.49c.16.09,1.56.78,7.38.78s7.22-.69,7.38-.78a1,1,0,0,1,1.33,1.49C32.32,23.1,30.69,24,24,24Z"/><path class="cls-2" d="M24,16c-6.69,0-8.32-.9-8.71-1.29a1,1,0,0,1,1.33-1.49c.16.09,1.56.78,7.38.78s7.22-.69,7.38-.78a1,1,0,0,1,1.33,1.49C32.32,15.1,30.69,16,24,16Z"/><path class="cls-1" d="M44.94,43.66,42.52,37A8.36,8.36,0,0,0,40,33.48V33a33.3,33.3,0,0,0-1.27-7.53A47,47,0,0,1,37,14V12A10,10,0,0,0,27,2H21A10,10,0,0,0,11,12v2A55,55,0,0,1,9.26,26.06,43.09,43.09,0,0,0,8,33.47,8.42,8.42,0,0,0,5.47,37L3.06,43.66a1,1,0,0,0,1.88.68l2.4-6.61a5.82,5.82,0,0,1,2.14-2.86A1,1,0,0,0,10,34a37.46,37.46,0,0,1,1.21-7.5A56.57,56.57,0,0,0,13,14V12.79l2-.45c0,3.5-.35,8.92-.62,13.31C14.17,28.91,14,31.73,14,33c0,4.67-3.83,11.44-3.87,11.5a1,1,0,1,0,1.74,1C12,45.2,16,38.21,16,33c0-1.21.17-4,.37-7.23C16.65,21.21,17,15.55,17,12c0,0,0,0,0-.08A42,42,0,0,1,24,11a42,42,0,0,1,7,.92s0,0,0,.08c0,2.17.28,7.1.56,11.87.23,4,.44,7.76.44,9.13,0,5.21,4,12.2,4.13,12.5a1,1,0,0,0,1.74-1c0-.07-3.87-6.82-3.87-11.5,0-1.42-.22-5.22-.45-9.24-.25-4.3-.52-9.14-.55-11.42l2,.45V14a48.65,48.65,0,0,0,1.79,11.94A31.49,31.49,0,0,1,38,33v1a1,1,0,0,0,.51.87,5.76,5.76,0,0,1,2.14,2.84l2.41,6.63a1,1,0,0,0,1.88-.68ZM13.11,10.71A8,8,0,0,1,21,4H27a8,8,0,0,1,7.84,6.71A61,61,0,0,0,24,9,61,61,0,0,0,13.11,10.71Z"/></svg>