<svg id="icon" xmlns="http://www.w3.org/2000/svg" viewBox="0 0 48 48"><defs><style>.cls-1{fill:#2b72ff;}.cls-2{fill:#2ed9d6;}</style></defs><title>Muslim Man (No Kopyah)</title><path class="cls-1" d="M45,43.7,42.53,36a10.25,10.25,0,0,0-7.11-6.45c-.83-.21-1.91-.38-2.61-.48L32,25.76a1,1,0,0,0-1.94.48l.81,3.22L25,32.38V28a1,1,0,0,0-2,0v4.38l-5.84-2.92L18,26.24A1,1,0,0,0,16,25.76l-.83,3.34c-.7.1-1.78.27-2.61.48a10.27,10.27,0,0,0-7.13,6.49L3,43.7A1,1,0,0,0,3.7,45,1,1,0,0,0,4,45a1,1,0,0,0,1-.7l2.4-7.59a8.25,8.25,0,0,1,5.72-5.2A27.63,27.63,0,0,1,15.82,31L19,32.62V44a1,1,0,0,0,2,0V33.62l2.55,1.28h0a.9.9,0,0,0,.8,0h0L27,33.62V44a1,1,0,0,0,2,0V32.62L32.18,31a27.48,27.48,0,0,1,2.75.48,8.23,8.23,0,0,1,5.71,5.16L43,44.3a1,1,0,0,0,1,.7,1,1,0,0,0,.3,0A1,1,0,0,0,45,43.7Z"/><path class="cls-2" d="M24,29A11,11,0,0,1,13,18V14a1,1,0,0,1,2,0v4a9,9,0,0,0,18,0V14a1,1,0,0,1,2,0v4A11,11,0,0,1,24,29Z"/><circle class="cls-2" cx="24" cy="39" r="1"/><circle class="cls-1" cx="20" cy="16" r="1"/><circle class="cls-1" cx="28" cy="16" r="1"/><circle class="cls-2" cx="24" cy="44" r="1"/><path class="cls-1" d="M35.61,9.66A8.38,8.38,0,0,0,27.22,2H20.78a8.38,8.38,0,0,0-8.39,7.66L12,13.91A1,1,0,0,0,13,15a7.68,7.68,0,0,0,6-3.19A7.68,7.68,0,0,0,25,15H35a1,1,0,0,0,1-1.09ZM25,13c-3.3,0-5.08-3.39-5.11-3.45A1,1,0,0,0,19,9a1,1,0,0,0-.89.55,6.94,6.94,0,0,1-4,3.32l.28-3A6.39,6.39,0,0,1,20.78,4h6.44a6.39,6.39,0,0,1,6.4,5.84L33.9,13Z"/></svg>