<svg id="icon" xmlns="http://www.w3.org/2000/svg" viewBox="0 0 48 48"><defs><style>.cls-1{fill:#2b72ff;}.cls-2{fill:#2ed9d6;}</style></defs><title>Muslim Woman</title><circle class="cls-1" cx="20" cy="18" r="1"/><circle class="cls-1" cx="28" cy="18" r="1"/><path class="cls-1" d="M44.94,43.66,42.52,37A8.26,8.26,0,0,0,40,33.46,4.53,4.53,0,0,0,40,33a65.86,65.86,0,0,0-1.67-12c-.45-2.27-.91-4.63-1.34-7.21C35.86,7.09,30.28,2,24,2S12.14,7.09,11,13.84c-.43,2.59-.89,4.94-1.34,7.21A65.81,65.81,0,0,0,8,33a4.54,4.54,0,0,0,0,.47A8.33,8.33,0,0,0,5.47,37L3.06,43.66a1,1,0,0,0,1.88.68l2.4-6.61a6.84,6.84,0,0,1,1.33-2.17c2.48,5,11.18,10.2,15.07,10.42H24c3.76,0,12.79-5.29,15.32-10.43a6.73,6.73,0,0,1,1.32,2.14l2.41,6.63a1,1,0,1,0,1.88-.68ZM24.08,44C21.91,42.55,17,38.53,17,35s3.63-5,7-5a1,1,0,0,0,0-2c-4.33,0-9,2.19-9,7,0,2.6,1.77,5.11,3.67,7.06C14.53,39.73,10,35.78,10,33a64.59,64.59,0,0,1,1.63-11.56c.45-2.29.92-4.66,1.35-7.27C14,8.37,18.69,4,24,4S34,8.37,35,14.16c.44,2.61.9,5,1.35,7.27A64.67,64.67,0,0,1,38,33C38,37.15,27.91,43.91,24.08,44Z"/><path class="cls-2" d="M24,30A10,10,0,0,1,14,20V14.7A2.7,2.7,0,0,1,16.7,12H31.3A2.7,2.7,0,0,1,34,14.7V20A10,10,0,0,1,24,30ZM16.7,14a.7.7,0,0,0-.7.7V20a8,8,0,0,0,16,0V14.7a.7.7,0,0,0-.7-.7Z"/></svg>