<svg id="icon" xmlns="http://www.w3.org/2000/svg" viewBox="0 0 48 48"><defs><style>.cls-1{fill:#2b72ff;}.cls-2{fill:#2ed9d6;}</style></defs><title>Muslim Woman (Chador)</title><circle class="cls-1" cx="20" cy="18" r="1"/><circle class="cls-1" cx="28" cy="18" r="1"/><path class="cls-1" d="M24,30a1,1,0,0,0,0-2c-4.33,0-9,2.19-9,7,0,5.48,7.89,10.62,8.23,10.83a1,1,0,0,0,.54.16,1,1,0,0,0,.54-1.84C22.27,42.84,17,38.65,17,35,17,31.56,20.63,30,24,30Z"/><path class="cls-1" d="M44.94,43.66,42.52,37A8.36,8.36,0,0,0,40,33.48V33a65.79,65.79,0,0,0-1.67-12c-.45-2.28-.91-4.63-1.34-7.21C35.86,7.09,30.28,2,24,2S12.14,7.09,11,13.84c-.37,2.24-.78,4.42-1.16,6.5A89.64,89.64,0,0,0,8,33.48,8.43,8.43,0,0,0,5.47,37L3.06,43.66a1,1,0,0,0,1.88.68l2.4-6.61a5.82,5.82,0,0,1,2.14-2.86A1,1,0,0,0,10,34c0-3.48.84-8,1.82-13.3.39-2.09.79-4.28,1.17-6.54C14,8.37,18.69,4,24,4S34,8.37,35,14.16c.44,2.61.9,5,1.35,7.27A64.64,64.64,0,0,1,38,33v1a1,1,0,0,0,.51.87,5.76,5.76,0,0,1,2.14,2.84l2.41,6.63a1,1,0,0,0,1.88-.68Z"/><path class="cls-2" d="M24,30A10,10,0,0,1,14,20V14.7A2.7,2.7,0,0,1,16.7,12H31.3A2.7,2.7,0,0,1,34,14.7V20A10,10,0,0,1,24,30ZM16.7,14a.7.7,0,0,0-.7.7V20a8,8,0,1,0,16,0V14.7a.7.7,0,0,0-.7-.7Z"/></svg>