<svg id="icon" xmlns="http://www.w3.org/2000/svg" viewBox="0 0 48 48"><defs><style>.cls-1{fill:#2b72ff;}.cls-2{fill:#2ed9d6;}</style></defs><title>Muslim Kid (Female)</title><circle class="cls-1" cx="20" cy="18" r="1"/><circle class="cls-1" cx="28" cy="18" r="1"/><path class="cls-2" d="M24.6,31H23.4c-5.72,0-10-5.81-10-11V18.69A6.7,6.7,0,0,1,20.09,12h7.82a6.7,6.7,0,0,1,6.69,6.69V20C34.6,25.16,30.32,31,24.6,31ZM20.09,14a4.7,4.7,0,0,0-4.69,4.69V20c0,4.25,3.42,9,8,9h1.2c4.58,0,8-4.75,8-9V18.69A4.7,4.7,0,0,0,27.91,14Z"/><path class="cls-1" d="M44.91,43.59l-2.43-5.34a7.18,7.18,0,0,0-2.22-2.64A5.64,5.64,0,0,0,41,33c0-3.68-.84-8-1.82-12.89-.39-2-.8-4-1.2-6.28A14.61,14.61,0,0,0,24,2,14.61,14.61,0,0,0,10,13.83c-.4,2.23-.81,4.32-1.2,6.28C7.84,25,7,29.32,7,33a5.64,5.64,0,0,0,.74,2.61A7.27,7.27,0,0,0,5.5,38.28L3.09,43.59a1,1,0,1,0,1.82.83l2.4-5.28a5.23,5.23,0,0,1,1.54-1.86C12.46,41.82,20.44,46,24,46s11.54-4.18,15.16-8.73a5.1,5.1,0,0,1,1.52,1.84l2.41,5.31a1,1,0,1,0,1.82-.83ZM24,44C20,44,9,37.18,9,33c0-3.48.83-7.67,1.78-12.51.39-2,.8-4.07,1.2-6.32A12.56,12.56,0,0,1,24,4,12.56,12.56,0,0,1,36,14.17c.4,2.25.81,4.35,1.2,6.32,1,4.84,1.78,9,1.78,12.51C39,37.18,28,44,24,44Z"/></svg>