<svg id="icon" xmlns="http://www.w3.org/2000/svg" viewBox="0 0 48 48"><defs><style>.cls-1{fill:#2b72ff;}.cls-2{fill:#2ed9d6;}</style></defs><title>Muslim Kid (Male)</title><path class="cls-1" d="M44,43.76l-1.41-5.63,0-.1c-1.23-3.38-4.35-5.19-6.94-6.39-.85-.4-2.15-1-2.78-1.35l-.87-2.61a1,1,0,1,0-1.9.63l.74,2.21L25,33.68V29a1,1,0,0,0-2,0v4.38l-5.78-2.89.73-2.18a1,1,0,0,0-1.9-.63l-.87,2.61c-.63.31-1.92,1-2.77,1.35-2.58,1.2-5.71,3-6.94,6.39l0,.1L4,43.76A1,1,0,0,0,6,44.24l1.4-5.58c1-2.65,3.52-4.12,5.88-5.21.84-.39,2.09-1,2.75-1.33l6.25,3.13A5.61,5.61,0,0,0,20,39.74V45a1,1,0,0,0,2,0V39.74a3.62,3.62,0,0,1,1.89-3.18L32,32.13c.66.33,1.9.94,2.73,1.32,2.36,1.09,4.9,2.57,5.88,5.21L42,44.24A1,1,0,1,0,44,43.76Z"/><circle class="cls-1" cx="20" cy="17" r="1"/><circle class="cls-1" cx="28" cy="17" r="1"/><path class="cls-2" d="M35,11H13a1,1,0,0,0-1,1v7A11,11,0,0,0,23,30h2A11,11,0,0,0,36,19V12A1,1,0,0,0,35,11Zm-1,6.24a3.38,3.38,0,0,1-1-2.4v-.78a1,1,0,0,0-.28-.7L32.37,13H34ZM15.63,13l-.35.36a1,1,0,0,0-.28.7v.78a3.38,3.38,0,0,1-1,2.4V13ZM25,28H23a9,9,0,0,1-9-8.36,5.38,5.38,0,0,0,3-4.81v-.38L18.42,13H29.58L31,14.46v.38a5.38,5.38,0,0,0,3,4.81A9,9,0,0,1,25,28Z"/><path class="cls-1" d="M35,13H13a1,1,0,0,1-1-1V10a8,8,0,0,1,8-8h8a8,8,0,0,1,8,8v2A1,1,0,0,1,35,13ZM14,11H34V10a6,6,0,0,0-6-6H20a6,6,0,0,0-6,6Z"/></svg>