<svg id="icon" xmlns="http://www.w3.org/2000/svg" viewBox="0 0 48 48"><defs><style>.cls-1{fill:#2b72ff;}.cls-2{fill:#2ed9d6;}</style></defs><title>Muslim Man (India Headscarf) 2</title><path class="cls-1" d="M44,44.76l-1.41-5.63,0-.1a10.25,10.25,0,0,0-7.11-6.45c-.83-.21-1.91-.38-2.61-.48L32,28.76a1,1,0,0,0-1.94.48l.81,3.22L25,35.38V31a1,1,0,0,0-2,0v4.38l-5.84-2.92L18,29.24A1,1,0,0,0,16,28.76l-.83,3.34c-.7.1-1.78.27-2.61.48A10.25,10.25,0,0,0,5.47,39l0,.1L4,44.76A1,1,0,0,0,6,45.24l1.4-5.58a8.25,8.25,0,0,1,5.71-5.15A27.63,27.63,0,0,1,15.82,34L19,35.62V45a1,1,0,0,0,2,0V36.62l2.55,1.28h0a.9.9,0,0,0,.8,0h0L27,36.62V45a1,1,0,0,0,2,0V35.62L32.18,34a27.48,27.48,0,0,1,2.75.48,8.25,8.25,0,0,1,5.71,5.15L42,45.24A1,1,0,0,0,44,44.76Z"/><path class="cls-2" d="M24,32A11,11,0,0,1,13,21V18.21a1,1,0,0,1,2,0V21a9,9,0,0,0,18,0V18.13a1,1,0,0,1,2,0V21A11,11,0,0,1,24,32Z"/><circle class="cls-2" cx="24" cy="41" r="1"/><circle class="cls-1" cx="20" cy="19" r="1"/><circle class="cls-1" cx="28" cy="19" r="1"/><circle class="cls-2" cx="24" cy="45" r="1"/><path class="cls-1" d="M13,19a1,1,0,0,1-1-1V12a1.91,1.91,0,0,1,2-2,1,1,0,0,1,0,2v6A1,1,0,0,1,13,19Z"/><path class="cls-1" d="M34,9.21V8.06A6,6,0,0,0,28,2H21a6.21,6.21,0,0,0-5.77,4.16,1,1,0,0,0-.07.09,3.65,3.65,0,0,0-1.73,2,1,1,0,0,0,0,.16L13,10.85A1,1,0,0,0,13.77,12c.05,0,3.87.92,7.46,1.93-.77.33-1.53.72-2.28,1.11C17,16,15.08,17,13,17a1,1,0,0,0,0,2c2.56,0,4.75-1.12,6.86-2.21a12.58,12.58,0,0,1,5-1.78,32.08,32.08,0,0,1,3.78,1.73C30.9,17.9,33.05,19,35,19a1,1,0,0,0,1-1V14A6.19,6.19,0,0,0,34,9.21ZM21,4h7a3.94,3.94,0,0,1,4,3.89,17.33,17.33,0,0,0-5.93-1.4c-.68-.06-5.61-.52-8.5-.55A4.05,4.05,0,0,1,21,4ZM34,16.87A22.17,22.17,0,0,1,29.54,15a31.91,31.91,0,0,0-4.22-1.91c-3.23-1.08-8.17-2.31-10.19-2.81l.22-1.39A1.45,1.45,0,0,1,16.17,8a78.18,78.18,0,0,1,9.71.5c3.28.27,5.22,1,6.39,1.92a1,1,0,0,0,.21.16A4.12,4.12,0,0,1,34,14Z"/></svg>