<svg id="icon" xmlns="http://www.w3.org/2000/svg" viewBox="0 0 48 48"><defs><style>.cls-1{fill:#2b72ff;}.cls-2{fill:#2ed9d6;}.cls-3{fill:#231f20;}</style></defs><title>Muslim Man (Surban)</title><path class="cls-1" d="M33,30h-.22L32,26.76a1,1,0,1,0-1.94.49l.8,3.22L25,33.38V29a1,1,0,0,0-2,0v4.38l-5.84-2.92L18,27.24A1,1,0,1,0,16,26.76L15.22,30H14a1,1,0,0,0,0,2h1.76L19,33.62V44a1,1,0,0,0,2,0V34.62l2.55,1.28h0a.9.9,0,0,0,.8,0h0L27,34.62V44a1,1,0,0,0,2,0V33.62L32.24,32H33a1,1,0,0,0,0-2Z"/><path class="cls-2" d="M24,30A11,11,0,0,1,13,19V12a1,1,0,0,1,2,0v7a9,9,0,0,0,18,0V12a1,1,0,0,1,2,0v7A11,11,0,0,1,24,30Z"/><path class="cls-3" d="M34,21a1,1,0,0,1-1-1V12a1,1,0,0,1,2,0v8A1,1,0,0,1,34,21Z"/><path class="cls-3" d="M14,21a1,1,0,0,1-1-1V12a1,1,0,0,1,2,0v8A1,1,0,0,1,14,21Z"/><path class="cls-1" d="M34,13a1,1,0,0,1-1-1V10a6,6,0,0,0-6-6H21a6,6,0,0,0-6,6v2a1,1,0,0,1-2,0V10a8,8,0,0,1,8-8h6a8,8,0,0,1,8,8v2A1,1,0,0,1,34,13Z"/><path class="cls-1" d="M44.94,43.66,42.53,37c-.05-.14-.1-.28-.16-.41a1,1,0,0,0-.2-.3l.58-.65a1,1,0,0,0,.18-1A167.69,167.69,0,0,1,35,8.79,1,1,0,0,0,33,9v2.53A9.92,9.92,0,0,0,30,11a13.38,13.38,0,0,0-3.24.53A11.73,11.73,0,0,1,24,12a11.71,11.71,0,0,1-2.76-.47A13.38,13.38,0,0,0,18,11a7.4,7.4,0,0,0-3,.64V9a1,1,0,0,0-2-.21A167.56,167.56,0,0,1,5.08,34.62a1,1,0,0,0,.18,1l.58.65a1,1,0,0,0-.2.3L5.47,37,3.06,43.66a1,1,0,1,0,1.88.68l2.33-6.41,6,6.73A1,1,0,0,0,15,44V14a4.09,4.09,0,0,1,3-1,11.71,11.71,0,0,1,2.76.47A13.38,13.38,0,0,0,24,14a13.38,13.38,0,0,0,3.24-.53A11.73,11.73,0,0,1,30,13a8.63,8.63,0,0,1,3,.66V44a1,1,0,0,0,1.75.66l6-6.73,2.33,6.41a1,1,0,1,0,1.88-.68ZM13,41.37,7.16,34.8A174.68,174.68,0,0,0,13,17.26Zm22,0V17.26A174.81,174.81,0,0,0,40.84,34.8Z"/><circle class="cls-2" cx="24" cy="39" r="1"/><circle class="cls-2" cx="24" cy="44" r="1"/><circle class="cls-1" cx="20" cy="17" r="1"/><circle class="cls-1" cx="28" cy="17" r="1"/><path class="cls-2" d="M35,10H13a1,1,0,0,1,0-2H35a1,1,0,0,1,0,2Z"/></svg>