<svg id="icon" xmlns="http://www.w3.org/2000/svg" viewBox="0 0 48 48"><defs><style>.cls-1{fill:#2b72ff;}.cls-2{fill:#2ed9d6;}</style></defs><title>Muslim Man (India Headscarf)</title><path class="cls-1" d="M44,44.76l-1.41-5.63,0-.1a10.25,10.25,0,0,0-7.11-6.45c-.83-.21-1.91-.38-2.61-.48L32,28.76a1,1,0,1,0-1.94.49l.8,3.22L25,35.38V31a1,1,0,0,0-2,0v4.38l-5.83-2.92.8-3.22A1,1,0,1,0,16,28.76L15.2,32.1c-.7.1-1.78.27-2.61.48A10.25,10.25,0,0,0,5.47,39l0,.1L4,44.76A1,1,0,0,0,4.76,46,1,1,0,0,0,5,46a1,1,0,0,0,1-.76l1.4-5.58a8.25,8.25,0,0,1,5.71-5.15A27.88,27.88,0,0,1,15.82,34L19,35.62V45a1,1,0,0,0,2,0V36.62l2.6,1.3a1,1,0,0,0,.85,0L27,36.62V45a1,1,0,0,0,2,0V35.62L32.18,34c.57.08,1.86.26,2.75.48a8.25,8.25,0,0,1,5.71,5.15L42,45.24A1,1,0,0,0,43,46a1,1,0,0,0,.24,0A1,1,0,0,0,44,44.76Z"/><circle class="cls-2" cx="24" cy="41" r="1"/><circle class="cls-2" cx="24" cy="45" r="1"/><path class="cls-2" d="M24,32A11,11,0,0,1,13,21V18.21a1,1,0,0,1,2,0V21a9,9,0,0,0,18,0V18.13a1,1,0,0,1,2,0V21A11,11,0,0,1,24,32Z"/><circle class="cls-1" cx="20" cy="19" r="1"/><circle class="cls-1" cx="28" cy="19" r="1"/><path class="cls-1" d="M36.44,12.1A1,1,0,0,0,36,12V9a1,1,0,0,0-.6-.9A1,1,0,0,0,34.94,8c-.48-4.18-4-7-8.94-7H22c-4.92,0-8.45,2.84-8.94,7A1,1,0,0,0,12,9v3a1,1,0,0,0-1,1v3.73A2.27,2.27,0,0,0,13.27,19,11.74,11.74,0,0,0,24,12a11.74,11.74,0,0,0,10.73,7A2.27,2.27,0,0,0,37,16.73V13A1,1,0,0,0,36.44,12.1Zm-3.59.72a9.67,9.67,0,0,1-5.26-3A6.62,6.62,0,0,0,31,11a10.22,10.22,0,0,0,3-.39v2.21A3.15,3.15,0,0,1,32.84,12.82ZM14,10.47A9.93,9.93,0,0,0,17,11a5.09,5.09,0,0,0,3.26-1,9.67,9.67,0,0,1-5.11,2.79,3.13,3.13,0,0,1-1.16,0ZM33,8.8A8.87,8.87,0,0,1,31,9a5.8,5.8,0,0,1-3-1.28A7,7,0,0,1,25.08,3H26C29.43,3,32.87,4.8,33,8.8ZM22,3h.92A7,7,0,0,1,20,7.72l-.53.39A3.33,3.33,0,0,1,17,9a7.38,7.38,0,0,1-2-.31C15.19,4.77,18.61,3,22,3ZM13.27,17a.27.27,0,0,1-.27-.27V14.64a5.17,5.17,0,0,0,2.54.14,11.69,11.69,0,0,0,6.87-4.16A9.74,9.74,0,0,1,13.27,17ZM35,16.73a.27.27,0,0,1-.27.27,9.74,9.74,0,0,1-9.13-6.38,11.69,11.69,0,0,0,6.87,4.16A5.15,5.15,0,0,0,35,14.64Z"/></svg>