<svg id="icon" xmlns="http://www.w3.org/2000/svg" viewBox="0 0 48 48"><defs><style>.cls-1{fill:#2b72ff;}.cls-2{fill:#2ed9d6;}</style></defs><title>Muslim Man (Imam)</title><path class="cls-1" d="M16,30H15l-.24,0-2.17.54A10.25,10.25,0,0,0,5.47,37L3.06,43.66a1,1,0,1,0,1.88.68l2.41-6.63a8.25,8.25,0,0,1,5.72-5.2l2-.51H16Z"/><path class="cls-1" d="M44.94,43.66,42.53,37a10.25,10.25,0,0,0-7.11-6.45L33.24,30,33,30H32v2h.88l2,.51a8.25,8.25,0,0,1,5.72,5.2l2.41,6.63a1,1,0,0,0,1.88-.68Z"/><path class="cls-1" d="M20,45a1,1,0,0,1-1-1V35a1,1,0,0,1,2,0v9A1,1,0,0,1,20,45Z"/><path class="cls-1" d="M28,45h0a1,1,0,0,1-1-1V35a1,1,0,0,1,1-1h0a1,1,0,0,1,1,1v9A1,1,0,0,1,28,45Z"/><circle class="cls-2" cx="24" cy="39" r="1"/><circle class="cls-1" cx="20" cy="17" r="1"/><circle class="cls-1" cx="28" cy="17" r="1"/><circle class="cls-2" cx="24" cy="44" r="1"/><path class="cls-2" d="M34,11H14a1,1,0,0,0-1,1V25a11,11,0,0,0,22,0V12A1,1,0,0,0,34,11Zm-1,2v6.15a3.53,3.53,0,0,0-2.43,2.5L30.23,23h-2A11.13,11.13,0,0,0,24,22a11.13,11.13,0,0,0-4.22,1h-2l-.35-1.35A3.53,3.53,0,0,0,15,19.15V13ZM24,34a9,9,0,0,1-9-9V21.38a1.52,1.52,0,0,1,.49.77l.54,2.1A1,1,0,0,0,17,25h3a1,1,0,0,0,.45-.1A9.39,9.39,0,0,1,24,24a9.39,9.39,0,0,1,3.55.9A1,1,0,0,0,28,25h3a1,1,0,0,0,1-.75l.54-2.1a1.52,1.52,0,0,1,.49-.77V25A9,9,0,0,1,24,34Z"/><path class="cls-1" d="M34,13H14a1,1,0,0,1-1-1V10a8,8,0,0,1,8-8h6a8,8,0,0,1,8,8v2A1,1,0,0,1,34,13ZM15,11H33V10a6,6,0,0,0-6-6H21a6,6,0,0,0-6,6Z"/></svg>