<svg id="icon" xmlns="http://www.w3.org/2000/svg" viewBox="0 0 48 48"><defs><style>.cls-1{fill:#2b72ff;}.cls-2{fill:#2ed9d6;}</style></defs><title>Muslim Woman (Stylish Hijab)</title><circle class="cls-1" cx="20" cy="19" r="1"/><circle class="cls-1" cx="28" cy="19" r="1"/><path class="cls-1" d="M4,46a1,1,0,0,1-.94-1.34L5.47,38a12.53,12.53,0,0,1,4.44-6.12A1,1,0,0,1,11,33.58a10.4,10.4,0,0,0-3.66,5.13L4.94,45.34A1,1,0,0,1,4,46Z"/><path class="cls-1" d="M44.94,44.66,42.53,38a10.26,10.26,0,0,0-2.35-3.72,1,1,0,0,0-.2-.13c0-.06,0-.12,0-.18a7.48,7.48,0,0,0-.93-4.29A8.62,8.62,0,0,0,40,26a4.42,4.42,0,0,0-2-3.55V18C38,9.32,29.4,2,24,2,18.28,2,10,7.7,10,18a47,47,0,0,1-.54,6A40.49,40.49,0,0,0,9,29a11.77,11.77,0,0,0,7.62,10.92,1,1,0,1,0,.76-1.85A9.69,9.69,0,0,1,11,29a39,39,0,0,1,.45-4.73A48.55,48.55,0,0,0,12,18C12,8.23,19.95,4,24,4c4.52,0,12,6.54,12,14v5c0,2-4.3,6.1-6.87,8.53-.68.65-1.32,1.25-1.84,1.76-4.48,4.48-7.18,8.21-8.24,11.39a1,1,0,1,0,1.9.63c1-2.88,3.5-6.35,7.76-10.61.51-.51,1.13-1.09,1.8-1.73,3.24-3.07,6-5.85,7.06-8.2A2,2,0,0,1,38,26c0,3-2.83,6.26-5.72,9.31-.77.81-1.56,1.62-2.32,2.4-2.67,2.74-5,5.11-5.85,6.84a1,1,0,0,0,1.79.89c.72-1.45,3-3.82,5.49-6.34.77-.79,1.56-1.6,2.34-2.42a41.3,41.3,0,0,0,4.09-4.83A10.73,10.73,0,0,1,38,34a5.86,5.86,0,0,1-1.71,3.29c-1,1-5.86,6.82-6.06,7.07a1,1,0,0,0,1.54,1.28c1.72-2.06,5.17-6.17,5.94-6.93a9.07,9.07,0,0,0,1.64-2.33,8.27,8.27,0,0,1,1.3,2.33l2.41,6.63a1,1,0,1,0,1.88-.68Z"/><path class="cls-1" d="M16,17a1,1,0,0,1-.45-1.89A21.53,21.53,0,0,1,24,13a21.53,21.53,0,0,1,8.45,2.11,1,1,0,0,1-.89,1.79A19.82,19.82,0,0,0,24,15a19.71,19.71,0,0,0-7.55,1.89A1,1,0,0,1,16,17Z"/><path class="cls-2" d="M15,46h-.14A1,1,0,0,1,14,44.86c.77-5.37,6.31-11.11,9.37-13.91A10.48,10.48,0,0,1,17,27.83,9.71,9.71,0,0,1,14,21a1,1,0,0,1,0-.14l.64-4.43a7.16,7.16,0,0,1,2.81-4.74L21,9a5,5,0,0,1,6,0l3.54,2.65a7.15,7.15,0,0,1,2.81,4.74L34,20.83A1,1,0,0,1,34,21c0,3.4-3.31,6.25-5.73,8.33-.6.51-1.16,1-1.56,1.4l0,0h0l0,0c-.19.15-9.71,7.87-10.63,14.36A1,1,0,0,1,15,46Zm9-17,1.61,0c.4-.37.87-.78,1.36-1.21,2.11-1.81,5-4.29,5-6.75l-.62-4.36a5.17,5.17,0,0,0-2-3.42l-3.54-2.65a3,3,0,0,0-3.62,0l-3.54,2.65a5.17,5.17,0,0,0-2,3.42L16,21a7.76,7.76,0,0,0,2.45,5.37A8.33,8.33,0,0,0,24,29Z"/></svg>