<svg id="icon" xmlns="http://www.w3.org/2000/svg" viewBox="0 0 48 48"><defs><style>.cls-1{fill:#2b72ff;}.cls-2{fill:#2ed9d6;}</style></defs><title>Muslim Man (Turkish Kopyah)</title><path class="cls-1" d="M44,43.76l-1.41-5.63,0-.1a10.25,10.25,0,0,0-7.11-6.45c-.83-.21-1.91-.38-2.61-.48L32,27.76a1,1,0,1,0-1.94.49l.8,3.22L25,34.38V30a1,1,0,0,0-2,0v4.38l-5.83-2.92.8-3.22A1,1,0,1,0,16,27.76L15.2,31.1c-.7.1-1.78.27-2.61.48A10.25,10.25,0,0,0,5.47,38l0,.1L4,43.76A1,1,0,0,0,4.76,45,1,1,0,0,0,5,45a1,1,0,0,0,1-.76l1.4-5.58a8.25,8.25,0,0,1,5.71-5.15A27.88,27.88,0,0,1,15.82,33L19,34.62V44a1,1,0,0,0,2,0V35.62l2.55,1.28h0a.9.9,0,0,0,.8,0h0L27,35.62V44a1,1,0,0,0,2,0V34.62L32.18,33c.57.08,1.86.26,2.75.48a8.25,8.25,0,0,1,5.71,5.15L42,44.24A1,1,0,0,0,43,45a1,1,0,0,0,.24,0A1,1,0,0,0,44,43.76Z"/><path class="cls-2" d="M24,31A11,11,0,0,1,13,20V14a1,1,0,0,1,1-1H34a1,1,0,0,1,1,1v6A11,11,0,0,1,24,31ZM15,15v5a9,9,0,0,0,18,0V15Z"/><circle class="cls-2" cx="24" cy="40" r="1"/><circle class="cls-1" cx="20" cy="18" r="1"/><circle class="cls-1" cx="28" cy="18" r="1"/><circle class="cls-2" cx="24" cy="44" r="1"/><path class="cls-1" d="M34,15H14a1,1,0,0,1-1-1.1l.81-8.1A3.1,3.1,0,0,1,16.91,3H31.09a3.1,3.1,0,0,1,3.1,2.8L35,13.9A1,1,0,0,1,34,15ZM15.1,13H32.9l-.7-7a1.11,1.11,0,0,0-1.11-1H16.91A1.11,1.11,0,0,0,15.8,6Z"/><path class="cls-2" d="M28,10a1,1,0,0,1-1-1V4c0-.59-.35-1-.67-1H24a1,1,0,0,1,0-2h2.33A2.85,2.85,0,0,1,29,4V9A1,1,0,0,1,28,10Z"/><path class="cls-2" d="M24,1h1a0,0,0,0,1,0,0V3a0,0,0,0,1,0,0H23a0,0,0,0,1,0,0V2A1,1,0,0,1,24,1Z"/></svg>