<svg id="icon" xmlns="http://www.w3.org/2000/svg" viewBox="0 0 48 48"><defs><style>.cls-1{fill:#2b72ff;}.cls-2{fill:#2ed9d6;}</style></defs><title>Muslim Man</title><path class="cls-1" d="M44.94,43.66,42.53,37a10.25,10.25,0,0,0-7.11-6.45c-.83-.21-1.91-.38-2.61-.48L32,26.76a1,1,0,1,0-1.94.49l.81,3.22L25,33.38V29a1,1,0,0,0-2,0v4.38l-5.84-2.92L18,27.24A1,1,0,1,0,16,26.76l-.84,3.34c-.7.1-1.78.27-2.61.48A10.25,10.25,0,0,0,5.47,37L3.06,43.66a1,1,0,1,0,1.88.68l2.41-6.63a8.25,8.25,0,0,1,5.72-5.2A27.9,27.9,0,0,1,15.82,32L19,33.62V44a1,1,0,0,0,2,0V34.62l2.55,1.28h0a.9.9,0,0,0,.8,0h0L27,34.62V44a1,1,0,0,0,2,0V33.62L32.18,32a27.83,27.83,0,0,1,2.75.48,8.25,8.25,0,0,1,5.72,5.2l2.41,6.63a1,1,0,0,0,1.88-.68Z"/><circle class="cls-2" cx="24" cy="39" r="1"/><path class="cls-2" d="M24,30A11,11,0,0,1,13,19V12a1,1,0,0,1,1-1H34a1,1,0,0,1,1,1v7A11,11,0,0,1,24,30ZM15,13v6a9,9,0,0,0,18,0V13Z"/><circle class="cls-1" cx="20" cy="17" r="1"/><circle class="cls-1" cx="28" cy="17" r="1"/><circle class="cls-2" cx="24" cy="44" r="1"/><path class="cls-1" d="M34,13H14a1,1,0,0,1-1-1V10a8,8,0,0,1,8-8h6a8,8,0,0,1,8,8v2A1,1,0,0,1,34,13ZM15,11H33V10a6,6,0,0,0-6-6H21a6,6,0,0,0-6,6Z"/></svg>