<?xml version="1.0" encoding="utf-8"?>
<!-- Generator: Adobe Illustrator 24.1.3, SVG Export Plug-In . SVG Version: 6.00 Build 0)  -->
<svg version="1.1" id="icon" xmlns="http://www.w3.org/2000/svg" xmlns:xlink="http://www.w3.org/1999/xlink" x="0px" y="0px"
	 viewBox="0 0 48 48" style="enable-background:new 0 0 48 48;" xml:space="preserve">
<path d="M27,31c2.2,0,4-1.8,4-4c0-2.4-2.5-5.3-4-6.7c-1.5,1.4-4,4.2-4,6.7C23,29.2,24.8,31,27,31z"/>
<path d="M43,8c-0.6,0-1,0.4-1,1v1h-4c-0.6,0-1-0.4-1-1h-5c0,0.6-0.4,1-1,1h-3c-2.2,0.1-3.9,1.8-4,4v5h6v-1.8c0-1.2,0.9-2.2,2.1-2.2
	c0,0,0,0,0.1,0H42v1c0,0.6,0.4,1,1,1h3V8H43z"/>
<path d="M19,5h13v2h5V4c0-0.8-0.2-1-1-1H19c-0.6,0-1,0.4-1,1S18.4,5,19,5z"/>
<path d="M41.3,34.2l-12.2,3.6C28.6,38,28.2,38,27.7,38c-0.5,0-1-0.1-1.5-0.3L25,37c-0.5,0.6-1.2,0.9-2,1c-0.4,0-9.2-1-9.2-1
	c-0.6-0.1-0.9-0.7-0.8-1.2c0.1-0.6,0.7-0.9,1.2-0.8c0,0,8.2,1,8.4,1c0.5,0,1-0.2,1.2-0.7c0.2-0.5,0.2-1,0-1.5
	c-0.1-0.3-0.3-0.5-0.6-0.6l-8.4-2.8C14.2,30.1,13.6,30,13,30c-0.7,0-1.5,0.1-2.2,0.4l-4.5,1.5c-0.1,0-0.2,0.1-0.3,0.1L2,33v11l9.7-3
	H12c0.1,0,0.2,0,0.3,0.1l8.5,3.1c2.2,1,4.7,1.1,7,0.3l14.9-6c0.9-0.3,1.7-0.9,2.1-1.7c0.2-0.5,0.2-1,0-1.5
	C44.4,34.2,43.1,33.8,41.3,34.2z"/>
</svg>
