<?xml version="1.0" encoding="utf-8"?>
<!-- Generator: Adobe Illustrator 24.1.3, SVG Export Plug-In . SVG Version: 6.00 Build 0)  -->
<svg version="1.1" id="icon" xmlns="http://www.w3.org/2000/svg" xmlns:xlink="http://www.w3.org/1999/xlink" x="0px" y="0px"
	 viewBox="0 0 48 48" style="enable-background:new 0 0 48 48;" xml:space="preserve">
<path d="M20.5,9c2.1,1.4,4.9,1.4,7,0c0.9-0.6,2-1,3.1-1c1,0,1.9,0.2,2.8,0.6c-1.9-5.2-7.6-7.9-12.8-6c-2.8,1-5,3.2-6,6
	C15.5,8.2,16.4,8,17.4,8C18.5,8.1,19.6,8.4,20.5,9z"/>
<path d="M40.1,34.4c-1.2-1.1-2.6-1.9-4.1-2.3c-1.1-0.3-3.8-0.9-4.9-1.1c-2,1.3-13.6,8.9-19.1,14.9h20C32.8,40.9,38.9,35.5,40.1,34.4
	z"/>
<path d="M24,27c5.4,0.1,9.9-4.2,10-9.7V12c0-0.3,0-0.6,0-1c-1-0.6-2.2-0.9-3.4-1c-0.8,0.1-1.5,0.3-2.1,0.8c-2.7,1.8-6.3,1.8-9,0
	c-0.6-0.4-1.4-0.7-2.1-0.8c-1.2,0.1-2.4,0.4-3.4,1c0,0.3,0,0.6,0,0.9v5.4C14.1,22.7,18.5,27.1,24,27C24,27,24,27,24,27z M28.1,15.5
	c0.3-0.5,0.9-0.7,1.3-0.4c0.5,0.3,0.7,0.9,0.4,1.3c0,0,0,0,0,0.1c-0.3,0.5-0.9,0.6-1.4,0.3C28.1,16.5,27.9,16,28.1,15.5z M18.1,15.5
	c0.3-0.5,0.9-0.6,1.4-0.4c0,0,0,0,0,0c0.5,0.3,0.6,0.9,0.4,1.4c0,0,0,0,0,0c-0.3,0.5-0.9,0.6-1.4,0.4C18,16.6,17.9,16,18.1,15.5
	L18.1,15.5z"/>
<path d="M44.9,43.4l-2.5-5.6c-0.3-0.7-0.6-1.3-1-1.9c-1.1,0.9-6.5,5.8-7.3,10h9.1c1,0,1.9-0.8,1.9-1.8C45,43.9,45,43.6,44.9,43.4z"
	/>
<path d="M13.2,38c0.5,0.2,0.8,0.7,0.7,1.2c0,0,0,0,0,0L13,42c5-4.5,10.3-8.5,16-12l0,0v-2.1c-3.2,1.4-6.8,1.4-10,0V30
	c0,0.5-0.3,0.9-0.8,1c0,0-5.1,0.9-6.4,1.2c-2.9,0.7-5.2,2.9-6.2,5.7l-2.4,5.5c-0.4,0.9,0,2.1,1,2.5C4.4,45.9,4.6,46,4.9,46H10l2-7.3
	C12.1,38.2,12.7,37.9,13.2,38C13.2,38,13.2,38,13.2,38z"/>
</svg>
