<?xml version="1.0" encoding="utf-8"?>
<!-- Generator: Adobe Illustrator 24.1.3, SVG Export Plug-In . SVG Version: 6.00 Build 0)  -->
<svg version="1.1" id="icon" xmlns="http://www.w3.org/2000/svg" xmlns:xlink="http://www.w3.org/1999/xlink" x="0px" y="0px"
	 viewBox="0 0 48 48" style="enable-background:new 0 0 48 48;" xml:space="preserve">
<path d="M5,38v4H3.3C3,42,2,43.7,2,43.7C2,43.9,2.1,44,2.3,44c0,0,0,0,0,0H3c0.6,0,1,0.4,1,1l0,0c0,0.6-0.4,1-1,1H1
	c-0.6,0-1-0.4-1-1v-5c0.1-1.1,0.9-1.9,2-2H5z"/>
<path d="M25,41.4c-0.1,4.4-2.1,4.6-2.1,4.6L7,46v-8h8c0.5,0,0.9-0.3,1-0.7c0.1-0.4-0.1-0.9-0.5-1.1C15.4,36.1,9,32.2,9,25
	c0-1.7,0.6-3.3,1.7-4.5c1.6-1.6,4.6-2.5,8.3-2.5c1,0,2,0.1,3,0.3v8.8c-0.5-0.4-1-0.7-1.5-1c-0.5-0.3-1.1-0.1-1.4,0.4
	s-0.1,1.1,0.4,1.4c1.5,0.9,2.7,2.1,3.6,3.6l0.1,0.1c-0.8,1.3-1.3,2.8-1.2,4.4c-0.1,1.4,0.3,2.7,1.3,3.7L25,41.4z"/>
<path d="M30.1,37.5c-0.3-0.5-0.1-1.1,0.4-1.4C30.6,36,30.8,36,31,36h10c-2.4-6.4-6.8-12.1-11.8-15.1c-1.6-0.9-3.4-1.6-5.2-2.1V29
	c0,0.1,0,0.1,0,0.2c0.3,0.4,0.6,0.8,0.8,1.2l4.8-2.2c0.5-0.2,1.1,0,1.3,0.5c0.2,0.5,0,1-0.4,1.3l-5.1,2.4C24.5,32.7,24,34.2,24,36
	c-0.1,0.8,0.1,1.7,0.7,2.3l1.9,1.9c0.1,0.1,0.2,0.1,0.2,0.2L32,46l1.5-3L30.1,37.5z"/>
<path d="M38.6,38l-1.8,3H38c1.6,0.1,3,0.9,4,2.1l1,0.9c-0.2-2-0.7-4-1.3-6H38.6z"/>
<path d="M38,43h-2.5L34,46h7.8l-1.2-1.4C39.8,43.8,38.9,43,38,43z"/>
<path d="M47,38h-3.1c0.7,2.6,1.1,5.3,1.1,8h1.7c0.7,0,1.3-0.5,1.3-1.2v-5.6C48,38.8,47.9,38,47,38z"/>
</svg>
