<?xml version="1.0" encoding="utf-8"?>
<!-- Generator: Adobe Illustrator 24.1.3, SVG Export Plug-In . SVG Version: 6.00 Build 0)  -->
<svg version="1.1" id="icon" xmlns="http://www.w3.org/2000/svg" xmlns:xlink="http://www.w3.org/1999/xlink" x="0px" y="0px"
	 viewBox="0 0 48 48" style="enable-background:new 0 0 48 48;" xml:space="preserve">
<path d="M38.2,12c-0.2,0-0.4,0-0.6,0.1l-2,1c-1.2,0.6-4.9,1.9-4.9,2h-0.1l-9.1,4.5l-0.1,0c-0.3,0.2-0.6,0.3-0.9,0.3
	c-0.6,0.1-1.1-0.2-1.3-0.8c-0.3-0.6-0.1-1.3,0.4-1.7l0.1-0.1l8.9-6.6c0.5-0.3,0.6-0.9,0.2-1.4c-0.3-0.5-0.9-0.6-1.4-0.2L25,11
	c0,0-4.1-1-4.4-1c-0.5,0-0.9,0.1-1.4,0.2L8,13.9c-1,0.5-2.3,0-2.8-1c-0.2-0.5-0.1-1.1,0.1-1.6C5.7,10.5,6.3,10,7,9.8L22.8,4
	c0.1,0,0.2,0,0.3,0L44,5l0,0v8L38.2,12z"/>
<path d="M4,39v8h40v-8H4z M43,25H31c0,0,0,0.3,0,0.5c0.1,1.6-0.5,3.3-1.6,4.5H34c0.6,0,1,0.4,1,1s-0.4,1-1,1H14c-0.6,0-1-0.4-1-1
	s0.4-1,1-1h4.6c-1.1-1.2-1.7-2.8-1.6-4.5c0-0.2,0-0.5,0-0.5H5c-0.6,0-1,0.4-1,1v11h40V26C44,25.4,43.6,25,43,25z M24,21
	c-2.8,0-5,2.2-5,5c0,1.6,0.7,3.1,2,4h6c2.2-1.7,2.7-4.8,1-7C27.1,21.7,25.6,21,24,21z"/>
</svg>
