<?xml version="1.0" encoding="utf-8"?>
<!-- Generator: Adobe Illustrator 24.1.3, SVG Export Plug-In . SVG Version: 6.00 Build 0)  -->
<svg version="1.1" id="icon" xmlns="http://www.w3.org/2000/svg" xmlns:xlink="http://www.w3.org/1999/xlink" x="0px" y="0px"
	 viewBox="0 0 48 48" style="enable-background:new 0 0 48 48;" xml:space="preserve">
<path d="M14,44h-2l-3-1.9V41H4v1.8C4,44.6,5.4,46,7.2,46H14c0.6,0,1-0.4,1-1S14.6,44,14,44z"/>
<path d="M15,4v12c-2.4,0-3,1.6-3,4c0,3.8,0,19,0,19H2c0,0,0-24,0-26.1C2,6.7,9,4.2,15,4z M14.8,30.5L14,31v-5l2-2v4.1
	C16.1,29.1,15.6,30,14.8,30.5L14.8,30.5z M32,13L18,26v-4l5.8-7.4c0.4-0.4,0.3-1.1-0.1-1.4c-0.4-0.4-1.1-0.3-1.4,0.1c0,0,0,0,0,0
	L20,16c-1,0,1,0,1,0h-4V4c5.2,0,10.3,1,15,3V13z M36,14.7V13c0-0.6-0.4-1-1-1h-1V8l0.4,0.2c0.3,0.2,0.8,0.2,1.1,0l2.3-1.7l5,7.4
	c-2.1,0.6-4.3,0.9-6.5,1C36.2,15.1,36,14.9,36,14.7C36,14.7,36,14.7,36,14.7L36,14.7z M46.2,12.7c-0.4,0.2-0.9,0.4-1.4,0.6l-5.3-7.9
	L41,4.3C41.3,4.1,41.6,4,41.9,4c0.6,0,1.1,0.3,1.4,0.7l3.5,5.3c0.2,0.3,0.3,0.7,0.3,1.1C47.1,11.8,46.8,12.4,46.2,12.7L46.2,12.7z"
	/>
</svg>
