<?xml version="1.0" encoding="utf-8"?>
<!-- Generator: Adobe Illustrator 24.1.3, SVG Export Plug-In . SVG Version: 6.00 Build 0)  -->
<svg version="1.1" id="icon" xmlns="http://www.w3.org/2000/svg" xmlns:xlink="http://www.w3.org/1999/xlink" x="0px" y="0px"
	 viewBox="0 0 48 48" style="enable-background:new 0 0 48 48;" xml:space="preserve">
<path d="M22.1,6.2c-2.3,4.2-4.3,8.6-6,13l7.9,1.6l-1-2.4c-0.2-0.4-0.1-0.8,0.2-1.1c0.3-0.3,4,1.6,4,1.6c0.5,0.3,1,0.3,1.5-0.1
	c0.8-0.6,1.5-1.3,2.2-2c1.4-1.5,2.6-3.1,3.5-4.9L22.1,6.2z"/>
<path d="M15.1,41.4L12,35c0,5.1,0,9.9,0,12h18c0-0.7,0-1.3,0-2h-9C18.5,45,16.2,43.6,15.1,41.4z"/>
<path d="M21,43h8.9c-0.1-2.2-0.3-4.2-0.6-6H24c-1.6,0.1-2.9-1.2-3-2.8c0-0.1,0-0.1,0-0.2v-8c0-0.6,0.4-1,1-1s1,0.4,1,1v8
	c-0.1,0.5,0.3,0.9,0.8,1c0.1,0,0.1,0,0.2,0h5c-0.7-4.2-1.9-8.2-3.8-12H25h-0.2l-9.4-1.9c-0.5,1.4-1,2.9-1.4,4.3
	c-0.5,1.8-0.8,3.6-1.1,5.4l3.9,9.9C17.8,42.1,19.3,43,21,43z"/>
<path d="M33.9,37H31c0.2,1.2,0.5,3.6,0.6,5H34c0.6,0,1-0.2,1-1c-0.1-1.2-0.3-2.3-0.5-3.5C34.4,37.2,34.2,37,33.9,37z"/>
<path d="M33.6,3.5l-5.5-2.3c-1.5-0.6-3.2,0-4,1.4l-1,1.8L35.3,10c0.2-0.4,0.4-0.9,0.6-1.4C36,8,36.1,7.3,36.1,6.6
	C36.1,5.7,35.8,4.4,33.6,3.5z"/>
</svg>
