<?xml version="1.0" encoding="utf-8"?>
<!-- Generator: Adobe Illustrator 24.1.3, SVG Export Plug-In . SVG Version: 6.00 Build 0)  -->
<svg version="1.1" id="icon" xmlns="http://www.w3.org/2000/svg" xmlns:xlink="http://www.w3.org/1999/xlink" x="0px" y="0px"
	 viewBox="0 0 48 48" style="enable-background:new 0 0 48 48;" xml:space="preserve">
<path d="M45.5,15c-0.8,0-1.5,0.7-1.5,1.5v3c0,3.6-1,4.8-4.2,6.4c-1.8,0.9-3.8,1-3.8,5.1c0,0.6-0.4,1-1,1s-1-0.4-1-1
	c0-4.7,1.3-5.6,4-6.9c2-1,3.8-1.5,4-3.1c0-0.4,0-0.9,0-1.5v-3.3c0-0.9,0.3-1.7,1-2.2V7.4c-0.1-0.8-0.8-1.4-1.7-1.3
	c-0.7,0.1-1.2,0.6-1.3,1.3V20c0,0.6-0.4,1-1,1l0,0c-0.6,0-1-0.4-1-1V4.5C38,3.7,37.3,3,36.5,3l0,0C35.7,3,35,3.7,35,4.5V20
	c0,0.6-0.4,1-1,1l0,0c-0.6,0-1-0.4-1-1V7.5C33,6.7,32.3,6,31.5,6l0,0C30.7,6,30,6.7,30,7.5V21c0,0.6-0.4,1-1,1l0,0c-0.6,0-1-0.4-1-1
	v-9.5c0-0.8-0.7-1.5-1.5-1.5l0,0c-0.8,0-1.5,0.7-1.5,1.5V26c0,2.1,0.6,4.1,1.7,5.9c0.7,1.2,2.3,2.4,2.3,4.1v9h12v-7
	c0-2.2,1.1-4.1,2.3-6.1c1.4-2.3,3.7-4.6,3.7-8v-7.4C47,15.7,46.3,15,45.5,15z"/>
<path d="M2.5,15C3.3,15,4,15.7,4,16.5v3c0,3.6,1,4.8,4.1,6.4c1.8,0.9,3.9,1,3.9,5.1c0,0.6,0.4,1,1,1s1-0.4,1-1c0-4.7-1.3-5.6-4-6.9
	c-2-1-3.8-1.5-4-3.1c0-0.4,0-0.9,0-1.5v-3.3c0-0.9-0.3-1.7-1-2.2V7.4C5.1,6.6,5.8,6,6.7,6.1C7.4,6.2,7.9,6.7,8,7.4V20
	c0,0.6,0.4,1,1,1l0,0c0.6,0,1-0.4,1-1V4.5C10,3.7,10.7,3,11.5,3l0,0C12.3,3,13,3.7,13,4.5V20c0,0.6,0.4,1,1,1l0,0c0.6,0,1-0.4,1-1
	V7.5C15,6.7,15.7,6,16.5,6l0,0C17.3,6,18,6.7,18,7.5V21c0,0.6,0.4,1,1,1l0,0c0.6,0,1-0.4,1-1v-9.5c0-0.8,0.7-1.5,1.5-1.5l0,0
	c0.8,0,1.5,0.7,1.5,1.5V26c0,2.1-0.6,4.1-1.7,5.9C20.7,33.1,19,34.3,19,36v9H7v-7c0-2.2-1.1-4.1-2.3-6.1c-1.4-2.3-3.7-4.6-3.7-8
	v-7.4C1,15.7,1.7,15,2.5,15z"/>
</svg>
