<?xml version="1.0" encoding="utf-8"?>
<!-- Generator: Adobe Illustrator 24.1.3, SVG Export Plug-In . SVG Version: 6.00 Build 0)  -->
<svg version="1.1" id="icon" xmlns="http://www.w3.org/2000/svg" xmlns:xlink="http://www.w3.org/1999/xlink" x="0px" y="0px"
	 viewBox="0 0 48 48" style="enable-background:new 0 0 48 48;" xml:space="preserve">
<path d="M23,20c2.8,0,8-2.1,8-7V9.4c-2.5,1.2-5.2,1.7-8,1.6c-2.7,0.1-5.5-0.4-8-1.5V13C15,17.9,20.2,20,23,20z"/>
<path d="M31,7V5.4C30.7,3,28.8,1.2,26.4,1h-6.8c-2.4,0.2-4.4,2-4.6,4.4v1.7C15.8,7.7,18.1,9,23,9S30.3,7.6,31,7z"/>
<path d="M23,22c-1.5,0-3.3-1-5-2v2c0.6,0.8,2.6,3,5,3c2.7,0,5-3,5-3l0,0v-2C26.3,21,24.5,22,23,22z"/>
<rect x="25" y="37" width="2" height="4"/>
<path d="M35.9,25.8c-1.6-1.5-3.7-2.5-5.9-2.8c-0.9,1.3-4,4-7,4s-6.1-2.8-7-4c-2.2,0.3-4.3,1.3-5.9,2.8c-2.1,2-3.1,5-3.1,9.1v2.8
	c0,2.8,2.2,5.2,5,5.3h5v-8h-6c-0.6,0-1-0.4-1-1s0.4-1,1-1h1.1c0.2-1.1,0.5-2.3,0.9-3.3c0.2-0.5,0.8-0.8,1.3-0.6
	c0.5,0.2,0.8,0.8,0.6,1.3l0,0c-0.3,0.9-0.6,1.8-0.8,2.6H18c0.6,0,1,0.4,1,1v1h8v-1c0-0.6,0.4-1,1-1h3.8c-0.2-0.9-0.5-1.8-0.8-2.7
	c-0.2-0.5,0.1-1.1,0.6-1.3c0.5-0.2,1.1,0.1,1.3,0.6l0,0c0.4,1.1,0.7,2.2,0.9,3.4H35c0.6,0,1,0.4,1,1s-0.4,1-1,1h-6v8h5
	c2.8-0.1,5-2.5,5-5.3v-2.8C39,30.9,38,27.8,35.9,25.8z"/>
<rect x="19" y="37" width="4" height="4"/>
<path d="M27,44v-1h-8v1c0,0.6-0.4,1-1,1h-5c0,0.5,0,1,0,1.5c0,0.2,0,0.3,0,0.5h20c0-0.2,0-0.3,0-0.5c0-0.5,0-1,0-1.5h-5
	C27.4,45,27,44.6,27,44z"/>
</svg>
