<?xml version="1.0" encoding="utf-8"?>
<!-- Generator: Adobe Illustrator 25.1.0, SVG Export Plug-In . SVG Version: 6.00 Build 0)  -->
<svg version="1.1" id="icon" xmlns="http://www.w3.org/2000/svg" xmlns:xlink="http://www.w3.org/1999/xlink" x="0px" y="0px"
	 viewBox="0 0 48 48" style="enable-background:new 0 0 48 48;" xml:space="preserve">
<style type="text/css">
	.st0{fill:#FFFFFF;}
	.st1{fill:#2B72FF;}
	.st2{fill:#2ED9D6;}
	.st3{fill:#BDD6FF;}
</style>
<g>
	<path class="st1" d="M43.8,13.8c-0.9-2.3-3.3-3.7-5.8-3.7h-0.3c-1,2.5-3.5,4.3-6.4,4.3H16.6c-2.9,0-5.3-1.8-6.4-4.3H9.9
		C7.4,10,5,11.6,4.1,14c-1.2,3-0.8,6.6-0.8,10.4c0.1,11.4,9,21,20.3,21.2c11.6,0.2,21.1-9.2,21.1-20.7C44.7,20.8,45.1,17,43.8,13.8z
		 M22.2,42.8C15.1,42,9.3,36.3,8.4,29.3c-0.2-1.4-0.2-2.7,0-4c0.7-5.2,5.4-9.1,10.7-9.1h9.9c5.3,0,10,3.7,10.7,8.9
		c0.1,0.7,0.1,1.4,0.1,2.1C39.8,36.5,31.7,43.8,22.2,42.8z"/>
	<path class="st2" d="M16.6,12.3h14.8c2.7,0,4.9-2.2,4.9-4.9v0c0-2.7-2.2-4.9-4.9-4.9H16.6c-2.7,0-4.9,2.2-4.9,4.9v0
		C11.7,10.1,13.9,12.3,16.6,12.3z"/>
	<path class="st0" d="M21.5,4.6h0.7c0.6,0,1,0.4,1,1s-0.4,1-1,1h-0.7c-0.6,0-1-0.4-1-1S21,4.6,21.5,4.6z"/>
	<path class="st0" d="M16.6,4.6h1.7c0.6,0,1,0.4,1,1s-0.4,1-1,1h-1.7c-0.4,0-0.7,0.3-0.7,0.7c0,0.6-0.4,1-1,1s-1-0.4-1-1
		C13.9,5.9,15.1,4.6,16.6,4.6z"/>
</g>
</svg>
