<svg id="icon" xmlns="http://www.w3.org/2000/svg" viewBox="0 0 48 48"><defs><style>.cls-1{fill:#2b72ff;}.cls-2{fill:#2ed9d6;}</style></defs><title>Outfit (Woman)</title><path class="cls-1" d="M34,31c0-1.39-1.47-4-5-4s-5,2.61-5,4a27.29,27.29,0,0,1-1.31,7.73A21.42,21.42,0,0,0,22,43c0,.85,2.21,1.91,4.3,2.52A6.53,6.53,0,0,1,25,42c0-.84.2-3,1.17-3.8A4,4,0,0,1,25,35.37V32a1,1,0,0,1,1-1h6a1,1,0,0,1,1,1v3.37a4,4,0,0,1-3.87,4l-.13,0c-1.68,0-2,1.57-2,2.62a7,7,0,0,0,2,4c2.25-.13,7-1.79,7-3a21.42,21.42,0,0,0-.69-4.27A27.29,27.29,0,0,1,34,31Z"/><polygon class="cls-1" points="3 28 7 30 8 27.5 4 26 3 28"/><polygon class="cls-1" points="42 26 38 27.5 39 30 43 28 42 26"/><path class="cls-1" d="M36,10.38a7.46,7.46,0,0,0-2.32-2.89C32.37,6.53,29.78,5,28.18,5h-.25C27.63,7.13,27,11,23,11s-4.64-3.87-4.93-6h-.25c-1.6,0-4.19,1.53-5.48,2.49A7.48,7.48,0,0,0,10,10.4L5,24l3.76,1.65,3.32-8a1,1,0,0,1,.38-.43,9,9,0,0,1,.65-5.63,1,1,0,1,1,1.79.89c-1.39,2.78,0,6.12,0,6.16A1,1,0,0,1,15,19a152.49,152.49,0,0,1-2,24h7a22.51,22.51,0,0,1,.77-4.82A25.63,25.63,0,0,0,22,31c0-2.52,2.43-6,7-6a8,8,0,0,1,2.14.29c-.09-2.1-.14-4.2-.14-6.29a1,1,0,0,1,.08-.4s1.41-3.37,0-6.15a1,1,0,1,1,1.79-.89,9,9,0,0,1,.65,5.63,1,1,0,0,1,.38.43l3.32,8L41,24Z"/><path class="cls-2" d="M26,6a3.19,3.19,0,0,1-3,3,3.19,3.19,0,0,1-3-3Z"/><path class="cls-2" d="M29,37.37a2,2,0,0,1-2-2V33h4v2.37A2,2,0,0,1,29,37.37Z"/></svg>