<svg id="icon" xmlns="http://www.w3.org/2000/svg" viewBox="0 0 48 48"><defs><style>.cls-1{fill:#2b72ff;}.cls-2{fill:#2ed9d6;}</style></defs><title>Outfit (Man)</title><path class="cls-1" d="M24,15V7H22V17.83A3,3,0,0,0,24,15Z"/><polygon class="cls-1" points="39.01 31.74 43 30 41.86 27.86 38.04 29.45 39.01 31.74"/><polygon class="cls-1" points="19 5 27.09 5 28 5 28 3 18 3 18 5 19 5"/><path class="cls-1" d="M39.32,40.95a1,1,0,0,1-.63,0L36,40,31.24,41a1,1,0,0,1-.69-.08l-1.63-.81-2.61.87A1,1,0,0,1,26,41v4H42V41a6,6,0,0,0-.08-.91Z"/><path class="cls-1" d="M32,33a127.14,127.14,0,0,1-1-15,1.1,1.1,0,0,1,.89-1c.81-.16,1.11,0,2.12,2.93.5,1.45,1.39,3.28,2.19,5.16l1.06,2.5L41,26.08l-5.92-14.7A7.46,7.46,0,0,0,28.27,7H26v8a5,5,0,0,1-5,5,1,1,0,0,1-1-1V7H17.82A7.46,7.46,0,0,0,11,11.4L5,26l3.81,1.67,4.27-10.06A1,1,0,0,1,15,18a226.28,226.28,0,0,1-1.85,27H24V41A8.09,8.09,0,0,1,32,33Z"/><polygon class="cls-1" points="2.95 30.08 7 32 8.03 29.52 4.13 27.83 2.95 30.08"/><path class="cls-2" d="M41.3,38.18l-2.3.77-2.68-.89a1,1,0,0,0-.56,0l-4.64.91-1.67-.83a1,1,0,0,0-.76-.05l-2.27.76A6,6,0,0,1,32,35h4A6,6,0,0,1,41.3,38.18Z"/></svg>