<?xml version="1.0" encoding="utf-8"?>
<!-- Generator: Adobe Illustrator 25.1.0, SVG Export Plug-In . SVG Version: 6.00 Build 0)  -->
<svg version="1.1" id="icon" xmlns="http://www.w3.org/2000/svg" xmlns:xlink="http://www.w3.org/1999/xlink" x="0px" y="0px"
	 viewBox="0 0 48 48" style="enable-background:new 0 0 48 48;" xml:space="preserve">
<style type="text/css">
	.st0{fill:#FFFFFF;}
	.st1{fill:#2B72FF;}
	.st2{fill:#2ED9D6;}
	.st3{fill:#BDD6FF;}
</style>
<g>
	<path class="st1" d="M22.8,45.7C2.6,39.2,2.2,16.7,2.5,10.3c0-1,0.7-1.9,1.7-2.2l17.6-5.7c1.4-0.5,2.9-0.5,4.3,0l17.6,5.7
		c1,0.3,1.7,1.2,1.7,2.2c0.3,6.4-0.1,28.8-20.3,35.3C24.4,45.9,23.6,45.9,22.8,45.7z"/>
	<path class="st0" d="M40.7,12.9c0-0.4-0.3-0.8-0.7-0.9L25.1,7.2c-0.7-0.2-1.5-0.2-2.3,0L8,12c-0.4,0.1-0.7,0.5-0.7,0.9
		C7.2,19.6,8.5,35.5,23,40.7v2.3c0,0.6,0.4,1,1,1s1-0.4,1-1v-2.3C39.5,35.5,40.8,19.6,40.7,12.9z M24,38.9
		C10.9,34.4,9.3,20.3,9.3,13.6l14.2-4.5c0.4-0.1,0.7-0.1,1.1,0l14.2,4.5C38.7,20.3,37.1,34.5,24,38.9z"/>
	<polygon class="st2" points="30.5,26.2 33.2,23.5 30.5,20.8 30.5,17 26.7,17 24,14.3 21.3,17 17.5,17 17.5,20.8 14.8,23.5 
		17.5,26.2 17.5,30 21.3,30 24,32.7 26.7,30 30.5,30 	"/>
	<g>
		<path class="st0" d="M24,33.7c-0.3,0-0.5-0.1-0.7-0.3L20.9,31h-3.4c-0.6,0-1-0.4-1-1v-3.4l-2.4-2.4c-0.4-0.4-0.4-1,0-1.4l2.4-2.4
			V17c0-0.6,0.4-1,1-1h3.4l2.4-2.4c0.4-0.4,1-0.4,1.4,0l2.4,2.4h3.4c0.6,0,1,0.4,1,1v3.4l2.4,2.4c0.4,0.4,0.4,1,0,1.4l-2.4,2.4V30
			c0,0.6-0.4,1-1,1h-3.4l-2.4,2.4C24.5,33.6,24.3,33.7,24,33.7z M18.5,29h2.8c0.3,0,0.5,0.1,0.7,0.3l2,2l2-2
			c0.2-0.2,0.4-0.3,0.7-0.3h2.8v-2.8c0-0.3,0.1-0.5,0.3-0.7l2-2l-2-2c-0.2-0.2-0.3-0.4-0.3-0.7V18h-2.8c-0.3,0-0.5-0.1-0.7-0.3l-2-2
			l-2,2c-0.2,0.2-0.4,0.3-0.7,0.3h-2.8v2.8c0,0.3-0.1,0.5-0.3,0.7l-2,2l2,2c0.2,0.2,0.3,0.4,0.3,0.7V29z"/>
	</g>
</g>
</svg>
