<svg id="icon" xmlns="http://www.w3.org/2000/svg" viewBox="0 0 48 48"><defs><style>.cls-1{fill:#2ed9d6;}.cls-2{fill:#2b72ff;}</style></defs><title>Kopyah (Turki)</title><path class="cls-1" d="M32,29c.54,0,1,.61,1,1.33A10.43,10.43,0,0,1,32,34a10.42,10.42,0,0,1-1-3.67C31,29.61,31.46,29,32,29Zm0-6a1,1,0,1,1,1-1A1,1,0,0,1,32,23Z"/><path class="cls-2" d="M24,43C13.67,43,6.79,41.25,4,40.33A1.31,1.31,0,0,1,3,39L10,8A56.84,56.84,0,0,1,24,6a53.23,53.23,0,0,1,5.33.28A5.31,5.31,0,0,1,31,10v9.18a3,3,0,0,0,0,5.63V27.2a3.32,3.32,0,0,0-2,3.13c0,2.58,2.05,6,2.14,6.18a1,1,0,0,0,1.71,0c.09-.15,2.14-3.6,2.14-6.18a3.32,3.32,0,0,0-2-3.13V24.82a3,3,0,0,0,0-5.63V10a7.53,7.53,0,0,0-.91-3.34A45.11,45.11,0,0,1,38,8l7,31a1.34,1.34,0,0,1-.94,1.35C41.39,41.28,34.83,43,24,43Z"/></svg>