<svg id="icon" xmlns="http://www.w3.org/2000/svg" viewBox="0 0 48 48"><defs><style>.cls-1{fill:#2b72ff;}.cls-2{fill:#2ed9d6;}</style></defs><title>Kopyah (Bulat)</title><path class="cls-1" d="M25,9a20.63,20.63,0,0,1,9.93,2.53A35,35,0,0,1,24,13a36.22,36.22,0,0,1-10.89-1.48A20.64,20.64,0,0,1,23,9ZM24,43c-11.89,0-17.65-1.09-20.08-1.7A1.23,1.23,0,0,1,3,40.06V37c2.47.62,8.4,2,21,2s18.53-1.35,21-2v3.06a1.23,1.23,0,0,1-.92,1.2C41.64,41.87,35.88,43,24,43ZM45,28.22l-2.81-1.5a6.2,6.2,0,0,0-6.77.64l-2.6,2.12a2.34,2.34,0,0,1-3,0l-3-2.48a4.48,4.48,0,0,0-5.66,0l-3,2.49a2.34,2.34,0,0,1-3,0l-2.59-2.12a6.2,6.2,0,0,0-6.77-.64L3,28.22v-.16A18.6,18.6,0,0,1,11,13l.07,0A36.54,36.54,0,0,0,24,15c5.21,0,9.28-.56,12.94-2L37,13a18.61,18.61,0,0,1,8,15.07Z"/><path class="cls-2" d="M45,35c-1.67.49-7.21,2-21,2S4.65,35.49,3,35v-4.5l3.83-2a4,4,0,0,1,4.38.42L13.8,31a4.51,4.51,0,0,0,5.69,0l3-2.49a2.31,2.31,0,0,1,2.92,0l3,2.48a4.51,4.51,0,0,0,5.69,0l2.59-2.12a4,4,0,0,1,4.38-.41l3.83,2Z"/></svg>