<svg id="icon" xmlns="http://www.w3.org/2000/svg" viewBox="0 0 48 48"><defs><style>.cls-1{fill:#2b72ff;}.cls-2{fill:#2ed9d6;}</style></defs><title>Kopyah (Kotak)</title><path class="cls-1" d="M43,15.08S40.88,10,24,10,5,15,5,15L3.49,34.14h0C5.76,35.5,13.84,36.92,23.06,37H25c9.26-.08,17.33-1.49,19.52-2.85h0ZM24,20c-1.64,0-17-.11-17-4s15.36-4,17-4,17,.11,17,4S25.64,20,24,20Z"/><path class="cls-2" d="M44.69,36.29C41.28,37.86,33,38.93,25,39H23c-8-.07-16.3-1.14-19.74-2.72L3,39a1.55,1.55,0,0,0,.89,1.47c2.43,1.08,9.45,2.45,19.17,2.53H25c9.7-.08,16.72-1.46,19.16-2.54A1.53,1.53,0,0,0,45,39Z"/><path class="cls-2" d="M38.88,16c-1-.76-6.66-2-14.88-2S10.09,15.24,9.12,16c1,.76,6.66,2,14.88,2S37.91,16.76,38.88,16Z"/></svg>