<svg id="icon" xmlns="http://www.w3.org/2000/svg" viewBox="0 0 48 48"><defs><style>.cls-1{fill:#2b72ff;}.cls-2{fill:#2ed9d6;}</style></defs><title>Fasting</title><path class="cls-1" d="M15,4a1,1,0,0,0-1,1v7a2,2,0,0,1-2,2H11V5A1,1,0,0,0,9,5v9H8a2,2,0,0,1-2-2V5A1,1,0,0,0,4,5v7a4,4,0,0,0,4,4H9v3H7.75c-.41,0-.75.45-.75,1V42c0,1.65,1,3,2.25,3h1.5C12,45,13,43.65,13,42V20c0-.55-.34-1-.75-1H11V16h1a4,4,0,0,0,4-4V5A1,1,0,0,0,15,4Z"/><path class="cls-1" d="M43,12.57C43,9.21,40.53,3,37,3s-6,6.21-6,9.57,2,5.09,5,5.38c0,0,0,0,0,.05v4H34.75c-.41,0-.75.45-.75,1V42c0,1.65,1,3,2.25,3h1.5C39,45,40,43.65,40,42V23c0-.55-.34-1-.75-1H38V18s0,0,0-.05C41,17.66,43,16,43,12.57Z"/><path class="cls-2" d="M29.74,23.33a1,1,0,0,0-1.41-.07L23.5,27.65l-4.83-4.39a1,1,0,0,0-1.35,1.48L22,29l-4.69,4.26a1,1,0,0,0,1.35,1.48l4.83-4.39,4.83,4.39a1,1,0,0,0,1.35-1.48L25,29l4.69-4.26A1,1,0,0,0,29.74,23.33Z"/></svg>