<svg id="icon" xmlns="http://www.w3.org/2000/svg" viewBox="0 0 48 48"><defs><style>.cls-1{fill:#2ed9d6;}.cls-2{fill:#2b72ff;}</style></defs><title>Hajj</title><path class="cls-1" d="M30.6,10a4.46,4.46,0,0,0-2.12.75,8.32,8.32,0,0,1-9,0A4.46,4.46,0,0,0,17.4,10,7.53,7.53,0,0,0,14,11c0,.3,0,.6,0,.9v5.37A9.86,9.86,0,0,0,24,27a9.86,9.86,0,0,0,10-9.68V12c0-.32,0-.65,0-1A8.36,8.36,0,0,0,30.6,10ZM19.88,16.51a1,1,0,1,1-.37-1.37A1,1,0,0,1,19.88,16.51Zm10,0a1,1,0,0,1-1.73-1,1,1,0,1,1,1.73,1Z"/><path class="cls-1" d="M44.86,43.4l-2.48-5.58a8.43,8.43,0,0,0-1-1.87c-1.08.92-6.54,5.76-7.33,10h9.07A1.85,1.85,0,0,0,44.86,43.4Z"/><path class="cls-1" d="M29,27.92a12.11,12.11,0,0,1-10,0V30a1,1,0,0,1-.83,1s-5.08.88-6.38,1.21a8.87,8.87,0,0,0-6.2,5.69L3.17,43.36A1.88,1.88,0,0,0,4.88,46H10l2-7.27a1,1,0,1,1,1.92.55L13,42A111.58,111.58,0,0,1,29,30s0,0,0,0Z"/><path class="cls-2" d="M20.48,9a6.37,6.37,0,0,0,7,0A6.22,6.22,0,0,1,30.6,8a8.68,8.68,0,0,1,2.79.57,10,10,0,0,0-18.79,0A8.1,8.1,0,0,1,17.4,8,6.22,6.22,0,0,1,20.48,9Z"/><path class="cls-2" d="M36,32.14c-1.07-.28-3.84-.86-4.86-1.08C29.1,32.32,17.53,40,12.08,46h20c.74-5.14,6.8-10.52,8.06-11.58A9.13,9.13,0,0,0,36,32.14Z"/></svg>