<svg id="icon" xmlns="http://www.w3.org/2000/svg" viewBox="0 0 48 48"><defs><style>.cls-1{fill:#2b72ff;}</style></defs><title>Praying</title><path class="cls-1" d="M45.5,15A1.5,1.5,0,0,0,44,16.5v3c0,3.63-1,4.83-4.15,6.39-1.76.88-3.85,1-3.85,5.11a1,1,0,0,1-2,0c0-4.74,1.34-5.59,4-6.89,2-1,3.84-1.49,4-3.11,0-.42,0-.91,0-1.5V16.2A2.68,2.68,0,0,1,43,14V7.4a1.51,1.51,0,0,0-3,0V20a1,1,0,0,1-2,0V4.5a1.5,1.5,0,0,0-3,0V20a1,1,0,0,1-2,0V7.5a1.5,1.5,0,0,0-3,0V21a1,1,0,0,1-2,0V11.5a1.5,1.5,0,0,0-3,0V26a10.76,10.76,0,0,0,1.66,5.87C27.32,33.06,29,34.3,29,36v9H41V38c0-2.25,1.12-4.12,2.31-6.1,1.37-2.28,3.69-4.64,3.69-8V16.5A1.5,1.5,0,0,0,45.5,15Z"/><path class="cls-1" d="M21.5,10A1.5,1.5,0,0,0,20,11.5V21a1,1,0,0,1-2,0V7.5a1.5,1.5,0,0,0-3,0V20a1,1,0,0,1-2,0V4.5a1.5,1.5,0,0,0-3,0V20a1,1,0,0,1-2,0V7.4a1.51,1.51,0,0,0-3,0V14a2.68,2.68,0,0,1,1,2.2v3.3c0,.59,0,1.08,0,1.5.16,1.62,2,2.12,4,3.11,2.61,1.3,4,2.15,4,6.89a1,1,0,0,1-2,0c0-4.13-2.09-4.23-3.85-5.11C5,24.33,4,23.13,4,19.5v-3a1.5,1.5,0,0,0-3,0v7.4c0,3.36,2.32,5.72,3.69,8C5.88,33.88,7,35.75,7,38v7H19V36c0-1.7,1.68-2.94,2.34-4.13A10.76,10.76,0,0,0,23,26V11.5A1.5,1.5,0,0,0,21.5,10Z"/></svg>