<svg id="icon" xmlns="http://www.w3.org/2000/svg" viewBox="0 0 48 48"><defs><style>.cls-1{fill:#2ed9d6;}.cls-2{fill:#2b72ff;}</style></defs><title>Shadaqah</title><circle class="cls-1" cx="29" cy="26" r="5"/><path class="cls-2" d="M41.3,34.23,29.09,37.79a3.69,3.69,0,0,1-1.4.23,3.82,3.82,0,0,1-1.46-.33L25,37a3.07,3.07,0,0,1-2,1c-.42,0-9.24-1-9.24-1A1,1,0,1,1,14.25,35s8.23,1,8.42,1a1.18,1.18,0,0,0,1.19-.71,1.93,1.93,0,0,0,0-1.51,1.09,1.09,0,0,0-.63-.63L14.8,30.36A5.6,5.6,0,0,0,13,30a5.72,5.72,0,0,0-2.17.35L6.37,31.9a1,1,0,0,1-.26.08L2,33,2,44l9.73-3L12,41a1,1,0,0,1,.34.06l8.47,3.11a9.26,9.26,0,0,0,7,.29l14.89-6a3.58,3.58,0,0,0,2.12-1.67,1.93,1.93,0,0,0,0-1.5C44.41,34.15,43.11,33.75,41.3,34.23Z"/><path class="cls-2" d="M46,5,25.12,4a.7.7,0,0,0-.29,0L8.95,9.78a2.71,2.71,0,0,0-1.67,1.4,2.13,2.13,0,0,0-.1,1.63,2.14,2.14,0,0,0,2.78,1L21.3,10.21A3.69,3.69,0,0,1,22.65,10C22.9,10,27,11,27,11l2.42-1.75a1,1,0,1,1,1.16,1.63l-8.95,6.63-.09.06a1.34,1.34,0,0,0-.39,1.66,1.25,1.25,0,0,0,1.31.76,2,2,0,0,0,.92-.31l.09-.05,9.08-4.53.1,0s3.66-1.34,4.9-2l2-1a1,1,0,0,1,.61-.09L46,13V5Z"/></svg>