<svg id="icon" xmlns="http://www.w3.org/2000/svg" viewBox="0 0 48 48"><defs><style>.cls-1{fill:#2b72ff;}.cls-2{fill:#2ed9d6;}</style></defs><title>Shalat (Sujud)</title><path class="cls-1" d="M22,36a7.38,7.38,0,0,1,1.21-4.41l-.08-.09a10.11,10.11,0,0,0-3.59-3.61,1,1,0,0,1,.92-1.78,10.5,10.5,0,0,1,1.54,1V18.32A17.61,17.61,0,0,0,19,18c-3.71,0-6.7.84-8.32,2.45A6.71,6.71,0,0,0,9,25c0,7.21,6.42,11.09,6.49,11.13A1,1,0,0,1,16,37.26,1,1,0,0,1,15,38H7v8l15.86,0s2-.21,2.13-4.61l-1.7-1.73A4.74,4.74,0,0,1,22,36Z"/><path class="cls-1" d="M31,36H41c-2.44-6.39-6.84-12.14-11.8-15.08A22.61,22.61,0,0,0,24,18.8V29a1,1,0,0,1,0,.17,11.44,11.44,0,0,1,.81,1.19l4.79-2.22a1,1,0,0,1,.89,1.79l-5.15,2.4C24.53,32.72,24,34.19,24,36a2.84,2.84,0,0,0,.71,2.29l1.87,1.89a1,1,0,0,1,.24.24L31.95,46l1.46-3-3.26-5.49A1,1,0,0,1,31,36Z"/><path class="cls-1" d="M47,38H43.86A32.6,32.6,0,0,1,45,46H46.7A1.29,1.29,0,0,0,48,44.76V39.19C48,38.75,47.87,38,47,38Z"/><path class="cls-2" d="M0,40v5a1,1,0,0,0,1,1H3a1,1,0,0,0,1-1v0a1,1,0,0,0-1-1H2.31A.31.31,0,0,1,2,43.69S3,42,3.31,42H5V38H2A2.15,2.15,0,0,0,0,40Z"/><path class="cls-2" d="M41.7,38H38.57l-1.81,3H38a6,6,0,0,1,4,2.08L43,44A30.85,30.85,0,0,0,41.7,38Z"/><path class="cls-2" d="M38,43H35.55L34,46l7.84,0L40.6,44.63C39.79,43.83,38.88,43,38,43Z"/></svg>