<svg id="icon" xmlns="http://www.w3.org/2000/svg" viewBox="0 0 48 48"><defs><style>.cls-1{fill:#2b72ff;}.cls-2{fill:#2ed9d6;}</style></defs><title>Shalat (Sedekap)front</title><path class="cls-1" d="M31,7V5.45A5,5,0,0,0,26.38,1H19.63A5,5,0,0,0,15,5.45V7.17C15.76,7.7,18.1,9,23,9S30.27,7.6,31,7Z"/><path class="cls-1" d="M35.91,25.81A10.64,10.64,0,0,0,30,23c-.89,1.32-4,4-7,4s-6.11-2.82-7-4a11.08,11.08,0,0,0-5.91,2.81C8,27.79,7,30.85,7,34.91v2.8A5.22,5.22,0,0,0,12,43h5V35H11a1,1,0,0,1,0-2h1.14a23.69,23.69,0,0,1,.92-3.34,1,1,0,0,1,1.88.69A23,23,0,0,0,14.18,33H18a1,1,0,0,1,1,1v1h8V34a1,1,0,0,1,1-1h3.82a22.78,22.78,0,0,0-.76-2.66,1,1,0,0,1,1.88-.69A23.49,23.49,0,0,1,33.86,33H35a1,1,0,0,1,0,2H29v8h5a5.22,5.22,0,0,0,5-5.3v-2.8C39,30.85,38,27.79,35.91,25.81Z"/><path class="cls-1" d="M27,44V43H19v1a1,1,0,0,1-1,1H13c0,.49,0,1,0,1.49,0,.16,0,.34,0,.51H33c0-.17,0-.34,0-.51,0-.52,0-1,0-1.49H28A1,1,0,0,1,27,44Z"/><path class="cls-2" d="M23,11a18.14,18.14,0,0,1-8-1.53V13c0,4.88,5.25,7,8,7s8-2.12,8-7V9.39A17.31,17.31,0,0,1,23,11Z"/><path class="cls-2" d="M28,20c-1.67,1.05-3.48,2-5,2s-3.33-.95-5-2v2c.57.78,2.61,3,5,3,2.73,0,5-3,5-3s0,0,0,0Z"/><rect class="cls-2" x="25" y="37" width="2" height="4"/><rect class="cls-2" x="19" y="37" width="4" height="4"/></svg>