<svg id="icon" xmlns="http://www.w3.org/2000/svg" viewBox="0 0 48 48"><defs><style>.cls-1{fill:#2b72ff;}.cls-2{fill:#2ed9d6;}</style></defs><title>Shalat (Sedekap)</title><path class="cls-1" d="M15.09,41.41,12,35c0,5.11,0,9.94,0,12H30c0-.68,0-1.35,0-2H21A6.58,6.58,0,0,1,15.09,41.41Z"/><path class="cls-1" d="M21,43h8.85c-.13-2.17-.33-4.17-.6-6H24a2.91,2.91,0,0,1-3-3V26a1,1,0,0,1,2,0v8a.91.91,0,0,0,1,1h5a43.1,43.1,0,0,0-3.77-12H25l-.2,0L15.41,21.1c-.51,1.43-1,2.86-1.35,4.26A45.65,45.65,0,0,0,13,30.78l3.94,9.85A4.58,4.58,0,0,0,21,43Z"/><path class="cls-1" d="M33.6,3.53,28.12,1.25a3.22,3.22,0,0,0-4,1.39l-1,1.76L35.27,10c.2-.45.39-.9.57-1.36a6.92,6.92,0,0,0,.27-2.08C36.07,5.71,35.78,4.44,33.6,3.53Z"/><path class="cls-2" d="M22.15,6.17a122.53,122.53,0,0,0-6,13L24,20.79l-1-2.42a1,1,0,0,1,.25-1.11c.31-.28,4,1.56,4,1.56a1.29,1.29,0,0,0,1.46-.07,25.76,25.76,0,0,0,2.17-2,20.37,20.37,0,0,0,3.46-4.93Z"/><path class="cls-2" d="M34.48,37.52a.62.62,0,0,0-.61-.51H31c.17,1.25.48,3.59.59,5H34c.58,0,1-.2,1-1A22.52,22.52,0,0,0,34.48,37.52Z"/></svg>