<svg id="icon" xmlns="http://www.w3.org/2000/svg" viewBox="0 0 48 48"><defs><style>.cls-1{fill:#2ed9d6;}.cls-2{fill:#2b72ff;}</style></defs><title>Shalat (Ruku)</title><path class="cls-1" d="M14,44H12L9,42.06V41H4v1.83A3.19,3.19,0,0,0,7.16,46H14a1,1,0,1,0,0-2Z"/><path class="cls-1" d="M37.84,6.56,35.53,8.21a1,1,0,0,1-1.14,0L34,8v4h1a1,1,0,0,1,1,1v1.66a.33.33,0,0,0,.34.32,28,28,0,0,0,6.47-1Z"/><path class="cls-1" d="M14,26l0,5,.72-.5A2.59,2.59,0,0,0,16,28.12L16,24Z"/><path class="cls-2" d="M2,12.9C2,15,2,39,2,39H12s0-15.21,0-19c0-2.39.61-4,3-4L15,4C9,4.24,2,6.65,2,12.9Z"/><path class="cls-2" d="M17,16l3,0,2.22-2.65a1,1,0,1,1,1.56,1.25L18,22v4L32,13V7A38,38,0,0,0,17,4Z"/><path class="cls-2" d="M46.82,10,43.34,4.74A1.58,1.58,0,0,0,41.93,4a1.65,1.65,0,0,0-.94.31L39.47,5.4l5.3,7.95c.52-.21,1-.43,1.39-.64a1.87,1.87,0,0,0,1-1.63A1.93,1.93,0,0,0,46.82,10Z"/></svg>