<svg id="icon" xmlns="http://www.w3.org/2000/svg" viewBox="0 0 48 48"><defs><style>.cls-1{fill:#2b72ff;}.cls-2{fill:#2ed9d6;}</style></defs><title>Wudhu</title><path class="cls-1" d="M43,8a1,1,0,0,0-1,1v1H38a1,1,0,0,1-1-1H32a1,1,0,0,1-1,1l-3,0A4.2,4.2,0,0,0,24,14v5h6V17.21A2.18,2.18,0,0,1,32.21,15H42v1a1,1,0,0,0,1,1h3V8Z"/><path class="cls-1" d="M19,5H32V7h5V4c0-.75-.25-1-1-1H19a1,1,0,0,0,0,2Z"/><path class="cls-1" d="M41.3,34.23,29.09,37.79a3.69,3.69,0,0,1-1.4.23,3.82,3.82,0,0,1-1.46-.33L25,37a3.07,3.07,0,0,1-2,1c-.42,0-9.24-1-9.24-1A1,1,0,1,1,14.25,35s8.23,1,8.42,1a1.18,1.18,0,0,0,1.19-.71,1.93,1.93,0,0,0,0-1.51,1.09,1.09,0,0,0-.63-.63L14.8,30.36A5.6,5.6,0,0,0,13,30a5.72,5.72,0,0,0-2.17.35L6.37,31.9a1,1,0,0,1-.26.08L2,33,2,44l9.73-3L12,41a1,1,0,0,1,.34.06l8.47,3.11a9.26,9.26,0,0,0,7,.29l14.89-6a3.58,3.58,0,0,0,2.12-1.67,1.93,1.93,0,0,0,0-1.5C44.41,34.15,43.11,33.75,41.3,34.23Z"/><path class="cls-2" d="M27,31a4.06,4.06,0,0,0,4-4c0-2.42-2.49-5.26-4-6.67-1.51,1.41-4,4.25-4,6.67A4.06,4.06,0,0,0,27,31Z"/></svg>