<svg id="icon" xmlns="http://www.w3.org/2000/svg" viewBox="0 0 48 48"><defs><style>.cls-1{fill:#2b72ff;}.cls-2{fill:#2ed9d6;}</style></defs><title>Zakat</title><path class="cls-1" d="M44,5,23.12,4a.7.7,0,0,0-.29,0L6.95,9.78a2.71,2.71,0,0,0-1.67,1.4,2.13,2.13,0,0,0-.1,1.63,2.14,2.14,0,0,0,2.78,1L19.3,10.21A3.69,3.69,0,0,1,20.65,10C20.9,10,25,11,25,11l2.42-1.75a1,1,0,1,1,1.16,1.63l-8.95,6.63-.09.06a1.34,1.34,0,0,0-.39,1.66,1.25,1.25,0,0,0,1.31.76,2,2,0,0,0,.92-.31l.09-.05,9.08-4.53.1,0s3.66-1.34,4.9-2l2-1a1,1,0,0,1,.61-.09L44,13V5Z"/><path class="cls-1" d="M43,25H31s0,.33,0,.5A6.29,6.29,0,0,1,29.44,30H34a1,1,0,0,1,0,2H14a1,1,0,0,1,0-2h4.65A6.3,6.3,0,0,1,17,25.5c0-.17,0-.5,0-.5H5a1,1,0,0,0-1,1V37H44V26A1,1,0,0,0,43,25Z"/><rect class="cls-1" x="4" y="39" width="40" height="8"/><path class="cls-2" d="M24,21a5,5,0,0,0-3,9h6a5,5,0,0,0-3-9Z"/></svg>