<svg id="icon" xmlns="http://www.w3.org/2000/svg" viewBox="0 0 48 48"><defs><style>.cls-1{fill:#2b72ff;}</style></defs><title>Camel</title><path class="cls-1" d="M46,10a2.05,2.05,0,0,1-2,2H42a2,2,0,0,0-2,2v4c0,5-4.08,8-7,8s-6,2.81-6,7v7l1.82,1.45a1,1,0,0,1,0,1A1,1,0,0,1,28,43H24a1,1,0,0,1-1-1V31c0-2.64-3.88-3-7-3V26a1,1,0,0,0-2,0v4c0,3-4,4-4,4v6l1.82,1.45A1,1,0,0,1,11,43H7a1,1,0,0,1-1-1V31.94a1,1,0,0,1,.69-1A2,2,0,0,0,8,29a7.4,7.4,0,0,0-.74-2.63A13.08,13.08,0,0,1,6,21s0-.1,0-.15A11.26,11.26,0,0,0,3,28v3a1,1,0,0,1-2,0V28c0-5.81,4.71-10.19,7.49-11.86.15-.09,1.44-.63,1.9-.85L11,15a8.16,8.16,0,0,0,2.26-2.53C14.68,10.48,16.45,8,19,8c2.14,0,3.46,1.47,4.62,2.77S25.61,13,27,13c1.65,0,2.71,1.83,3.64,3.45S32.16,19,33,19c1.85,0,2-3.17,2-7,0-3,0-6,4-6a10.65,10.65,0,0,1,6.21,2.32A2,2,0,0,1,46,10Z"/></svg>