<svg id="icon" xmlns="http://www.w3.org/2000/svg" viewBox="0 0 48 48"><defs><style>.cls-1{fill:#2b72ff;}</style></defs><title>Sheep</title><path class="cls-1" d="M7,32V43h3l1.11-5.33a1,1,0,0,1,.78-.66c.15,0,3.21-.71,4.11-3a5.69,5.69,0,0,1-3,1A8.94,8.94,0,0,1,7,32Z"/><path class="cls-1" d="M27,34.27,29,43h3l1-9a6.52,6.52,0,0,1-3.12,1A7.47,7.47,0,0,1,27,34.27Z"/><path class="cls-1" d="M44.73,17.48a8.7,8.7,0,0,1-3.08-2.9c-1-2.06-2-2.58-3.57-2.6-5.44-.09-9,1.69-9,5.37,0,2.12,2,4,3,4.64-.78-1.24-1.89-4,.06-5.75A6.29,6.29,0,0,1,36,15c.48,0,1.38-.06,1.73.34a8.76,8.76,0,0,1,.26,3,.56.56,0,0,0,.33.54,4.87,4.87,0,0,1,3,3.13h2.34c1.61,0,3.35-.21,3.35-2.29C47,19,45.79,18.21,44.73,17.48Z"/><path class="cls-1" d="M38.41,20.72A3,3,0,0,0,36.6,20c-.48,0-.6-.43-.61-.91,0-.88,0-2.11,0-2.11a4.5,4.5,0,0,0-2.32.47c-1.56,2,.18,5,.2,5A1,1,0,0,1,33,24a6.47,6.47,0,0,1-6-6.55c0-4.31,2.77-7,9-7.44a4.49,4.49,0,0,0-4-2,5.23,5.23,0,0,0-3.28,1.73,1,1,0,0,1-1.64-.42A4.51,4.51,0,0,0,23,6a4.59,4.59,0,0,0-4.07,3.34,1,1,0,0,1-1.8.2A5.48,5.48,0,0,0,13,7C10.58,7,9.26,9.07,9,11.1A1,1,0,0,1,8,12H5.45A4.34,4.34,0,0,0,1,16.32a4,4,0,0,0,2.4,3.8,1,1,0,0,1,0,1.8A4.67,4.67,0,0,0,1,26.14C1,28.52,2.49,31,5,31a5.43,5.43,0,0,0,2.5-.82,1,1,0,0,1,.79-.1,1,1,0,0,1,.62.5A4.69,4.69,0,0,0,13,33a4.9,4.9,0,0,0,3.32-1.7,1,1,0,0,1,1.6.2A4.43,4.43,0,0,0,21.64,34a4.3,4.3,0,0,0,3.56-1.61,1,1,0,0,1,1.4-.2,6.6,6.6,0,0,0,3.32.82c1.81,0,3.51-1.75,4.19-3.39a1,1,0,0,1,.94-.62H36c3.5,0,4-2.83,4-4.52A4.44,4.44,0,0,0,38.41,20.72Z"/></svg>