<svg id="Icons" xmlns="http://www.w3.org/2000/svg" viewBox="0 0 48 48"><defs><style>.cls-1{fill:#bdd6ff;}.cls-2{fill:#2b72ff;}</style></defs><title>Kabah</title><polyline class="cls-1" points="4 17 4 23 24 18 44 23 44 17 24 11 4 17"/><path class="cls-1" d="M4,34s2-3,5-3,3,2,6,2,4-3,9-3,5,3,9,3,3-2,6-2,5,3,5,3v8H4V34"/><path class="cls-2" d="M16,36a1,1,0,0,0-1-1H12a1,1,0,0,0,0,2h3A1,1,0,0,0,16,36Z"/><path class="cls-2" d="M11,38H8a1,1,0,0,0,0,2h3a1,1,0,0,0,0-2Z"/><path class="cls-2" d="M19,38H16a1,1,0,0,0,0,2h3a1,1,0,0,0,0-2Z"/><path class="cls-2" d="M37,36a1,1,0,0,0-1-1H33a1,1,0,0,0,0,2h3A1,1,0,0,0,37,36Z"/><path class="cls-2" d="M40,38H37a1,1,0,0,0,0,2h3a1,1,0,0,0,0-2Z"/><path class="cls-2" d="M32,38H29a1,1,0,0,0,0,2h3a1,1,0,0,0,0-2Z"/><path class="cls-2" d="M46,41H45V11a1,1,0,0,0-.71-1l-20-6A1,1,0,0,0,24,4h0a1,1,0,0,0-.28,0l-20,6A1,1,0,0,0,3,11V41H2a1,1,0,0,0,0,2H46a1,1,0,0,0,0-2ZM25,19.28l18,4.5v7.74A6.48,6.48,0,0,0,39,30a5.75,5.75,0,0,0-3.55,1.17A3.78,3.78,0,0,1,33,32a7.05,7.05,0,0,1-3.49-1.36A8.78,8.78,0,0,0,25,29Zm18,2.44-18-4.5V12.34l18,5.4Zm-20-4.5L5,21.72v-4l18-5.4ZM5,23.78l18-4.5V29a8.78,8.78,0,0,0-4.51,1.64A7.05,7.05,0,0,1,15,32a3.78,3.78,0,0,1-2.45-.83A5.75,5.75,0,0,0,9,30a6.48,6.48,0,0,0-4,1.52ZM25,37h3a1,1,0,0,0,0-2H25V31a7.05,7.05,0,0,1,3.49,1.36A8.78,8.78,0,0,0,33,34a5.75,5.75,0,0,0,3.55-1.17A3.78,3.78,0,0,1,39,32c2,0,3.51,1.71,4,2.33V35H41a1,1,0,0,0,0,2h2v4H25ZM43,15.66l-18-5.4V6.34l18,5.4ZM23,6.34v3.91L5,15.66V11.74ZM5,37H7a1,1,0,0,0,0-2H5v-.67C5.49,33.71,7,32,9,32a3.78,3.78,0,0,1,2.45.83A5.75,5.75,0,0,0,15,34a8.78,8.78,0,0,0,4.51-1.64A7.05,7.05,0,0,1,23,31v4H20a1,1,0,0,0,0,2h3v4H5Z"/></svg>