<svg id="Icons" xmlns="http://www.w3.org/2000/svg" viewBox="0 0 48 48"><defs><style>.cls-1{fill:#bdd6ff;}.cls-2{fill:#2b72ff;}</style></defs><title>Mosque Tower</title><path class="cls-1" d="M41,34.5A2.49,2.49,0,0,1,38.5,37H33v0A2.5,2.5,0,0,0,33,32v0h5.5A2.5,2.5,0,0,1,41,34.5Z"/><path class="cls-1" d="M13,47V45s5-4,11-4,11,4,11,4v2Z"/><rect class="cls-1" x="35" y="37" width="4" height="10"/><path class="cls-1" d="M35,31a12.68,12.68,0,0,0,2-6c0-8-13-15-13-15V9s7,2,11,5,6,7,6,10-2,8-2,8H35l0-1"/><path class="cls-2" d="M28,8.81A1,1,0,0,0,27,8H25V7h1a1,1,0,0,0,0-2H24.13C22,5,22,3.91,22,3.5,22,2.19,23.33,2,24.13,2h1.81a1,1,0,0,0,0-2H24.13C21.28,0,20,1.76,20,3.5a3.34,3.34,0,0,0,3,3.4V8H21a1,1,0,0,0-1,.81c-6,2.08-14,8-14,15.53a11.62,11.62,0,0,0,2,7,3.48,3.48,0,0,0,0,6.29V46a1,1,0,0,0,2,0V38H38v8a1,1,0,0,0,2,0V37.65a3.48,3.48,0,0,0,0-6.29,11.62,11.62,0,0,0,2-7C42,16.8,33.94,10.88,28,8.81ZM24,10c4.51,0,16,6.36,16,14.33,0,4.27-1.74,6.14-2.34,6.67H10.34C9.74,30.48,8,28.6,8,24.33,8,16.36,19.49,10,24,10ZM38.5,36H9.5a1.5,1.5,0,0,1,0-3h29a1.5,1.5,0,0,1,0,3Z"/><path class="cls-2" d="M24,40a17.23,17.23,0,0,0-11.71,4.29A1,1,0,0,0,12,45v1a1,1,0,0,0,2,0v-.55A15.81,15.81,0,0,1,24,42a15.82,15.82,0,0,1,10,3.45V46a1,1,0,0,0,2,0V45a1,1,0,0,0-.29-.71A17.23,17.23,0,0,0,24,40Z"/></svg>