<svg id="Icons" xmlns="http://www.w3.org/2000/svg" viewBox="0 0 48 48"><defs><style>.cls-1{fill:#bdd6ff;}.cls-2{fill:#2b72ff;}</style></defs><title>Mosque (Big)</title><path class="cls-1" d="M35.56,25.89a4.12,4.12,0,0,1-1.07-2.79s0-.06,0-.1H30v0a2.17,2.17,0,0,1,2,2,1.82,1.82,0,0,1-.73,1.42A2.74,2.74,0,0,1,30,27v0h6.13A2.22,2.22,0,0,1,35.56,25.89Z"/><path class="cls-1" d="M24,33h0a4.2,4.2,0,0,1,4.2,4.2V45a0,0,0,0,1,0,0H19.8a0,0,0,0,1,0,0V37.2A4.2,4.2,0,0,1,24,33Z"/><path class="cls-1" d="M40,44V26a4.38,4.38,0,0,0,1-3,20.34,20.34,0,0,0-1-5V17s5,3,5,6-1,4-1,4V45H40V44"/><rect class="cls-1" x="32" y="27" width="4" height="18"/><path class="cls-1" d="M32,22c0-8-8-10-8-12V9l2,1s10,4,10,10l-1,3H32V22"/><path class="cls-2" d="M40.51,16.14a1,1,0,0,0-1,0,18.51,18.51,0,0,0-2.69,2c-1-4.31-5.24-6.42-8.48-8C27,9.5,25,8.52,25,8V7h1a1,1,0,0,0,0-2H24a1,1,0,0,1,0-2h2a1,1,0,0,0,0-2H24a3,3,0,0,0-1,5.82V8c0,.52-2,1.5-3.32,2.15-3.23,1.59-7.51,3.7-8.48,8a18.51,18.51,0,0,0-2.69-2,1,1,0,0,0-1,0C6.92,16.48,2,19.53,2,23a5.94,5.94,0,0,0,1.09,3.6A1,1,0,0,0,3,27V45a1,1,0,0,0,1,1H44a1,1,0,0,0,1-1V27a1,1,0,0,0-.09-.4A5.94,5.94,0,0,0,46,23C46,19.53,41.08,16.48,40.51,16.14Zm-.51,2c1.42,1,4,3.07,4,4.81a3.6,3.6,0,0,1-1.23,3H37.23A3.61,3.61,0,0,1,36,23C36,21.26,38.58,19.15,40,18.19ZM27,44H21V37a3,3,0,0,1,6,0ZM24,32a5,5,0,0,0-5,5v7H13V28H35V44H29V37A5,5,0,0,0,24,32ZM13.92,24H34.08a5.94,5.94,0,0,0,.62,2H13.29A5.94,5.94,0,0,0,13.92,24Zm6.65-12.06a16.46,16.46,0,0,0,3.44-2,16.46,16.46,0,0,0,3.44,2C30.81,13.6,35,15.66,35,20a.94.94,0,0,0,0,.14A6,6,0,0,0,34.14,22H13.86A6,6,0,0,0,13,20.14.94.94,0,0,0,13,20C13,15.66,17.19,13.6,20.56,11.94ZM8,18.19c1.42,1,4,3.07,4,4.81a3.6,3.6,0,0,1-1.23,3H5.23A3.61,3.61,0,0,1,4,23C4,21.26,6.58,19.15,8,18.19ZM5,28h6V44H5ZM43,44H37V28h6Z"/></svg>