<svg id="Icons" xmlns="http://www.w3.org/2000/svg" viewBox="0 0 48 48"><defs><style>.cls-1{fill:#bdd6ff;}.cls-2{fill:#2b72ff;}</style></defs><title>Mosque (Small)</title><rect class="cls-1" x="36" y="27" width="4" height="19"/><path class="cls-1" d="M42,24.5A2.49,2.49,0,0,1,39.5,27H34v0A2.5,2.5,0,0,0,34,22v0h5.5A2.5,2.5,0,0,1,42,24.5Z"/><path class="cls-1" d="M36,21c0-5-12-9-12-11V9h1s15,5,15,12v3H36Z"/><path class="cls-1" d="M24,33h0a5,5,0,0,1,5,5v8a0,0,0,0,1,0,0H19a0,0,0,0,1,0,0V38A5,5,0,0,1,24,33Z"/><path class="cls-2" d="M43,24.5a3.5,3.5,0,0,0-2-3.17c-.41-7.4-7.51-10-12.27-11.68C27.23,9.13,25.21,8.4,25,8V7h1a1,1,0,0,0,0-2H24a1,1,0,0,1,0-2h2a1,1,0,0,0,0-2H24a3,3,0,0,0-1,5.82V8c-.27.46-2.25,1.17-3.7,1.69C14.55,11.36,7.45,13.93,7,21.33a3.48,3.48,0,0,0,0,6.32V45H6a1,1,0,0,0,0,2H42a1,1,0,0,0,0-2H41V27.65A3.5,3.5,0,0,0,43,24.5Zm-23-13a16.84,16.84,0,0,0,4-1.79,16.84,16.84,0,0,0,4,1.79c4.39,1.58,10.3,3.71,10.92,9.47H9.06C9.68,15.24,15.59,13.11,20,11.53ZM8.5,23h31a1.5,1.5,0,0,1,0,3H8.5a1.5,1.5,0,0,1,0-3ZM28,45H20V37.33C20,35.5,21.79,34,24,34s4,1.5,4,3.33Zm2,0V37.33C30,34.39,27.31,32,24,32s-6,2.39-6,5.33V45H9V28H39V45Z"/></svg>