<svg id="icon" xmlns="http://www.w3.org/2000/svg" viewBox="0 0 48 48"><defs><style>.cls-1{fill:#2ed9d6;}.cls-2{fill:#2b72ff;}</style></defs><title>Muslim Man (India Headscarf) 2</title><path class="cls-1" d="M33,18a24.44,24.44,0,0,1-4-2,38.21,38.21,0,0,0-4-2,13.26,13.26,0,0,0-5.14,1.79A20.92,20.92,0,0,1,15,18v2a9,9,0,0,0,18,0ZM20,20a1,1,0,1,1,1-1A1,1,0,0,1,20,20Zm8,0a1,1,0,1,1,1-1A1,1,0,0,1,28,20Z"/><path class="cls-2" d="M29.54,14A23.49,23.49,0,0,0,34,16V13a4.13,4.13,0,0,0-1.52-3.43.87.87,0,0,1-.21-.17c-1.17-.88-3.11-1.64-6.39-1.92A98.24,98.24,0,0,0,16,7c-.28,0-.49.44-.65.85L15,9c2,.5,6.77,1.93,10,3A37,37,0,0,1,29.54,14Z"/><path class="cls-2" d="M32,7a4.34,4.34,0,0,0-1.15-2.83A4,4,0,0,0,28,3H21c-1.42,0-2.23.79-3,2,2.89,0,7.38.43,8.06.49A17.21,17.21,0,0,1,32,7Z"/><path class="cls-2" d="M42.84,43.41c-.72-1.59-1.4-4.55-1.82-5.41-1.39-2.84-3.45-3.82-6.07-4.49-.89-.22-2.38-.43-3-.51l-3,1.62V46H41.16A1.84,1.84,0,0,0,42.84,43.41Z"/><path class="cls-2" d="M13.08,33.51C10.45,34.18,8.39,35.16,7,38c-.42.86-1.1,3.82-1.82,5.41A1.84,1.84,0,0,0,6.86,46H19V34.62L16,33C15.43,33.08,14,33.29,13.08,33.51Z"/><path class="cls-2" d="M25,34.38l6-2.92L30.4,29A11.61,11.61,0,0,1,25,31Z"/><path class="cls-2" d="M14,11v5c1.71-.26,7.23-2.66,8-3C19,12,14.87,11.21,14,11Z"/><path class="cls-2" d="M17,31.4l6,3V31a11.65,11.65,0,0,1-5.39-2Z"/><path class="cls-2" d="M24.4,36.91a.93.93,0,0,1-.8,0l-.05,0L21,35.62V46h6V35.62l-2.55,1.27ZM24,45a1,1,0,1,1,1-1A1,1,0,0,1,24,45Zm1-5a1,1,0,1,1-1-1A1,1,0,0,1,25,40Z"/></svg>