<svg id="icon" xmlns="http://www.w3.org/2000/svg" viewBox="0 0 48 48"><defs><style>.cls-1{fill:#2ed9d6;}.cls-2{fill:#2b72ff;}</style></defs><title>Muslim Man (India Headscarf)</title><path class="cls-1" d="M33,17.86c-4-.6-7.4-4.24-9-7.86-1.6,3.62-5,7.26-9,7.86V20c0,5,4,8,9,8s9-3,9-8ZM20,20a1,1,0,1,1,1-1A1,1,0,0,1,20,20Zm8,0a1,1,0,1,1,1-1A1,1,0,0,1,28,20Z"/><path class="cls-2" d="M14,15.94C20.39,15.13,24,7,24,7s3.61,8.13,10,8.94a.91.91,0,0,0,1-.9V13.9a.9.9,0,0,0-.9-.9H34V11.94a1,1,0,0,0-.87-1A11.67,11.67,0,0,1,24,5a11.67,11.67,0,0,1-9.13,6,1,1,0,0,0-.87,1V13h-.1a.9.9,0,0,0-.9.9V15A.91.91,0,0,0,14,15.94Z"/><path class="cls-2" d="M24.4,35.91a.93.93,0,0,1-.8,0l0,0L21,34.62V46h6V34.62l-2.55,1.27ZM24,44a1,1,0,1,1,1-1A1,1,0,0,1,24,44Zm1-5a1,1,0,1,1-1-1A1,1,0,0,1,25,39Z"/><path class="cls-2" d="M17,30.39l6,3V30a14.09,14.09,0,0,1-6-2Z"/><path class="cls-2" d="M25,33.38l6-3V28a14.09,14.09,0,0,1-6,2Z"/><path class="cls-2" d="M13,33C8,35,4.18,43.88,4.18,43.88A1.43,1.43,0,0,0,5.43,46H19V33.62L16,32A21,21,0,0,0,13,33Z"/><path class="cls-2" d="M43.82,43.88S40,35,35,33a21,21,0,0,0-3-1l-3,1.62V46H42.57A1.43,1.43,0,0,0,43.82,43.88Z"/><path class="cls-2" d="M33,9V8c0-4-3-6-7-6H25C25,6,31,9,33,9Z"/><path class="cls-2" d="M23,2H22c-4,0-7,2-7,6V9C17,9,23,6,23,2Z"/></svg>