<svg id="icon" xmlns="http://www.w3.org/2000/svg" viewBox="0 0 48 48"><defs><style>.cls-1{fill:#2ed9d6;}.cls-2{fill:#2b72ff;}</style></defs><title>Muslim Man (No Kopyah)</title><path class="cls-1" d="M33,16H25a7.65,7.65,0,0,1-6-3.19,8.27,8.27,0,0,1-4,2.89V19a9,9,0,0,0,18,0ZM20,19a1,1,0,1,1,1-1A1,1,0,0,1,20,19Zm8,0a1,1,0,1,1,1-1A1,1,0,0,1,28,19Z"/><path class="cls-2" d="M18.11,10.55A1,1,0,0,1,19,10a1,1,0,0,1,.89.55C19.92,10.61,21.7,14,25,14h9V11a7.07,7.07,0,0,0-6.78-7H20.78A7.07,7.07,0,0,0,14,11v3C16.6,13.37,18.09,10.58,18.11,10.55Z"/><path class="cls-2" d="M43.82,43.88,41,37c-2-3-3.43-3.82-6.07-4.49C34,32.29,32.57,32.08,32,32l-3,1.62V46H42.57A1.43,1.43,0,0,0,43.82,43.88Z"/><path class="cls-2" d="M24.4,35.91a.93.93,0,0,1-.8,0l-.05,0L21,34.62V46h6V34.62l-2.55,1.27ZM24,44a1,1,0,1,1,1-1A1,1,0,0,1,24,44Zm1-5a1,1,0,1,1-1-1A1,1,0,0,1,25,39Z"/><path class="cls-2" d="M17.16,30.46,23,33.38V30a11,11,0,0,1-5.23-2Z"/><path class="cls-2" d="M25,33.38l5.84-2.92L30.23,28A11,11,0,0,1,25,30Z"/><path class="cls-2" d="M13.07,32.51C10.43,33.18,9,34,7,37L4.18,43.88A1.43,1.43,0,0,0,5.43,46H19V33.62L16,32C15.43,32.08,14,32.29,13.07,32.51Z"/></svg>