<svg id="icon" xmlns="http://www.w3.org/2000/svg" viewBox="0 0 48 48"><defs><style>.cls-1{fill:#2ed9d6;}.cls-2{fill:#2b72ff;}</style></defs><title>Muslim Kid (Male)</title><path class="cls-1" d="M34,20a5.7,5.7,0,0,1-3-5v-.58A1.42,1.42,0,0,0,29.58,13H18.42A1.42,1.42,0,0,0,17,14.42v.42a5.36,5.36,0,0,1-3,4.8A9,9,0,0,0,23,28h2A8.73,8.73,0,0,0,34,20ZM20,18a1,1,0,1,1,1-1A1,1,0,0,1,20,18Zm8,0a1,1,0,1,1,1-1A1,1,0,0,1,28,18Z"/><path class="cls-2" d="M18,11H34V10a6,6,0,0,0-6-6H20a6,6,0,0,0-6,6v1h4Z"/><path class="cls-2" d="M42.87,43.55l-2.25-4.9c-1-2.64-3.52-4.11-5.87-5.2-.83-.39-2.08-1.12-2.75-1.45l-8.11,4.57A3.6,3.6,0,0,0,22,39.74V46H41.3A1.73,1.73,0,0,0,42.87,43.55Z"/><path class="cls-2" d="M25,33.68l6-3.23-.61-1.82A11.82,11.82,0,0,1,25,30Z"/><path class="cls-2" d="M33,15.23a3,3,0,0,0,.66,1.87l.34.42V13H32l.13.13A3,3,0,0,1,33,15.23Z"/><path class="cls-2" d="M16,32c-.66.32-1.91,1.06-2.75,1.45C10.9,34.54,8,36.36,7,39L5.17,43.28A2,2,0,0,0,7,46H20V39.74a5.64,5.64,0,0,1,2.25-4.5Z"/><path class="cls-2" d="M15,15.23a3,3,0,0,1,.87-2.1L16,13H14v4.52l.34-.42A3,3,0,0,0,15,15.23Z"/><path class="cls-2" d="M17,30.36l6,3V30a12,12,0,0,1-5.4-1.43Z"/></svg>