<svg id="icon" xmlns="http://www.w3.org/2000/svg" viewBox="0 0 48 48"><defs><style>.cls-1{fill:#2b72ff;}.cls-2{fill:#2ed9d6;}</style></defs><title>Muslim Woman (Chador)</title><path class="cls-1" d="M43.82,43.75,41,38a8.64,8.64,0,0,0-2.49-3.13A1,1,0,0,1,38,34V33c0-3.26-1.56-16.39-2-19C35,8.21,29.31,4,24,4S13,8.21,12,14c-.38,2.25-2,16.52-2,20a1,1,0,0,1-.52.88A6.83,6.83,0,0,0,7,38L4.15,43.81A1.5,1.5,0,0,0,5.48,46H20.77C18.34,44,15,38.57,15,35c0-3.09,1.93-5.09,4.45-6.13A10,10,0,0,1,14,20V14.7A2.7,2.7,0,0,1,16.7,12H31.3A2.7,2.7,0,0,1,34,14.7V20a10,10,0,0,1-9.81,10A1.28,1.28,0,0,1,24,30c-3.37,0-7,1.56-7,5s4.92,9.55,7.08,11H42.46A1.53,1.53,0,0,0,43.82,43.75Z"/><path class="cls-2" d="M32,20V14.7a.7.7,0,0,0-.7-.7H16.7a.7.7,0,0,0-.7.7V20a8,8,0,1,0,16,0ZM20,19a1,1,0,1,1,1-1A1,1,0,0,1,20,19Zm8,0a1,1,0,1,1,1-1A1,1,0,0,1,28,19Z"/></svg>