<svg id="icon" xmlns="http://www.w3.org/2000/svg" viewBox="0 0 48 48"><defs><style>.cls-1{fill:#2ed9d6;}.cls-2{fill:#2b72ff;}</style></defs><title>Muslim Man</title><path class="cls-1" d="M15,13v6a9,9,0,0,0,18,0V13Zm5,5a1,1,0,1,1,1-1A1,1,0,0,1,20,18Zm8,0a1,1,0,1,1,1-1A1,1,0,0,1,28,18Z"/><path class="cls-2" d="M33,9a6,6,0,0,0-6-6H21a6,6,0,0,0-6,6v2H33Z"/><path class="cls-2" d="M43.82,43.88,41,37c-2-3-3.43-3.82-6.07-4.49C34,32.29,32.57,32.08,32,32l-3,1.62V46H42.57A1.43,1.43,0,0,0,43.82,43.88Z"/><path class="cls-2" d="M24.4,35.91a.93.93,0,0,1-.8,0l-.05,0L21,34.62V46h6V34.62l-2.55,1.27ZM24,44a1,1,0,1,1,1-1A1,1,0,0,1,24,44Zm1-5a1,1,0,1,1-1-1A1,1,0,0,1,25,39Z"/><path class="cls-2" d="M23,33.38V30a11,11,0,0,1-5.23-2l-.61,2.41Z"/><path class="cls-2" d="M25,33.38l5.84-2.92L30.23,28A11,11,0,0,1,25,30Z"/><path class="cls-2" d="M13.07,32.51C10.43,33.18,9,34,7,37L4.18,43.88A1.43,1.43,0,0,0,5.43,46H19V33.62L16,32C15.43,32.08,14,32.29,13.07,32.51Z"/></svg>