<svg id="icon" xmlns="http://www.w3.org/2000/svg" viewBox="0 0 48 48"><defs><style>.cls-1{fill:#2b72ff;}.cls-2{fill:#2ed9d6;}</style></defs><title>Muslim Man (Surban)</title><path class="cls-1" d="M4.19,43.92A1.39,1.39,0,0,0,5.4,46H13L7,38Z"/><path class="cls-1" d="M23,30A10.92,10.92,0,0,1,17.77,28l-.61,2.41L23,33.38Z"/><path class="cls-1" d="M35,43l6-8c-.8-2-3.62-12.35-6-21Z"/><polygon class="cls-1" points="15 32 15 46 19 46 19 33.62 15.76 32 15 32"/><path class="cls-1" d="M13,43V15c-2.13,7.72-4.85,17.12-6,20Z"/><polygon class="cls-1" points="29 33.62 29 46 33 46 33 32 32.24 32 29 33.62"/><path class="cls-1" d="M43.81,43.92,41,38l-6,8h7.6A1.39,1.39,0,0,0,43.81,43.92Z"/><path class="cls-1" d="M30.23,28A10.92,10.92,0,0,1,25,30v3.43l5.83-2.92Z"/><path class="cls-1" d="M24.4,35.91a.93.93,0,0,1-.8,0l0,0L21,34.62V46h6V34.62l-2.55,1.27ZM24,44a1,1,0,1,1,1-1A1,1,0,0,1,24,44Zm1-5a1,1,0,1,1-1-1A1,1,0,0,1,25,39Z"/><path class="cls-1" d="M34,8H32.91a6,6,0,0,0-2.4-3.86l0,0A6,6,0,0,0,27,3H21a6,6,0,0,0-3.48,1.12l0,0A6,6,0,0,0,15.09,8H14a1,1,0,0,0,0,2h1v2l0,0a4.46,4.46,0,0,1,3-1c2,0,4,1,6,1s4-1,6-1a4.38,4.38,0,0,1,3,1V10h1a1,1,0,0,0,0-2Z"/><path class="cls-2" d="M27.24,13.47A13.38,13.38,0,0,1,24,14a13.38,13.38,0,0,1-3.24-.53A11.83,11.83,0,0,0,18,13a4.12,4.12,0,0,0-3,1v5a9,9,0,0,0,18,0V14a8.12,8.12,0,0,0-3-1A11.83,11.83,0,0,0,27.24,13.47ZM20,18a1,1,0,1,1,1-1A1,1,0,0,1,20,18Zm8,0a1,1,0,1,1,1-1A1,1,0,0,1,28,18Z"/></svg>