<svg id="icon" xmlns="http://www.w3.org/2000/svg" viewBox="0 0 48 48"><defs><style>.cls-1{fill:#2b72ff;}.cls-2{fill:#2ed9d6;}</style></defs><title>Kabah</title><path class="cls-1" d="M25,30a12.66,12.66,0,0,1,5.51,1.64A7.09,7.09,0,0,0,34,33a3.82,3.82,0,0,0,2.45-.83A5.74,5.74,0,0,1,40,31a10.12,10.12,0,0,1,5,2V23L25,18Z"/><path class="cls-1" d="M44.21,10.76,25,5.06V9l20,6V11.83A1.11,1.11,0,0,0,44.21,10.76Z"/><path class="cls-1" d="M3,11.58V15L23,9V5.06L3.81,10.51A1.11,1.11,0,0,0,3,11.58Z"/><path class="cls-1" d="M3,33a10.12,10.12,0,0,1,5-2,5.74,5.74,0,0,1,3.55,1.17A3.82,3.82,0,0,0,14,33a7.09,7.09,0,0,0,3.49-1.36A12.66,12.66,0,0,1,23,30V18L3,23Z"/><path class="cls-2" d="M46,42H45V38H42a1,1,0,0,1,0-2h3v-.67A8.56,8.56,0,0,0,40,33a3.82,3.82,0,0,0-2.45.83A5.74,5.74,0,0,1,34,35a8.74,8.74,0,0,1-4.51-1.64A10.84,10.84,0,0,0,25,32v4h4a1,1,0,0,1,0,2H25v4H23V38H19a1,1,0,0,1,0-2h4V32a10.84,10.84,0,0,0-4.49,1.36A8.74,8.74,0,0,1,14,35a5.74,5.74,0,0,1-3.55-1.17A3.82,3.82,0,0,0,8,33a8.56,8.56,0,0,0-5,2.33V36H6a1,1,0,0,1,0,2H3v4H2a1,1,0,0,0,0,2H46a1,1,0,0,0,0-2ZM10,41H7a1,1,0,0,1,0-2h3a1,1,0,0,1,0,2Zm0-4a1,1,0,0,1,1-1h3a1,1,0,0,1,0,2H11A1,1,0,0,1,10,37Zm8,4H15a1,1,0,0,1,0-2h3a1,1,0,0,1,0,2Zm15,0H30a1,1,0,0,1,0-2h3a1,1,0,0,1,0,2Zm0-4a1,1,0,0,1,1-1h3a1,1,0,0,1,0,2H34A1,1,0,0,1,33,37Zm8,4H38a1,1,0,0,1,0-2h3a1,1,0,0,1,0,2Z"/><polygon class="cls-2" points="45 17 25 11 25 16 45 21 45 17"/><polygon class="cls-2" points="23 11 3 17 3 21 23 16 23 11"/></svg>