<svg id="icon" xmlns="http://www.w3.org/2000/svg" viewBox="0 0 48 48"><defs><style>.cls-1{fill:#2b72ff;}.cls-2{fill:#2ed9d6;}</style></defs><title>Mosque Tower</title><path class="cls-1" d="M9.34,31H38.66c.61-.52,2.34-2.4,2.34-6.67,0-6.19-7.53-12-13-14.3,0,0,0,0,0,0a1,1,0,0,0-1-1H25V8h1a1,1,0,0,0,0-2H24.13C22,6,22,4.91,22,4.5,22,3.19,23.33,3,24.13,3h1.81a1,1,0,0,0,0-2H24.13C21.28,1,20,2.76,20,4.5a3.34,3.34,0,0,0,3,3.4V9H21a1,1,0,0,0-1,1s0,0,0,0c-5.48,2.29-13,8.11-13,14.3C7,28.6,8.74,30.48,9.34,31Z"/><path class="cls-1" d="M9,47h5V46a1,1,0,0,1,.29-.71C14.47,45.12,16.67,42,24,42s9.53,3.12,9.71,3.29A1,1,0,0,1,34,46v1h5V38H9Z"/><path class="cls-2" d="M39.5,33H8.5a1.5,1.5,0,0,0,0,3h31a1.5,1.5,0,0,0,0-3Z"/></svg>