<svg id="icon" xmlns="http://www.w3.org/2000/svg" viewBox="0 0 48 48"><defs><style>.cls-1{fill:#231f20;}</style></defs><title>Camel</title><path class="cls-1" d="M45.82,7.53A11.58,11.58,0,0,0,39,5c-5,0-5,4-5,7,0,1.48,0,6-1,6-.34,0-1.12-1.39-1.5-2-1-1.76-2.27-4-4.5-4-.94,0-1.73-.88-2.64-1.9C23.13,8.72,21.59,7,19,7c-3.07,0-5,2.71-6.55,4.89a8.56,8.56,0,0,1-1.9,2.22,18.87,18.87,0,0,0-3.06,1.7C4.71,17.81,1,21.83,1,27v4a1,1,0,0,0,2,0V27a10.5,10.5,0,0,1,2-5.86,14.12,14.12,0,0,0,1.33,5.61A6.49,6.49,0,0,1,7,29a.92.92,0,0,1-1,1,1,1,0,0,0-1,1V43a1,1,0,0,0,1,1h6a1,1,0,0,0,.83-1.55L11,39.7V34.78C12.6,34.3,16,33,16,30c0-.37,0-.75,0-1,.23,0,.61,0,1,0,2.6,0,5,.24,5,2V43a1,1,0,0,0,1,1h6a1,1,0,0,0,.83-1.55L28,39.7V33c0-3.54,2.64-6,5-6,3.78,0,8-3.7,8-9V14a1,1,0,0,1,1-1h1.95a3.06,3.06,0,0,0,1.87-5.47ZM43.95,11H42a3,3,0,0,0-3,3v4c0,4.34-3.49,7-6,7-3.38,0-7,3.21-7,8v7a1,1,0,0,0,.17.55l1,1.45H24V31c0-4-4.91-4-7-4-.38,0-.71,0-1,0V26a1,1,0,0,0-2,0v4c0,1.77-3.11,2.8-4.2,3A1,1,0,0,0,9,34v6a1,1,0,0,0,.17.55l1,1.45H7V31.83A2.82,2.82,0,0,0,9,29a8,8,0,0,0-.82-3A12.12,12.12,0,0,1,7,21a4.39,4.39,0,0,1,1.1-3.06,10.48,10.48,0,0,1,3.33-2A8.09,8.09,0,0,0,14.08,13C15.43,11.15,17,9,19,9c1.7,0,2.75,1.18,3.87,2.43S25.16,14,27,14c1.07,0,2,1.57,2.77,3,.9,1.57,1.75,3,3.23,3,3,0,3-4.44,3-8s.27-5,3-5a9.58,9.58,0,0,1,5.6,2.12,1,1,0,0,1,.4.83A1.05,1.05,0,0,1,43.95,11Z"/></svg>