<svg id="icon" xmlns="http://www.w3.org/2000/svg" viewBox="0 0 48 48"><defs><style>.cls-1{fill:#231f20;}</style></defs><title>Goat</title><path class="cls-1" d="M39,8.47C38.65,4.76,34.82,1,28,1c-7.91,0-8,4.8-8,5a1,1,0,0,0,1.44.9A14,14,0,0,1,27,6c3.09,0,4.27,1.13,4.72,2a6.61,6.61,0,0,0-4,1.27A2.33,2.33,0,0,0,27,11a2.94,2.94,0,0,0,2.49,2.79L27.37,18a17,17,0,0,0-4.5,1.19A10.11,10.11,0,0,1,20,20a7.37,7.37,0,0,1-1.29-.42A20.51,20.51,0,0,0,11,18a5.81,5.81,0,0,0-4.81,2.42c-.09.13-.17.26-.24.39A2.51,2.51,0,0,1,4,22a.51.51,0,0,1-.41-.17A4.64,4.64,0,0,1,3,19.06a1,1,0,0,0-2-.12c0,.29-.13,2.91,1.13,4.26A2.5,2.5,0,0,0,4,24a3.87,3.87,0,0,0,1-.13C5,23.93,5,24,5,24a15.75,15.75,0,0,0,.71,5.47A4.43,4.43,0,0,1,6,31a19.45,19.45,0,0,1-.95,4.68,1,1,0,0,0,0,.51l2,10A1,1,0,0,0,8,47h6a1,1,0,0,0,.89-1.45l-2-4A14.63,14.63,0,0,1,12,36.63a10.51,10.51,0,0,0,4-3.36A10.47,10.47,0,0,0,22,35h3V46a1,1,0,0,0,1,1h6a1,1,0,0,0,.83-1.55L31,42.7V41a8.1,8.1,0,0,1,1.3-2.71c.5-.82,1.06-1.76,1.6-2.84,2.91-5.83,3.78-13.15,4-16.1A15.55,15.55,0,0,0,42,20c1.37,0,4-1.27,4-3C46,13.93,40.79,9.81,39,8.47ZM42,18a15.47,15.47,0,0,1-4.64-.93A1,1,0,0,0,36,18c0,.1-.43,9.65-3.9,16.59-.51,1-1,1.91-1.52,2.71C29.7,38.73,29,39.9,29,41v2a1,1,0,0,0,.17.55l1,1.45H27V34a1,1,0,0,0-1-1H22a8.09,8.09,0,0,1-5.17-1.6A5.72,5.72,0,0,0,17,30a1,1,0,0,0-2,0c0,3.27-4.33,5.05-4.37,5.07A1,1,0,0,0,10,36c0,.17,0,4.26,1.11,6.45L12.38,45H8.82L7,36.06A20,20,0,0,0,8,31a6.3,6.3,0,0,0-.38-2.13A13.87,13.87,0,0,1,7,24a4.76,4.76,0,0,1,.58-2c.13-.18.22-.33.27-.42A3.77,3.77,0,0,1,11,20a18.46,18.46,0,0,1,7,1.45A6.16,6.16,0,0,0,20,22a11.14,11.14,0,0,0,3.56-.91A13.63,13.63,0,0,1,28,20a1,1,0,0,0,.89-.55l3-6A1,1,0,0,0,31,12s-2-.06-2-1a.34.34,0,0,1,.13-.27c.62-.6,2.61-.79,3.83-.73a1,1,0,0,0,1-1s-.08-5-7-5a20.5,20.5,0,0,0-4.1.39C23.7,3.67,25.19,3,28,3c6.56,0,9,3.68,9,6a1,1,0,0,0,.42.81c2.73,2,6.58,5.47,6.59,7.13A3.2,3.2,0,0,1,42,18Z"/></svg>