<svg id="icon" xmlns="http://www.w3.org/2000/svg" viewBox="0 0 48 48"><defs><style>.cls-1{fill:#231f20;}</style></defs><title>Horse</title><path class="cls-1" d="M46,13.14A5.7,5.7,0,0,1,45,10a3.1,3.1,0,0,0-.8-2,3.93,3.93,0,0,1-.33-.47l-.42-.77C42.41,4.82,41.43,3,40,3a3,3,0,0,0-3,3V7.08a13.29,13.29,0,0,0-5.55,2.09,19.93,19.93,0,0,0-2.68,2.3C26.88,13.28,25.09,15,22,15a41.27,41.27,0,0,1-8.14-.89,7.94,7.94,0,0,0-6.35,1A12.49,12.49,0,0,0,1,26v5a1,1,0,0,0,2,0V26a10,10,0,0,1,1.14-4.7A11.85,11.85,0,0,0,4,23a14,14,0,0,0,1.33,5.78A6.48,6.48,0,0,1,6,31a2.72,2.72,0,0,1-1.45,2.11,1,1,0,0,0,0,1.79L6,35.62V41a1,1,0,0,0,.11.45l1,2A1,1,0,0,0,8,44h5a1,1,0,0,0,.71-1.71L12,40.59V34.53a12.65,12.65,0,0,0,4.33-5.24l.07,0A11.07,11.07,0,0,0,22,31a21.41,21.41,0,0,0,5-.68V33a1,1,0,0,0,.29.71l.71.71V41a1,1,0,0,0,.11.45l1,2A1,1,0,0,0,30,44h5a1,1,0,0,0,.71-1.71L34,40.59V32c0-1.39,1.32-3.68,1.83-4.45A13.6,13.6,0,0,0,38,21V17.63a5.87,5.87,0,0,0,1.42.33,4.32,4.32,0,0,0,4,2A4,4,0,0,0,47,16.27,5.25,5.25,0,0,0,46,13.14ZM43.23,18a2.62,2.62,0,0,1-2.34-1.43A1,1,0,0,0,40,16a3,3,0,0,1-1.86-.59,1.21,1.21,0,0,0-1.34-.33,1.24,1.24,0,0,0-.8,1.15V21a11.73,11.73,0,0,1-1.83,5.45C33.95,26.78,32,29.76,32,32v9a1,1,0,0,0,.29.71l.29.29h-2L30,40.76V34a1,1,0,0,0-.29-.71L29,32.59V29a1,1,0,0,0-1.32-.95A21,21,0,0,1,22,29a9.2,9.2,0,0,1-4.63-1.42l-.48-.26A8.44,8.44,0,0,0,17,26a1,1,0,0,0-2,0c0,4.34-4.44,7.1-4.52,7.14a.93.93,0,0,0-.09.08,1,1,0,0,0-.15.14,1.2,1.2,0,0,0-.18.33,1,1,0,0,0,0,.2A.94.94,0,0,0,10,34v7a1,1,0,0,0,.29.71l.29.29h-2L8,40.76V35a1,1,0,0,0-.55-.89l-.6-.3A4.08,4.08,0,0,0,8,31a8,8,0,0,0-.82-3A12.1,12.1,0,0,1,6,23,7.77,7.77,0,0,1,8.6,16.8a6,6,0,0,1,4.88-.72A43.16,43.16,0,0,0,22,17c3.9,0,6.16-2.18,8.15-4.1a18.23,18.23,0,0,1,2.41-2.07A11,11,0,0,1,38,9a1,1,0,0,0,1-1V6a1,1,0,0,1,.93-1,11,11,0,0,1,1.76,2.69l.44.8a5.79,5.79,0,0,0,.49.71c.28.37.38.51.38.8a7.64,7.64,0,0,0,1.29,4.14,3.44,3.44,0,0,1,.71,2A2,2,0,0,1,43.23,18Z"/></svg>