<svg id="Icons" xmlns="http://www.w3.org/2000/svg" viewBox="0 0 48 48"><defs><style>.cls-1{fill:#bdd6ff;}.cls-2{fill:#2b72ff;}</style></defs><title>Hajj</title><path class="cls-1" d="M24,27c6,0,6-9,6-9V11s0-7-6-7V3s10,1,10,9v8s-2,8-10,8Z"/><polygon class="cls-1" points="30 30 22 35 22 27 30 27 30 30"/><path class="cls-1" d="M40,45s-2-8-4-10c-2.55-2.55-8-3-8-3l2-3s6,2,8,3,6,12,6,12v1Z"/><path class="cls-2" d="M42.53,36a7.74,7.74,0,0,0-1.37-2.18l-.36-.46a9.76,9.76,0,0,0-5.38-3.82c-1-.24-3.23-1.16-4-1.5A1,1,0,0,0,31,28V26.48A11,11,0,0,0,35,18V13a11,11,0,0,0-22,0v5a11,11,0,0,0,4,8.48v2.58a35.22,35.22,0,0,0-4.42.51,10.27,10.27,0,0,0-7.13,6.49L3,43.7A1,1,0,0,0,3.7,45,1,1,0,0,0,4,45a1,1,0,0,0,1-.7l2.4-7.59a8.25,8.25,0,0,1,5.72-5.2,44.52,44.52,0,0,1,5-.51A1,1,0,0,0,19,30V27.79a10.9,10.9,0,0,0,10,0S29,29,29,29A94.61,94.61,0,0,0,14.49,39.4l.43-1a1,1,0,0,0-1.84-.79l-3,7a.94.94,0,0,0,0,.14,1,1,0,0,0,1.75.84l.06-.08c3.46-6.06,16.68-13.92,19.2-15.38a39.49,39.49,0,0,0,3.85,1.4,7.32,7.32,0,0,1,3.65,2.34C36.45,35.6,31,40.53,31,45a1,1,0,0,0,2,0c0-3.3,4.4-7.6,6.84-9.6a4.89,4.89,0,0,1,.8,1.27L43,44.3a1,1,0,0,0,1,.7,1,1,0,0,0,.3,0A1,1,0,0,0,45,43.7ZM24,4a9,9,0,0,1,8.33,5.62A5.35,5.35,0,0,0,30,9a5.51,5.51,0,0,0-2.87,1,5.34,5.34,0,0,1-6.27,0A5.51,5.51,0,0,0,18,9a5.35,5.35,0,0,0-2.33.62A9,9,0,0,1,24,4ZM15,18V13c0-.2,0-.39,0-.58A5.41,5.41,0,0,1,18,11a3.82,3.82,0,0,1,1.86.71,7.3,7.3,0,0,0,8.28,0A3.82,3.82,0,0,1,30,11a5.41,5.41,0,0,1,3,1.42c0,.19,0,.39,0,.58v5a9,9,0,0,1-18,0Z"/><circle class="cls-2" cx="20" cy="16" r="1"/><circle class="cls-2" cx="28" cy="16" r="1"/></svg>