<svg id="Icons" xmlns="http://www.w3.org/2000/svg" viewBox="0 0 48 48"><defs><style>.cls-1{fill:#bdd6ff;}.cls-2{fill:#2b72ff;}</style></defs><title>Shalat (Sujud)</title><path class="cls-1" d="M9,41H20c3,0,3-4,3-4L20,26l2,1,2,4v6l2,3-2,5H9V41"/><path class="cls-1" d="M39,41S38,25,23,18c0,0,11,1,18,18h4l1,2v5l-2,2H41l-2-4"/><path class="cls-2" d="M45,35H42.13c-2.24-6.75-6.5-12.81-11.62-15.86A23.44,23.44,0,0,0,20,16h-.19C15.58,16,12,17.14,10,19.14A6.61,6.61,0,0,0,8,24c0,5,3.44,8.88,5.95,11H3a2.93,2.93,0,0,0-3,3v6a2,2,0,0,0,2,2H4.14a1,1,0,0,0,0-2h-.7l2-2H7v3a1,1,0,0,0,1,1H23a3.23,3.23,0,0,0,2.08-.84,6,6,0,0,0,1.76-3.6l3.76,4.11a1.53,1.53,0,0,0,.19.15,1,1,0,0,0,.55.17H44.89A3.11,3.11,0,0,0,48,42.9V38A2.93,2.93,0,0,0,45,35ZM5,40a1,1,0,0,0-.71.29L2,42.59V38a1,1,0,0,1,1-1H7v3Zm20-.06c-.25,4-1.92,4.06-2,4.06H9V37h8a1,1,0,0,0,.51-1.86C17.43,35.09,10,30.61,10,24a4.62,4.62,0,0,1,1.4-3.44C13.07,18.9,16.16,18,20,18a13.66,13.66,0,0,1,2,.19V25.6l-.29-.31a1,1,0,0,0-1.42,1.41,14.68,14.68,0,0,1,2.78,4.12l0,.08A9.77,9.77,0,0,0,22,35a3.16,3.16,0,0,0,1.08,2.49l2,2.17A1,1,0,0,0,25,39.94Zm-.44-3.81C24,35.54,24,35.45,24,35c0-1.23.67-3.27,1.24-3.55l5.21-2.57a1,1,0,1,0-.88-1.79l-4.89,2.41A13.71,13.71,0,0,0,24,28.2a1,1,0,0,0,0-.2V18.61a23.44,23.44,0,0,1,5.49,2.25C34.07,23.59,37.92,29,40,35H31a1,1,0,0,0-.93,1.37l2,5a1,1,0,0,0,.18.28l-1.08,1.71Zm9,3.5L32.48,37h2.71ZM33.13,44l1.26-2H37a2.83,2.83,0,0,1,2.27.68L40.51,44Zm7.57-2.71A4.83,4.83,0,0,0,37,40H35.66l1.89-3h3.12a31,31,0,0,1,1,5.33ZM46,42.9A1.11,1.11,0,0,1,44.89,44H43.8a31.8,31.8,0,0,0-1.07-7H45a.94.94,0,0,1,1,1Z"/></svg>