<svg id="Icons" xmlns="http://www.w3.org/2000/svg" viewBox="0 0 48 48"><defs><style>.cls-1{fill:#bdd6ff;}.cls-2{fill:#2b72ff;}</style></defs><title>Shalat (Sedekap)</title><rect class="cls-1" x="26" y="42" width="4" height="5"/><path class="cls-1" d="M26,34s-1-8-4-13h3s4,11,4,14Z"/><path class="cls-1" d="M26,18c1,0,4-3,5-6s2-6,1-7V4s6,3,3,8a30.7,30.7,0,0,1-7,8l-2-2"/><path class="cls-2" d="M28.9,43c.06,1,.1,2,.1,3a1,1,0,0,0,2,0c0-1.69-.09-3.36-.24-5h1.74a2.44,2.44,0,0,0,2.44-3l-.41-2a2.49,2.49,0,0,0-2.44-2H29.76A79.7,79.7,0,0,0,26,20.72h0s0,0,0,0L25.71,20l1.84.92a1,1,0,0,0,.7.07,8.09,8.09,0,0,0,3.45-2.26,23.86,23.86,0,0,0,4.92-8.08A8.1,8.1,0,0,0,37,8c0-1.41-.69-3.34-3.47-4.49l-5-2.09a4.86,4.86,0,0,0-6.11,2.1A119.39,119.39,0,0,0,14.7,19.62h0C14,21.43,13.47,23.15,13,24.74c-2.18,8-2.21,20.62-2.21,21.15a1,1,0,0,0,1,1h0a1,1,0,0,0,1-1c0-.08,0-5.57.61-11.52l2.39,5.25A5.76,5.76,0,0,0,21.06,43Zm3.2-7a.49.49,0,0,1,.47.39l.41,2a.83.83,0,0,1,0,.15.49.49,0,0,1-.5.43h-2c-.12-1-.27-2-.43-3ZM30.29,17.29a7.39,7.39,0,0,1-2.22,1.63l-3.63-1.81a1,1,0,0,0-1.4,1.21l.53,1.6L17,19.12A114.66,114.66,0,0,1,22.35,7.74a1,1,0,0,0,.24.17l10.84,4.93A18.53,18.53,0,0,1,30.29,17.29ZM26.71,3a2.86,2.86,0,0,1,1,.22l5,2.09C34.71,6.13,35,7.26,35,8a6.26,6.26,0,0,1-.24,1.87q-.22.58-.47,1.13L23.41,6.09a1,1,0,0,0-.16,0l.88-1.59A2.88,2.88,0,0,1,26.71,3ZM17.64,38.8l-3.73-8.21h0A46.14,46.14,0,0,1,15,25.26c.36-1.31.83-2.74,1.36-4.22l8,1a78.55,78.55,0,0,1,3.4,12H24a1,1,0,0,1-1-1V26a1,1,0,0,0-2,0v7a3,3,0,0,0,3,3h4.1c.27,1.6.5,3.28.66,5H21.06A3.76,3.76,0,0,1,17.64,38.8Z"/></svg>