<svg id="Icons" xmlns="http://www.w3.org/2000/svg" viewBox="0 0 48 48"><defs><style>.cls-1{fill:#2b72ff;}</style></defs><title>Allah</title><path class="cls-1" d="M45,25H26c4.85-5.3,17-7,17.16-7a1,1,0,0,0,.81-1.32A8.63,8.63,0,0,0,36,11c-.6,0-2.16,0-3,7.49-4,1.47-8,3.71-9.92,7A1,1,0,0,0,24,27h9.74c-5,1.37-9.74,3.58-9.74,7a7.05,7.05,0,0,0,.69,3.18C21.76,36.09,18,33.6,18,28V17a1,1,0,0,0-2,0v6c0,8.19-2.86,12-9,12-2.07,0-3-1-3-2,0-2.51,2.51-4.14,2.53-4.15a1,1,0,0,0-1.07-1.69C5.33,27.24,2,29.38,2,33c0,1.93,1.56,4,5,4,4.58,0,7.74-1.85,9.46-5.53C18.65,39.06,27.8,40,27.91,40H28a1,1,0,0,0,.32-1.95S26,37.24,26,34c0-3.51,11.17-6.21,19.1-7a1,1,0,0,0-.1-2ZM36.26,13a6.34,6.34,0,0,1,5.25,3.22,52.53,52.53,0,0,0-6.36,1.54A17.78,17.78,0,0,1,36.26,13Z"/></svg>