<svg id="Icons" xmlns="http://www.w3.org/2000/svg" viewBox="0 0 48 48"><defs><style>.cls-1{fill:#bdd6ff;}.cls-2{fill:#2b72ff;}</style></defs><title>Bedug</title><path class="cls-1" d="M38,11s3,4,3,11S33,33,26,33l5,1,11-1a11.6,11.6,0,0,0,4-9,24.27,24.27,0,0,0-2-10l-5-3Z"/><path class="cls-2" d="M11,35h6.5l-6.3,8.4a1,1,0,1,0,1.6,1.2L19.21,36l6,8.52s.05,0,.08.07A1.07,1.07,0,0,0,26,45a1,1,0,0,0,.76-.39L33.21,36l6,8.52a1,1,0,1,0,1.64-1.15L34.71,34.7A56.39,56.39,0,0,0,41.2,34l.12,0C44.72,32.82,47,28,47,22c0-5.72-2-9.69-5.61-10.92C40.7,10.73,35.53,8.31,25.12,7A126.54,126.54,0,0,0,11,6C5.69,6,1,12.79,1,20.5,1,27.49,5,35,11,35Zm15,7.3L20.92,35H25c2.51,0,4.7-.05,6.6-.13ZM39.45,32.23c-.83.11-2,.25-3.66.38L38,29.69C38.61,30.72,39.1,31.59,39.45,32.23Zm-6.29.56c-2.22.12-4.93.21-8.16.21H23.12a141.69,141.69,0,0,0,11.11-9c1,1.38,1.87,2.69,2.62,3.87Zm-9.07-3c.08-.17.15-.34.22-.52l.49-.65a1,1,0,0,0,.12-.94A20.92,20.92,0,0,0,26,21a21.24,21.24,0,0,0-1.51-8.13A69.81,69.81,0,0,1,33,22.37C29.91,25.21,26.64,27.83,24.09,29.77ZM45,22c0,4.55-1.43,8.34-3.56,9.68a83.77,83.77,0,0,0-5.72-9.07,50.25,50.25,0,0,0,7.11-8.06s0-.06,0-.08C44.23,16.08,45,18.71,45,22Zm-4.46-9.11.14.06a4.5,4.5,0,0,1,.68.3,1,1,0,0,0-.2.2A47.5,47.5,0,0,1,34.52,21,66.43,66.43,0,0,0,22.69,8.74L24.88,9C35.44,10.31,40.49,12.86,40.54,12.89ZM19.1,8.4a1,1,0,0,0,.27.38C19.56,8.93,24,12.64,24,21a18.87,18.87,0,0,1-1.45,7.27L19,33H15.91c3-2.57,5.09-7.31,5.09-12.5s-2-9.7-4.89-12.31C17,8.24,18,8.31,19.1,8.4ZM11,8h0c4.17,0,8,6,8,12.5S15.2,33,11,33,3,27.16,3,20.5,6.85,8,11,8Z"/></svg>