<svg id="Icons" xmlns="http://www.w3.org/2000/svg" viewBox="0 0 48 48"><defs><style>.cls-1{fill:#bdd6ff;}.cls-2{fill:#2b72ff;}</style></defs><title>Islamic Lantern</title><path class="cls-1" d="M24,20h0a4,4,0,0,1,4,4V35a0,0,0,0,1,0,0H20a0,0,0,0,1,0,0V24A4,4,0,0,1,24,20Z"/><rect class="cls-1" x="32" y="16" width="4" height="19"/><rect class="cls-1" x="12" y="16" width="4" height="19"/><path class="cls-1" d="M30,11s-1-4-6-4V6s10,0,10,6H30Z"/><path class="cls-2" d="M38,14a3,3,0,0,0-3-3h-.1C34.5,8.83,32.74,6.62,29,5.59a5,5,0,0,0-9.92,0c-3.78,1-5.54,3.24-5.94,5.41H12a3,3,0,0,0-1,5.82V34.18A3,3,0,0,0,12,40h1.18A3,3,0,0,0,13,41a3,3,0,0,0,3,3h1.81a4,4,0,0,0,3.86,3h3.67a4,4,0,0,0,3.86-3H31a3,3,0,0,0,3-3,3,3,0,0,0-.18-1H35a3,3,0,0,0,2-5.22V16.22A3,3,0,0,0,38,14ZM24,3a3,3,0,0,1,2.87,2.18,23.07,23.07,0,0,0-5.74,0A3,3,0,0,1,24,3Zm0,4c5.7,0,8.24,2,8.84,4H15.16C15.76,9,18.3,7,24,7ZM12,13H35a1,1,0,0,1,0,2H12a1,1,0,0,1,0-2ZM29,34V23c0-2.63-2.52-4-5-4s-5,1.37-5,4V34H17V17H31V34Zm-2,0H21V23c0-1.58,2-2,3-2s3,.42,3,2ZM13,34V17h2V34ZM25.33,45H21.67a2,2,0,0,1-1.73-1h7.13A2,2,0,0,1,25.33,45ZM32,41a1,1,0,0,1-1,1H16a1,1,0,0,1,0-2H31A1,1,0,0,1,32,41Zm3-3H12a1,1,0,0,1,0-2H35a1,1,0,0,1,0,2Zm0-4H33V17h2Z"/></svg>