<svg id="Icons" xmlns="http://www.w3.org/2000/svg" viewBox="0 0 48 48"><defs><style>.cls-1{fill:#bdd6ff;}.cls-2{fill:#2b72ff;}</style></defs><title>Ketupat</title><polygon class="cls-1" points="16.41 24.41 10 18 17 11 23.24 17.59 16.41 24.41"/><polygon class="cls-1" points="29.41 24.41 23 18 30 12 36 18 29.41 24.41"/><polygon class="cls-1" points="16.41 37.41 10 31 17 24 23.24 30.59 16.41 37.41"/><polygon class="cls-1" points="29.41 37.41 23 31 30 25 36 31 29.41 37.41"/><path class="cls-1" d="M17,37v9l3-2,3,2,3-2,3,2V37s-4,4-6,4-6-4-6-4"/><path class="cls-2" d="M28.25,9H33a4,4,0,0,0,0-8H31.43a10.56,10.56,0,0,0-6.29,2.1l-5.9,4.43a1,1,0,0,0-.17.19c-.06.06-.13.1-.19.16L6.73,20a5.82,5.82,0,0,0,0,8.24L16,37.52V46a1,1,0,0,0,1.55.83L20,45.2l2.45,1.63,0,0,0,0,.11,0,.11,0,.16,0h.21l.17,0,.09,0,.15-.07,0,0L26,45.2l2.45,1.63A1,1,0,0,0,30,46V37.52l9.27-9.27a5.82,5.82,0,0,0,0-8.24Zm-8,30-1.93-1.93L23,32.41l4.64,4.64L25.71,39A3.83,3.83,0,0,1,20.29,39Zm-3.35-3.35-5.08-5.08L16.63,26l5,5Zm12.11,0L24.41,31l5.09-5.09,4.64,4.64ZM23,29.59l-4.91-4.91,5.23-4.94,4.77,4.77ZM16.58,13l5.32,5.32-5.23,4.94L11.5,18.08Zm3.71-3.71a3.83,3.83,0,0,1,5.41,0l2.79,2.79-5.14,4.87L18,11.58Zm4.47,9.07,5.14-4.86,4.59,4.59-5,5ZM26.34,4.7A8.56,8.56,0,0,1,31.43,3H33a2,2,0,0,1,0,4H26a5.79,5.79,0,0,0-1.77-.71ZM7,24.13a3.8,3.8,0,0,1,1.12-2.71l1.93-1.93,5.14,5.14-4.77,4.51-2.3-2.3A3.8,3.8,0,0,1,7,24.13Zm12.42,19-1.45,1V39.52l.88.88A5.78,5.78,0,0,0,22,42v2.12l-1.45-1A1,1,0,0,0,19.45,43.17Zm8.55,1-1.45-1a1,1,0,0,0-1.11,0l-1.45,1V42a5.78,5.78,0,0,0,3.12-1.61l.88-.88Zm9.85-17.29-2.3,2.3L30.91,24.5l5-5,1.93,1.93a3.83,3.83,0,0,1,0,5.41Z"/></svg>