<svg id="Icons" xmlns="http://www.w3.org/2000/svg" viewBox="0 0 48 48"><defs><style>.cls-1{fill:#2b72ff;}</style></defs><title>Muhammad</title><path class="cls-1" d="M45,13a1,1,0,0,0-1,1V39a1,1,0,0,0,2,0V14A1,1,0,0,0,45,13Z"/><path class="cls-1" d="M38,19a1,1,0,0,0-1,1V35c0,1.77-2.11,3-4,3H30c-2.75,0-4-2.59-4-5V23a1,1,0,0,0-2,0V33a5.07,5.07,0,0,1-5,5H15a2.76,2.76,0,0,1-3-3V27a1,1,0,0,0-2,0v2c0,1.19-2.26,2.9-5.35,4.06a3.52,3.52,0,0,0,1,6.94H8.32a3.68,3.68,0,0,0,3-1.48A5,5,0,0,0,15,40h4a7.06,7.06,0,0,0,5.86-3.23A5.69,5.69,0,0,0,30,40h3c2.9,0,6-2,6-5V20A1,1,0,0,0,38,19ZM10,33.2a.94.94,0,0,0,0,.14v3.16A1.58,1.58,0,0,1,8.32,38H5.65A1.58,1.58,0,0,1,4,36.49c0-.77.35-1.18,1.35-1.56A17.62,17.62,0,0,0,10,32.38Z"/><path class="cls-1" d="M24,17a.89.89,0,0,1-1,1,.87.87,0,0,1-.64-.25,1.45,1.45,0,0,1-.35-1V16a1,1,0,0,0-1-1,1,1,0,0,0-1,1v.69a3.38,3.38,0,0,0,.93,2.44A2.88,2.88,0,0,0,23,20a3,3,0,0,0,2-.71A3,3,0,0,0,27,20a2.88,2.88,0,0,0,2.06-.85A3.36,3.36,0,0,0,30,16.74V16a1,1,0,0,0-1-1h0a1,1,0,0,0-1,1v.75a1.43,1.43,0,0,1-.35,1A.87.87,0,0,1,27,18a.89.89,0,0,1-1-1V15a1,1,0,0,0-2,0Z"/><path class="cls-1" d="M25,12a1,1,0,0,0,1-1V9a1,1,0,0,0-2,0v2A1,1,0,0,0,25,12Z"/></svg>