<svg id="Icons" xmlns="http://www.w3.org/2000/svg" viewBox="0 0 48 48"><defs><style>.cls-1{fill:#bdd6ff;}.cls-2{fill:#2b72ff;}</style></defs><title>Panah</title><path class="cls-1" d="M37,43s9-18-3-29S5,11,5,11l1,1s17-2,24,6,6,24,6,24l1,1"/><path class="cls-2" d="M42.61,4.08l-7,3a1,1,0,0,0-.31,1.63L36.59,10,34,12.63A23.06,23.06,0,0,0,19,7,37,37,0,0,0,5.11,9.86,2.34,2.34,0,0,1,5,9,1,1,0,0,0,3,9a3.34,3.34,0,0,0,2,3.38L19.59,27l-4,4H11a1,1,0,0,0-.71.29l-4,4A1,1,0,0,0,7,37h3a1,1,0,0,0,1,1v3a1,1,0,0,0,1.71.71l4-4A1,1,0,0,0,17,37V32.41l4-4L35.62,43A3.34,3.34,0,0,0,39,45a1,1,0,0,0,0-2,2.34,2.34,0,0,1-.86-.11A37,37,0,0,0,41,29a23.06,23.06,0,0,0-5.63-15L38,11.41l1.29,1.29A1,1,0,0,0,40,13l.19,0a1,1,0,0,0,.73-.59l3-7a1,1,0,0,0-1.31-1.31ZM9.41,35l2-2h2.17l-2,2ZM13,38.59V36.41l2-2v2.17ZM8.41,13H9c6.27,0,10.42,0,14.66,2a19.25,19.25,0,0,1,4.81,3.21,1,1,0,0,0-.18.12L21,25.59Zm14,14,7.29-7.29a1,1,0,0,0,.12-.18A19.25,19.25,0,0,1,33,24.34c2,4.24,2,8.38,2,14.66q0,.3,0,.59ZM37,40.28c0-.37,0-.79,0-1.28,0-6.3,0-10.86-2.15-15.5A21.31,21.31,0,0,0,24.5,13.15C19.86,11,15.31,11,9,11c-.48,0-.9,0-1.28,0A37,37,0,0,1,19,9a21.13,21.13,0,0,1,14.29,5.71A21.13,21.13,0,0,1,39,29,37,37,0,0,1,37,40.28Zm2.62-30L37.75,8.34,41.1,6.9Z"/></svg>