<svg id="Icons" xmlns="http://www.w3.org/2000/svg" viewBox="0 0 48 48"><defs><style>.cls-1{fill:#bdd6ff;}.cls-2{fill:#2b72ff;}</style></defs><title>Pedang</title><path class="cls-1" d="M38,7S37,23,15,37l1,2s4-2,12-9S44,13,44,5Z"/><path class="cls-1" d="M23.5,24.94a1.85,1.85,0,0,1,.34-.29c-6-7.12-7-11-8.85-16.65L10,7s2.35,9.95,12,20A12,12,0,0,1,23.5,24.94Z"/><path class="cls-1" d="M28.34,29.71a12.59,12.59,0,0,1-2,1.41A59.55,59.55,0,0,0,33,36l1-1S32.66,34.33,28.34,29.71Z"/><path class="cls-2" d="M41.5,38l-.2,0c-.55-.31-2.46-1.41-5-3.18.73-.65,1.25-1,1.26-1a1,1,0,0,0-1.16-1.63,20.62,20.62,0,0,0-1.76,1.46c-1.53-1.14-3.2-2.49-4.87-4C43.68,17.42,44.95,5.59,45,5.09A1,1,0,0,0,43.74,4l-11,3a1,1,0,0,0-.73.85s-.56,4.27-5.85,12.58c-.66,1-1.39,2-2.15,3-.79-1-1.53-2-2.17-3C16.56,12.15,16,7.93,16,7.89A1,1,0,0,0,15.26,7l-11-3A1,1,0,0,0,3,5.09c0,.5,1.32,12.32,15.21,24.54-1.67,1.52-3.34,2.86-4.87,4a20.62,20.62,0,0,0-1.76-1.45,1,1,0,1,0-1.16,1.63s.53.38,1.26,1c-2.5,1.76-4.4,2.86-5,3.18l-.2,0a3.5,3.5,0,1,0,3.28,4.68L15.32,39c.14.22.28.44.41.67A1.94,1.94,0,0,1,16,41a2.21,2.21,0,0,1-2.28,2H12a1,1,0,0,0,0,2h1.72A4.2,4.2,0,0,0,18,41a3.83,3.83,0,0,0-.45-2.16A49,49,0,0,0,24,34.43a49.21,49.21,0,0,0,6.45,4.41A3.83,3.83,0,0,0,30,41a4.2,4.2,0,0,0,4.28,4H36a1,1,0,0,0,0-2H34.28A2.21,2.21,0,0,1,32,41a1.94,1.94,0,0,1,.27-1.34c.13-.23.26-.45.41-.67l5.54,3.69A3.49,3.49,0,1,0,41.5,38ZM19.66,28.25C9.1,19,6.08,9.87,5.27,6.38L14.13,8.8c.35,1.57,1.62,5.81,6,12.74a40.61,40.61,0,0,0,2.55,3.52c-1,1.13-2,2.2-3,3.2ZM6.5,43A1.5,1.5,0,1,1,8,41.5,1.5,1.5,0,0,1,6.5,43Zm3.27-2.72A3.5,3.5,0,0,0,9,39c1-.61,2.49-1.54,4.2-2.75.32.34.65.71,1,1.1Zm5-5.21A54.06,54.06,0,0,0,27.84,21.54c4.41-6.93,5.68-11.16,6-12.74l8.86-2.42C41.92,9.87,38.9,19,28.34,28.25c-7.77,6.8-11.75,8.84-11.79,8.86l-.06,0A21.16,21.16,0,0,0,14.79,35.08Zm16.72,2.08-.06,0a45.21,45.21,0,0,1-5.83-4q1.23-1,2.64-2.19c1.71,1.56,3.4,2.93,5,4.11A21.18,21.18,0,0,0,31.51,37.15Zm3.34-.89C36.56,37.48,38,38.41,39,39a3.5,3.5,0,0,0-.81,1.27l-4.37-2.91C34.19,37,34.52,36.6,34.85,36.26ZM41.5,43A1.5,1.5,0,1,1,43,41.5,1.5,1.5,0,0,1,41.5,43Z"/></svg>