<svg id="Icons" xmlns="http://www.w3.org/2000/svg" viewBox="0 0 48 48"><defs><style>.cls-1{fill:#bdd6ff;}.cls-2{fill:#2b72ff;}</style></defs><title>Rub Al Hizb</title><circle class="cls-1" cx="24" cy="24" r="3"/><path class="cls-1" d="M39,18V9H30L24,3,18,9H9v9L3,24l6,6v9h9l6,6,6-6h9V30l6-6ZM33,28v5H28l-4,4-4-4H15V28l-4-4,4-4V15h5l4-4,4,4h5v5l4,4Z"/><circle class="cls-1" cx="24" cy="24" r="3"/><circle class="cls-1" cx="24" cy="24" r="3"/><path class="cls-2" d="M40,17.59V9a1,1,0,0,0-1-1H30.41L24.71,2.29a1,1,0,0,0-1.41,0L17.59,8H9A1,1,0,0,0,8,9v8.59L2.29,23.29a1,1,0,0,0,0,1.41L8,30.41V39a1,1,0,0,0,1,1h8.59l5.71,5.71a1,1,0,0,0,1.41,0L30.41,40H39a1,1,0,0,0,1-1V30.41l5.71-5.71a1,1,0,0,0,0-1.41ZM38.29,29.29A1,1,0,0,0,38,30v8H30a1,1,0,0,0-.71.29L24,43.59l-5.29-5.29A1,1,0,0,0,18,38H10V30a1,1,0,0,0-.29-.71L4.41,24l5.29-5.29A1,1,0,0,0,10,18V10h8a1,1,0,0,0,.71-.29L24,4.41l5.29,5.29A1,1,0,0,0,30,10h8v8a1,1,0,0,0,.29.71L43.59,24Z"/><path class="cls-2" d="M34,19.59V15a1,1,0,0,0-1-1H28.41l-3.71-3.71a1,1,0,0,0-1.41,0L19.59,14H15a1,1,0,0,0-1,1v4.59l-3.71,3.71a1,1,0,0,0,0,1.41L14,28.41V33a1,1,0,0,0,1,1h4.59l3.71,3.71a1,1,0,0,0,1.41,0L28.41,34H33a1,1,0,0,0,1-1V28.41l3.71-3.71a1,1,0,0,0,0-1.41Zm-1.71,7.71A1,1,0,0,0,32,28v4H28a1,1,0,0,0-.71.29L24,35.59l-3.29-3.29A1,1,0,0,0,20,32H16V28a1,1,0,0,0-.29-.71L12.41,24l3.29-3.29A1,1,0,0,0,16,20V16h4a1,1,0,0,0,.71-.29L24,12.41l3.29,3.29A1,1,0,0,0,28,16h4v4a1,1,0,0,0,.29.71L35.59,24Z"/><path class="cls-2" d="M24,20a4,4,0,1,0,4,4A4,4,0,0,0,24,20Zm0,6a2,2,0,1,1,2-2A2,2,0,0,1,24,26Z"/></svg>