<svg id="Icons" xmlns="http://www.w3.org/2000/svg" viewBox="0 0 48 48"><defs><style>.cls-1{fill:#bdd6ff;}.cls-2{fill:#2b72ff;}</style></defs><title>Sorban</title><path class="cls-1" d="M44,22a7.26,7.26,0,0,0-3.1-5.86l.1.05V13c0-8-11-9-11-9V5c2,0,7,3,7,8v1a33.73,33.73,0,0,0-9-2v1c3,0,12,4,12,9v7.75L37,29v4a4,4,0,0,0,4,4V30.25L44,31Z"/><path class="cls-2" d="M4,32c4.39,0,8.37-2.2,12.22-4.32,3.37-1.86,6.55-3.61,9.63-3.67a47.51,47.51,0,0,1,7.4,3.69c.88.5,1.76,1,2.61,1.47A21.85,21.85,0,0,0,35,36c0,3.25,1.76,5.85,3,7.76a16.8,16.8,0,0,1,1.06,1.69A1,1,0,0,0,40,46h5a1,1,0,0,0,.95-1.32A20,20,0,0,0,44,40.89c-1-1.73-2-3.36-2-4.89a11.9,11.9,0,0,1,.71-4.11A8.39,8.39,0,0,0,44,32a1,1,0,0,0,1-1V23a9.63,9.63,0,0,0-3-7.41V12.92A11.07,11.07,0,0,0,31.12,3H19.28A10.7,10.7,0,0,0,9,10.73a.94.94,0,0,0,0,.14,4.61,4.61,0,0,0-2.64,2.81L5.24,17.11A3,3,0,0,0,3,20V31A1,1,0,0,0,4,32Zm38.3,9.91c.43.72.84,1.41,1.19,2.09h-2.9c-.26-.43-.56-.89-.88-1.36C38.5,40.86,37,38.63,37,36a21.34,21.34,0,0,1,.67-5.9,23.84,23.84,0,0,0,3.1,1.29A14,14,0,0,0,40,36C40,38.08,41.17,40,42.3,41.91ZM19.28,5H31.12A9,9,0,0,1,40,13v1.11c-2.77-1.65-6.72-2.67-11.94-3.1-.55,0-12.2-.79-16.82-.54A8.69,8.69,0,0,1,19.28,5Zm-11,9.31a2.62,2.62,0,0,1,2-1.76c2.42-.41,13.53.18,17.59.45C41.29,14.11,43,18.93,43,23v6.91c-2.53-.41-5.69-2.21-8.76-4a47.41,47.41,0,0,0-7.93-3.91c-6-2-15.74-4.11-19-4.8ZM5.95,19c1.18.24,9.29,1.93,15.84,3.76a42.55,42.55,0,0,0-6.54,3.15c-3.31,1.83-6.73,3.7-10.25,4V20A1,1,0,0,1,5.95,19Z"/></svg>