<svg id="Icons" xmlns="http://www.w3.org/2000/svg" viewBox="0 0 48 48"><defs><style>.cls-1{fill:#bdd6ff;}.cls-2{fill:#2b72ff;}</style></defs><title>Tasbeeh</title><path class="cls-1" d="M41.73,22a4,4,0,0,0-2.67-3.76A4,4,0,0,0,36.73,11a4.05,4.05,0,0,0-1.23.19A3.78,3.78,0,0,1,38,15a4.06,4.06,0,0,1-1.33,3.15l-.17,0,.09,0a3.42,3.42,0,0,1-1.09.58,4.05,4.05,0,0,0,1.23.19,4,4,0,0,0,1-.13A4.07,4.07,0,0,1,39,22a4,4,0,0,1-1.62,3.37A4,4,0,0,0,35.73,25a4.05,4.05,0,0,0-1.23.19A3.78,3.78,0,0,1,37,29a3.78,3.78,0,0,1-2.47,3.8,4,4,0,0,0-3.8-2.8,4.05,4.05,0,0,0-1.23.19A3.78,3.78,0,0,1,32,34a3.78,3.78,0,0,1-2.5,3.81,4.05,4.05,0,0,0,1.23.19,4,4,0,0,0,4-4,4,4,0,0,0-.2-1.18,4,4,0,0,0,1.2.18,4,4,0,0,0,2.55-7.06A4,4,0,0,0,41.73,22Z"/><path class="cls-1" d="M29.5,13.81a4.05,4.05,0,0,0,1.23.19,4,4,0,0,0,0-8,4.05,4.05,0,0,0-1.23.19A3.78,3.78,0,0,1,32,10,3.78,3.78,0,0,1,29.5,13.81Z"/><path class="cls-1" d="M23.73,4a4.05,4.05,0,0,0-1.23.19A3.78,3.78,0,0,1,25,8a3.78,3.78,0,0,1-2.5,3.81,4.05,4.05,0,0,0,1.23.19,4,4,0,0,0,0-8Z"/><path class="cls-1" d="M24,33v9h3V36A3,3,0,0,0,24,33Z"/><path class="cls-2" d="M5,22a5,5,0,0,0,2.73,4.44A5,5,0,0,0,7,29a5,5,0,0,0,5,5,5,5,0,0,0,5,5,5,5,0,0,0,3-1v8a1,1,0,0,0,2,0V43h1v3a1,1,0,0,0,2,0V43h1v3a1,1,0,0,0,2,0V38a5,5,0,0,0,3,1,5,5,0,0,0,5-5,5,5,0,0,0,5-5,5,5,0,0,0-.73-2.56A5,5,0,0,0,41,18a4.94,4.94,0,0,0,1-3,5,5,0,0,0-6-4.9s0-.07,0-.1a5,5,0,0,0-5-5,5,5,0,0,0-2.55.72,5,5,0,0,0-8.89,0A5,5,0,0,0,17,5a5,5,0,0,0-5,5s0,.07,0,.1A5,5,0,0,0,6,15a4.94,4.94,0,0,0,1,3A5,5,0,0,0,5,22Zm7.39,10.08A1,1,0,0,0,12,32a3.12,3.12,0,1,1,2.95-2.55A5,5,0,0,0,12.39,32.08ZM14,19a5,5,0,0,0,2-4s0-.08,0-.11a4.89,4.89,0,0,0,5.45-2.62,4.91,4.91,0,0,0,5.14,0A4.89,4.89,0,0,0,32,14.89S32,15,32,15a5,5,0,0,0,2,4,4.95,4.95,0,0,0-.3,5.57A5,5,0,0,0,31,29a5,5,0,0,0-4.8,3.67,4,4,0,0,0-4.41,0A5,5,0,0,0,17,29a5,5,0,0,0-2.72-4.42A4.95,4.95,0,0,0,14,19Zm3,18a3,3,0,1,1,3-3A3,3,0,0,1,17,37Zm5-1a2,2,0,0,1,4,0v5H22Zm9,1a3,3,0,1,1,3-3A3,3,0,0,1,31,37Zm5-5a1,1,0,0,0-.39.08,5,5,0,0,0-2.56-2.63A3,3,0,1,1,36,32Zm2.82-7.13A5,5,0,0,0,36,24l-.23,0,0,0a3,3,0,1,1,3.07.89ZM40,15a3,3,0,0,1-.89,2.13,4.78,4.78,0,0,0-3.54.53l-.07-.06A3,3,0,1,1,40,15ZM31,7a3,3,0,0,1,2.83,4,1,1,0,0,0,0,.19,5,5,0,0,0-1.08,1.26A3,3,0,0,1,31,13a3,3,0,0,1,0-6ZM24,5a3,3,0,0,1,2.86,2.1l0,.06A5,5,0,0,0,26,10c0,.08,0,.15,0,.23l0,0a3.09,3.09,0,0,1-4-.06c0-.07,0-.13,0-.19a5,5,0,0,0-.88-2.82A3,3,0,0,1,24,5Zm-9.83,6a3,3,0,1,1,1.11,1.45,5,5,0,0,0-1.08-1.26A1,1,0,0,0,14.17,11ZM8,15a3,3,0,1,1,4.5,2.6l-.07.06a4.78,4.78,0,0,0-3.54-.53A3,3,0,0,1,8,15Zm2,4a3,3,0,0,1,2.25,5l0,0L12,24a5,5,0,0,0-2.82.88A3,3,0,0,1,10,19Z"/></svg>