<svg id="icon" xmlns="http://www.w3.org/2000/svg" viewBox="0 0 48 48"><defs><style>.cls-1{fill:#231f20;}</style></defs><title>Mosque (Small)</title><path class="cls-1" d="M28,10.53a30,30,0,0,1-3-1.2V8h1a1,1,0,0,0,0-2H24a1,1,0,0,1,0-2h2a1,1,0,0,0,0-2H24a3,3,0,0,0-1,5.82V9.33a30,30,0,0,1-3,1.2C15.59,12.11,8.68,15.24,8.06,21H39.94C39.32,15.24,32.41,12.11,28,10.53Z"/><path class="cls-1" d="M40.5,23H7.5a1.5,1.5,0,0,0,0,3h33a1.5,1.5,0,0,0,0-3Z"/><path class="cls-1" d="M41,45H40V28H8V45H7a1,1,0,0,0,0,2H41a1,1,0,0,0,0-2ZM30,45H28V37.33C28,35.5,26.21,34,24,34s-4,1.5-4,3.33V45H18V37.33C18,34.39,20.69,32,24,32s6,2.39,6,5.33Z"/></svg>