<svg id="icon" xmlns="http://www.w3.org/2000/svg" viewBox="0 0 48 48"><defs><style>.cls-1{fill:#231f20;}</style></defs><title>Mosque (Big)</title><path class="cls-1" d="M24,36a3,3,0,0,0-3,3v7h6V39A3,3,0,0,0,24,36Z"/><path class="cls-1" d="M4,45a1,1,0,0,0,1,1h6V28H4Z"/><path class="cls-1" d="M7.5,17c-1.6,1-4.5,4.29-4.5,6a3.46,3.46,0,0,0,1.38,3h6.24A3.46,3.46,0,0,0,12,23C12,21.26,9.1,17.93,7.5,17Z"/><path class="cls-1" d="M13,46h6V39a5,5,0,0,1,10,0v7h6V28H13Z"/><path class="cls-1" d="M27.44,10.94c-.91-.45-1.74-.86-2.44-1.29V8h1a1,1,0,0,0,0-2H24a1,1,0,0,1,0-2h2a1,1,0,0,0,0-2H24a3,3,0,0,0-1,5.82V9.65c-.7.43-1.53.85-2.44,1.29C17.19,12.6,13,15.66,13,20a.94.94,0,0,1,0,.14A6.45,6.45,0,0,1,14,22H34a6.45,6.45,0,0,1,1-1.86A.94.94,0,0,1,35,20C35,15.66,30.81,12.6,27.44,10.94Z"/><path class="cls-1" d="M40.5,17c-1.6,1-4.5,4.29-4.5,6a3.46,3.46,0,0,0,1.38,3h6.24A3.46,3.46,0,0,0,45,23C45,21.26,42.1,17.93,40.5,17Z"/><path class="cls-1" d="M14,24a5.91,5.91,0,0,1-.71,2H34.71A5.91,5.91,0,0,1,34,24Z"/><path class="cls-1" d="M37,46h6a1,1,0,0,0,1-1V28H37Z"/></svg>