<svg id="icon" xmlns="http://www.w3.org/2000/svg" viewBox="0 0 48 48"><defs><style>.cls-1{fill:#231f20;}</style></defs><title>Mosque Kubah</title><path class="cls-1" d="M13.88,15a1.68,1.68,0,0,0,2.25,0l.66-.61a4.05,4.05,0,0,1,5.43,0l.66.61a1.68,1.68,0,0,0,2.25,0l.66-.61a4.05,4.05,0,0,1,5.43,0l.66.61a1.68,1.68,0,0,0,2.25,0l.66-.61a3.83,3.83,0,0,1,1-.64,18.53,18.53,0,0,0-7.62-4A3.9,3.9,0,0,0,25,6.12.94.94,0,0,0,25,6V2a1,1,0,0,0-2,0V6a.94.94,0,0,0,0,.12,3.9,3.9,0,0,0-3.16,3.56,18.53,18.53,0,0,0-7.63,4,3.82,3.82,0,0,1,1,.64Z"/><path class="cls-1" d="M11,21.93l.78.62a2.68,2.68,0,0,0,3.1,0l.78-.61a5.05,5.05,0,0,1,6,0l.78.62a2.68,2.68,0,0,0,3.1,0l.78-.61a5.05,5.05,0,0,1,6,0l.78.62a2.68,2.68,0,0,0,3.1,0l.78-.61A5,5,0,0,1,40.75,21a20,20,0,0,0-3.29-5.6h0a1.65,1.65,0,0,0-1,.43l-.66.61a4,4,0,0,1-5.43,0l-.66-.61a1.68,1.68,0,0,0-2.25,0l-.66.61a4.05,4.05,0,0,1-5.43,0l-.66-.61a1.68,1.68,0,0,0-2.25,0l-.66.61a4.05,4.05,0,0,1-5.43,0l-.66-.61a1.66,1.66,0,0,0-1.1-.42A20,20,0,0,0,7.25,21,5,5,0,0,1,11,21.93Z"/><polygon class="cls-1" points="42.12 34 44 31 4 31 5.88 34 42.12 34"/><polygon class="cls-1" points="6.35 36 3 36 5.17 40 43 40 45 36 41.65 36 6.35 36"/><rect class="cls-1" x="6" y="42" width="36" height="5"/><path class="cls-1" d="M42,26.56a.66.66,0,0,0,0-.15,14.58,14.58,0,0,0-.41-3,2.68,2.68,0,0,0-3.07,0L37.7,24a5.05,5.05,0,0,1-6,0l-.78-.62a2.68,2.68,0,0,0-3.1,0L27,24a5.05,5.05,0,0,1-6,0l-.78-.62a2.68,2.68,0,0,0-3.1,0l-.78.61a5.05,5.05,0,0,1-6,0l-.78-.62a2.73,2.73,0,0,0-3-.1,1.11,1.11,0,0,1-.15.06A14.61,14.61,0,0,0,6,26.5a.64.64,0,0,0,0,.06V29H42Z"/></svg>