<svg id="icon" xmlns="http://www.w3.org/2000/svg" viewBox="0 0 48 48"><title>Bedug</title><path d="M11,35h6.62l-6.42,8.39a1,1,0,1,0,1.59,1.21l6.48-8.47,5.91,8.44a1,1,0,0,0,1.62,0L33.21,36l6,8.52a1,1,0,1,0,1.64-1.15L34.71,34.7A56.39,56.39,0,0,0,41.2,34l.12,0C44.72,32.82,47,28,47,22c0-5.72-2-9.69-5.61-10.92C40.7,10.73,35.53,8.31,25.12,7A126.54,126.54,0,0,0,11,6C5.69,6,1,12.79,1,20.5,1,27.49,5,35,11,35ZM24.49,12.87a69.61,69.61,0,0,1,8.44,9.37c-3.17,2.77-6.52,5.33-9.21,7.27A17.56,17.56,0,0,0,26,21,21.24,21.24,0,0,0,24.49,12.87ZM26,42.3,20.92,35H25c2.51,0,4.7-.05,6.6-.13ZM39.45,32.23c-.83.11-2,.25-3.66.38L38,29.69C38.61,30.72,39.1,31.59,39.45,32.23Zm-6.29.56c-2.22.12-4.93.21-8.16.21H22.27a139.23,139.23,0,0,0,11.85-9.14c1,1.43,1.94,2.79,2.72,4ZM45,22c0,4.55-1.43,8.34-3.56,9.68a83.85,83.85,0,0,0-5.8-9.17,46.41,46.41,0,0,0,7.19-8s0-.06,0-.08C44.23,16.08,45,18.71,45,22Zm-4.46-9.11.14.06a4.5,4.5,0,0,1,.68.3,1,1,0,0,0-.2.2,43.81,43.81,0,0,1-6.73,7.44A66.29,66.29,0,0,0,22.69,8.74L24.88,9C35.44,10.31,40.49,12.86,40.54,12.89ZM19.1,8.4a1,1,0,0,0,.27.38C19.56,8.93,24,12.64,24,21c0,6.08-3.83,10.46-5.4,12H15.91c3-2.57,5.09-7.31,5.09-12.5s-2-9.7-4.89-12.31C17,8.24,18,8.31,19.1,8.4ZM11,8h0c4.17,0,8,6,8,12.5S15.2,33,11,33,3,27.16,3,20.5,6.85,8,11,8Z"/></svg>