<svg id="icon" xmlns="http://www.w3.org/2000/svg" viewBox="0 0 48 48"><title>Padang Pasir</title><path d="M35.5,8A7.5,7.5,0,1,0,43,15.5,7.51,7.51,0,0,0,35.5,8Zm0,13A5.5,5.5,0,1,1,41,15.5,5.51,5.51,0,0,1,35.5,21Z"/><path d="M46.08,39c-1.13-.29-6.15-5-9.15-7.87-1.3-1.23-2.49-2.36-3.42-3.19a3.54,3.54,0,0,0-4.86.11c-.86.85-1.77,1.7-2.15,2L23,27c-1.3-1.16-2.46-2.2-3.36-3a3.54,3.54,0,0,0-5,.34c-4.3,4.94-13.28,14.92-13.37,15A1,1,0,0,0,2,41H46a1,1,0,0,0,1-1A1,1,0,0,0,46.08,39ZM16,25.75c.1,2.22.76,8.22,4.74,9.22,2.23.56,4.17,2.59,5.31,4H4.24C7,36,12.76,29.5,16,25.75ZM28.54,39c-.9-1.34-3.67-5.06-7.3-6-2.54-.64-3.18-5.57-3.24-7.75a1.53,1.53,0,0,1,.3.2c.9.78,2,1.81,3.34,3C27.32,33.52,31.35,37,34.09,39ZM38,39c-1.2-.11-5.82-3.94-10-7.58.45-.42,1.27-1.18,2-1.95a1.54,1.54,0,0,1,2.11,0c.92.82,2.1,1.95,3.38,3.16,3.19,3,5.43,5.08,7,6.41Z"/></svg>