<svg id="icon" xmlns="http://www.w3.org/2000/svg" viewBox="0 0 48 48"><title>Halal</title><path d="M45,34c-1.88,0-2.7-1-3.74-2.16S38.79,29,36,29a4.69,4.69,0,0,0-3.89,2.55,1,1,0,0,0,1.79.9A2.73,2.73,0,0,1,36,31c1.88,0,2.7,1,3.74,2.16a8.68,8.68,0,0,0,2.56,2.23A17.45,17.45,0,0,1,35,37c-1,0-4.13,0-5.17-1.55C28.14,32.91,28,28.91,28,17.9c0-1.67,0-2.79,0-2.95a1,1,0,0,0-1-1,1,1,0,0,0-1,1q0,1.33,0,2.55c-.11,4.31-.85,13.07-4.83,17.22A6.85,6.85,0,0,1,16,37a1,1,0,0,0,0,2,8.86,8.86,0,0,0,6.62-2.85,17,17,0,0,0,3.63-6.67c.26,3.4.81,5.42,1.91,7.08C29.63,38.75,32.77,39,35,39a19,19,0,0,0,10.54-3.16A1,1,0,0,0,45,34Z"/><path d="M21,26a1,1,0,0,0,2,0c0-6.46-6.18-10.66-6.45-10.83a1,1,0,0,0-1.11,1.66C15.5,16.87,21,20.62,21,26Z"/><path d="M13,17a1,1,0,0,0-1,1V32.88C12,35.62,10.65,37,8,37c-3.32,0-4-1.2-4-3a1.88,1.88,0,0,1,2-2,1,1,0,0,0,0-2,3.89,3.89,0,0,0-4,4c0,3.32,2,5,6,5,3.76,0,6-2.29,6-6.12V18A1,1,0,0,0,13,17Z"/></svg>