<svg id="icon" xmlns="http://www.w3.org/2000/svg" viewBox="0 0 48 48"><title>Islamic Lantern</title><path d="M39,14a3,3,0,0,0-3-3H34.9C34.5,8.83,32.74,6.62,29,5.59a5,5,0,0,0-9.92,0c-3.78,1-5.54,3.24-5.94,5.41H12a3,3,0,0,0-2,5.22V34.78A3,3,0,0,0,12,40h2.18A3,3,0,0,0,14,41a3,3,0,0,0,3,3h.81a4,4,0,0,0,3.86,3H27a4,4,0,0,0,3.86-3H32a3,3,0,0,0,3-3,3,3,0,0,0-.18-1H36a3,3,0,0,0,2-5.22V16.22A3,3,0,0,0,39,14ZM24,3a3,3,0,0,1,2.87,2.18,23.07,23.07,0,0,0-5.74,0A3,3,0,0,1,24,3Zm0,4c5.7,0,8.24,2,8.84,4H15.16C15.76,9,18.3,7,24,7ZM12,13H36a1,1,0,0,1,0,2H12a1,1,0,0,1,0-2ZM29,34V25c0-2.63-2.52-4-5-4s-5,1.37-5,4v9H17V17H31V34Zm-2,0H21V25c0-1.58,2-2,3-2s3,.42,3,2ZM12,17h3V34H12ZM27,45H21.67a2,2,0,0,1-1.73-1h8.8A2,2,0,0,1,27,45Zm6-4a1,1,0,0,1-1,1H17a1,1,0,0,1,0-2H32A1,1,0,0,1,33,41Zm3-3H12a1,1,0,0,1,0-2H36a1,1,0,0,1,0,2Zm0-4H33V17h3Z"/></svg>