<svg id="icon" xmlns="http://www.w3.org/2000/svg" viewBox="0 0 48 48"><title>Lamp</title><path d="M41,23c-2.42,0-5,1.31-5,5a4.4,4.4,0,0,0,1.29,2.71,1,1,0,0,0,1.42-1.41A2.49,2.49,0,0,1,38,28a2.69,2.69,0,0,1,3-3,2.94,2.94,0,0,1,3,3c0,1.59-.75,2.34-1.71,3.29-.75.75-2.67,1.25-4.37,1.68-.87.22-1.75.45-2.56.73A11.05,11.05,0,0,0,36,30V24a1,1,0,0,0-1-1H29V15a2,2,0,0,0-2-2H25V11.86A4,4,0,0,0,28,8c0-1.94-2.71-5.06-3.26-5.67a1,1,0,0,0-1.49,0C22.71,2.94,20,6.06,20,8a4,4,0,0,0,3,3.86V13H21a2,2,0,0,0-2,2v8H13a1,1,0,0,0-1,1v6a11.05,11.05,0,0,0,.63,3.7c-.81-.27-1.68-.5-2.56-.73-1.7-.44-3.62-.93-4.37-1.68C4.75,30.34,4,29.59,4,28a2.94,2.94,0,0,1,3-3,2.69,2.69,0,0,1,3,3,2.48,2.48,0,0,1-.71,1.29,1,1,0,0,0,1.41,1.41A4.4,4.4,0,0,0,12,28c0-3.69-2.58-5-5-5a4.92,4.92,0,0,0-5,5,6.19,6.19,0,0,0,2.29,4.71c1.14,1.14,3.25,1.68,5.29,2.21S14,36.05,14,37c0,1.44-.56,2-2,2a1.38,1.38,0,0,1-1.33-.77.48.48,0,0,1,0-.52,1,1,0,0,0-1.41-1.41A2.43,2.43,0,0,0,8.82,39,3.38,3.38,0,0,0,12,41c2.08,0,3.42-1,3.84-2.74A12.45,12.45,0,0,0,23,41v2H13a1,1,0,0,0,0,2H36a1,1,0,0,0,0-2H25V41a12.45,12.45,0,0,0,7.16-2.7C32.58,40,33.92,41,36,41a3.38,3.38,0,0,0,3.18-2,2.43,2.43,0,0,0-.47-2.7,1,1,0,0,0-1.41,1.41.48.48,0,0,1,0,.52A1.38,1.38,0,0,1,36,39c-1.44,0-2-.56-2-2,0-.95,2.45-1.58,4.42-2.09s4.15-1.07,5.29-2.21A6.19,6.19,0,0,0,46,28,4.92,4.92,0,0,0,41,23ZM22,8c0-.64.94-2.13,2-3.45C25.06,5.88,26,7.38,26,8a2,2,0,0,1-1,1.72V9a1,1,0,0,0-2,0v.72A2,2,0,0,1,22,8Zm-1,7h6v8H21Zm3,24c-5.79,0-10-3.79-10-9V25H34v5C34,35.21,29.79,39,24,39Z"/></svg>