<svg id="icon" xmlns="http://www.w3.org/2000/svg" viewBox="0 0 48 48"><title>Moon &amp;amp; Stars</title><path d="M31,5a1,1,0,0,0,.28-2A27.08,27.08,0,0,0,24,2a22,22,0,0,0,0,44c8.79,0,16.43-4.43,19.94-11.56a1,1,0,0,0-1.6-1.15C39.72,35.86,36.24,37,31,37A15.83,15.83,0,0,1,15,21,16.27,16.27,0,0,1,31,5ZM13,21A17.81,17.81,0,0,0,31,39a21.74,21.74,0,0,0,8.34-1.4A20.63,20.63,0,0,1,24,44,20,20,0,0,1,24,4c.41,0,.85,0,1.29,0A18.15,18.15,0,0,0,13,21Z"/><path d="M45,15H38.66L35.92,8.61a1,1,0,0,0-1.84,0L31.34,15H25a1,1,0,0,0-.64,1.77l5.5,4.58L28,27.73a1,1,0,0,0,1.52,1.11L35,25.2l5.45,3.63A1,1,0,0,0,42,27.73l-1.82-6.37,5.5-4.58A1,1,0,0,0,45,15Zm-6.64,5.23a1,1,0,0,0-.32,1l1.25,4.38-3.74-2.49a1,1,0,0,0-1.11,0l-3.74,2.49L32,21.27a1,1,0,0,0-.32-1L27.76,17H32a1,1,0,0,0,.92-.61L35,11.54l2.08,4.85A1,1,0,0,0,38,17h4.24Z"/></svg>