<svg id="icon" xmlns="http://www.w3.org/2000/svg" viewBox="0 0 48 48"><title>Parfume</title><path d="M15.68,9.05l-6,2a1,1,0,1,0,.63,1.9l6-2a1,1,0,1,0-.63-1.9Z"/><path d="M16.32,3.05l-6-2a1,1,0,0,0-.63,1.9l6,2a1,1,0,1,0,.63-1.9Z"/><path d="M7,7A1,1,0,0,0,8,8h7a1,1,0,0,0,0-2H8A1,1,0,0,0,7,7Z"/><path d="M25,22c-5.15,0-9,5-9,9.5A8.77,8.77,0,0,0,25,40a8.77,8.77,0,0,0,9-8.5C34,27,30.15,22,25,22Zm0,16a6.77,6.77,0,0,1-7-6.5C18,28,21.06,24,25,24s7,4,7,7.5A6.77,6.77,0,0,1,25,38Z"/><path d="M32,15.39V12.55A2.55,2.55,0,0,0,29.45,10H29V3a1,1,0,0,0-1-1H22a1,1,0,0,0-1,1v7h-.45A2.55,2.55,0,0,0,18,12.55v2.84A18.12,18.12,0,0,0,7,32.33c0,6.1,1.79,10.8,5.19,13.59a4.78,4.78,0,0,0,3,1.07H34.77a4.78,4.78,0,0,0,3-1.07c3.39-2.8,5.19-7.5,5.19-13.59A18.12,18.12,0,0,0,32,15.39ZM23,6.5a.5.5,0,0,1,0,1Zm0,2a1.5,1.5,0,0,0,0-3V4h4v6H23Zm-3,4a.55.55,0,0,1,.55-.55h8.9a.55.55,0,0,1,.55.55v2.16a18.05,18.05,0,0,0-10,0ZM36.54,44.39a2.78,2.78,0,0,1-1.77.61H15.23a2.78,2.78,0,0,1-1.77-.61A9.93,9.93,0,0,1,12.12,43l8.62.06h0a1,1,0,0,0,0-2L11,41h0a1,1,0,0,0-.19,0A18.93,18.93,0,0,1,9,32.33C9,23,15.88,16,25,16s16,7,16,16.33C41,37.81,39.46,42,36.54,44.39Z"/></svg>