<svg id="icon" xmlns="http://www.w3.org/2000/svg" viewBox="0 0 48 48"><title>Prayer Rug</title><path d="M45,11a1,1,0,0,0,0-2H20V7a3,3,0,0,0-3-3H7A5,5,0,0,0,2,9V39a5,5,0,0,0,5,5H45a1,1,0,0,0,0-2H42V38h3a1,1,0,0,0,0-2H42V32h3a1,1,0,0,0,0-2H42V27h3a1,1,0,0,0,0-2H42V22h3a1,1,0,0,0,0-2H42V17h3a1,1,0,0,0,0-2H42V11ZM32,20.94c.87,0,3,2.22,3,5.56s-2.13,5.56-3,5.56a1,1,0,0,0-1,1V36H20V17H31v2.94A1,1,0,0,0,32,20.94ZM17,36a1,1,0,0,1,0,2H12V36ZM7,6H17a1,1,0,0,1,1,1V34.18A3,3,0,0,0,17,34H7a5,5,0,0,0-3,1V9A3,3,0,0,1,7,6ZM4,39a3,3,0,0,1,3-3h3v2H7a1,1,0,0,0,0,2H17a3,3,0,0,0,2.82-2H32a1,1,0,0,0,1-1V33.86c2-.79,4-3.77,4-7.36s-2-6.57-4-7.36V16a1,1,0,0,0-1-1H20V11H40V42H7A3,3,0,0,1,4,39Z"/></svg>