<svg id="icon" xmlns="http://www.w3.org/2000/svg" viewBox="0 0 48 48"><defs><style>.cls-1{fill:#231f20;}</style></defs><title>Fasting</title><path class="cls-1" d="M15,4a1,1,0,0,0-1,1v7a2,2,0,0,1-2,2H11V5A1,1,0,0,0,9,5v9H8a2,2,0,0,1-2-2V5A1,1,0,0,0,4,5v7a4,4,0,0,0,4,4H9v3H7a1,1,0,0,0-1,1V42a3,3,0,0,0,3,3h2a3,3,0,0,0,3-3V20a1,1,0,0,0-1-1H11V16h1a4,4,0,0,0,4-4V5A1,1,0,0,0,15,4ZM12,21V42a1,1,0,0,1-1,1H9a1,1,0,0,1-1-1V21Z"/><path class="cls-1" d="M37,3c-4.11,0-7,6.21-7,9.57s2.43,6,6,6.37c0,0,0,0,0,.06v3H34a1,1,0,0,0-1,1V42a3,3,0,0,0,3,3h2a3,3,0,0,0,3-3V23a1,1,0,0,0-1-1H38V19s0,0,0-.06c3.58-.39,6-2.9,6-6.37S41.11,3,37,3Zm2,39a1,1,0,0,1-1,1H36a1,1,0,0,1-1-1V24h4ZM37,17c-2.49,0-5-1.37-5-4.43C32,9.79,34.47,5,37,5s5,4.79,5,7.57C42,15.63,39.49,17,37,17Z"/><path class="cls-1" d="M29.74,23.33a1,1,0,0,0-1.41-.07L23.5,27.65l-4.83-4.39a1,1,0,0,0-1.35,1.48L22,29l-4.69,4.26a1,1,0,0,0,1.35,1.48l4.83-4.39,4.83,4.39a1,1,0,0,0,1.35-1.48L25,29l4.69-4.26A1,1,0,0,0,29.74,23.33Z"/></svg>