<svg id="icon" xmlns="http://www.w3.org/2000/svg" viewBox="0 0 48 48"><defs><style>.cls-1{fill:#231f20;}</style></defs><title>Hajj</title><path class="cls-1" d="M42.53,36a10.25,10.25,0,0,0-7.11-6.45c-1-.24-3.23-1.16-4-1.5h-.06l-.2,0L31,28V26.48A11,11,0,0,0,35,18V13a11,11,0,0,0-22,0v5a11,11,0,0,0,4,8.48v2.58a35.22,35.22,0,0,0-4.42.51,10.27,10.27,0,0,0-7.13,6.49L3,43.7A1,1,0,0,0,3.7,45,1,1,0,0,0,4,45a1,1,0,0,0,1-.7l2.4-7.59a8.25,8.25,0,0,1,5.72-5.2,44.52,44.52,0,0,1,5-.51A1,1,0,0,0,19,30V27.79a10.9,10.9,0,0,0,10,0S29,29,29,29A94.61,94.61,0,0,0,14.49,39.4l.43-1a1,1,0,0,0-1.84-.79l-3,7a.94.94,0,0,0,0,.14,1,1,0,0,0,1,1.25,1,1,0,0,0,.78-.5c3.46-6.06,16.68-13.92,19.2-15.38a39.49,39.49,0,0,0,3.85,1.4,8.21,8.21,0,0,1,3.82,2.2C36.77,35.32,31,40.39,31,45a1,1,0,0,0,2,0c0-3.36,4.56-7.75,7-9.7a8.15,8.15,0,0,1,.67,1.37L43,44.3a1,1,0,0,0,1,.7,1,1,0,0,0,.3,0A1,1,0,0,0,45,43.7ZM24,4a9,9,0,0,1,8.33,5.62A5.35,5.35,0,0,0,30,9a5.51,5.51,0,0,0-2.87,1,5.34,5.34,0,0,1-6.27,0A5.51,5.51,0,0,0,18,9a5.35,5.35,0,0,0-2.33.62A9,9,0,0,1,24,4ZM15,18V13c0-.2,0-.39,0-.58A5.41,5.41,0,0,1,18,11a3.82,3.82,0,0,1,1.86.71,7.3,7.3,0,0,0,8.28,0A3.82,3.82,0,0,1,30,11a5.41,5.41,0,0,1,3,1.42c0,.19,0,.39,0,.58v5a9,9,0,0,1-18,0Z"/><circle class="cls-1" cx="20" cy="16" r="1"/><circle class="cls-1" cx="28" cy="16" r="1"/></svg>