<svg id="icon" xmlns="http://www.w3.org/2000/svg" viewBox="0 0 48 48"><defs><style>.cls-1{fill:#231f20;}</style></defs><title>Praying</title><path class="cls-1" d="M20,10a3,3,0,0,0-1,.18V9a3,3,0,0,0-3-3,3,3,0,0,0-1,.18V6A3,3,0,0,0,9,6v.18A3,3,0,0,0,8,6,3,3,0,0,0,5,9v4a3,3,0,0,0-3,3v7c0,3.59,1.61,6.14,3,8.38C6.09,33.05,7,34.49,7,36a37.21,37.21,0,0,1-1,7.76A1,1,0,1,0,8,44.24,38.47,38.47,0,0,0,9,36c0-2.09-1.11-3.84-2.28-5.69C5.38,28.2,4,26,4,23V16a1,1,0,0,1,2,0v3c0,3.35.66,4.45,3.55,5.89C11.16,25.7,12,26.29,12,30a1,1,0,0,0,2,0c0-4.33-1.2-5.72-3.55-6.89S8,21.61,8,19V16a3,3,0,0,0-1-2.22V9A1,1,0,0,1,9,9V19a1,1,0,0,0,2,0V6a1,1,0,0,1,2,0V19a1,1,0,0,0,2,0V9a1,1,0,0,1,2,0V19a1,1,0,0,0,2,0V13a1,1,0,0,1,2,0V27a8.77,8.77,0,0,1-1.64,5.19A7,7,0,0,0,18,36v8a1,1,0,0,0,2,0V36a5.16,5.16,0,0,1,1.07-2.76A10.72,10.72,0,0,0,23,27V13A3,3,0,0,0,20,10Z"/><path class="cls-1" d="M43,13V9a3,3,0,0,0-3-3,3,3,0,0,0-1,.18V6a3,3,0,0,0-6,0v.18A3,3,0,0,0,32,6a3,3,0,0,0-3,3v1.18A3,3,0,0,0,28,10a3,3,0,0,0-3,3V27a10.72,10.72,0,0,0,1.93,6.24A5.16,5.16,0,0,1,28,36v8a1,1,0,0,0,2,0V36a7,7,0,0,0-1.36-3.81A8.77,8.77,0,0,1,27,27V13a1,1,0,0,1,2,0v6a1,1,0,0,0,2,0V9a1,1,0,0,1,2,0V19a1,1,0,0,0,2,0V6a1,1,0,0,1,2,0V19a1,1,0,0,0,2,0V9a1,1,0,0,1,2,0v4.78A3,3,0,0,0,40,16v3c0,2.61-.23,3-2.45,4.11S34,25.67,34,30a1,1,0,0,0,2,0c0-3.71.84-4.3,2.45-5.11C41.34,23.45,42,22.35,42,19V16a1,1,0,0,1,2,0v7c0,3-1.38,5.2-2.72,7.31C40.11,32.16,39,33.91,39,36a38.47,38.47,0,0,0,1,8.24A1,1,0,0,0,42,43.76,37,37,0,0,1,41,36c0-1.51.91-2.95,2-4.62,1.42-2.25,3-4.79,3-8.38V16A3,3,0,0,0,43,13Z"/></svg>