<svg id="icon" xmlns="http://www.w3.org/2000/svg" viewBox="0 0 48 48"><defs><style>.cls-1{fill:#231f20;}</style></defs><title>Shadaqah</title><path class="cls-1" d="M39.87,32.22l-10.5,3.69a1.33,1.33,0,0,1-.54.09,1.38,1.38,0,0,1-.53-.12l-.82-.37a3.15,3.15,0,0,0-.13-2,3.11,3.11,0,0,0-1.72-1.7l-7.43-3.4A6.6,6.6,0,0,0,16,28a6.87,6.87,0,0,0-2.6.44L9.73,30,2.86,31a1,1,0,0,0,.28,2l7-1a1,1,0,0,0,.25-.07l3.78-1.63A4.51,4.51,0,0,1,16,30a4.6,4.6,0,0,1,1.47.28l7.42,3.39a1.14,1.14,0,0,1,.64,1.53,1.26,1.26,0,0,1-1,.8,2,2,0,0,1-.51-.09L17.27,34A1,1,0,0,0,16.73,36l6.76,1.88a3.74,3.74,0,0,0,1,.16h.15a3,3,0,0,0,1.77-.77l1.05.48a3.4,3.4,0,0,0,1.3.29,3.53,3.53,0,0,0,1.29-.22l10.42-3.67a1.85,1.85,0,0,1,2.41.89c.29.76.08,1.92-1.46,2.72L28.49,42.31l-.11,0a5.39,5.39,0,0,1-5.12,0L16.43,39.1a1,1,0,0,0-.65-.07l-13,3A1,1,0,1,0,3.22,44l12.66-2.92,6.49,3.09a7.35,7.35,0,0,0,6.84,0l12.94-4.58.11,0c2.6-1.3,3.11-3.63,2.49-5.25A3.83,3.83,0,0,0,39.87,32.22Z"/><path class="cls-1" d="M11.58,10.27,26.05,5.05a.41.41,0,0,1,.23,0L44.95,6A1,1,0,0,0,46,5.05,1,1,0,0,0,45.05,4L26.37,3a2.43,2.43,0,0,0-1,.17L10.84,8.41l-.11,0c-2.6,1.3-3.11,3.63-2.49,5.25A3.62,3.62,0,0,0,11.75,16a4.86,4.86,0,0,0,1.39-.21l10.49-3.69a1.52,1.52,0,0,1,.47-.1c.21,0,1.2.31,2,.52l-3.94,2.73a2.92,2.92,0,0,0-1.2,3.86,3.41,3.41,0,0,0,3,1.91H24a3.31,3.31,0,0,0,1.67-.54l7.65-3.52c.15-.05,3.68-1.33,4.9-1.94l1.9-1L44.8,15a1,1,0,0,0,.39-2l-5-1a1,1,0,0,0-.64.09l-2.21,1.11c-1.11.55-4.65,1.84-4.76,1.88l-7.79,3.58-.12.07A1.43,1.43,0,0,1,24,19a1.46,1.46,0,0,1-1.26-.8,1,1,0,0,1,.46-1.27l7.39-5.11a1,1,0,1,0-1.14-1.64L28.21,11,27,10.68A17,17,0,0,0,24.23,10a3.55,3.55,0,0,0-1.29.22L12.52,13.88a1.83,1.83,0,0,1-2.4-.89C9.8,12.17,10.13,11,11.58,10.27Z"/><path class="cls-1" d="M34,26a5,5,0,1,0-5,5A5,5,0,0,0,34,26Zm-8,0a3,3,0,1,1,3,3A3,3,0,0,1,26,26Z"/></svg>