<svg id="icon" xmlns="http://www.w3.org/2000/svg" viewBox="0 0 48 48"><defs><style>.cls-1{fill:#231f20;}</style></defs><title>Shalat (Ruku)</title><path class="cls-1" d="M43.22,5.52A3.46,3.46,0,0,0,40.32,4a3.4,3.4,0,0,0-1.93.64L33.95,7.81c-1.77-1-7.37-3.6-16.86-3.79L17,4l-.08,0L16,4C7.63,4,2,8,2,14V39a1,1,0,0,0,1,1H5v3a3,3,0,0,0,3,3h8a1,1,0,0,0,0-2H14.41L12,41.59V40h1a1,1,0,0,0,1-1V32.56l2.11-1.29a1,1,0,0,0,.18-.15A5.79,5.79,0,0,0,18,27v-.52L32.35,15H33v2a1,1,0,0,0,1,1,23.38,23.38,0,0,0,11.09-2.49,3.65,3.65,0,0,0,1.29-5.24ZM16,6V16a4,4,0,0,0-4,4V38H4V14C4,8.1,10.46,6,16,6ZM14,23.8V20a2,2,0,0,1,2-2h2ZM10.29,42.71,11.59,44H8a1,1,0,0,1-1-1V40h3v2A1,1,0,0,0,10.29,42.71ZM16,27a3.81,3.81,0,0,1-1,2.63l-1,.59v-2.9l2-2.89V27Zm1.93-5.36,4.89-7.07a1,1,0,0,0-1.64-1.14l-1.83,2.64A1,1,0,0,0,19,16H18V6A38.25,38.25,0,0,1,31,8.63v4.89L18,23.92V22A1,1,0,0,0,17.93,21.64ZM34,13H33V9.57l.45.26a1,1,0,0,0,1.14,0l2.07-1.48,4.21,6.73A23.42,23.42,0,0,1,35,16V14A1,1,0,0,0,34,13Zm10.15.75c-.39.21-.85.42-1.35.64L38.28,7.17l1.27-.9a1.41,1.41,0,0,1,.8-.26h0a1.42,1.42,0,0,1,1.18.63l3.16,4.75a1.66,1.66,0,0,1,.28,1A1.6,1.6,0,0,1,44.15,13.75Z"/></svg>