<svg id="icon" xmlns="http://www.w3.org/2000/svg" viewBox="0 0 48 48"><defs><style>.cls-1{fill:#231f20;}</style></defs><title>Wudhu</title><path class="cls-1" d="M14.9,41.07l6.47,3.08a7.35,7.35,0,0,0,6.84,0l12.94-4.58.11,0c2.6-1.3,3.11-3.63,2.49-5.25a3.83,3.83,0,0,0-4.89-2.07l-10.5,3.69a1.68,1.68,0,0,1-.54.09,1.4,1.4,0,0,1-.53-.12l-.82-.37a3.15,3.15,0,0,0-.13-2,3.11,3.11,0,0,0-1.72-1.7l-7.43-3.4a6.73,6.73,0,0,0-4.78,0L8.7,30,3.8,31a1,1,0,0,0,.39,2l5-1,.2-.06,3.78-1.63A4.52,4.52,0,0,1,15,30a4.6,4.6,0,0,1,1.47.28l7.42,3.39a1.14,1.14,0,0,1,.64,1.53,1.26,1.26,0,0,1-1,.8,1.6,1.6,0,0,1-.51-.08L16.27,34A1,1,0,0,0,15.73,36l6.76,1.88a3.74,3.74,0,0,0,1,.16h.15a3,3,0,0,0,1.77-.77l1.05.48a3.4,3.4,0,0,0,1.3.29,3.26,3.26,0,0,0,1.29-.22l10.42-3.67a1.83,1.83,0,0,1,2.41.89c.32.82,0,2-1.46,2.72L27.49,42.31l-.11,0a5.39,5.39,0,0,1-5.12,0L15.43,39.1a1,1,0,0,0-.69-.06l-11,3A1,1,0,0,0,4.26,44Z"/><path class="cls-1" d="M44,10a1,1,0,0,0,0-2H40a1,1,0,0,0-1,1H37V6a3,3,0,0,0-3-3H21a1,1,0,0,0,0,2H31V9H29a5,5,0,0,0-5,5v5a1,1,0,0,0,1,1h.72C24.49,21.51,23,23.78,23,26a5.2,5.2,0,0,0,5,5,5.2,5.2,0,0,0,5-5c0-2.22-1.49-4.49-2.72-6H31a1,1,0,0,0,1-1V16h7a1,1,0,0,0,1,1h4a1,1,0,0,0,0-2H41V10ZM28,29a3.2,3.2,0,0,1-3-3c0-1.92,1.79-4.28,3-5.58,1.21,1.3,3,3.65,3,5.58A3.2,3.2,0,0,1,28,29ZM34,5a1,1,0,0,1,1,1V8H33V5Zm-2,9a2,2,0,0,0-2,2v2H26V14a3,3,0,0,1,3-3h3a1,1,0,0,0,1-1h2a1,1,0,0,0,1,1h3v3Z"/></svg>