<?xml version="1.0" encoding="utf-8"?>
<!-- Generator: Adobe Illustrator 25.1.0, SVG Export Plug-In . SVG Version: 6.00 Build 0)  -->
<svg version="1.1" id="icon" xmlns="http://www.w3.org/2000/svg" xmlns:xlink="http://www.w3.org/1999/xlink" x="0px" y="0px"
	 viewBox="0 0 48 48" style="enable-background:new 0 0 48 48;" xml:space="preserve">
<style type="text/css">
	.st0{fill:#FFFFFF;}
	.st1{fill:#2B72FF;}
	.st2{fill:#2ED9D6;}
	.st3{fill:#BDD6FF;}
</style>
<g>
	<g>
		<path d="M44.8,13.4c-1-2.3-3.1-3.9-5.6-4.3c-0.1,0.7-0.4,1.3-0.7,1.9c0.9,0.1,1.8,0.4,2.6,0.8c0.8,0.5,1.5,1.3,1.9,2.3
			c1,2.4,0.9,5.3,0.8,8.3c0,0.8,0,1.6,0,2.4c0,5.3-2.1,10.3-5.9,14.1c-3.8,3.7-8.8,5.7-14.2,5.6C13,44.4,4.4,35.3,4.3,24.3
			c0-0.6,0-1.3,0-1.9c-0.1-3-0.1-5.8,0.8-8.1c0.7-1.9,2.5-3.2,4.6-3.3C9.3,10.5,9,9.8,8.9,9.1c-2.6,0.4-4.8,2.1-5.7,4.5
			c-1.1,2.7-1,5.7-0.9,8.9c0,0.6,0,1.2,0,1.9c0.1,12,9.7,22,21.3,22.2H24c5.7,0,11.1-2.2,15.2-6.2c4.2-4.1,6.5-9.6,6.5-15.5
			c0-0.8,0-1.6,0-2.4c0-0.8,0-1.5,0-2.3C45.8,17.8,45.6,15.5,44.8,13.4z"/>
	</g>
	<g>
		<path d="M31.4,13.3H16.6c-3.3,0-5.9-2.7-5.9-5.9c0-1.6,0.6-3.1,1.7-4.2c1.1-1.1,2.6-1.7,4.2-1.7h14.8c3.3,0,5.9,2.7,5.9,5.9
			c0,1.6-0.6,3.1-1.7,4.2C34.5,12.7,33,13.3,31.4,13.3z M16.6,3.4c-1,0-2,0.4-2.8,1.1c-0.7,0.7-1.1,1.7-1.1,2.8
			c0,2.2,1.8,3.9,3.9,3.9h14.8c1,0,2-0.4,2.8-1.2c0.7-0.7,1.2-1.7,1.2-2.8c0-2.2-1.8-3.9-3.9-3.9H16.6z"/>
	</g>
	<g>
		<path d="M22.3,6.6h-0.7c-0.6,0-1-0.4-1-1s0.4-1,1-1h0.7c0.6,0,1,0.4,1,1S22.8,6.6,22.3,6.6z"/>
	</g>
	<g>
		<path d="M14.9,8.4c-0.6,0-1-0.4-1-1c0-1.5,1.2-2.7,2.7-2.7h1.7c0.6,0,1,0.4,1,1s-0.4,1-1,1h-1.7c-0.4,0-0.7,0.3-0.7,0.7
			C15.9,7.9,15.4,8.4,14.9,8.4z"/>
	</g>
	<path d="M28.9,18.2c4.4,0,8.1,3.1,8.7,7.2c0.1,0.6,0.1,1.3,0.1,1.9c0,7.5-6.2,13.6-13.8,13.6c-0.5,0-1.1,0-1.6-0.1
		c-6.2-0.7-11.3-5.6-12-11.8c-0.2-1.2-0.2-2.3,0-3.5c0.5-4.2,4.3-7.3,8.7-7.3H28.9 M28.9,16.2h-9.9c-5.3,0-10,3.8-10.7,9.1
		c-0.2,1.3-0.2,2.6,0,4c0.9,7,6.7,12.7,13.8,13.5c0.6,0.1,1.2,0.1,1.8,0.1c8.7,0,15.8-7,15.8-15.6c0-0.7,0-1.4-0.1-2.1
		C38.9,20,34.2,16.2,28.9,16.2L28.9,16.2z"/>
</g>
</svg>
