<svg id="icon" xmlns="http://www.w3.org/2000/svg" viewBox="0 0 48 48"><title>Outfit (Woman)</title><path d="M36.81,9.58A9.46,9.46,0,0,0,28.18,4H27a1,1,0,0,0-1,1H20a1,1,0,0,0-1-1H17.82A9.46,9.46,0,0,0,9.19,9.6l-8.11,19a1,1,0,0,0,.59,1.33l5.64,2a1,1,0,0,0,1.26-.56L13,20.65A134.21,134.21,0,0,1,11,42.8,1,1,0,0,0,12,44h8.92c1.94,2,6.42,3,8,3H29c1.85,0,9-1.55,9-5a15,15,0,0,0-.77-3.82A25.63,25.63,0,0,1,36,31a6.11,6.11,0,0,0-2.82-4.79c-.09-1.84-.14-3.69-.16-5.54l4.42,10.71a1,1,0,0,0,1.26.56l5.64-2a1,1,0,0,0,.59-1.33ZM25.63,7a2.73,2.73,0,0,1-5.26,0ZM7.07,29.74,3.34,28.41l1-2.24L8,27.5ZM34,31a27.29,27.29,0,0,0,1.31,7.73A14,14,0,0,1,36,42c0,1.21-4.46,2.85-6.72,3-.8-.81-2.28-2.59-2.28-4,0-1,.32-1.62,2-1.62l.13,0a4,4,0,0,0,3.87-4V32a1,1,0,0,0-1-1H26a1,1,0,0,0-1,1v3.37a4,4,0,0,0,1.17,2.83A3.51,3.51,0,0,0,25,41a6.53,6.53,0,0,0,1.3,3.52C24.21,43.91,22,42.85,22,42a14,14,0,0,1,.69-3.27A27.29,27.29,0,0,0,24,31c0-1.39,1.47-4,5-4S34,29.61,34,31Zm-7,4.37V33h4v2.37a2,2,0,0,1-4,0Zm10.24-9.71-3.32-8a1,1,0,0,0-.38-.43,9,9,0,0,0-.65-5.63,1,1,0,1,0-1.79.89c1.39,2.78,0,6.12,0,6.15A1,1,0,0,0,31,19c0,2.08.05,4.19.14,6.29A8,8,0,0,0,29,25c-4.57,0-7,3.48-7,6a25.63,25.63,0,0,1-1.23,7.18A15,15,0,0,0,20,42H13.19A143.77,143.77,0,0,0,15,19a1,1,0,0,0-.08-.4s-1.42-3.37,0-6.16a1,1,0,1,0-1.79-.89,9,9,0,0,0-.65,5.63,1,1,0,0,0-.38.43l-3.32,8L5.08,24.33,11,10.4A7.46,7.46,0,0,1,17.82,6h.25c.29,2.13,1.55,5,4.93,5s4.63-2.87,4.93-5h.25A7.46,7.46,0,0,1,35,10.38l5.95,13.95Zm1.69,4.09L38,27.5l3.7-1.33,1,2.24Z"/></svg>