<svg id="icon" xmlns="http://www.w3.org/2000/svg" viewBox="0 0 48 48"><title>Outfit (Man)</title><path d="M37.89,11.58A9.42,9.42,0,0,0,31,6.17V4a2,2,0,0,0-2-2H19a2,2,0,0,0-2,2V6.19a9.41,9.41,0,0,0-6.81,5.41l-8.11,19a1,1,0,0,0,.59,1.33l5.64,2a1,1,0,0,0,1.25-.55l4.36-10.27A205.4,205.4,0,0,1,12,44.85,1,1,0,0,0,13,46H43a1,1,0,0,0,1-1V42a8,8,0,0,0-8-8H34.9c-.18-1.82-.58-6.2-.75-11l4.37,10.35a1,1,0,0,0,1.26.55l5.64-2A1,1,0,0,0,46,30.61ZM29,4V6H19V4ZM25,8v7a3,3,0,0,1-2,2.83V8ZM8.08,31.74,4.34,30.41l1-2.24L9,29.51Zm33.84,9.34A6,6,0,0,1,42,42v2H27V42a1,1,0,0,0,.32-.05l2.61-.87,1.63.81a1,1,0,0,0,.69.08L36,41l2.72.91a1,1,0,0,0,.63,0ZM36,36a6,6,0,0,1,5.29,3.18l-2.3.77-2.68-.89a1,1,0,0,0-.56,0l-3.64.91-1.67-.83a1,1,0,0,0-.76-.05l-2.27.76A6,6,0,0,1,33,36Zm2.25-8.39-1.06-2.5L35,19.95C33.7,16.86,33.7,16.86,32.89,17a1,1,0,0,0-.81,1c-.07,6.34.55,13.36.81,16A8,8,0,0,0,25,42v2H14.15A204.93,204.93,0,0,0,16,18a1,1,0,0,0-1.92-.39L9.81,27.67,6.08,26.33,12,12.4A7.46,7.46,0,0,1,18.82,8H21V19a1,1,0,0,0,1,1,5,5,0,0,0,5-5V8h2.27a7.46,7.46,0,0,1,6.79,4.38L42,26.27ZM40,31.74l-1-2.29,3.73-1.34,1,2.31Z"/></svg>