<?xml version="1.0" encoding="utf-8"?>
<!-- Generator: Adobe Illustrator 25.1.0, SVG Export Plug-In . SVG Version: 6.00 Build 0)  -->
<svg version="1.1" id="icon" xmlns="http://www.w3.org/2000/svg" xmlns:xlink="http://www.w3.org/1999/xlink" x="0px" y="0px"
	 viewBox="0 0 48 48" style="enable-background:new 0 0 48 48;" xml:space="preserve">
<style type="text/css">
	.st0{fill:#FFFFFF;}
	.st1{fill:#2B72FF;}
	.st2{fill:#2ED9D6;}
	.st3{fill:#BDD6FF;}
</style>
<g>
	<g>
		<g>
			<path d="M31.7,18.6H15.3c-0.6,0-1-0.4-1-1s0.4-1,1-1h16.3c0.6,0,1,0.4,1,1S32.2,18.6,31.7,18.6z"/>
		</g>
		<g>
			<path d="M21.4,25h-7.2c-0.6,0-1-0.4-1-1s0.4-1,1-1h7.2c0.6,0,1,0.4,1,1S22,25,21.4,25z"/>
		</g>
		<g>
			<path d="M25.3,31.4H13.1c-0.6,0-1-0.4-1-1s0.4-1,1-1h12.2c0.6,0,1,0.4,1,1S25.8,31.4,25.3,31.4z"/>
		</g>
		<g>
			<path d="M30.6,25h-4.5c-0.6,0-1-0.4-1-1s0.4-1,1-1h4.5c0.6,0,1,0.4,1,1S31.1,25,30.6,25z"/>
		</g>
	</g>
	<g>
		<path d="M44.4,39.7c-0.4-3-2.6-4.2-4.5-4.1h-5c0-3.3,0.5-7.4,1.5-12.2c0.9-4.1,1.4-7.8,1.6-11c0.4,0.2,0.9,0.3,1.4,0.3h0.8
			c2.2,0,4-1.8,4-4V6.7c0-2.2-1.8-4-4-4h-0.8c-1.1,0-2.1,0.5-2.9,1.2H11.1c-0.7-0.7-1.7-1.2-2.9-1.2H7.4c-2.2,0-4,1.8-4,4v1.9
			c0,2.2,1.8,4,4,4h0.8c0.6,0,1.2-0.1,1.7-0.4C9.8,15.4,9.3,18.9,8.4,23C6,34.1,6.3,41.2,9.5,44.5c1.2,1.3,2.8,2,4.3,2h26.1
			c1.3,0,2.5-0.5,3.3-1.5C44,44.2,44.8,42.5,44.4,39.7z M39.4,4.7h0.8c1.1,0,2,0.9,2,2v1.9c0,1.1-0.9,2-2,2h-0.8c-0.1,0-0.2,0-0.4,0
			c0.7-0.5,1.2-1.4,1.2-2.4V6.8C40.3,6,40,5.2,39.4,4.7C39.4,4.7,39.4,4.7,39.4,4.7z M37.4,5.9c0.5,0,0.9,0.4,0.9,0.9v1.4
			c0,0.5-0.4,0.9-0.9,0.9H12.2c0-0.2,0.1-0.3,0.1-0.5V6.7c0-0.3,0-0.6-0.1-0.8H37.4z M8.2,10.7H7.4c-1.1,0-2-0.9-2-2V6.7
			c0-1.1,0.9-2,2-2h0.8c1.1,0,2,0.9,2,2v1.9C10.3,9.8,9.4,10.7,8.2,10.7z M15.7,38.3c0.3,0.3,0.5,0.8,0.6,1.3l0.1,0.3
			c0.2,1.6-0.1,3-0.8,3.8c-0.5,0.5-1.1,0.8-1.8,0.8c-1,0-2-0.5-2.9-1.4c-2.6-2.7-2.8-9.6-0.6-19.8c1-4.7,1.6-8.8,1.6-12.2H36
			c0,3.3-0.6,7.3-1.6,11.8c-1.1,5-1.6,9.3-1.6,12.7H16.8c-0.6,0-1.1,0.3-1.4,0.9C15.2,37.1,15.3,37.8,15.7,38.3z M41.7,43.7
			c-0.5,0.5-1.1,0.8-1.8,0.8h-4.3H17.5c0.6-1,1.2-2.5,0.9-4.9l-0.1-0.4c-0.1-0.6-0.3-1.1-0.6-1.6l22.3,0c0.5,0,2.1,0,2.4,2.3
			C42.7,41.6,42.4,42.9,41.7,43.7z"/>
		<path d="M7.8,6.5c-0.6,0-1,0.4-1,1v0.4c0,0.6,0.4,1,1,1s1-0.4,1-1V7.5C8.8,6.9,8.4,6.5,7.8,6.5z"/>
	</g>
</g>
</svg>
