<svg id="icon" xmlns="http://www.w3.org/2000/svg" viewBox="0 0 48 48"><title>Kopyah (Bulat)</title><path d="M24.94,7H23.06A21.08,21.08,0,0,0,2,28.06V40a1,1,0,0,0,.55.89C2.72,41,7,43,24,43s21.28-2,21.45-2.11A1,1,0,0,0,46,40V28.06A21.08,21.08,0,0,0,24.94,7ZM23.06,9h1.88a18.92,18.92,0,0,1,9.45,2.53A31.9,31.9,0,0,1,24,13a33,33,0,0,1-10.38-1.48A18.92,18.92,0,0,1,23.06,9ZM44,39.3c-1.59.49-6.88,1.7-20,1.7S5.58,39.78,4,39.3V36.38C6.35,37,12,38,24,38s17.65-1,20-1.62Zm0-5c-1.59.49-6.87,1.7-20,1.7S5.57,34.78,4,34.3V30.51l3.65-2a3.67,3.67,0,0,1,4.17.42L14.29,31a4.14,4.14,0,0,0,5.42,0l2.9-2.49a2.12,2.12,0,0,1,2.78,0L28.29,31a4.14,4.14,0,0,0,5.42,0l2.47-2.12a3.67,3.67,0,0,1,4.17-.41l3.65,2Zm0-6.08-2.67-1.5a5.68,5.68,0,0,0-6.45.64l-2.47,2.12a2.15,2.15,0,0,1-2.82,0L26.69,27a4.11,4.11,0,0,0-5.39,0l-2.9,2.49a2.15,2.15,0,0,1-2.82,0l-2.47-2.12a5.67,5.67,0,0,0-6.45-.64L4,28.22v-.16a19,19,0,0,1,7.57-15.17l.07,0A33.57,33.57,0,0,0,24,15a32.13,32.13,0,0,0,12.38-2.07l.05,0A19,19,0,0,1,44,28.06Z"/></svg>