<svg id="icon" xmlns="http://www.w3.org/2000/svg" viewBox="0 0 48 48"><title>Kopyah (Kotak)</title><path d="M24,19c1.64,0,16-.11,16-4s-14.36-4-16-4S8,11.11,8,15,22.36,19,24,19Zm0-6c8.22,0,12.91,1.24,13.88,2-1,.76-5.66,2-13.88,2s-12.91-1.24-13.88-2C11.09,14.24,15.78,13,24,13Z"/><path d="M24,8C5,8,4,13,4,13.92l-2,24a1,1,0,0,0,0,.26c.64,3.67,13.52,4.76,21,4.82H25c7.51-.06,20.38-1.15,21-4.82a1,1,0,0,0,0-.26L44,14C44,13,43,8,24,8ZM6,14s1.06-4,18-4,18,4,18,4.08l1.5,18.05h0C41.28,33.51,34.21,34.92,25,35H23.06c-9.22-.08-16.3-1.5-18.54-2.85h0ZM25,41H23.06c-11.62-.1-18.38-2-19-3.12l.3-3.6C7.75,35.86,15,36.93,23,37H25c8.05-.07,15.32-1.14,18.73-2.71l.3,3.58C43.27,39,36.52,40.9,25,41Z"/></svg>