<?xml version="1.0" encoding="utf-8"?>
<!-- Generator: Adobe Illustrator 25.1.0, SVG Export Plug-In . SVG Version: 6.00 Build 0)  -->
<svg version="1.1" id="icon" xmlns="http://www.w3.org/2000/svg" xmlns:xlink="http://www.w3.org/1999/xlink" x="0px" y="0px"
	 viewBox="0 0 48 48" style="enable-background:new 0 0 48 48;" xml:space="preserve">
<path d="M25,12c0.6,0,1-0.4,1-1V9c0-0.6-0.4-1-1-1s-1,0.4-1,1v2C24,11.6,24.4,12,25,12z"/>
<path d="M45,13c-0.6,0-1,0.4-1,1v25c0,0.6,0.4,1,1,1s1-0.4,1-1V14C46,13.4,45.6,13,45,13z"/>
<path d="M38,19c-0.6,0-1,0.4-1,1v15c0,1.8-2.1,3-4,3h-3c-2.8,0-4-2.6-4-5V23c0-0.6-0.4-1-1-1s-1,0.4-1,1v10c0,2.7-2.3,5-5,5h-4
	c-1.5,0.1-2.9-1-3-2.5c0-0.2,0-0.3,0-0.5v-8c0-0.6-0.4-1-1-1s-1,0.4-1,1v2c0,1.2-2.3,2.9-5.3,4.1c-1.9,0.4-3.1,2.3-2.6,4.2
	C2.4,39,4,40.1,5.7,40h2.7c1.2,0,2.3-0.5,3-1.5c1,1,2.3,1.5,3.7,1.5h4c2.4,0,4.6-1.2,5.9-3.2c0.9,2,2.9,3.2,5.1,3.2h3c2.9,0,6-2,6-5
	V20C39,19.4,38.6,19,38,19z M10,33.2c0,0,0,0.1,0,0.1v3.2c0,0.9-0.8,1.5-1.7,1.5c0,0,0,0,0,0H5.7C4.8,38,4,37.4,4,36.5c0,0,0,0,0,0
	c0-0.8,0.3-1.2,1.3-1.6c1.7-0.6,3.2-1.5,4.7-2.5V33.2z"/>
<path d="M20.9,19.1c0.5,0.5,1.3,0.9,2.1,0.9c0.7,0,1.4-0.2,2-0.7c0.6,0.5,1.3,0.7,2,0.7c0.8,0,1.5-0.3,2.1-0.9
	c0.6-0.6,1-1.5,0.9-2.4V16c0-0.6-0.4-1-1-1l0,0c-0.6,0-1,0.4-1,1v0.8c0,0.4-0.1,0.7-0.4,1C27.5,17.9,27.2,18,27,18
	c-0.5,0.1-0.9-0.3-1-0.8c0-0.1,0-0.2,0-0.2v-2c0-0.6-0.4-1-1-1s-1,0.4-1,1v2c0.1,0.5-0.3,0.9-0.8,1c-0.1,0-0.2,0-0.2,0
	c-0.2,0-0.5-0.1-0.6-0.3c-0.2-0.3-0.4-0.6-0.4-1V16c0-0.6-0.4-1-1-1s-1,0.4-1,1v0.7C20,17.6,20.3,18.5,20.9,19.1z"/>
</svg>
