<?xml version="1.0" encoding="utf-8"?>
<!-- Generator: Adobe Illustrator 25.1.0, SVG Export Plug-In . SVG Version: 6.00 Build 0)  -->
<svg version="1.1" id="icon" xmlns="http://www.w3.org/2000/svg" xmlns:xlink="http://www.w3.org/1999/xlink" x="0px" y="0px"
	 viewBox="0 0 48 48" style="enable-background:new 0 0 48 48;" xml:space="preserve">
<path d="M34.8,34l0.2-0.3c2.4-0.2,4.1-0.4,5.2-0.5c-0.5-0.9-1.2-2.2-2.1-3.7c-0.3-0.6-0.7-1.2-1.1-1.8c-0.7-1.1-1.5-2.3-2.4-3.6
	c-4,3.5-8.1,6.8-12.4,9.9H25c2.8,0,5.2-0.1,7.3-0.2l0,0L26,42.2L20.8,34h-2.4l-7.2,9.4c-0.3,0.4-0.3,1.1,0.2,1.4
	c0.4,0.3,1.1,0.3,1.4-0.2l6.8-8.9l5.6,8.8l0,0v0.1l0.1,0.1c0,0.1,0.1,0.1,0.1,0.2l0.1,0.1h0.1c0.3,0.1,0.5,0.1,0.8,0h0.1h0.1
	c0.1,0,0.1-0.1,0.1-0.2c0,0,0.1,0,0.1-0.1l6.7-8.9l5.7,8.9c0.2,0.3,0.5,0.4,0.9,0.4c0.6,0,1-0.4,1-1c0-0.2-0.1-0.4-0.2-0.6L34.8,34z
	"/>
<path d="M33.3,22.4c-2.8-3.7-5.9-7.2-9.3-10.4c1.4,2.8,2.1,5.9,2.1,9c0,3.6-1.1,7.1-3.1,10C25.8,28.9,30,25.4,33.3,22.4z"/>
<path d="M43.8,14C43.8,14,43.8,14.1,43.8,14c-2.2,3.2-4.7,6.1-7.5,8.7c2.2,3.2,4.3,6.5,6.1,9.9C44.5,31.1,46,27,46,22.1
	C46,18.6,45.2,15.7,43.8,14z"/>
<path d="M35,21c2.6-2.4,5-5.1,7-8.1c0.1-0.1,0.1-0.2,0.2-0.2c-0.2-0.1-0.5-0.2-0.7-0.3l-0.2-0.1C35,10.4,28.5,9,22,8
	C26.8,11.8,31.2,16.2,35,21z"/>
<path d="M16.2,11.1C14.7,8.6,12.6,7,10.4,7C6,7,2,13.4,2,20.5S6,34,10.4,34s8.4-6.4,8.4-13.5C18.8,17.2,17.9,13.9,16.2,11.1z"/>
<path d="M18.9,7.6C17.6,7.3,16.3,7.1,15,7c3,2,6,8,6,14c-0.1,5-2.3,9.7-6,13h3.3C20,32.3,24,27.6,24,21C24,12,19,7.8,18.9,7.6z"/>
</svg>
