<?xml version="1.0" encoding="utf-8"?>
<!-- Generator: Adobe Illustrator 25.1.0, SVG Export Plug-In . SVG Version: 6.00 Build 0)  -->
<svg version="1.1" id="icon" xmlns="http://www.w3.org/2000/svg" xmlns:xlink="http://www.w3.org/1999/xlink" x="0px" y="0px"
	 viewBox="0 0 48 48" style="enable-background:new 0 0 48 48;" xml:space="preserve">
<path d="M36,35.1V15h-0.5c0.8,0,1.5-0.7,1.5-1.5S36.3,12,35.5,12h-23c-0.8,0-1.5,0.7-1.5,1.5s0.7,1.5,1.5,1.5H12v20.1
	c-0.8,0.3-1.2,1.1-0.9,1.9c0.2,0.6,0.8,1,1.4,1h23c0.8,0,1.5-0.7,1.5-1.5C37,35.9,36.6,35.3,36,35.1z M17,35h-2V15h2V35z M29,35h-2
	V24c0-1.6-2-2-3-2s-3,0.4-3,2v11h-2V24c0-2.6,2.5-4,5-4s5,1.4,5,4V35z M33,35h-2V15h2V35z"/>
<path d="M20,45L20,45L20,45c0.1,1.2,0.9,2,2,2h3c1.1,0,1.9-0.8,2-1.9l0.1-0.1H20z"/>
<path d="M29,6c0-2.8-2.2-5-5-5s-5,2.2-5,5c-1.8,0.7-3.2,2.2-3.9,4h17.7C32.2,8.2,30.8,6.7,29,6z M24,5c-1,0-2,0.1-2.9,0.3
	c0.4-1.6,2-2.6,3.6-2.2c1.1,0.3,1.9,1.1,2.2,2.2C26,5.1,25,5,24,5z"/>
<path d="M31.5,40h-15c-0.8,0-1.5,0.7-1.5,1.5s0.7,1.5,1.5,1.5h15c0.8,0,1.5-0.7,1.5-1.5S32.3,40,31.5,40L31.5,40z"/>
</svg>
