<?xml version="1.0" encoding="utf-8"?>
<!-- Generator: Adobe Illustrator 25.1.0, SVG Export Plug-In . SVG Version: 6.00 Build 0)  -->
<svg version="1.1" id="icon" xmlns="http://www.w3.org/2000/svg" xmlns:xlink="http://www.w3.org/1999/xlink" x="0px" y="0px"
	 viewBox="0 0 48 48" style="enable-background:new 0 0 48 48;" xml:space="preserve">
<polygon points="17.5,23.6 23,28.8 28.7,23.4 23.4,18.3 "/>
<polygon points="15.9,22.1 21.8,16.8 16.3,11.6 15.8,11.1 10,16.5 10.6,17.1 "/>
<polygon points="35.4,17.1 36,16.5 30.8,11.7 30.2,12.2 25,16.8 30.3,21.9 "/>
<path d="M23.4,15.3L29,10h3c2.2,0,4-1.8,4-4s-1.8-4-4-4h-1.6c-2.3,0-4.6,0.7-6.4,2l-6.6,5.6l0.5,0.5L23.4,15.3z M30.4,4H32
	c1.1,0,2,0.9,2,2s-0.9,2-2,2h-5.1L26,7.2c-0.4-0.4-0.9-0.7-1.5-0.9l0.8-0.6C26.8,4.6,28.6,4,30.4,4z"/>
<path d="M9,18.6l-0.6-0.5l-2.2,2.1c-1.6,1.5-1.7,3.9-0.2,5.5c0.1,0.1,0.1,0.2,0.2,0.2l2.6,2.5l0.6-0.5l4.8-4.3L9,18.6z"/>
<polygon points="30.3,24.9 24.6,30.3 29.3,34.7 29.8,35.2 35.6,29.8 35,29.3 "/>
<path d="M39.7,20.1l-2.2-2.1L37,18.6l-5.1,4.8l4.6,4.4l0.6,0.5l2.6-2.5c1.6-1.5,1.7-3.9,0.2-5.5C39.9,20.3,39.8,20.2,39.7,20.1
	L39.7,20.1z"/>
<path d="M27.3,40.2c-0.9,0.9-2.1,1.5-3.3,1.7V46c0.9-0.5,2-0.8,3-1c1,0.2,2.1,0.5,3,1v-8.5L27.3,40.2z"/>
<path d="M16,37.5V46c0.9-0.5,2-0.8,3-1c1,0.2,2.1,0.5,3,1v-4.1c-1.3-0.2-2.4-0.8-3.3-1.7L16,37.5z"/>
<polygon points="16.7,34.7 21.4,30.3 15.8,25 11,29.3 10.4,29.8 16.2,35.2 "/>
<path d="M28.2,36.8l-0.5-0.5L23,31.8l-4.7,4.4l-0.5,0.5l2.2,2.1c1.7,1.6,4.4,1.6,6.1,0L28.2,36.8z"/>
</svg>
