<?xml version="1.0" encoding="utf-8"?>
<!-- Generator: Adobe Illustrator 25.1.0, SVG Export Plug-In . SVG Version: 6.00 Build 0)  -->
<svg version="1.1" id="icon" xmlns="http://www.w3.org/2000/svg" xmlns:xlink="http://www.w3.org/1999/xlink" x="0px" y="0px"
	 viewBox="0 0 48 48" style="enable-background:new 0 0 48 48;" xml:space="preserve">
<path d="M42.3,2H11v25c0,0.6-0.4,1-1,1s-1-0.4-1-1V3C7.1,3.7,5.9,5.5,6,7.5V38c0.8-0.5,1.6-0.9,2.6-1l0.7-0.7C9.5,36.1,9.7,36,10,36
	h33V2.7C43,2.3,42.7,2,42.3,2z M37,27c0,0.6-0.4,1-1,1h-3.1c-0.3,1.9-1.6,5-6.9,5s-6.6-3.1-6.9-5H16c-0.6,0-1-0.4-1-1V11
	c0-0.6,0.4-1,1-1h3.1C20,6.9,22.8,4.8,26,5c3.2-0.2,6,1.9,6.9,5H36c0.6,0,1,0.4,1,1V27z"/>
<path d="M38,38H10.4l-0.7,0.7C9.5,38.9,9.3,39,9,39c-0.4,0-2.9,0.5-3,2.8l0,0c0,0.6,0.2,1.2,0.4,1.7C7,44.3,8,44.9,9,45
	c0.3,0,0.5,0.1,0.7,0.3l0.7,0.7H38c-1-1.1-2-2-2-4S37,39.1,38,38z"/>
<path d="M42,38c-2.2,0.1-3.9,1.8-4,4c0.1,2.2,1.8,3.9,4,4l0,0c0.6,0,1-0.4,1-1v-7H42z"/>
<path d="M31,11c0-1.4-1.5-4-5-4s-5,2.7-5,4c0,0.6-0.4,1-1,1h-3v14h3c0.6,0,1,0.4,1,1c0,1.8,0.9,4,5,4s5-2.2,5-4c0-0.6,0.4-1,1-1h3
	V12h-3C31.4,12,31,11.6,31,11z"/>
</svg>
