<?xml version="1.0" encoding="utf-8"?>
<!-- Generator: Adobe Illustrator 25.1.0, SVG Export Plug-In . SVG Version: 6.00 Build 0)  -->
<svg version="1.1" id="icon" xmlns="http://www.w3.org/2000/svg" xmlns:xlink="http://www.w3.org/1999/xlink" x="0px" y="0px"
	 viewBox="0 0 48 48" style="enable-background:new 0 0 48 48;" xml:space="preserve">
<path d="M45.9,15.7C45.8,15.3,45.4,15,45,15h-6.3l-2.7-6.4c-0.2-0.5-0.8-0.7-1.3-0.5c-0.2,0.1-0.4,0.3-0.5,0.5L31.3,15H25
	c-0.6,0-1,0.4-1,1c0,0.3,0.1,0.6,0.4,0.8l5.5,4.6L28,27.7c-0.2,0.5,0.1,1.1,0.7,1.2c0.3,0.1,0.6,0,0.8-0.1l5.5-3.6l5.5,3.6
	c0.4,0.3,1.1,0.2,1.4-0.2c0.2-0.3,0.2-0.6,0.2-0.9l-1.8-6.4l5.5-4.6C46,16.5,46.1,16.1,45.9,15.7z"/>
<path d="M42.3,33.3c-2.6,2.6-6,3.7-11.3,3.7c-8.7,0.1-15.9-6.9-16-15.7c0-0.1,0-0.2,0-0.3c0.1-8.8,7.2-15.9,16-16
	c0.6,0.1,1.1-0.3,1.1-0.9S31.8,3.1,31.3,3c-2.4-0.7-4.8-1-7.3-1C11.8,2,2,11.8,2,24s9.8,22,22,22c8.8,0,16.4-4.4,19.9-11.6
	c0.2-0.5,0-1.1-0.5-1.3C43.1,32.9,42.6,33,42.3,33.3L42.3,33.3z"/>
</svg>
