<?xml version="1.0" encoding="utf-8"?>
<!-- Generator: Adobe Illustrator 25.1.0, SVG Export Plug-In . SVG Version: 6.00 Build 0)  -->
<svg version="1.1" id="icon" xmlns="http://www.w3.org/2000/svg" xmlns:xlink="http://www.w3.org/1999/xlink" x="0px" y="0px"
	 viewBox="0 0 48 48" style="enable-background:new 0 0 48 48;" xml:space="preserve">
<path d="M34,9c-3.3,0-6,2.7-6,6s2.7,6,6,6s6-2.7,6-6S37.3,9,34,9z"/>
<path d="M20.6,33.9c-4.3-1.2-5.5-8.4-5.6-10.8C11.5,27.7,4.3,36.1,1,40h25.5C25.4,38,23.1,34.6,20.6,33.9z"/>
<path d="M23.6,28.4c-2.2-2.3-4.2-4.5-5.6-5.8c-0.2-0.3-0.6-0.5-1-0.6c0,2.6,1.3,8.9,4,9.7c3.9,1.1,7,6.5,8,8.3h6
	C32.5,37.8,28.9,34,23.6,28.4z"/>
<path d="M32.8,27.3c-0.6-0.6-1.6-0.7-2.2-0.1c0,0-0.1,0.1-0.1,0.1c-1,1.1-2.1,2.2-2.4,2.6c4.3,4.5,9.7,9.9,11,10.1h8
	C41.9,35.9,33.2,27.7,32.8,27.3z"/>
</svg>
