<?xml version="1.0" encoding="utf-8"?>
<!-- Generator: Adobe Illustrator 25.1.0, SVG Export Plug-In . SVG Version: 6.00 Build 0)  -->
<svg version="1.1" id="icon" xmlns="http://www.w3.org/2000/svg" xmlns:xlink="http://www.w3.org/1999/xlink" x="0px" y="0px"
	 viewBox="0 0 48 48" style="enable-background:new 0 0 48 48;" xml:space="preserve">
<path d="M34,15c-0.6,0-1-0.4-1-1c0-0.3,0.1-0.5,0.3-0.7l3.3-3.3l-1.3-1.3c-0.4-0.4-0.4-1,0-1.4c0.1-0.1,0.2-0.2,0.3-0.2l7-3
	c0.5-0.2,1.1,0,1.3,0.5c0.1,0.2,0.1,0.5,0,0.8l-3,7c-0.2,0.5-0.8,0.7-1.3,0.5c-0.1-0.1-0.2-0.1-0.3-0.2L38,11.4l-3.3,3.3
	C34.5,14.9,34.3,15,34,15z"/>
<path d="M39,43c-0.3,0-0.6,0-0.9-0.1C40,38.5,41,33.8,41,29c0-5.8-2.3-11.5-6.3-15.7C30.5,9.3,24.8,7,19,7C14.2,7,9.5,8,5.1,9.9
	C5,9.6,5,9.3,5,9c0-0.6-0.4-1-1-1S3,8.4,3,9c-0.1,1.4,0.7,2.8,2,3.4L35.6,43c0.6,1.3,1.9,2.1,3.4,2c0.6,0,1-0.4,1-1S39.6,43,39,43z
	 M8.4,13H9c6.3,0,10.4,0,14.7,2c4.1,1.9,7.4,5.2,9.3,9.3c2,4.2,2,8.4,2,14.7c0,0.2,0,0.4,0,0.6L8.4,13z"/>
<path d="M29.9,19.5c0,0.1-0.1,0.1-0.1,0.2L16,33.4V38c0,0.3-0.1,0.5-0.3,0.7l-3,3C12.5,41.9,12.3,42,12,42c-0.1,0-0.2,0-0.3,0
	c-0.3-0.1-0.6-0.4-0.7-0.7v-2.8l-0.3,0.3C10.5,38.9,10.3,39,10,39c-0.6,0-1-0.5-1-1c0-0.3,0.1-0.5,0.3-0.7L9.6,37H6.8
	c-0.3-0.1-0.6-0.4-0.7-0.7c-0.1-0.4,0-0.7,0.3-1l3-3C9.5,32.1,9.7,32,10,32h4.6l5-5l1.4-1.4l7.3-7.3c0.1-0.1,0.1-0.1,0.2-0.1
	c0.5-0.3,1.1-0.2,1.4,0.3C30.1,18.8,30.1,19.2,29.9,19.5z"/>
<path d="M30.3,17.7c-0.5-0.4-1.3-0.3-1.7,0.2c-0.1,0.1-0.1,0.2-0.2,0.3c0.5,0.4,0.9,0.9,1.4,1.4c0.6-0.3,0.9-1,0.6-1.7
	C30.4,17.8,30.4,17.7,30.3,17.7z"/>
</svg>
