<?xml version="1.0" encoding="utf-8"?>
<!-- Generator: Adobe Illustrator 25.1.0, SVG Export Plug-In . SVG Version: 6.00 Build 0)  -->
<svg version="1.1" id="icon" xmlns="http://www.w3.org/2000/svg" xmlns:xlink="http://www.w3.org/1999/xlink" x="0px" y="0px"
	 viewBox="0 0 48 48" style="enable-background:new 0 0 48 48;" xml:space="preserve">
<path d="M16.7,9.1l-6,2c-0.5,0.2-0.8,0.7-0.6,1.3c0.2,0.5,0.7,0.8,1.3,0.6l6-2c0.5-0.2,0.8-0.7,0.6-1.3S17.2,8.9,16.7,9.1
	C16.7,9.1,16.7,9.1,16.7,9.1z"/>
<path d="M17.3,3l-6-2c-0.5-0.2-1.1,0.1-1.3,0.6c-0.2,0.5,0.1,1.1,0.6,1.3l6,2c0.5,0.2,1.1-0.1,1.3-0.6S17.8,3.2,17.3,3z"/>
<path d="M17,7c0-0.6-0.4-1-1-1H9C8.4,6,8,6.4,8,7s0.4,1,1,1h7C16.6,8,17,7.6,17,7z"/>
<path d="M25,24c-3.7,0-7,3.5-7,7.5c0,3.7,2.9,6.5,7,6.5s7-2.7,7-6.5C32,27.5,28.7,24,25,24z"/>
<path d="M30,14.7v-2.2c0-0.3-0.2-0.6-0.5-0.6h-8.9c-0.3,0-0.5,0.2-0.5,0.6v2.2C23.3,13.8,26.7,13.8,30,14.7z"/>
<path d="M25,16c-9.5,0.1-17.1,7.8-17,17.3c0,0,0,0,0,0.1c-0.1,3,0.6,6,1.9,8.7c0.1,0,0.1,0,0.2,0l0,0l10.4,0.1c0.6,0,1,0.4,1,1
	c0,0.6-0.4,1-1,1c0,0,0,0-0.1,0l0,0h-9.2c0.4,0.5,0.9,1,1.4,1.4c0.5,0.4,1.2,0.6,1.9,0.6h20.8c0.7,0,1.3-0.2,1.9-0.6
	C40.4,43,42,38.8,42,33.3C42.1,23.9,34.5,16.1,25,16C25,16,25,16,25,16z M25,40c-5.1,0-9-3.6-9-8.5c0-5.1,4.2-9.5,9-9.5s9,4.5,9,9.5
	C34,36.4,30.1,40,25,40z"/>
<path d="M28,4.9C28,4.4,27.6,4,27.1,4l0,0h-4.1C22.4,4,22,4.4,22,4.9v0V6c0.6,0,1,0.4,1,1s-0.4,1-1,1v2h6V4.9z"/>
</svg>
