<?xml version="1.0" encoding="utf-8"?>
<!-- Generator: Adobe Illustrator 25.1.0, SVG Export Plug-In . SVG Version: 6.00 Build 0)  -->
<svg version="1.1" id="icon" xmlns="http://www.w3.org/2000/svg" xmlns:xlink="http://www.w3.org/1999/xlink" x="0px" y="0px"
	 viewBox="0 0 48 48" style="enable-background:new 0 0 48 48;" xml:space="preserve">
<path d="M45.1,4l-12,3.2c-0.3,1.6-2,7.1-6.5,14c-0.8,1.3-1.7,2.5-2.6,3.7c-0.9-1.2-1.8-2.4-2.6-3.6c-2.8-4.3-5-9.1-6.4-14L3,4
	c0.8,3.4,6.5,16.2,16.8,25.4c-0.8,0.7-1.5,1.4-2.3,2c-1.2,1-3.2,2.5-4.4,3.4l2.3,3.2c2.4-1.2,4.8-2.5,7.1-4c1.9-1.3,3.6-2.6,5.3-4.1
	C38.4,20.5,44.3,7.5,45.1,4z"/>
<path d="M29.7,30.7c-1.1,1-2.2,1.9-3.3,2.7c-0.3,0.2-0.5,0.4-0.8,0.6c2.1,1.4,4.2,2.6,6.5,3.7l2.5-3c-1.1-0.8-2.9-2.2-4.1-3.3
	C30.3,31.2,30,30.9,29.7,30.7z"/>
<circle cx="6.4" cy="41.4" r="2.1"/>
<path d="M16.6,37.3c-1.5-1.7-2.7-3.1-2.7-3.1c-0.7-0.7-1.5-1.4-2.4-2c-0.4-0.4-1.1-0.3-1.4,0.1c-0.4,0.4-0.3,1.1,0.1,1.4
	c0,0,0.1,0.1,0.1,0.1c0.6,0.5,1.3,1,1.9,1.6c-1.7,1.2-3.2,2.1-4.3,2.7c0.9,0.4,1.6,1.1,2,2.1l4.1-3c0.6,0.7,1.2,1.5,1.7,2.4
	C16,40,16.1,40.5,16,41c-0.1,1.2-1.1,2-2.3,2H12c-0.6,0-1,0.4-1,1s0.4,1,1,1h1.7c2.3,0,4.2-1.7,4.3-4c0.1-0.8-0.1-1.6-0.5-2.3
	C17.2,38.2,16.9,37.7,16.6,37.3z"/>
<circle cx="41.6" cy="41.4" r="2.2"/>
<path d="M35.8,35.4c1-1,1.8-1.6,1.9-1.6c0.5-0.3,0.6-0.9,0.4-1.4c-0.3-0.5-0.9-0.6-1.4-0.4c0,0-0.1,0.1-0.1,0.1
	c-0.8,0.6-1.6,1.3-2.4,2c0,0-1.1,1.4-2.7,3.1c-0.3,0.4-0.6,0.9-0.9,1.4c-0.4,0.7-0.6,1.5-0.5,2.3c0.1,2.3,2,4,4.3,4h1.7
	c0.6,0,1-0.4,1-1s-0.4-1-1-1h-1.7c-1.2,0-2.2-0.8-2.3-2c-0.1-0.5,0-0.9,0.3-1.3c0.5-0.8,1-1.6,1.7-2.4l4.1,3c0.4-0.9,1.1-1.7,2-2.1
	C39,37.5,37.5,36.6,35.8,35.4z"/>
</svg>
