<?xml version="1.0" encoding="utf-8"?>
<!-- Generator: Adobe Illustrator 25.1.0, SVG Export Plug-In . SVG Version: 6.00 Build 0)  -->
<svg version="1.1" id="icon" xmlns="http://www.w3.org/2000/svg" xmlns:xlink="http://www.w3.org/1999/xlink" x="0px" y="0px"
	 viewBox="0 0 48 48" style="enable-background:new 0 0 48 48;" xml:space="preserve">
<path d="M31,34.1c0-0.6,0.4-1,1-1c0.9,0,3-3.2,3-6.6s-2.1-5.6-3-5.6c-0.6,0-1-0.4-1-1V16H19v21h12V34.1z"/>
<path d="M17,35V6c0-0.6-0.4-1-1-1H6C4.3,5,3,6.3,3,8v28c0.9-0.6,1.9-1,3-1H17z"/>
<path d="M44,18c0.6,0,1-0.4,1-1s-0.4-1-1-1h-4v-4h4c0.6,0,1-0.4,1-1s-0.4-1-1-1H19v4h13c0.6,0,1,0.4,1,1v4.1c2,0.8,4,3.8,4,7.4
	s-2,7.6-4,8.4V38c0,0.6-0.4,1-1,1H19c-0.5,1.2-1.7,2-3,2h-4v-2h4c0.6,0,1-0.4,1-1s-0.4-1-1-1H6c-1.7,0-3,1.3-3,3s1.3,3,3,3h38
	c0.6,0,1-0.4,1-1s-0.4-1-1-1h-4v-3h4c0.6,0,1-0.4,1-1s-0.4-1-1-1h-4v-3h4c0.6,0,1-0.4,1-1s-0.4-1-1-1h-4v-3h4c0.6,0,1-0.4,1-1
	s-0.4-1-1-1h-4v-3h4c0.6,0,1-0.4,1-1s-0.4-1-1-1h-4v-3H44z M10,41H6c-0.6,0-1-0.4-1-1s0.4-1,1-1h4V41z"/>
</svg>
