<?xml version="1.0" encoding="utf-8"?>
<!-- Generator: Adobe Illustrator 25.1.0, SVG Export Plug-In . SVG Version: 6.00 Build 0)  -->
<svg version="1.1" id="icon" xmlns="http://www.w3.org/2000/svg" xmlns:xlink="http://www.w3.org/1999/xlink" x="0px" y="0px"
	 viewBox="0 0 48 48" style="enable-background:new 0 0 48 48;" xml:space="preserve">
<path d="M7,36.7v6.7C7,43.7,7.3,44,7.6,44c0.1,0,0.1,0,0.2,0L20,40L7,36.7z M28,40l12.2,4c0.3,0.1,0.6-0.1,0.7-0.4
	c0-0.1,0-0.1,0-0.2v-6.7L28,40z M45.4,9.2C44.5,9.5,43.1,10,43,10v21c0,0.6-0.4,1-1,1c-6.1-0.1-12.1,1.5-17.3,4.7l0,0
	c-0.4,0.3-1,0.3-1.4,0C18.1,33.6,12.1,31.9,6,32c-0.6,0-1-0.4-1-1V10c-0.1,0-1.5-0.5-2.4-0.8C2.4,9.1,2.1,9.3,2,9.5c0,0,0,0.1,0,0.1
	v22.8c0,0.3,0.2,0.6,0.5,0.7L24,39l21.5-5.9c0.3-0.1,0.5-0.4,0.5-0.7V9.6c0-0.3-0.2-0.5-0.5-0.5C45.5,9.2,45.4,9.2,45.4,9.2z"/>
<path d="M25,11.1V34c2.3-1.5,8.8-3.8,16-4V7C31.9,7.2,25.9,10.2,25,11.1z M38,27c-3.2,0.4-6.3,1.4-9.1,2.8c-0.2,0.1-0.4,0.2-0.7,0.2
	c-0.4,0-0.8-0.2-1-0.5c-0.3-0.4-0.2-1,0.1-1.3c0.1,0,0.1-0.1,0.2-0.1c3.3-1.7,6.8-2.8,10.5-3.2c0.6,0,1,0.4,1,1S38.6,27,38,27z
	 M38,22c-3.2,0.4-6.3,1.4-9.1,2.8c-0.2,0.1-0.4,0.2-0.7,0.2c-0.4,0-0.8-0.2-1-0.5c-0.3-0.4-0.2-1,0.1-1.3c0.1,0,0.1-0.1,0.2-0.1
	c3.3-1.7,6.8-2.8,10.5-3.2c0.6,0,1,0.4,1,1S38.6,22,38,22z M38,17c-3.2,0.4-6.3,1.4-9.1,2.8c-0.2,0.1-0.4,0.2-0.7,0.2
	c-0.4,0-0.8-0.2-1-0.5c-0.3-0.4-0.2-1,0.1-1.3c0.1,0,0.1-0.1,0.2-0.1c3.3-1.7,6.8-2.8,10.5-3.2c0.6,0,1,0.4,1,1
	C39,16.6,38.6,17,38,17z M38,12c-3.2,0.4-6.3,1.4-9.1,2.8c-0.2,0.1-0.4,0.2-0.7,0.2c-0.4,0-0.8-0.2-1-0.4c-0.3-0.4-0.2-1,0.1-1.3
	c0.1,0,0.1-0.1,0.2-0.1c3.3-1.7,6.8-2.8,10.5-3.2c0.5,0,1,0.4,1,0.9c0,0,0,0.1,0,0.1c0,0.5-0.4,1-0.9,1C38.1,12,38,12,38,12z"/>
<path d="M23,11.1C22,10.2,16.1,7.2,7,7v23c7.2,0.2,13.7,2.5,16,4V11.1z M20.8,29.5c-0.2,0.3-0.6,0.5-1,0.5c-0.2,0-0.5-0.1-0.7-0.2
	c-2.9-1.5-5.9-2.4-9.1-2.8c-0.6,0-1-0.4-1-1s0.4-1,1-1c3.7,0.4,7.2,1.5,10.5,3.2c0.5,0.2,0.7,0.7,0.4,1.2
	C20.9,29.4,20.8,29.5,20.8,29.5z M20.8,24.5c-0.2,0.3-0.6,0.5-1,0.5c-0.2,0-0.5-0.1-0.7-0.2c-2.9-1.5-5.9-2.4-9.1-2.8
	c-0.6,0-1-0.4-1-1s0.4-1,1-1c3.7,0.4,7.2,1.5,10.5,3.2c0.5,0.2,0.7,0.7,0.4,1.2C20.9,24.4,20.8,24.5,20.8,24.5z M20.8,19.5
	c-0.2,0.3-0.6,0.5-1,0.5c-0.2,0-0.5-0.1-0.7-0.2c-2.9-1.5-5.9-2.4-9.1-2.8c-0.6,0-1-0.4-1-1c0-0.6,0.4-1,1-1
	c3.7,0.4,7.2,1.5,10.5,3.2c0.5,0.2,0.7,0.7,0.4,1.2C20.9,19.4,20.8,19.5,20.8,19.5z M20.8,14.5c-0.2,0.3-0.6,0.5-1,0.4
	c-0.2,0-0.5-0.1-0.7-0.2c-2.9-1.5-5.9-2.4-9.1-2.8c-0.5,0-1-0.4-1-0.9c0,0,0-0.1,0-0.1c0-0.5,0.4-1,0.9-1c0,0,0.1,0,0.1,0
	c3.7,0.4,7.2,1.5,10.5,3.2c0.5,0.2,0.7,0.7,0.4,1.2C20.9,14.4,20.8,14.5,20.8,14.5z"/>
</svg>
