<?xml version="1.0" encoding="utf-8"?>
<!-- Generator: Adobe Illustrator 25.1.0, SVG Export Plug-In . SVG Version: 6.00 Build 0)  -->
<svg version="1.1" id="icon" xmlns="http://www.w3.org/2000/svg" xmlns:xlink="http://www.w3.org/1999/xlink" x="0px" y="0px"
	 viewBox="0 0 48 48" style="enable-background:new 0 0 48 48;" xml:space="preserve">
<path d="M41,14.4v-2c-0.4-4.6-4.7-8-9.5-8H19c-3.9,0.1-7.4,2.4-9,6c5,0,17.7,0.3,18.3,0.3C32.7,11,37.1,12.2,41,14.4z"/>
<path d="M4,20.2v10.4c3.7-0.3,7.3-2.3,10.8-4.2c2.3-1.2,4.7-2.2,7.2-3c-6.9-1.9-15.8-4-17-4.3C4.4,19.1,4,19.6,4,20.2
	C4,20.1,4,20.2,4,20.2z"/>
<path d="M28.1,12.8C23.9,12.5,12,12.4,9,12.4c-1,0-1.2,0.8-1.5,1.8l-1,3.1c3.4,0.7,13.7,3,20,5c2.9,1.1,5.7,2.5,8.3,4.1
	c2.8,1.7,5.9,3,9.2,3.7v-5.7C44,20.1,42.2,14,28.1,12.8z"/>
<path d="M40,44c-2-1.5-3.2-3.9-3-6.4c0-3.3,0-6.5,0-7.5c1.1,0.5,4,1.6,4,1.6s0,3.5,0,5.7c0,4.2,3,5.9,3.4,6.6H40z"/>
</svg>
