<?xml version="1.0" encoding="utf-8"?>
<!-- Generator: Adobe Illustrator 25.1.0, SVG Export Plug-In . SVG Version: 6.00 Build 0)  -->
<svg version="1.1" id="icon" xmlns="http://www.w3.org/2000/svg" xmlns:xlink="http://www.w3.org/1999/xlink" x="0px" y="0px"
	 viewBox="0 0 48 48" style="enable-background:new 0 0 48 48;" xml:space="preserve">
<path d="M24,33c-2.2,0-4,2.4-4,4v8c0,0.6,0.4,1,1,1s1-0.4,1-1v-3h1v3c0,0.6,0.4,1,1,1s1-0.4,1-1v-3h1v3c0,0.6,0.4,1,1,1s1-0.4,1-1
	v-8C28,35.4,26.2,33,24,33z"/>
<path d="M10.1,24.6c0.1,0,0.2,0,0.3,0v0c1.5-1.7,1.4-4.4-0.3-5.9S5.7,17.3,4.2,19s-1.4,4.4,0.3,5.9c0.5,0.4,1,0.7,1.7,0.9
	C7.3,25,8.7,24.6,10.1,24.6z"/>
<path d="M27.8,3.9c-0.6-2.1-2.9-3.3-5-2.7c-1.3,0.4-2.4,1.5-2.7,2.8c0.8,1.1,1.2,2.4,1.2,3.8c0,0.1,0,0.2,0,0.3
	c1.5,1.3,3.8,1.4,5.4,0.1h0c0-0.1,0-0.2,0-0.3c0-1.4,0.4-2.7,1.2-3.8C27.9,4,27.8,3.9,27.8,3.9z"/>
<path d="M13.8,30.1c0.3-2.2-1.2-4.2-3.4-4.6s-4.2,1.2-4.6,3.4c-0.3,2.2,1.2,4.2,3.4,4.6c0.2,0,0.4,0,0.6,0c0.2,0,0.4,0,0.5,0.1
	C11.1,32.1,12.3,30.8,13.8,30.1z"/>
<path d="M37.2,17C37.2,17,37.2,17,37.2,17c1.5-0.8,3.2-1,4.8-0.6c1.6-1.5,1.7-4.1,0.1-5.7c-1.5-1.6-4.1-1.7-5.7-0.1
	c-0.8,0.8-1.3,1.8-1.2,3C35.2,15,36,16.3,37.2,17z"/>
<path d="M32.1,12c0.8,0,1.7-0.3,2.4-0.8c0.4-0.7,0.9-1.2,1.5-1.7c0-0.1,0-0.2,0-0.3c0.8-2.2-0.4-4.5-2.5-5.3s-4.5,0.4-5.3,2.5
	s0.4,4.5,2.5,5.3C31.1,11.9,31.6,12,32.1,12z"/>
<path d="M7.5,16.5c1.2,0,2.3,0.3,3.3,0.9c0,0,0.1-0.1,0.1-0.1c2-1.1,2.6-3.7,1.5-5.6S8.7,9,6.8,10.1c-1.3,0.7-2.1,2.1-2.1,3.6
	c0,1.1,0.4,2.2,1.2,2.9C6.4,16.5,6.9,16.5,7.5,16.5z"/>
<path d="M38.2,25.5c-2.1-0.1-3.9,1.6-4,3.7c0,0.3,0,0.6,0.1,0.9c1.5,0.7,2.8,1.9,3.4,3.5c0.2-0.1,0.3-0.1,0.5-0.1c2.2,0,4-1.8,4-4
	S40.4,25.5,38.2,25.5L38.2,25.5z"/>
<path d="M40.7,17.7c-2.3,0-4.2,1.8-4.2,4.2c0,1,0.4,2.1,1.1,2.8v0c0.1,0,0.2,0,0.3,0c1.4,0,2.8,0.4,3.9,1.2c2.2-0.6,3.5-2.9,2.9-5.2
	C44.2,19,42.5,17.7,40.7,17.7L40.7,17.7z"/>
<circle cx="32.8" cy="35" r="3.8"/>
<path d="M15.8,3.7c-2.3,0-4.1,1.9-4.1,4.1c0,0.5,0.1,0.9,0.2,1.4c0,0.1,0,0.2,0,0.3c0.6,0.5,1.1,1.1,1.5,1.7
	c0.7,0.5,1.5,0.8,2.4,0.8c2.3-0.1,4-2,3.9-4.3C19.6,5.5,17.9,3.8,15.8,3.7L15.8,3.7z"/>
<circle cx="15.3" cy="35" r="3.8"/>
</svg>
