<?xml version="1.0" encoding="utf-8"?>
<!-- Generator: Adobe Illustrator 25.1.0, SVG Export Plug-In . SVG Version: 6.00 Build 0)  -->
<svg version="1.1" id="icon" xmlns="http://www.w3.org/2000/svg" xmlns:xlink="http://www.w3.org/1999/xlink" x="0px" y="0px"
	 viewBox="0 0 48 48" style="enable-background:new 0 0 48 48;" xml:space="preserve">
<style type="text/css">
	.st0{fill:#FFFFFF;}
	.st1{fill:#2B72FF;}
	.st2{fill:#2ED9D6;}
	.st3{fill:#BDD6FF;}
</style>
<g>
	<path class="st3" d="M44.6,24c0,11.3-9.2,20.6-20.6,20.6c-7,0-13.1-3.5-16.9-8.8c3.7,4.7,9.5,7.7,15.9,7.7
		c11.2,0,20.4-9.1,20.4-20.4c0-6.4-3-12.1-7.6-15.9C41.1,10.9,44.6,17.1,44.6,24z"/>
	<path class="st3" d="M35.8,7.2C32.5,4.8,28.4,3.4,24,3.4C12.7,3.4,3.4,12.7,3.4,24c0,4.4,1.4,8.4,3.7,11.7
		c-2.8-3.5-4.4-7.9-4.4-12.7c0-11.2,9.1-20.4,20.4-20.4C27.9,2.7,32.3,4.4,35.8,7.2z"/>
	<polygon class="st3" points="24,30.5 24,24.2 29.1,22.7 29.1,28.8 	"/>
	<g>
		<g>
			<path class="st1" d="M24,46.6C11.6,46.6,1.4,36.4,1.4,24S11.6,1.4,24,1.4S46.6,11.6,46.6,24S36.4,46.6,24,46.6z M24,3.4
				C12.7,3.4,3.4,12.7,3.4,24S12.7,44.6,24,44.6c11.3,0,20.6-9.2,20.6-20.6S35.3,3.4,24,3.4z"/>
		</g>
		<g>
			<g>
				<path class="st1" d="M27.7,18.5c-0.1,0-0.2,0-0.3-0.1L24,17.3l-3.3,1.2c-0.4,0.1-0.8,0-1.1-0.3c-0.3-0.3-0.3-0.8-0.1-1.1
					l3.7-6.6c0.4-0.6,1.4-0.6,1.7,0l3.7,6.6c0.2,0.4,0.2,0.8-0.1,1.1C28.2,18.4,28,18.5,27.7,18.5z M24,15.2c0.1,0,0.2,0,0.3,0.1
					l1.2,0.4L24,13l-1.5,2.7l1.2-0.4C23.8,15.3,23.9,15.2,24,15.2z"/>
			</g>
			<path class="st1" d="M24,18.9l-7.1,2.3v9l7.1,2.3l7.1-2.3v-9L24,18.9z M24,21l5.1,1.7v0.8L24,25.1l-5.1-1.7v-0.8L24,21z M24,30.5
				l-5.1-1.7v-3.3l4.8,1.6c0.1,0,0.2,0,0.3,0s0.2,0,0.3,0l4.8-1.6v3.3L24,30.5z"/>
		</g>
		<path class="st1" d="M41.9,23L41.9,23c-0.1-1.7-0.5-3.3-1-4.9l0,0c0.5-0.2,0.8-0.8,0.5-1.3s-0.8-0.8-1.3-0.5l0,0
			c-0.7-1.5-1.7-3-2.8-4.2l0,0c0.4-0.4,0.4-1,0-1.4s-1-0.4-1.4,0l0,0c-1.2-1.1-2.6-2-4.1-2.8l0,0c0.2-0.5,0-1.1-0.5-1.3
			c-0.5-0.2-1.1,0-1.3,0.5l0,0c-1.6-0.6-3.2-0.9-5-1V6.1c0-0.6-0.4-1-1-1s-1,0.4-1,1v0.1c-1.7,0.1-3.3,0.4-4.9,1l0,0
			c-0.2-0.5-0.8-0.8-1.3-0.5c-0.5,0.2-0.8,0.8-0.5,1.3l0,0c-1.5,0.7-3,1.7-4.2,2.8l0,0c-0.4-0.4-1-0.4-1.4,0s-0.4,1,0,1.4l0,0
			c-1.1,1.2-2,2.6-2.8,4.1l0,0c-0.5-0.2-1.1,0-1.3,0.5c-0.2,0.5,0,1.1,0.5,1.3l0,0c-0.6,1.6-0.9,3.2-1,5H6.1c-0.6,0-1,0.4-1,1
			s0.4,1,1,1h0.1c0.1,1.7,0.4,3.3,1,4.9l0,0c-0.5,0.2-0.8,0.8-0.5,1.3c0.2,0.4,0.5,0.6,0.9,0.6c0.1,0,0.3,0,0.4-0.1l0,0
			c0.7,1.5,1.7,3,2.8,4.2l0,0c-0.4,0.4-0.4,1,0,1.4c0.2,0.2,0.5,0.3,0.7,0.3s0.5-0.1,0.7-0.3l0,0c1.2,1.1,2.6,2,4.1,2.8l0,0
			c-0.2,0.5,0,1.1,0.5,1.3c0.1,0.1,0.3,0.1,0.4,0.1c0.4,0,0.8-0.2,0.9-0.6l0,0c1.6,0.6,3.2,0.9,5,1v0.1c0,0.6,0.4,1,1,1s1-0.4,1-1
			v-0.1c1.7-0.1,3.3-0.4,4.9-1l0,0c0.2,0.4,0.5,0.6,0.9,0.6c0.1,0,0.3,0,0.4-0.1c0.5-0.2,0.8-0.8,0.5-1.3l0,0c1.5-0.7,3-1.7,4.2-2.8
			l0,0c0.2,0.2,0.5,0.3,0.7,0.3s0.5-0.1,0.7-0.3c0.4-0.4,0.4-1,0-1.4l0,0c1.1-1.2,2-2.6,2.8-4.1l0,0c0.1,0.1,0.3,0.1,0.4,0.1
			c0.4,0,0.8-0.2,0.9-0.6c0.2-0.5,0-1.1-0.5-1.3l0,0c0.6-1.6,0.9-3.2,1-5h0.1c0.6,0,1-0.4,1-1S42.5,23,41.9,23z M39.1,29.2l-0.2-0.1
			c-0.5-0.2-1.1,0-1.3,0.5s0,1.1,0.5,1.3l0.2,0.1c-0.6,1.3-1.4,2.4-2.3,3.5l-0.2-0.2c-0.4-0.4-1-0.4-1.4,0s-0.4,1,0,1.4l0.2,0.2
			c-1.1,0.9-2.3,1.7-3.6,2.4l-0.1-0.2c-0.2-0.5-0.8-0.8-1.3-0.5c-0.5,0.2-0.8,0.8-0.5,1.3l0.1,0.2c-1.3,0.4-2.7,0.7-4.1,0.8v-3.2
			c0-0.6-0.4-1-1-1s-1,0.4-1,1v3.2c-1.5-0.1-2.9-0.4-4.2-0.8l0.1-0.2c0.2-0.5,0-1.1-0.5-1.3c-0.5-0.2-1.1,0-1.3,0.5L17,38.3
			c-1.3-0.6-2.4-1.4-3.5-2.3l0.2-0.2c0.4-0.4,0.4-1,0-1.4s-1-0.4-1.4,0l-0.2,0.2c-0.9-1.1-1.7-2.3-2.4-3.6l0.2-0.1
			c0.5-0.2,0.8-0.8,0.5-1.3c-0.2-0.5-0.8-0.8-1.3-0.5l-0.2,0.1c-0.4-1.3-0.7-2.7-0.8-4.1h3.2c0.6,0,1-0.4,1-1s-0.4-1-1-1H8.1
			c0.1-1.5,0.4-2.9,0.8-4.2l0.2,0.1C9.3,18.9,9.4,19,9.5,19c0.4,0,0.8-0.2,0.9-0.6c0.2-0.5,0-1.1-0.5-1.3L9.7,17
			c0.6-1.3,1.4-2.4,2.3-3.5l0.2,0.2c0.2,0.2,0.5,0.3,0.7,0.3s0.5-0.1,0.7-0.3c0.4-0.4,0.4-1,0-1.4l-0.2-0.2c1.1-0.9,2.3-1.7,3.6-2.4
			l0.1,0.2c0.2,0.4,0.5,0.6,0.9,0.6c0.1,0,0.3,0,0.4-0.1c0.5-0.2,0.8-0.8,0.5-1.3l-0.1-0.2c1.3-0.4,2.7-0.7,4.1-0.8v0.2
			c0,0.6,0.4,1,1,1s1-0.4,1-1V8.1c1.5,0.1,2.9,0.4,4.2,0.8l-0.1,0.2c-0.2,0.5,0,1.1,0.5,1.3c0.1,0.1,0.3,0.1,0.4,0.1
			c0.4,0,0.8-0.2,0.9-0.6L31,9.7c1.3,0.6,2.4,1.4,3.5,2.3l-0.2,0.2c-0.4,0.4-0.4,1,0,1.4c0.2,0.2,0.5,0.3,0.7,0.3s0.5-0.1,0.7-0.3
			l0.2-0.2c0.9,1.1,1.7,2.3,2.4,3.6l-0.2,0.1c-0.5,0.2-0.8,0.8-0.5,1.3c0.2,0.4,0.5,0.6,0.9,0.6c0.1,0,0.3,0,0.4-0.1l0.2-0.1
			c0.4,1.3,0.7,2.7,0.8,4.1h-3.2c-0.6,0-1,0.4-1,1s0.4,1,1,1h3.2C39.8,26.5,39.5,27.9,39.1,29.2z"/>
	</g>
</g>
</svg>
