<?xml version="1.0" encoding="utf-8"?>
<!-- Generator: Adobe Illustrator 25.1.0, SVG Export Plug-In . SVG Version: 6.00 Build 0)  -->
<svg version="1.1" id="icon" xmlns="http://www.w3.org/2000/svg" xmlns:xlink="http://www.w3.org/1999/xlink" x="0px" y="0px"
	 viewBox="0 0 48 48" style="enable-background:new 0 0 48 48;" xml:space="preserve">
<style type="text/css">
	.st0{fill:#FFFFFF;}
	.st1{fill:#2B72FF;}
	.st2{fill:#2ED9D6;}
	.st3{fill:#BDD6FF;}
</style>
<g>
	<path class="st3" d="M33.8,11.8h-4c-0.8,0-1.4,0.6-1.4,1.4c0.1,2-0.2,5.6-2.8,8.6c-3.4,3.8-2.2,4.1-2.2,4.1s-0.2,2.5,1.2,5
		c1.4,2.6,2,8.1,0.5,10.1H24c0,0,0.4,1.6,0.3,2.6H12.9l-0.7-0.8c0,0-2.4,0.6-2.1,2.2c0.3,1.6,26.1,0.8,26.1,0.8s1.8-1.8,1.3-2.9
		c-0.5-1.1-2.1-2.7-2.1-2.7s0.5-3.3-1.5-6.6c-2-3.3-6.4-7.3-6.6-8.7c-0.2-1.4,1.4-3.5,2.9-4.4c2.6-1.7,4.2-7.5,4.2-7.5L33.8,11.8z"
		/>
	<path class="st3" d="M9.9,6.1h24.6c0,0,0.1-1.5-1.8-2.2c-1.8-0.8,3.8-1.1,4.5,1.1s0,3.8,0,3.8H10.5L9.6,7.7L9.9,6.1z"/>
	<g>
		<path class="st1" d="M22.7,23.3c-0.5,0.2-0.9,0.7-1,1.3c-0.1,1-0.6,1.9-1.4,2.5c-1.6,1.4-3.7,3.6-5.2,6.4c-1.4,2.5-1.3,5.3-1,7.1
			c0.1,0.5,0.5,0.8,1,0.8h16.8c0.5,0,0.9-0.4,1-0.8c0.3-1.9,0.4-4.6-1-7.1c-1.5-2.7-3.7-5-5.2-6.4c-0.7-0.7-1.2-1.6-1.4-2.5
			c-0.1-0.6-0.5-1.1-1-1.3c-0.2-0.1-0.5-0.2-0.8-0.2C23.2,23.1,22.9,23.2,22.7,23.3z M25.3,28.7c1.4,1.3,3.4,3.3,4.8,5.8
			c0.9,1.7,1,3.5,0.9,5h-15c-0.1-1.5-0.1-3.3,0.9-5c1.4-2.5,3.4-4.5,4.8-5.8c0.9-0.8,1.5-1.8,1.8-2.9C23.8,26.9,24.4,27.9,25.3,28.7
			z"/>
		<path class="st1" d="M20.5,30.7c-0.2,0.3-0.5,0.5-0.7,0.8c-0.4,0.4-0.3,1.1,0.1,1.4c0.2,0.2,0.4,0.2,0.6,0.2
			c0.3,0,0.6-0.1,0.8-0.4c0.2-0.2,0.4-0.5,0.6-0.7c0.4-0.4,0.3-1-0.1-1.4S20.9,30.3,20.5,30.7z"/>
		<path class="st1" d="M19.3,33.9c-0.5-0.3-1.1-0.1-1.4,0.3c-0.6,1-1,2.2-1.1,3.5c-0.1,0.5,0.3,1,0.9,1.1c0,0,0.1,0,0.1,0
			c0.5,0,0.9-0.4,1-0.9c0.1-1,0.4-1.9,0.8-2.7C19.9,34.8,19.8,34.2,19.3,33.9z"/>
		<g>
			<path class="st1" d="M35.9,39.7c0.2-2.1,0-5-1.5-7.6c-1.7-3.1-4.1-5.6-5.9-7.2c-0.3-0.3-0.4-0.6-0.4-0.9c0-0.3,0.2-0.7,0.4-0.9
				c1.7-1.5,4.1-4,5.9-7.2c0.8-1.4,1.2-2.8,1.4-4.2h-2c0,0,0,0,0,0.1c0,0,0,0.1,0,0.1c-0.1,0.7-0.3,1.3-0.6,2c0,0,0,0.1-0.1,0.1
				c-0.1,0.3-0.3,0.7-0.5,1c-0.6,1.1-1.3,2-1.9,2.9c0,0,0,0,0,0c-0.1,0.1-0.2,0.2-0.3,0.3c-1.1,1.4-2.3,2.5-3.2,3.3
				c-0.6,0.6-1,1.3-1.1,2.2c0,0.1,0,0.2,0,0.3c0,0.1,0,0.2,0,0.4c0.1,0.7,0.4,1.4,1,1.9c0,0,0.1,0.1,0.1,0.1c1,0.9,2.3,2.1,3.4,3.6
				c0.6,0.8,1.2,1.6,1.7,2.5c0.1,0.2,0.2,0.3,0.3,0.5c0.2,0.3,0.3,0.7,0.5,1c0.1,0.1,0.1,0.3,0.1,0.4c0.1,0.2,0.2,0.4,0.2,0.6
				c0.1,0.2,0.1,0.4,0.1,0.5c0,0.2,0.1,0.3,0.1,0.5c0,0.2,0.1,0.4,0.1,0.5c0,0.2,0,0.3,0.1,0.5c0,0.2,0,0.3,0,0.5c0,0.2,0,0.3,0,0.5
				c0,0.1,0,0.2,0,0.4c0,0.2,0,0.4,0,0.6c0,0.1,0,0.1,0,0.2c0,0.4-0.1,0.8-0.1,1.1c0,0,0,0,0,0c0,0,0,0,0,0c0,0.2-0.1,1-0.5,1.4
				c-0.4,0.4-0.4,1,0,1.4c0.2,0.2,0.5,0.3,0.7,0.3c0.2,0,0.5-0.1,0.7-0.3c0.5-0.4,0.7-1,0.9-1.5c0.7,0.4,1.2,1.2,1.2,2.1
				c0,0.4-0.2,0.6-0.5,0.6H10.6c-0.3,0-0.5-0.3-0.5-0.6c0-0.6,0.2-1.2,0.7-1.7c0.2-0.2,0.3-0.3,0.5-0.4c0.2,0.5,0.4,1.1,0.9,1.5
				c0.2,0.2,0.4,0.3,0.7,0.3c0.3,0,0.5-0.1,0.7-0.3c0.4-0.4,0.4-1,0-1.4c-0.4-0.4-0.5-1.1-0.5-1.4c0,0,0,0,0,0c0,0,0,0,0,0
				c0-0.4-0.1-0.8-0.1-1.2c0,0,0-0.1,0-0.1c0-0.2,0-0.5,0-0.7c0-0.1,0-0.2,0-0.3c0-0.2,0-0.4,0-0.6c0-0.1,0-0.3,0-0.4
				c0-0.2,0-0.4,0.1-0.6c0-0.1,0-0.3,0.1-0.4c0-0.2,0.1-0.4,0.1-0.6c0-0.1,0.1-0.2,0.1-0.4c0.1-0.3,0.2-0.6,0.3-0.9
				c0-0.1,0-0.1,0.1-0.2c0.1-0.3,0.3-0.7,0.5-1c1.6-2.9,3.8-5.2,5.4-6.6c0.2-0.2,0.3-0.3,0.5-0.5c0.3-0.3,0.4-0.7,0.5-1.1
				c0.1-0.3,0.1-0.5,0.1-0.8c0-0.2,0-0.5-0.1-0.7c-0.1-0.7-0.5-1.3-1-1.7c-0.4-0.4-0.9-0.8-1.4-1.3c-1.4-1.4-2.9-3.2-4.1-5.3
				c-0.2-0.3-0.3-0.7-0.5-1c0,0,0-0.1,0-0.1c-0.3-0.7-0.4-1.3-0.6-2c0-0.1,0-0.1,0-0.2c0,0,0,0,0,0h-2c0.2,1.4,0.6,2.8,1.4,4.2
				c1.7,3.1,4.1,5.6,5.9,7.2c0.3,0.3,0.4,0.6,0.4,0.9c0,0.3-0.2,0.7-0.4,0.9c-1.7,1.5-4.1,4-5.9,7.2c-1.5,2.7-1.6,5.5-1.5,7.6
				c-0.6,0.2-1.2,0.6-1.6,1.1c-0.8,0.8-1.2,1.9-1.2,3.1c0,1.5,1.1,2.6,2.5,2.6h25.6c1.4,0,2.5-1.2,2.5-2.6
				C38.8,42,37.6,40.3,35.9,39.7z"/>
			<path class="st1" d="M10.6,9.7h25.6c1.4,0,2.5-1.2,2.5-2.6c0-2.4-1.9-4.4-4.2-4.4h-6.9c-0.4-0.4-0.9-0.7-1.4-1
				c-0.1,0-0.1-0.1-0.2-0.1C25.3,1.2,24.4,1,23.4,1c-0.9,0-1.8,0.2-2.7,0.6c-0.1,0-0.2,0.1-0.2,0.1c-0.5,0.3-1,0.6-1.4,1h-6.9
				c-2.3,0-4.2,2-4.2,4.4C8.1,8.5,9.2,9.7,10.6,9.7z M26.6,4.4l0.3,0.3h7.8c1.2,0,2.2,1.1,2.2,2.4c0,0.3-0.2,0.6-0.5,0.6H10.6
				c-0.3,0-0.5-0.3-0.5-0.6c0-1.3,1-2.4,2.2-2.4h6.3c0.1,0.3,0.2,0.6,0.4,0.9c0.5,0.7,1.2,1.1,2,1.1h1.2c0.6,0,1-0.4,1-1s-0.4-1-1-1
				H21c-0.1,0-0.1,0-0.1,0c-0.1,0-0.2-0.1-0.3-0.2c0,0,0,0,0-0.1c0-0.1,0-0.1,0-0.2c0.8-0.8,1.8-1.3,3-1.3C24.6,3,25.7,3.5,26.6,4.4
				z"/>
		</g>
	</g>
</g>
</svg>
