<svg id="icon" xmlns="http://www.w3.org/2000/svg" viewBox="0 0 48 48"><defs><style>.cls-1{fill:#bdd6ff;}.cls-2{fill:#2b72ff;}</style></defs><title>Kopyah (Turki)</title><polygon class="cls-1" points="45 41 38 7 34 6 39 43 45 41"/><path class="cls-2" d="M46,40.83l-6-34A1,1,0,0,0,39.27,6a60.58,60.58,0,0,0-9.16-1.69,6.65,6.65,0,0,0-4-1.35H23a1,1,0,0,0-1,1s0,0,0,0A62.18,62.18,0,0,0,8.73,6,1,1,0,0,0,8,6.83l-6,34a1,1,0,0,0,.54,1.07C2.81,42,8.94,45,24,45c16.09,0,21.3-3,21.51-3.14A1,1,0,0,0,46,40.83ZM32,29c.54,0,1,.61,1,1.33a9.59,9.59,0,0,1-1,3.49,9.59,9.59,0,0,1-1-3.49C31,29.61,31.46,29,32,29Zm0-6a1,1,0,1,1,1-1A1,1,0,0,1,32,23ZM24,43C12.22,43,6.05,41.11,4.12,40.38L9.87,7.8A61.31,61.31,0,0,1,24,6a53.23,53.23,0,0,1,5.33.28A5.31,5.31,0,0,1,31,10v9.18a3,3,0,0,0,0,5.63V27.2a3.32,3.32,0,0,0-2,3.13c0,2.58,2.05,6,2.14,6.18a1,1,0,0,0,1.71,0c.09-.15,2.14-3.6,2.14-6.18a3.32,3.32,0,0,0-2-3.13V24.82a3,3,0,0,0,0-5.63V10a7.53,7.53,0,0,0-.91-3.34c2.83.41,5,.93,6,1.18l5.76,32.62C42.14,41.14,36.46,43,24,43Z"/></svg>