<svg id="icon" xmlns="http://www.w3.org/2000/svg" viewBox="0 0 48 48"><defs><style>.cls-1{fill:#2ed9d6;}.cls-2{fill:#2b72ff;}</style></defs><title>Kabah</title><path class="cls-1" d="M44,18a1,1,0,0,1-.29,0L24,12,4.29,18A1,1,0,1,1,3.71,16l20-6a1,1,0,0,1,.57,0l20,6A1,1,0,0,1,44,18Z"/><path class="cls-1" d="M44,24a1,1,0,0,1-.24,0L24,19,4.24,24A1,1,0,0,1,3.76,22l20-5a1,1,0,0,1,.48,0l20,5A1,1,0,0,1,44,24Z"/><path class="cls-1" d="M7,37H4a1,1,0,0,1,0-2H7a1,1,0,0,1,0,2Z"/><path class="cls-1" d="M23,37H20a1,1,0,0,1,0-2h3a1,1,0,0,1,0,2Z"/><path class="cls-1" d="M15,37H12a1,1,0,0,1,0-2h3a1,1,0,0,1,0,2Z"/><path class="cls-1" d="M11,40H8a1,1,0,0,1,0-2h3a1,1,0,0,1,0,2Z"/><path class="cls-1" d="M19,40H16a1,1,0,0,1,0-2h3a1,1,0,0,1,0,2Z"/><path class="cls-1" d="M44,37H41a1,1,0,0,1,0-2h3a1,1,0,0,1,0,2Z"/><path class="cls-1" d="M28,37H25a1,1,0,0,1,0-2h3a1,1,0,0,1,0,2Z"/><path class="cls-1" d="M36,37H33a1,1,0,0,1,0-2h3a1,1,0,0,1,0,2Z"/><path class="cls-1" d="M40,40H37a1,1,0,0,1,0-2h3a1,1,0,0,1,0,2Z"/><path class="cls-1" d="M32,40H29a1,1,0,0,1,0-2h3a1,1,0,0,1,0,2Z"/><path class="cls-2" d="M46,41H45V11a1,1,0,0,0-.71-1l-20-6A1,1,0,0,0,24,4h0a1,1,0,0,0-.28,0l-20,6A1,1,0,0,0,3,11V41H2a1,1,0,0,0,0,2H46a1,1,0,0,0,0-2ZM25,31a7.05,7.05,0,0,1,3.49,1.36A8.78,8.78,0,0,0,33,34a5.75,5.75,0,0,0,3.55-1.17A3.78,3.78,0,0,1,39,32c2,0,3.51,1.71,4,2.33V41H25Zm18,.52A6.48,6.48,0,0,0,39,30a5.75,5.75,0,0,0-3.55,1.17A3.78,3.78,0,0,1,33,32a7.05,7.05,0,0,1-3.49-1.36A8.78,8.78,0,0,0,25,29V6.34l18,5.4ZM23,6.34V29a8.78,8.78,0,0,0-4.51,1.64A7.05,7.05,0,0,1,15,32a3.78,3.78,0,0,1-2.45-.83A5.75,5.75,0,0,0,9,30a6.48,6.48,0,0,0-4,1.52V11.74Zm-18,28C5.49,33.71,7,32,9,32a3.78,3.78,0,0,1,2.45.83A5.75,5.75,0,0,0,15,34a8.78,8.78,0,0,0,4.51-1.64A7.05,7.05,0,0,1,23,31V41H5Z"/></svg>