<svg id="icon" xmlns="http://www.w3.org/2000/svg" viewBox="0 0 48 48"><defs><style>.cls-1{fill:#2ed9d6;}.cls-2{fill:#2b72ff;}</style></defs><title>Mosque (Small)</title><path class="cls-1" d="M29,47a1,1,0,0,1-1-1V37.33C28,35.5,26.21,34,24,34s-4,1.5-4,3.33V46a1,1,0,0,1-2,0V37.33C18,34.39,20.69,32,24,32s6,2.39,6,5.33V46A1,1,0,0,1,29,47Z"/><path class="cls-2" d="M42,45H41V27a1,1,0,0,0-1-1H8a1,1,0,0,0-1,1V45H6a1,1,0,0,0,0,2H42a1,1,0,0,0,0-2ZM9,45V28H39V45Z"/><path class="cls-2" d="M28.7,9.65C27.23,9.13,25.21,8.4,25,8V7h1a1,1,0,0,0,0-2H24a1,1,0,0,1,0-2h2a1,1,0,0,0,0-2H24a3,3,0,0,0-1,5.82V8c-.27.46-2.25,1.17-3.7,1.69C14.4,11.41,7,14.07,7,22a1,1,0,0,0,2,0c0-6.52,6.35-8.8,11-10.47a16.84,16.84,0,0,0,4-1.79,16.84,16.84,0,0,0,4,1.79C32.65,13.2,39,15.48,39,22a1,1,0,0,0,2,0C41,14.07,33.6,11.41,28.7,9.65Z"/><path class="cls-1" d="M39.5,28H8.5a3.5,3.5,0,0,1,0-7h31a3.5,3.5,0,0,1,0,7Zm-31-5a1.5,1.5,0,0,0,0,3h31a1.5,1.5,0,0,0,0-3Z"/></svg>