<svg id="icon" xmlns="http://www.w3.org/2000/svg" viewBox="0 0 48 48"><defs><style>.cls-1{fill:#2ed9d6;}.cls-2{fill:#2b72ff;}</style></defs><title>Mosque (Big)</title><path class="cls-1" d="M28,46a1,1,0,0,1-1-1V37a3,3,0,0,0-6,0v8a1,1,0,0,1-2,0V37a5,5,0,0,1,10,0v8A1,1,0,0,1,28,46Z"/><path class="cls-1" d="M36,28H12a1,1,0,0,1,0-2H36a1,1,0,0,1,0,2Z"/><path class="cls-1" d="M35,24H13a1,1,0,0,1,0-2H35a1,1,0,0,1,0,2Z"/><path class="cls-2" d="M46,23c0-3.47-4.92-6.52-5.49-6.86a1,1,0,0,0-1,0,18.51,18.51,0,0,0-2.69,2c-1-4.31-5.24-6.42-8.48-8C27,9.5,25,8.52,25,8V7h1a1,1,0,0,0,0-2H24a1,1,0,0,1,0-2h2a1,1,0,0,0,0-2H24a3,3,0,0,0-1,5.82V8c0,.52-2,1.5-3.32,2.15-3.23,1.59-7.51,3.7-8.48,8a18.51,18.51,0,0,0-2.69-2,1,1,0,0,0-1,0C6.92,16.48,2,19.53,2,23a5.94,5.94,0,0,0,1.09,3.6A1,1,0,0,0,3,27V45a1,1,0,0,0,1,1H44a1,1,0,0,0,1-1V27a1,1,0,0,0-.09-.4A5.94,5.94,0,0,0,46,23Zm-6-4.81c1.42,1,4,3.07,4,4.81a3.6,3.6,0,0,1-1.23,3H37.23A3.61,3.61,0,0,1,36,23C36,21.26,38.58,19.15,40,18.19ZM20.56,11.94a16.46,16.46,0,0,0,3.44-2,16.46,16.46,0,0,0,3.44,2C30.81,13.6,35,15.66,35,20a.94.94,0,0,0,0,.14A5.15,5.15,0,0,0,34,23a5.94,5.94,0,0,0,1.09,3.6A1,1,0,0,0,35,27V44H13V27a1,1,0,0,0-.09-.4A5.94,5.94,0,0,0,14,23a5.15,5.15,0,0,0-1-2.86A.94.94,0,0,0,13,20C13,15.66,17.19,13.6,20.56,11.94ZM8,18.19c1.42,1,4,3.07,4,4.81a3.6,3.6,0,0,1-1.23,3H5.23A3.61,3.61,0,0,1,4,23C4,21.26,6.58,19.15,8,18.19ZM5,28h6V44H5ZM43,44H37V28h6Z"/></svg>