<svg id="icon" xmlns="http://www.w3.org/2000/svg" viewBox="0 0 48 48"><defs><style>.cls-1{fill:#2ed9d6;}.cls-2{fill:#2b72ff;}</style></defs><title>Mosque Kubah</title><path class="cls-1" d="M24,28a4.14,4.14,0,0,1-2.67-.95l-.7-.59a2.25,2.25,0,0,0-2.76,0l-.7.59a4.24,4.24,0,0,1-5.34,0l-.7-.59a2.28,2.28,0,0,0-2.63-.1,1,1,0,1,1-1.14-1.64,4.28,4.28,0,0,1,5.06.21l.7.59a2.25,2.25,0,0,0,2.76,0l.7-.59a4.24,4.24,0,0,1,5.34,0l.7.59a2.25,2.25,0,0,0,2.76,0l.7-.59a4.24,4.24,0,0,1,5.34,0l.7.59a2.25,2.25,0,0,0,2.76,0l.7-.59a4.24,4.24,0,0,1,5.34,0,1,1,0,0,1-1.29,1.53,2.25,2.25,0,0,0-2.76,0l-.7.59a4.24,4.24,0,0,1-5.34,0l-.7-.59a2.25,2.25,0,0,0-2.76,0l-.7.59A4.14,4.14,0,0,1,24,28Z"/><path class="cls-1" d="M32,21a3.39,3.39,0,0,1-2.41-1L29,19.41a1.41,1.41,0,0,0-2,0l-.59.59a3.42,3.42,0,0,1-4.83,0L21,19.41a1.41,1.41,0,0,0-2,0l-.59.59a3.42,3.42,0,0,1-4.83,0L13,19.41A1.43,1.43,0,0,0,11.87,19a1,1,0,1,1-.19-2,3.4,3.4,0,0,1,2.73,1l.59.59a1.42,1.42,0,0,0,2,0l.59-.59a3.42,3.42,0,0,1,4.83,0l.59.59a1.42,1.42,0,0,0,2,0l.59-.59a3.42,3.42,0,0,1,4.83,0l.59.59a1.42,1.42,0,0,0,2,0l.59-.59a3.4,3.4,0,0,1,2.24-1,1,1,0,1,1,.1,2,1.41,1.41,0,0,0-.93.41l-.59.59A3.39,3.39,0,0,1,32,21Z"/><path class="cls-2" d="M45.85,35.47A1,1,0,0,0,45,35H42l1.91-3.52A1,1,0,0,0,43,30H42A19.19,19.19,0,0,0,29,11.79V11a5,5,0,0,0-4-4.9V3a1,1,0,0,0-2,0V6.1A5,5,0,0,0,19,11v.79A19.19,19.19,0,0,0,6,30H5a1,1,0,0,0-.88,1.48L6,35H3a1,1,0,0,0-.89,1.45L5,42.24V46a1,1,0,0,0,2,0V43H41v3a1,1,0,0,0,2,0V42.24l2.89-5.79A1,1,0,0,0,45.85,35.47ZM21,11a3,3,0,0,1,6,0v.3a15.23,15.23,0,0,0-6,0Zm3,2c8.52,0,16,7.94,16,17H8C8,20.94,15.48,13,24,13ZM6.68,32H41.32l-1.63,3H8.31Zm34.7,9H6.62l-2-4H43.38Z"/></svg>