<svg id="icon" xmlns="http://www.w3.org/2000/svg" viewBox="0 0 48 48"><defs><style>.cls-1{fill:#2b72ff;}.cls-2{fill:#2ed9d6;}</style></defs><title>Mosque Tower</title><path class="cls-1" d="M39,47a1,1,0,0,1-1-1V37a1,1,0,0,1,2,0v9A1,1,0,0,1,39,47Z"/><path class="cls-1" d="M9,47a1,1,0,0,1-1-1V37a1,1,0,0,1,2,0v9A1,1,0,0,1,9,47Z"/><path class="cls-1" d="M28,8.81A1,1,0,0,0,27,8H25V7h1a1,1,0,0,0,0-2H24.13C22,5,22,3.91,22,3.5,22,2.19,23.33,2,24.13,2h1.81a1,1,0,0,0,0-2H24.13C21.28,0,20,1.76,20,3.5a3.34,3.34,0,0,0,3,3.4V8H21a1,1,0,0,0-1,.81c-6,2.08-14,8-14,15.53,0,6.23,3.32,8.42,3.46,8.51a1,1,0,0,0,1.37-.3,1,1,0,0,0-.28-1.38C10.44,31.09,8,29.39,8,24.33,8,16.36,19.49,10,24,10s16,6.36,16,14.33c0,5-2.43,6.75-2.55,6.83a1,1,0,0,0,1.08,1.68c.14-.09,3.46-2.28,3.46-8.51C42,16.8,33.94,10.88,28,8.81Z"/><path class="cls-2" d="M38.5,38H9.5a3.5,3.5,0,0,1,0-7h29a3.5,3.5,0,0,1,0,7Zm-29-5a1.5,1.5,0,0,0,0,3h29a1.5,1.5,0,0,0,0-3Z"/><path class="cls-2" d="M35,47a1,1,0,0,1-1-1v-.55A15.82,15.82,0,0,0,24,42a15.81,15.81,0,0,0-10,3.45V46a1,1,0,0,1-2,0V45a1,1,0,0,1,.29-.71A17.23,17.23,0,0,1,24,40a17.23,17.23,0,0,1,11.71,4.29A1,1,0,0,1,36,45v1A1,1,0,0,1,35,47Z"/></svg>