<svg id="icon" xmlns="http://www.w3.org/2000/svg" viewBox="0 0 48 48"><defs><style>.cls-1{fill:#2b72ff;}.cls-2{fill:#2ed9d6;}</style></defs><title>Bedug</title><path class="cls-1" d="M34.78,34l.21-.27c2.39-.16,4.11-.36,5.2-.51C39.73,32.3,39,31,38.11,29.53c-.35-.57-.72-1.19-1.14-1.83-.7-1.11-1.49-2.31-2.37-3.57A144.55,144.55,0,0,1,22.19,34H25c2.8,0,5.23-.06,7.3-.16h0l-6.29,8.39L20.82,34H18.38l-7.17,9.39a1,1,0,0,0,.18,1.4,1,1,0,0,0,1.4-.18l6.78-8.86,5.57,8.75h0l0,.06.07.06a1,1,0,0,0,.15.17l.11.06.07,0a.89.89,0,0,0,.8,0l.08,0,.1,0a1,1,0,0,0,.14-.15s.06,0,.09-.07l6.71-8.94,5.67,8.91A1,1,0,0,0,40,45a1,1,0,0,0,.82-1.57Z"/><path class="cls-1" d="M33.35,22.38A81.81,81.81,0,0,0,24,12a19.13,19.13,0,0,1,2.09,9A17.6,17.6,0,0,1,23,31C25.81,28.9,30,25.37,33.35,22.38Z"/><path class="cls-1" d="M43.77,14s0,.06,0,.09a49.9,49.9,0,0,1-7.53,8.59,91.27,91.27,0,0,1,6.07,9.91C44.5,31.12,46,27,46,22.12,46,18.57,45.19,15.73,43.77,14Z"/><path class="cls-1" d="M35,21a47,47,0,0,0,7-8.11.8.8,0,0,1,.2-.21,4.57,4.57,0,0,0-.71-.33l-.15-.06A154.06,154.06,0,0,0,22,8,75.56,75.56,0,0,1,35,21Z"/><path class="cls-2" d="M16.22,11.1C14.68,8.61,12.59,7,10.4,7,6,7,2,13.44,2,20.5S6,34,10.4,34s8.36-6.43,8.36-13.5A18.3,18.3,0,0,0,16.22,11.1Z"/><path class="cls-2" d="M18.92,7.62A35.58,35.58,0,0,0,15,7c3,2,6,8,6,14a17.65,17.65,0,0,1-6,13h3.34C20,32.34,24,27.61,24,21,24,12,19,7.77,18.92,7.62Z"/></svg>