<svg id="icon" xmlns="http://www.w3.org/2000/svg" viewBox="0 0 48 48"><defs><style>.cls-1{fill:#2ed9d6;}.cls-2{fill:#2b72ff;}</style></defs><title>Panah</title><path class="cls-1" d="M34,15a1,1,0,0,1-.71-1.71L36.59,10,35.29,8.71a1,1,0,0,1,.31-1.63l7-3a1,1,0,0,1,1.31,1.31l-3,7a1,1,0,0,1-1.63.31L38,11.41l-3.29,3.29A1,1,0,0,1,34,15Z"/><path class="cls-2" d="M39,43a2.34,2.34,0,0,1-.86-.11A37,37,0,0,0,41,29a22.9,22.9,0,0,0-6.29-15.71A22.9,22.9,0,0,0,19,7,37,37,0,0,0,5.11,9.86,2.34,2.34,0,0,1,5,9,1,1,0,0,0,3,9a3.34,3.34,0,0,0,2,3.38L35.62,43A3.34,3.34,0,0,0,39,45a1,1,0,0,0,0-2ZM8.41,13H9c6.27,0,10.42,0,14.66,2A19.3,19.3,0,0,1,33,24.34c2,4.24,2,8.38,2,14.66q0,.3,0,.59Z"/><path class="cls-1" d="M29.85,19.53a1.1,1.1,0,0,1-.14.18L16,33.42V38a1,1,0,0,1-.29.71l-3,3A1,1,0,0,1,12,42a.84.84,0,0,1-.27,0,1,1,0,0,1-.7-.72l0-2.83-.29.29A1,1,0,0,1,10,39a1,1,0,0,1-.7-1.71L9.61,37H6.76a1,1,0,0,1-.72-.7,1,1,0,0,1,.25-1l3-3A1,1,0,0,1,10,32h4.58l5-5L21,25.58l7.29-7.29a1.1,1.1,0,0,1,.18-.14,1,1,0,0,1,1.38,1.38Z"/><path class="cls-2" d="M30.32,17.68a1.21,1.21,0,0,0-1.85.47q.72.66,1.38,1.38A1.24,1.24,0,0,0,30.32,17.68Z"/></svg>