<svg id="icon" xmlns="http://www.w3.org/2000/svg" viewBox="0 0 48 48"><defs><style>.cls-1{fill:#2ed9d6;}.cls-2{fill:#2b72ff;}</style></defs><title>Padang Pasir</title><path class="cls-1" d="M34,9a6,6,0,1,0,6,6A6,6,0,0,0,34,9Z"/><path class="cls-2" d="M20.56,33.91C16.3,32.71,15.1,25.5,15,23.13,11.46,27.71,4.25,36.13,1,40H26.52C25.36,38,23.14,34.63,20.56,33.91Z"/><path class="cls-2" d="M23.6,28.4c-2.17-2.3-4.22-4.47-5.62-5.84A1.34,1.34,0,0,0,17,22c0,2.56,1.26,8.94,4,9.72,3.92,1.1,7,6.45,8,8.28h6C32.47,37.83,28.92,34,23.6,28.4Z"/><path class="cls-2" d="M32.75,27.28a1.57,1.57,0,0,0-2.34.06c-1,1.12-2.09,2.24-2.43,2.59,4.29,4.5,9.72,9.91,11,10.07h8C41.94,35.93,33.2,27.74,32.75,27.28Z"/></svg>