<svg id="icon" xmlns="http://www.w3.org/2000/svg" viewBox="0 0 48 48"><defs><style>.cls-1{fill:#2b72ff;}.cls-2{fill:#2ed9d6;}</style></defs><title>Islamic Lantern</title><path class="cls-1" d="M36,35.09V15h-.5a1.5,1.5,0,0,0,0-3h-23a1.5,1.5,0,0,0,0,3H12V35.09A1.5,1.5,0,0,0,12.5,38h23a1.5,1.5,0,0,0,.5-2.91ZM17,35H15V15h2Zm12,0H27V24c0-1.58-2-2-3-2s-3,.42-3,2V35H19V24c0-2.63,2.52-4,5-4s5,1.37,5,4Zm4,0H31V15h2Z"/><path class="cls-2" d="M20,45h-.06l.07.1A2,2,0,0,0,22,47h3a2,2,0,0,0,2-1.9l.07-.1H20Z"/><path class="cls-2" d="M29,6A5,5,0,0,0,19,6a6.87,6.87,0,0,0-3.85,4H32.84A6.87,6.87,0,0,0,29,6ZM24,5a13.65,13.65,0,0,0-2.91.3,3,3,0,0,1,5.82,0A13.65,13.65,0,0,0,24,5Z"/><path class="cls-2" d="M31.5,40h-15a1.5,1.5,0,0,0,0,3h15a1.5,1.5,0,0,0,0-3Z"/></svg>