<svg id="icon" xmlns="http://www.w3.org/2000/svg" viewBox="0 0 48 48"><defs><style>.cls-1{fill:#2b72ff;}.cls-2{fill:#2ed9d6;}</style></defs><title>Ketupat</title><polygon class="cls-1" points="17.46 23.57 23 28.8 28.73 23.39 23.36 18.31 17.46 23.57"/><polygon class="cls-1" points="15.87 22.07 21.76 16.8 16.32 11.65 15.77 11.14 10.04 16.55 10.61 17.1 15.87 22.07"/><polygon class="cls-1" points="35.39 17.1 35.96 16.55 30.79 11.66 30.22 12.17 24.99 16.84 30.33 21.89 35.39 17.1"/><path class="cls-1" d="M23.39,15.34,29,10h3a4,4,0,0,0,0-8H30.43A10.88,10.88,0,0,0,24,4L17.41,9.64l.52.49ZM30.43,4H32a2,2,0,0,1,0,4H26.89L26,7.19a4.29,4.29,0,0,0-1.47-.9l.78-.58A8.56,8.56,0,0,1,30.43,4Z"/><path class="cls-1" d="M9,18.61l-.58-.54L6.26,20.12a3.92,3.92,0,0,0,0,5.76l2.59,2.45.59-.53,4.79-4.26Z"/><polygon class="cls-1" points="30.33 24.89 24.6 30.3 29.28 34.73 29.82 35.24 35.56 29.83 34.99 29.28 30.33 24.89"/><path class="cls-1" d="M39.74,20.12l-2.18-2.06-.58.54-5.06,4.78,4.65,4.4.58.54,2.59-2.45a3.92,3.92,0,0,0,0-5.76Z"/><path class="cls-2" d="M27.32,40.21A6,6,0,0,1,24,41.91V46a10.07,10.07,0,0,1,3-1,10.07,10.07,0,0,1,3,1V37.53Z"/><path class="cls-2" d="M16,37.53V46a10.07,10.07,0,0,1,3-1,10.07,10.07,0,0,1,3,1V41.91a6,6,0,0,1-3.32-1.7Z"/><polygon class="cls-1" points="16.72 34.73 21.41 30.3 15.82 25.03 11.04 29.31 10.45 29.84 16.18 35.24 16.72 34.73"/><path class="cls-1" d="M28.23,36.75l-.54-.51L23,31.81l-4.69,4.43-.54.51L20,38.81a4.51,4.51,0,0,0,6.1,0Z"/></svg>