<svg id="icon" xmlns="http://www.w3.org/2000/svg" viewBox="0 0 48 48"><defs><style>.cls-1{fill:#2b72ff;}.cls-2{fill:#2ed9d6;}</style></defs><title>Kiitab</title><path class="cls-1" d="M42.33,2H11V27a1,1,0,0,1-2,0V3A4.66,4.66,0,0,0,6,7.5V38a5.51,5.51,0,0,1,2.56-1l.73-.74A1,1,0,0,1,10,36H43V2.67A.67.67,0,0,0,42.33,2ZM37,27a1,1,0,0,1-1,1H32.92c-.28,1.89-1.57,5-6.92,5s-6.64-3.11-6.92-5H16a1,1,0,0,1-1-1V11a1,1,0,0,1,1-1h3.12A6.8,6.8,0,0,1,26,5a6.8,6.8,0,0,1,6.88,5H36a1,1,0,0,1,1,1Z"/><path class="cls-1" d="M38,38H10.41l-.7.71A1,1,0,0,1,9,39c-.38,0-2.86.53-3,2.81,0,0,0,0,0,0a4.48,4.48,0,0,0,.43,1.7A3.71,3.71,0,0,0,9,45a1,1,0,0,1,.71.29l.7.71H38c-1-1.07-2-2-2-4S37,39.07,38,38Z"/><path class="cls-1" d="M42,38a4.22,4.22,0,0,0-4,4,4.22,4.22,0,0,0,4,4h0a1,1,0,0,0,1-1V38H42Z"/><path class="cls-2" d="M31,11c0-1.37-1.51-4-5-4s-5,2.67-5,4a1,1,0,0,1-1,1H17V26h3a1,1,0,0,1,1,1c0,1.82.87,4,5,4s5-2.18,5-4a1,1,0,0,1,1-1h3V12H32A1,1,0,0,1,31,11Z"/></svg>