<svg id="icon" xmlns="http://www.w3.org/2000/svg" viewBox="0 0 48 48"><defs><style>.cls-1{fill:#2ed9d6;}.cls-2{fill:#2b72ff;}</style></defs><title>Moon &amp;amp; Stars</title><path class="cls-1" d="M45.94,15.66A1,1,0,0,0,45,15H38.66L35.92,8.61a1,1,0,0,0-1.84,0L31.34,15H25a1,1,0,0,0-.64,1.77l5.5,4.58L28,27.73a1,1,0,0,0,1.52,1.11L35,25.2l5.45,3.63A1,1,0,0,0,42,27.73l-1.82-6.37,5.5-4.58A1,1,0,0,0,45.94,15.66Z"/><path class="cls-2" d="M42.29,33.29C39.72,35.86,36.24,37,31,37A15.83,15.83,0,0,1,15,21,16.27,16.27,0,0,1,31,5a1,1,0,0,0,.28-2A27.08,27.08,0,0,0,24,2a22,22,0,0,0,0,44c8.79,0,16.43-4.43,19.94-11.56a1,1,0,0,0-1.6-1.15Z"/></svg>