<svg id="icon" xmlns="http://www.w3.org/2000/svg" viewBox="0 0 48 48"><defs><style>.cls-1{fill:#2ed9d6;}.cls-2{fill:#2b72ff;}</style></defs><title>Parfume</title><path class="cls-1" d="M16.68,9.05l-6,2a1,1,0,1,0,.63,1.9l6-2a1,1,0,1,0-.63-1.9Z"/><path class="cls-1" d="M17.32,3.05l-6-2a1,1,0,1,0-.63,1.9l6,2a1,1,0,1,0,.63-1.9Z"/><path class="cls-1" d="M17,7a1,1,0,0,0-1-1H9A1,1,0,0,0,9,8h7A1,1,0,0,0,17,7Z"/><path class="cls-1" d="M25,24c-3.73,0-7,3.52-7,7.53C18,35.28,20.94,38,25,38s7-2.72,7-6.47C32,27.52,28.73,24,25,24Z"/><path class="cls-2" d="M30,14.71V12.55a.55.55,0,0,0-.55-.55h-8.9a.55.55,0,0,0-.55.55v2.16a18,18,0,0,1,10,0Z"/><path class="cls-2" d="M25,16A17.14,17.14,0,0,0,8,33.33,18.07,18.07,0,0,0,9.92,42a1.42,1.42,0,0,1,.2,0h0l10.36.06a1,1,0,0,1,1,1,1,1,0,0,1-1.07,1h0l-9.16,0a11,11,0,0,0,1.43,1.38,3.11,3.11,0,0,0,1.88.61H35.38a3.11,3.11,0,0,0,1.88-.61C40.36,43,42,38.81,42,33.33A17.14,17.14,0,0,0,25,16Zm0,24c-5.13,0-9-3.64-9-8.47C16,26.45,20.21,22,25,22s9,4.45,9,9.53C34,36.36,30.13,40,25,40Z"/><path class="cls-2" d="M28,4.94A.94.94,0,0,0,27.06,4H22.94a.94.94,0,0,0-.94.94V6a1,1,0,0,1,0,2v2h6Z"/></svg>