<svg id="icon" xmlns="http://www.w3.org/2000/svg" viewBox="0 0 48 48"><defs><style>.cls-1{fill:#2ed9d6;}.cls-2{fill:#2b72ff;}</style></defs><title>Prayer Rug</title><path class="cls-1" d="M31,34.06a1,1,0,0,1,1-1c.87,0,3-3.22,3-6.56s-2.13-5.56-3-5.56a1,1,0,0,1-1-1V16H19V37H31Z"/><path class="cls-2" d="M17,35V6a1,1,0,0,0-1-1H6A3,3,0,0,0,3,8V36a5,5,0,0,1,3-1Z"/><path class="cls-2" d="M44,18a1,1,0,0,0,0-2H40V12h4a1,1,0,0,0,0-2H19v4H32a1,1,0,0,1,1,1v4.14c2,.79,4,3.77,4,7.36s-2,7.57-4,8.36V38a1,1,0,0,1-1,1H19a3.24,3.24,0,0,1-3,2H12V39h4a1,1,0,0,0,0-2H6a3,3,0,0,0,0,6H44a1,1,0,0,0,0-2H40V38h4a1,1,0,0,0,0-2H40V33h4a1,1,0,0,0,0-2H40V28h4a1,1,0,0,0,0-2H40V23h4a1,1,0,0,0,0-2H40V18ZM10,41H6a1,1,0,0,1,0-2h4Z"/></svg>