<svg id="icon" xmlns="http://www.w3.org/2000/svg" viewBox="0 0 48 48"><defs><style>.cls-1{fill:#2b72ff;}.cls-2{fill:#2ed9d6;}</style></defs><title>Quran</title><path class="cls-1" d="M7,36.66V43.4a.59.59,0,0,0,.77.56L20,40ZM28,40l12.23,4A.59.59,0,0,0,41,43.4V36.66ZM45.39,9.21c-.86.28-2.33.77-2.39.77V31a1,1,0,0,1-1,1,32.4,32.4,0,0,0-17.27,4.71l0,0a1,1,0,0,1-1.35,0A33.3,33.3,0,0,0,6,32a1,1,0,0,1-1-1V10c-.06,0-1.53-.49-2.39-.77A.46.46,0,0,0,2,9.65V32.47a.7.7,0,0,0,.51.67L24,39l21.49-5.86a.7.7,0,0,0,.51-.67V9.65A.46.46,0,0,0,45.39,9.21Z"/><path class="cls-2" d="M25,11.12,25,34c2.27-1.5,8.83-3.81,16-4V7C31.91,7.24,25.9,10.21,25,11.12ZM38,27a27,27,0,0,0-9.13,2.83,1.34,1.34,0,0,1-.67.17,1.28,1.28,0,0,1-1-.45.9.9,0,0,1,.33-1.38A29,29,0,0,1,38,25a1,1,0,0,1,0,2Zm0-5a27,27,0,0,0-9.13,2.83,1.34,1.34,0,0,1-.67.17,1.28,1.28,0,0,1-1-.45.9.9,0,0,1,.33-1.38A29,29,0,0,1,38,20a1,1,0,0,1,0,2Zm0-5a27,27,0,0,0-9.13,2.83,1.34,1.34,0,0,1-.67.17,1.28,1.28,0,0,1-1-.45.9.9,0,0,1,.33-1.38A29,29,0,0,1,38,15a1,1,0,0,1,0,2Zm0-5a27,27,0,0,0-9.13,2.83,1.34,1.34,0,0,1-.67.17,1.28,1.28,0,0,1-1-.45.9.9,0,0,1,.33-1.38A29,29,0,0,1,38,10a.94.94,0,0,1,1,1A.94.94,0,0,1,38,12Z"/><path class="cls-2" d="M23,11.11C22,10.22,16.1,7.24,7,7V30c7.17.2,13.73,2.51,16,4ZM20.8,29.55a1.28,1.28,0,0,1-1,.45,1.34,1.34,0,0,1-.67-.17A27,27,0,0,0,10,27a1,1,0,0,1,0-2,29,29,0,0,1,10.47,3.17A.9.9,0,0,1,20.8,29.55Zm0-5a1.28,1.28,0,0,1-1,.45,1.34,1.34,0,0,1-.67-.17A27,27,0,0,0,10,22a1,1,0,0,1,0-2,29,29,0,0,1,10.47,3.17A.9.9,0,0,1,20.8,24.55Zm0-5a1.28,1.28,0,0,1-1,.45,1.34,1.34,0,0,1-.67-.17A27,27,0,0,0,10,17a1,1,0,0,1,0-2,29,29,0,0,1,10.47,3.17A.9.9,0,0,1,20.8,19.55Zm0-5a1.28,1.28,0,0,1-1,.45,1.34,1.34,0,0,1-.67-.17A27,27,0,0,0,10,12a.94.94,0,0,1-1-1,.94.94,0,0,1,1-1,29,29,0,0,1,10.47,3.17A.9.9,0,0,1,20.8,14.55Z"/></svg>