<svg id="icon" xmlns="http://www.w3.org/2000/svg" viewBox="0 0 48 48"><defs><style>.cls-1{fill:#2b72ff;}.cls-2{fill:#2ed9d6;}</style></defs><title>Rub Al Hizb</title><circle class="cls-1" cx="24" cy="24" r="2"/><path class="cls-1" d="M45.71,23.29,40,17.59V9a1,1,0,0,0-1-1H30.41l-5.7-5.71a1,1,0,0,0-1.42,0L17.59,8H9A1,1,0,0,0,8,9v8.59l-5.71,5.7a1,1,0,0,0,0,1.42L8,30.41V39a1,1,0,0,0,1,1h8.59l5.7,5.71a1,1,0,0,0,1.42,0L30.41,40H39a1,1,0,0,0,1-1V30.41l5.71-5.7A1,1,0,0,0,45.71,23.29Zm-8,1.42L34,28.41V33a1,1,0,0,1-1,1H28.41l-3.7,3.71a1,1,0,0,1-1.42,0L19.59,34H15a1,1,0,0,1-1-1V28.41l-3.71-3.7a1,1,0,0,1,0-1.42L14,19.59V15a1,1,0,0,1,1-1h4.59l3.7-3.71a1,1,0,0,1,1.42,0L28.41,14H33a1,1,0,0,1,1,1v4.59l3.71,3.7A1,1,0,0,1,37.71,24.71Z"/><path class="cls-2" d="M32.29,20.71A1,1,0,0,1,32,20V16H28a1,1,0,0,1-.71-.29L24,12.41l-3.29,3.3A1,1,0,0,1,20,16H16v4a1,1,0,0,1-.29.71L12.41,24l3.3,3.29A1,1,0,0,1,16,28v4h4a1,1,0,0,1,.71.29L24,35.59l3.29-3.3A1,1,0,0,1,28,32h4V28a1,1,0,0,1,.29-.71L35.59,24ZM24,28a4,4,0,1,1,4-4A4,4,0,0,1,24,28Z"/></svg>