<svg id="icon" xmlns="http://www.w3.org/2000/svg" viewBox="0 0 48 48"><defs><style>.cls-1{fill:#2b72ff;}.cls-2{fill:#2ed9d6;}</style></defs><title>Sorban</title><path class="cls-1" d="M41,14.41v-2c-.39-4.6-4.74-8-9.5-8H19a10.19,10.19,0,0,0-9,6c5,0,17.7.27,18.28.31A30.07,30.07,0,0,1,41,14.41Z"/><path class="cls-1" d="M4,20.18V30.62c3.71-.33,7.3-2.29,10.79-4.22a45.26,45.26,0,0,1,7.21-3c-6.9-1.93-15.76-4-17-4.27A1,1,0,0,0,4,20.18Z"/><path class="cls-1" d="M28.12,12.81C23.85,12.54,12,12.41,9,12.41c-1,0-1.22.82-1.54,1.79l-1,3.09c3.45.73,13.74,3,20,5a49.92,49.92,0,0,1,8.34,4.11A29.62,29.62,0,0,0,44,30.08l0-5.68C44,20.13,42.19,14,28.12,12.81Z"/><path class="cls-2" d="M40,44a7.42,7.42,0,0,1-3-6.44c0-3.27,0-6.47,0-7.47,1.12.55,4,1.62,4,1.62s0,3.51,0,5.67C41,41.6,44,43.29,44.4,44Z"/></svg>