<svg id="icon" xmlns="http://www.w3.org/2000/svg" viewBox="0 0 48 48"><defs><style>.cls-1{fill:#2b72ff;}.cls-2{fill:#2ed9d6;}</style></defs><title>Pedang</title><path class="cls-1" d="M45.08,4l-12,3.17c-.33,1.58-2,7.11-6.45,14A37.89,37.89,0,0,1,24,24.83a38.93,38.93,0,0,1-2.63-3.62A49.45,49.45,0,0,1,15,7.17L3,4c.79,3.44,6.5,16.16,16.8,25.37-.76.71-1.51,1.39-2.27,2-1.23,1-3.21,2.51-4.35,3.35L15.5,37.9a68.51,68.51,0,0,0,7.08-4,53.68,53.68,0,0,0,5.3-4.1C38.43,20.51,44.28,7.49,45.08,4Z"/><path class="cls-1" d="M29.71,30.67Q28,32.22,26.46,33.4c-.26.22-.51.41-.76.6a62.55,62.55,0,0,0,6.47,3.69l2.54-3c-1.14-.83-2.92-2.22-4.13-3.25Q30.15,31.06,29.71,30.67Z"/><circle class="cls-2" cx="6.41" cy="41.41" r="2.14"/><path class="cls-2" d="M16.6,37.3c-1.5-1.7-2.66-3.09-2.66-3.09a20.92,20.92,0,0,0-2.36-2,1,1,0,1,0-1.16,1.62,22.72,22.72,0,0,1,1.86,1.58C10.56,36.57,9.06,37.5,8,38.15a3.68,3.68,0,0,1,2,2.09l4.13-3a15.88,15.88,0,0,1,1.66,2.37A2,2,0,0,1,16,41a2.21,2.21,0,0,1-2.28,2H12a1,1,0,0,0,0,2h1.72A4.2,4.2,0,0,0,18,41a3.8,3.8,0,0,0-.53-2.32A16.1,16.1,0,0,0,16.6,37.3Z"/><circle class="cls-2" cx="41.57" cy="41.42" r="2.15"/><path class="cls-2" d="M35.79,35.39c1-1,1.85-1.56,1.86-1.58a1,1,0,1,0-1.16-1.62,20.92,20.92,0,0,0-2.36,2S33,35.6,31.47,37.3c-.3.44-.6.9-.87,1.38A3.87,3.87,0,0,0,30.07,41a4.2,4.2,0,0,0,4.28,4h1.72a1,1,0,0,0,0-2H34.35a2.21,2.21,0,0,1-2.28-2,1.92,1.92,0,0,1,.28-1.34A15.83,15.83,0,0,1,34,37.29l4.13,3a3.68,3.68,0,0,1,2-2.09C39,37.5,37.51,36.57,35.79,35.39Z"/></svg>