<svg id="icon" xmlns="http://www.w3.org/2000/svg" viewBox="0 0 48 48"><defs><style>.cls-1{fill:#2ed9d6;}.cls-2{fill:#2b72ff;}</style></defs><title>Tasbeeh</title><path class="cls-1" d="M24,33c-2.21,0-4,2.42-4,4v8a1,1,0,0,0,2,0V42h1v3a1,1,0,0,0,2,0V42h1v3a1,1,0,0,0,2,0V37C28,35.42,26.21,33,24,33Z"/><path class="cls-2" d="M10.1,24.64c.11,0,.21,0,.32,0l0-.05a4.2,4.2,0,1,0-4.28,1.24A6.93,6.93,0,0,1,10.1,24.64Z"/><path class="cls-2" d="M27.83,3.88a4,4,0,0,0-7.7.11A6.67,6.67,0,0,1,21.3,7.77c0,.09,0,.17,0,.26a4.14,4.14,0,0,0,5.37.08l.05,0c0-.1,0-.2,0-.31A6.66,6.66,0,0,1,27.87,4S27.84,3.91,27.83,3.88Z"/><path class="cls-2" d="M13.81,30.14a4,4,0,1,0-3.93,3.4,1.33,1.33,0,0,1,.52.1A6.7,6.7,0,0,1,13.81,30.14Z"/><path class="cls-2" d="M37.18,17s.06.05.09.08a6.32,6.32,0,0,1,4.68-.7,4,4,0,1,0-6.76-2.82A4,4,0,0,0,37.18,17Z"/><path class="cls-2" d="M32.08,12a4.09,4.09,0,0,0,2.37-.76,6.88,6.88,0,0,1,1.49-1.74,1.31,1.31,0,0,1,0-.26A4.13,4.13,0,1,0,32.08,12Z"/><path class="cls-2" d="M7.46,16.46a6.78,6.78,0,0,1,3.34.9s.05-.06.09-.08a4.12,4.12,0,1,0-6.18-3.57,4.08,4.08,0,0,0,1.23,2.93A6.82,6.82,0,0,1,7.46,16.46Z"/><path class="cls-2" d="M38.21,25.54a3.87,3.87,0,0,0-3.93,4.6,6.7,6.7,0,0,1,3.42,3.5,1.33,1.33,0,0,1,.52-.1,4,4,0,0,0,0-8Z"/><path class="cls-2" d="M40.69,17.66a4.19,4.19,0,0,0-3.14,7l0,.05c.11,0,.21,0,.32,0a6.93,6.93,0,0,1,3.93,1.22,4.18,4.18,0,0,0-1.14-8.2Z"/><circle class="cls-2" cx="32.75" cy="35.04" r="3.83"/><path class="cls-2" d="M15.83,3.71a4.13,4.13,0,0,0-3.89,5.5,1.3,1.3,0,0,1,0,.26,6.88,6.88,0,0,1,1.49,1.74,4.08,4.08,0,0,0,2.37.76,4.13,4.13,0,0,0,0-8.25Z"/><circle class="cls-2" cx="15.33" cy="35.04" r="3.83"/></svg>