<svg id="icon" xmlns="http://www.w3.org/2000/svg" viewBox="0 0 48 48"><defs><style>.cls-1{fill:#231f20;}</style></defs><title>Mosque Kubah</title><path class="cls-1" d="M45,35H42l1.91-3.52A1,1,0,0,0,43,30H42A19.19,19.19,0,0,0,29,11.79V11a5,5,0,0,0-4-4.9V3a1,1,0,0,0-2,0V6.1A5,5,0,0,0,19,11v.79A19.19,19.19,0,0,0,6,30H5a1,1,0,0,0-.88,1.48L6,35H3a1,1,0,0,0-.89,1.45L5,42.24V46a1,1,0,0,0,2,0V43H41v3a1,1,0,0,0,2,0V42.24l2.89-5.79A1,1,0,0,0,45,35ZM24,13a15.33,15.33,0,0,1,10.45,4.38,3.39,3.39,0,0,0-.87.62l-.59.59a1.42,1.42,0,0,1-2,0L30.41,18a3.42,3.42,0,0,0-4.83,0l-.59.59a1.42,1.42,0,0,1-2,0L22.41,18a3.42,3.42,0,0,0-4.83,0l-.59.59a1.42,1.42,0,0,1-2,0L14.41,18a3.39,3.39,0,0,0-.87-.61A15.34,15.34,0,0,1,24,13ZM12,19a1.42,1.42,0,0,1,1,.41l.59.59a3.42,3.42,0,0,0,4.83,0l.59-.59a1.41,1.41,0,0,1,2,0l.59.59a3.42,3.42,0,0,0,4.83,0l.59-.59a1.41,1.41,0,0,1,2,0l.59.59a3.41,3.41,0,0,0,4.83,0l.59-.59a1.41,1.41,0,0,1,.93-.41h0A17.85,17.85,0,0,1,38.89,24a4.2,4.2,0,0,0-3.3.89l-.7.59a2.25,2.25,0,0,1-2.76,0l-.7-.59a4.24,4.24,0,0,0-5.34,0l-.7.59a2.25,2.25,0,0,1-2.76,0l-.7-.59a4.24,4.24,0,0,0-5.34,0l-.7.59a2.25,2.25,0,0,1-2.76,0l-.7-.59a4.23,4.23,0,0,0-3.34-.88A17.85,17.85,0,0,1,12,19Zm9-8a3,3,0,0,1,6,0v.3a15.23,15.23,0,0,0-6,0ZM8.4,26.43a.94.94,0,0,0,.13-.06,2.28,2.28,0,0,1,2.63.1l.7.59a4.24,4.24,0,0,0,5.34,0l.7-.59a2.25,2.25,0,0,1,2.76,0l.7.59a4.24,4.24,0,0,0,5.34,0l.7-.59a2.25,2.25,0,0,1,2.76,0l.7.59a4.24,4.24,0,0,0,5.34,0l.7-.59a2.25,2.25,0,0,1,2.73,0A16.66,16.66,0,0,1,40,30H8A16.65,16.65,0,0,1,8.4,26.43ZM6.68,32H41.32l-1.63,3H8.31Zm34.7,9H6.62l-2-4H43.38Z"/></svg>