<svg id="icon" xmlns="http://www.w3.org/2000/svg" viewBox="0 0 48 48"><defs><style>.cls-1{fill:#2ed9d6;}.cls-2{fill:#2b72ff;}</style></defs><title>Bedug</title><path class="cls-1" d="M42.83,14.55a1,1,0,0,0-1.66-1.11A47.5,47.5,0,0,1,34.52,21a63.51,63.51,0,0,0-14-13.81,1,1,0,0,0-1.2,1.6C19.56,8.93,24,12.64,24,21a17.69,17.69,0,0,1-4.68,12.27.93.93,0,0,0-.07.1,1,1,0,0,0-.12.16,1,1,0,0,0-.07.18.8.8,0,0,0,0,.37,1,1,0,0,0,0,.19,1,1,0,0,0,.08.18.93.93,0,0,0,0,.12l0,0s0,.05,0,.07a1,1,0,0,0,.19.13,1,1,0,0,0,.12.08A1,1,0,0,0,20,35h0a1,1,0,0,0,.33-.06l.1,0,.14-.07A145.07,145.07,0,0,0,34.23,24a79.33,79.33,0,0,1,5.88,9.44,1,1,0,0,0,1.79-.89,79.26,79.26,0,0,0-6.17-9.94A50.25,50.25,0,0,0,42.83,14.55ZM24.09,29.77A20.85,20.85,0,0,0,26,21a21.24,21.24,0,0,0-1.51-8.13A69.81,69.81,0,0,1,33,22.37C29.91,25.21,26.64,27.83,24.09,29.77Z"/><path class="cls-2" d="M41.39,11.08C40.7,10.73,35.53,8.31,25.12,7A127.92,127.92,0,0,0,11,6h0C5.69,6,1,12.79,1,20.5,1,27.49,5,35,11,35H17.5l-6.3,8.4a1,1,0,1,0,1.6,1.2L19.21,36l6,8.52s.05,0,.08.07a1,1,0,0,0,.14.16l.1.05.1.05a1,1,0,0,0,.4.1h0a1,1,0,0,0,.39-.09l.09,0,.09,0a1,1,0,0,0,.14-.15s.06,0,.08-.07L33.21,36l6,8.52a1,1,0,1,0,1.64-1.15L34.71,34.7A56.39,56.39,0,0,0,41.2,34l.12,0C44.72,32.82,47,28,47,22,47,16.28,45,12.31,41.39,11.08ZM3,20.5C3,14,6.85,8,11,8h0c4.17,0,8,6,8,12.5S15.2,33,11,33,3,27.16,3,20.5ZM26,42.3,20.92,35H25c2.51,0,4.7-.05,6.6-.13ZM40.74,32c-.32.06-2,.34-5,.58l3-4a1,1,0,0,0-1.6-1.2l-4,5.39c-2.22.12-4.93.21-8.16.21H21.5l3.3-4.4a1,1,0,0,0-1.6-1.2L19,33H15.91c3-2.57,5.09-7.31,5.09-12.5s-2-9.7-4.89-12.31c2.36.14,5.38.38,8.76.8,10.56,1.32,15.62,3.87,15.67,3.9l.14.06c2.7.9,4.32,4.28,4.32,9.05C45,27,43.25,31.14,40.74,32Z"/></svg>