<svg id="icon" xmlns="http://www.w3.org/2000/svg" viewBox="0 0 48 48"><defs><style>.cls-1{fill:#2b72ff;}.cls-2{fill:#2ed9d6;}</style></defs><title>Panah</title><path class="cls-1" d="M37,44a1,1,0,0,1-.71-.29l-32-32a1,1,0,0,1,1.41-1.41l32,32A1,1,0,0,1,37,44Z"/><path class="cls-2" d="M11,38a1,1,0,0,1-.71-1.71l18-18a1,1,0,0,1,1.41,1.41l-18,18A1,1,0,0,1,11,38Z"/><path class="cls-2" d="M34,15a1,1,0,0,1-.71-1.71L37,9.55A1,1,0,0,1,38.45,11l-3.74,3.74A1,1,0,0,1,34,15Z"/><path class="cls-1" d="M37,44a1,1,0,0,1-.89-1.45A34.56,34.56,0,0,0,39,29a21.13,21.13,0,0,0-5.71-14.29,1,1,0,0,1,1.41-1.41A22.9,22.9,0,0,1,41,29c0,4-1,10.18-3.11,14.45A1,1,0,0,1,37,44Z"/><path class="cls-1" d="M39,45c-3.52,0-4-2.88-4-6,0-6.27,0-10.42-2-14.66A19.3,19.3,0,0,0,23.66,15C19.42,13,15.27,13,9,13c-3.12,0-6-.48-6-4A1,1,0,0,1,5,9c0,1,0,2,4,2,6.31,0,10.86,0,15.5,2.15A21.31,21.31,0,0,1,34.85,23.5C37,28.14,37,32.7,37,39c0,4,1,4,2,4a1,1,0,0,1,0,2Z"/><path class="cls-1" d="M34,15a1,1,0,0,1-.71-.29A21.13,21.13,0,0,0,19,9,34.56,34.56,0,0,0,5.45,11.89a1,1,0,1,1-.89-1.79C8.82,8,15,7,19,7a22.9,22.9,0,0,1,15.71,6.29A1,1,0,0,1,34,15Z"/><path class="cls-1" d="M40,13a1,1,0,0,1-.71-.29l-4-4a1,1,0,0,1,.31-1.63l7-3a1,1,0,0,1,1.31,1.31l-3,7a1,1,0,0,1-.73.59ZM37.75,8.34l1.91,1.91L41.1,6.9Z"/><path class="cls-1" d="M12,42a1,1,0,0,1-1-1V36a1,1,0,0,1,2,0v2.59l2-2V32a1,1,0,0,1,2,0v5a1,1,0,0,1-.29.71l-4,4A1,1,0,0,1,12,42Z"/><path class="cls-1" d="M12,37H7a1,1,0,0,1-.71-1.71l4-4A1,1,0,0,1,11,31h5a1,1,0,0,1,0,2H11.41l-2,2H12a1,1,0,0,1,0,2Z"/></svg>