<svg id="icon" xmlns="http://www.w3.org/2000/svg" viewBox="0 0 48 48"><defs><style>.cls-1{fill:#2b72ff;}.cls-2{fill:#2ed9d6;}</style></defs><title>Islamic Lantern</title><path class="cls-1" d="M25.33,47H21.67a4,4,0,0,1-4-4,1,1,0,0,1,1-1h9.67a1,1,0,0,1,1,1A4,4,0,0,1,25.33,47Zm-5.4-3a2,2,0,0,0,1.73,1h3.67a2,2,0,0,0,1.73-1Z"/><path class="cls-2" d="M28,36H20a1,1,0,0,1-1-1V23c0-2.63,2.52-4,5-4s5,1.37,5,4V35A1,1,0,0,1,28,36Zm-7-2h6V23c0-1.58-2-2-3-2s-3,.42-3,2Z"/><path class="cls-1" d="M29,5.59a5,5,0,0,0-9.92,0C14.67,6.78,13,9.54,13,12a1,1,0,0,0,2,0c0-2.31,2.36-5,9-5s9,2.69,9,5a1,1,0,0,0,2,0C35,9.54,33.33,6.78,29,5.59Zm-7.83-.42a3,3,0,0,1,5.74,0,23.07,23.07,0,0,0-5.74,0Z"/><path class="cls-2" d="M31,44H16a3,3,0,0,1,0-6H31a3,3,0,0,1,0,6ZM16,40a1,1,0,0,0,0,2H31a1,1,0,0,0,0-2Z"/><path class="cls-1" d="M37,34.78V16a1,1,0,0,0-1-1H32a1,1,0,0,0-1,1V34H17V16.4a1,1,0,0,0-.91-1.4H12a1,1,0,0,0-1,1V34.18A3,3,0,0,0,12,40H35a3,3,0,0,0,2-5.22ZM33,17h2V34H33ZM13,17h2V34H13ZM35,38H12a1,1,0,0,1,0-2H35a1,1,0,0,1,0,2Z"/><path class="cls-2" d="M35,17H12a3,3,0,0,1,0-6H35a3,3,0,0,1,0,6ZM12,13a1,1,0,0,0,0,2H35a1,1,0,0,0,0-2Z"/></svg>