<svg id="icon" xmlns="http://www.w3.org/2000/svg" viewBox="0 0 48 48"><defs><style>.cls-1{fill:#2ed9d6;}.cls-2{fill:#2b72ff;}</style></defs><title>Ketupat</title><path class="cls-1" d="M36.24,17.76a1,1,0,0,0-1.41,0L29.5,23.09l-4.73-4.73,5.35-5.06a1,1,0,1,0-1.37-1.45l-5.39,5.1-5.65-5.65a1,1,0,0,0-1.41,1.41l5.61,5.61-5.23,4.94-5.32-5.32a1,1,0,0,0-1.41,1.41l5.28,5.28-4.91,4.64a1,1,0,1,0,1.37,1.45L16.63,26l5,5-5.29,5.29a1,1,0,1,0,1.41,1.41L23,32.41l5.29,5.29a1,1,0,0,0,1.41-1.41L24.41,31l5.09-5.09,4.79,4.79a1,1,0,0,0,1.41-1.41L30.91,24.5l5.33-5.33A1,1,0,0,0,36.24,17.76ZM23,29.59l-4.91-4.91,5.23-4.94,4.77,4.77Z"/><path class="cls-2" d="M41,24.13A5.79,5.79,0,0,0,39.27,20l-11-11H33a4,4,0,0,0,0-8H31.43a10.56,10.56,0,0,0-6.29,2.1l-5.9,4.43a1,1,0,0,0-.17.19c-.06.06-.13.1-.19.16L6.73,20a5.82,5.82,0,0,0,0,8.24L16,37.52V46a1,1,0,0,0,1.55.83L20,45.2l2.45,1.63,0,0,0,0,.11,0,.11,0,.16,0h.21l.17,0,.09,0,.15-.07,0,0L26,45.2l2.45,1.63A1,1,0,0,0,30,46V37.52l9.27-9.27A5.78,5.78,0,0,0,41,24.13ZM26.34,4.7A8.56,8.56,0,0,1,31.43,3H33a2,2,0,0,1,0,4H26a5.79,5.79,0,0,0-1.77-.71ZM19.45,43.17l-1.45,1V39.52l.88.88A5.78,5.78,0,0,0,22,42v2.12l-1.45-1A1,1,0,0,0,19.45,43.17Zm8.55,1-1.45-1a1,1,0,0,0-1.11,0l-1.45,1V42a5.78,5.78,0,0,0,3.12-1.61l.88-.88Zm9.85-17.29L25.71,39a3.83,3.83,0,0,1-5.41,0l-2.37-2.37a1,1,0,0,0-.54-.54L8.15,26.84a3.83,3.83,0,0,1,0-5.41L20.29,9.28a3.83,3.83,0,0,1,5.41,0L37.85,21.43a3.83,3.83,0,0,1,0,5.41Z"/></svg>