<svg id="icon" xmlns="http://www.w3.org/2000/svg" viewBox="0 0 48 48"><defs><style>.cls-1{fill:#2b72ff;}.cls-2{fill:#2ed9d6;}</style></defs><title>Kiitab</title><path class="cls-1" d="M42,2H11a1,1,0,0,0-.71.29L9.55,3A4.38,4.38,0,0,0,6,7.5V40a.94.94,0,0,0,0,.16c0,.12,0,.22,0,.34A4.38,4.38,0,0,0,9.55,45l.74.74A1,1,0,0,0,11,46H42a1,1,0,0,0,1-1V3A1,1,0,0,0,42,2ZM38.5,40.5A3.49,3.49,0,0,1,41,37.16v6.67A3.49,3.49,0,0,1,38.5,40.5ZM10,5V27a1,1,0,0,0,2,0V4H41V35H11a1,1,0,0,0-.71.29L9.55,36A4,4,0,0,0,8,36.67V7.5A2.34,2.34,0,0,1,10,5Zm.71,38.29A1,1,0,0,0,10,43a2.56,2.56,0,0,1,0-5,1,1,0,0,0,.71-.29l.71-.71H37.76a5.49,5.49,0,0,0,0,7H11.41Z"/><path class="cls-2" d="M26,33c-5.35,0-6.64-3.11-6.92-5H16a1,1,0,0,1-1-1V12a1,1,0,0,1,1-1h3.12A6.81,6.81,0,0,1,26,6a6.81,6.81,0,0,1,6.88,5H36a1,1,0,0,1,1,1V27a1,1,0,0,1-1,1H32.92C32.64,29.89,31.35,33,26,33Zm-9-7h3a1,1,0,0,1,1,1c0,1.82.87,4,5,4s5-2.18,5-4a1,1,0,0,1,1-1h3V13H32a1,1,0,0,1-1-1,4.7,4.7,0,0,0-5-4,4.7,4.7,0,0,0-5,4,1,1,0,0,1-1,1H17Z"/></svg>