<svg id="icon" xmlns="http://www.w3.org/2000/svg" viewBox="0 0 48 48"><defs><style>.cls-1{fill:#2ed9d6;}.cls-2{fill:#2b72ff;}</style></defs><title>Prayer Rug</title><path class="cls-1" d="M32,38H19a1,1,0,0,1,0-2H31V33.06a1,1,0,0,1,1-1c.87,0,3-2.22,3-5.56s-2.13-5.56-3-5.56a1,1,0,0,1-1-1V17H19a1,1,0,0,1,0-2H32a1,1,0,0,1,1,1v3.14c2,.79,4,3.77,4,7.36s-2,6.57-4,7.36V37A1,1,0,0,1,32,38Z"/><path class="cls-2" d="M45,17a1,1,0,0,0,0-2H42V11h3a1,1,0,0,0,0-2H20V7a3,3,0,0,0-3-3H7A5,5,0,0,0,2,9V39a5,5,0,0,0,5,5H45a1,1,0,0,0,0-2H42V38h3a1,1,0,0,0,0-2H42V32h3a1,1,0,0,0,0-2H42V27h3a1,1,0,0,0,0-2H42V22h3a1,1,0,0,0,0-2H42V17ZM4,9A3,3,0,0,1,7,6H17a1,1,0,0,1,1,1V34.18A3,3,0,0,0,17,34H7a5,5,0,0,0-3,1ZM18,37a1,1,0,0,1-1,1H12V36h5A1,1,0,0,1,18,37Zm22,5H7a3,3,0,0,1,0-6h3v2H7a1,1,0,0,0,0,2H17a3,3,0,0,0,3-3V11H40Z"/></svg>