<svg id="icon" xmlns="http://www.w3.org/2000/svg" viewBox="0 0 48 48"><defs><style>.cls-1{fill:#2ed9d6;}.cls-2{fill:#2b72ff;}</style></defs><title>Quran</title><path class="cls-1" d="M20,15a1,1,0,0,1-.55-.17C16.59,12.93,14.15,12,12,12a1,1,0,0,1,0-2c2.56,0,5.36,1,8.55,3.17A1,1,0,0,1,20,15Z"/><path class="cls-1" d="M20,20a1,1,0,0,1-.55-.17A14.86,14.86,0,0,0,12,17a1,1,0,0,1,0-2c2.38,0,5.58,1.18,8.55,3.17A1,1,0,0,1,20,20Z"/><path class="cls-1" d="M20,25a1,1,0,0,1-.55-.17A14.86,14.86,0,0,0,12,22a1,1,0,0,1,0-2c2.38,0,5.58,1.18,8.55,3.17A1,1,0,0,1,20,25Z"/><path class="cls-1" d="M20,30a1,1,0,0,1-.55-.17A19.47,19.47,0,0,0,12,27a1,1,0,0,1,0-2,20.74,20.74,0,0,1,8.55,3.17A1,1,0,0,1,20,30Z"/><path class="cls-1" d="M28,15a1,1,0,0,1-.56-1.83C30.64,11,33.44,10,36,10a1,1,0,0,1,0,2c-2.15,0-4.59.93-7.45,2.83A1,1,0,0,1,28,15Z"/><path class="cls-1" d="M28,20a1,1,0,0,1-.56-1.83c3-2,6.17-3.17,8.55-3.17a1,1,0,0,1,0,2,14.86,14.86,0,0,0-7.45,2.83A1,1,0,0,1,28,20Z"/><path class="cls-1" d="M28,25a1,1,0,0,1-.56-1.83c3-2,6.17-3.17,8.55-3.17a1,1,0,0,1,0,2,14.86,14.86,0,0,0-7.45,2.83A1,1,0,0,1,28,25Z"/><path class="cls-1" d="M28,30a1,1,0,0,1-.56-1.83A20.74,20.74,0,0,1,36,25a1,1,0,0,1,0,2,19.47,19.47,0,0,0-7.45,2.83A1,1,0,0,1,28,30Z"/><path class="cls-2" d="M45.62,7.21A1,1,0,0,0,44.76,7L41,8V6a1,1,0,0,0-1-1C30.4,5,25.7,8.11,24,9.6,22.3,8.11,17.6,5,8,5A1,1,0,0,0,7,6V8L3.24,7A1,1,0,0,0,2,8V34a1,1,0,0,0,.74,1L7,36.12V44a1,1,0,0,0,1,1,1,1,0,0,0,.26,0L24,40.71,39.74,45a1,1,0,0,0,.87-.17A1,1,0,0,0,41,44V36.12L45.26,35A1,1,0,0,0,46,34V8A1,1,0,0,0,45.62,7.21ZM25,11.4c.94-.91,4.91-4.16,14-4.39V30c-7.17.19-11.73,2.45-14,3.95ZM9,7c9.1.23,13.07,3.49,14,4.38V34c-2.27-1.5-6.83-3.76-14-3.95ZM9,42.69v-6l11.17,3Zm30,0-11.17-3,11.17-3Zm5-9.46L24,38.64,4,33.23v-24L6.76,10A1,1,0,0,0,7,10V31a1,1,0,0,0,1,1c10.36,0,15.21,4.63,15.29,4.71l0,0a1,1,0,0,0,.29.19h0a1,1,0,0,0,.76,0h0a1,1,0,0,0,.29-.2l0,0S29.54,32,40,32a1,1,0,0,0,1-1V10a1,1,0,0,0,.24,0L44,9.28Z"/></svg>