<svg id="icon" xmlns="http://www.w3.org/2000/svg" viewBox="0 0 48 48"><defs><style>.cls-1{fill:#2b72ff;}.cls-2{fill:#2ed9d6;}</style></defs><title>Rub Al Hizb</title><path class="cls-1" d="M24,46a1,1,0,0,1-.71-.29L17.59,40H9a1,1,0,0,1-1-1V30.41L2.29,24.71a1,1,0,0,1,0-1.41L8,17.59V9A1,1,0,0,1,9,8h8.59l5.71-5.71a1,1,0,0,1,1.41,0L30.41,8H39a1,1,0,0,1,1,1v8.59l5.71,5.71a1,1,0,0,1,0,1.41L40,30.41V39a1,1,0,0,1-1,1H30.41l-5.71,5.71A1,1,0,0,1,24,46ZM10,38h8a1,1,0,0,1,.71.29L24,43.59l5.29-5.29A1,1,0,0,1,30,38h8V30a1,1,0,0,1,.29-.71L43.59,24l-5.29-5.29A1,1,0,0,1,38,18V10H30a1,1,0,0,1-.71-.29L24,4.41,18.71,9.71A1,1,0,0,1,18,10H10v8a1,1,0,0,1-.29.71L4.41,24l5.29,5.29A1,1,0,0,1,10,30Z"/><path class="cls-2" d="M24,38a1,1,0,0,1-.71-.29L19.59,34H15a1,1,0,0,1-1-1V28.41l-3.71-3.71a1,1,0,0,1,0-1.41L14,19.59V15a1,1,0,0,1,1-1h4.59l3.71-3.71a1,1,0,0,1,1.41,0L28.41,14H33a1,1,0,0,1,1,1v4.59l3.71,3.71a1,1,0,0,1,0,1.41L34,28.41V33a1,1,0,0,1-1,1H28.41l-3.71,3.71A1,1,0,0,1,24,38Zm-8-6h4a1,1,0,0,1,.71.29L24,35.59l3.29-3.29A1,1,0,0,1,28,32h4V28a1,1,0,0,1,.29-.71L35.59,24l-3.29-3.29A1,1,0,0,1,32,20V16H28a1,1,0,0,1-.71-.29L24,12.41l-3.29,3.29A1,1,0,0,1,20,16H16v4a1,1,0,0,1-.29.71L12.41,24l3.29,3.29A1,1,0,0,1,16,28Z"/><path class="cls-1" d="M24,28a4,4,0,1,1,4-4A4,4,0,0,1,24,28Zm0-6a2,2,0,1,0,2,2A2,2,0,0,0,24,22Z"/></svg>