<svg id="icon" xmlns="http://www.w3.org/2000/svg" viewBox="0 0 48 48"><defs><style>.cls-1{fill:#2b72ff;}.cls-2{fill:#2ed9d6;}</style></defs><title>Pedang</title><path class="cls-1" d="M41.5,38l-.2,0a68.05,68.05,0,0,1-11.51-8.38C43.68,17.42,44.95,5.59,45,5.09A1,1,0,0,0,43.74,4l-11,3a1,1,0,0,0-.73.85s-.56,4.27-5.85,12.58c-.66,1-1.39,2-2.15,3-.79-1-1.53-2-2.17-3C16.56,12.15,16,7.93,16,7.89A1,1,0,0,0,15.26,7l-11-3A1,1,0,0,0,3,5.09c0,.5,1.32,12.32,15.21,24.54A68.31,68.31,0,0,1,6.7,38l-.2,0a3.5,3.5,0,1,0,3.28,4.68l5.77-3.85a1,1,0,0,0-1.11-1.66L9.77,40.28A3.5,3.5,0,0,0,9,39c3.66-2.2,13.15-8.48,18.88-17.48,4.41-6.93,5.68-11.16,6-12.74l8.86-2.42C41.92,9.87,38.9,19,28.34,28.25c-7.77,6.8-11.75,8.84-11.79,8.86a1,1,0,0,0,.9,1.79A46.22,46.22,0,0,0,24,34.43a46.24,46.24,0,0,0,6.55,4.46,1,1,0,0,0,.9-1.79,45.21,45.21,0,0,1-5.83-4c.82-.66,1.7-1.39,2.64-2.19A70.29,70.29,0,0,0,39,39a3.51,3.51,0,0,0-.81,1.27l-4.68-3.12a1,1,0,1,0-1.11,1.66l5.77,3.85A3.49,3.49,0,1,0,41.5,38Zm-35,5A1.5,1.5,0,1,1,8,41.5,1.5,1.5,0,0,1,6.5,43ZM19.67,28.27l0,0C9.1,19,6.08,9.87,5.27,6.38L14.13,8.8c.35,1.57,1.62,5.81,6,12.74a40.61,40.61,0,0,0,2.55,3.52C21.73,26.19,20.71,27.26,19.67,28.27ZM41.5,43A1.5,1.5,0,1,1,43,41.5,1.5,1.5,0,0,1,41.5,43Z"/><path class="cls-2" d="M13.72,45H12a1,1,0,0,1,0-2h1.72A2.21,2.21,0,0,0,16,41a1.94,1.94,0,0,0-.27-1.34,20.9,20.9,0,0,0-5.31-5.85,1,1,0,1,1,1.16-1.63,22.69,22.69,0,0,1,5.89,6.49A3.82,3.82,0,0,1,18,41,4.2,4.2,0,0,1,13.72,45Z"/><path class="cls-2" d="M36,45H34.28A4.2,4.2,0,0,1,30,41a3.82,3.82,0,0,1,.53-2.32,22.7,22.7,0,0,1,5.89-6.49,1,1,0,0,1,1.16,1.63,21,21,0,0,0-5.31,5.85A1.94,1.94,0,0,0,32,41a2.21,2.21,0,0,0,2.28,2H36a1,1,0,0,1,0,2Z"/></svg>