<svg id="icon" xmlns="http://www.w3.org/2000/svg" viewBox="0 0 48 48"><defs><style>.cls-1{fill:#2b72ff;}.cls-2{fill:#2ed9d6;}</style></defs><title>Tasbeeh</title><path class="cls-1" d="M43,22a5,5,0,0,0-2-4,4.94,4.94,0,0,0,1-3,5,5,0,0,0-6-4.9s0-.07,0-.1a5,5,0,0,0-5-5,5,5,0,0,0-2.55.72,5,5,0,0,0-8.89,0A5,5,0,0,0,17,5a5,5,0,0,0-5,5s0,.07,0,.1A5,5,0,0,0,6,15a4.94,4.94,0,0,0,1,3,5,5,0,0,0,.71,8.43A5,5,0,0,0,7,29a5,5,0,0,0,5,5,5,5,0,1,0,5-5,5,5,0,0,0-2.72-4.42A4.95,4.95,0,0,0,14,19a5,5,0,0,0,2-4s0-.08,0-.11a4.89,4.89,0,0,0,5.45-2.62,4.91,4.91,0,0,0,5.14,0A4.89,4.89,0,0,0,32,14.89S32,15,32,15a5,5,0,0,0,2,4,4.95,4.95,0,0,0-.3,5.57A5,5,0,0,0,31,29a5,5,0,1,0,5,5,5,5,0,0,0,5-5,5,5,0,0,0-.73-2.56A5,5,0,0,0,43,22ZM20,34a3,3,0,1,1-3-3A3,3,0,0,1,20,34Zm-5.05-4.55a5,5,0,0,0-2.56,2.63A1,1,0,0,0,12,32a3.12,3.12,0,1,1,2.95-2.55ZM12,24a5,5,0,0,0-2.82.88A3,3,0,1,1,12.25,24l0,0Zm.5-6.4-.07.06a4.78,4.78,0,0,0-3.54-.53A3,3,0,0,1,8,15a3,3,0,1,1,4.5,2.6ZM17,13a3,3,0,0,1-1.72-.55,5,5,0,0,0-1.08-1.26,1,1,0,0,0,0-.19A3,3,0,1,1,17,13Zm9-2.75a3.09,3.09,0,0,1-4-.06c0-.07,0-.13,0-.19a5,5,0,0,0-.88-2.82,3,3,0,0,1,5.74-.08l0,.06A5,5,0,0,0,26,10c0,.08,0,.15,0,.23ZM31,13a3,3,0,1,1,2.83-2,1,1,0,0,0,0,.19,5,5,0,0,0-1.08,1.26A3,3,0,0,1,31,13Zm6-1a3,3,0,0,1,2.11,5.13,4.78,4.78,0,0,0-3.54.53l-.07-.06A3,3,0,0,1,37,12ZM31,37a3,3,0,1,1,3-3A3,3,0,0,1,31,37Zm5-5a1,1,0,0,0-.39.08,5,5,0,0,0-2.56-2.63A3,3,0,1,1,36,32Zm2.82-7.13A5,5,0,0,0,36,24l-.23,0,0,0a3,3,0,1,1,3.07.89Z"/><path class="cls-2" d="M24,32a4,4,0,0,0-4,4V46a1,1,0,0,0,2,0V43h1v3a1,1,0,0,0,2,0V43h1v3a1,1,0,0,0,2,0V36A4,4,0,0,0,24,32Zm-2,4a2,2,0,0,1,4,0v5H22Z"/></svg>